<?xml version="1.0" encoding="UTF-8"?>
<svg version="1.1" xmlns="http://www.w3.org/2000/svg" width="793" height="793">
<path d="M0 0 C261.69 0 523.38 0 793 0 C793 261.69 793 523.38 793 793 C531.31 793 269.62 793 0 793 C0 531.31 0 269.62 0 0 Z " fill="#F0F0F0" transform="translate(0,0)"/>
<path d="M0 0 C2.625 0.25 2.625 0.25 4.22119141 1.50219727 C11.62182208 10.71630422 9.68454365 33.26154869 10.47094727 44.96282959 C10.57173447 46.45918417 10.67561432 47.95533445 10.78295898 49.45123291 C12.34505135 71.48985682 9.29565151 88.02148124 -0.375 108.25 C-1.56449352 110.84859611 -2.73430635 113.45595223 -3.90625 116.0625 C-7.27811138 123.51668685 -10.79131541 130.89529183 -14.375 138.25 C-15.05272461 139.64653809 -15.05272461 139.64653809 -15.74414062 141.07128906 C-23.54185581 156.97985602 -32.65361757 165.76772604 -47.375 175.25 C-48.11186035 175.72840332 -48.8487207 176.20680664 -49.60791016 176.69970703 C-58.85743712 182.68917123 -68.25535784 188.40834177 -77.75 194 C-79.14641724 194.82274414 -79.14641724 194.82274414 -80.57104492 195.66210938 C-87.4994575 199.74019045 -87.4994575 199.74019045 -90.49658203 201.48535156 C-102.04960044 208.22436664 -107.14970171 212.79940343 -113.375 225.25 C-113.705 235.48 -114.035 245.71 -114.375 256.25 C-137.475 256.25 -160.575 256.25 -184.375 256.25 C-184.705 246.02 -185.035 235.79 -185.375 225.25 C-185.705 223.27 -186.035 221.29 -186.375 219.25 C-188.07387754 196.21807452 -179.59577207 176.29190004 -164.79931641 158.86914062 C-145.54387005 136.97985022 -123.63187313 127.72843359 -94.7355957 125.58935547 C-83.70226995 124.5507718 -76.4882569 118.40617803 -69.375 110.25 C-67.79622359 108.19759067 -66.23509737 106.13796004 -64.6875 104.0625 C-54.749487 90.79304916 -40.09263752 74.41038716 -22.8203125 71.875 C-18.90338659 71.77226096 -15.61053164 71.83907469 -12.375 74.25 C-11.30078125 76.88671875 -11.30078125 76.88671875 -11.375 80.25 C-12.74939322 83.12217917 -14.62638912 85.54546823 -16.5625 88.0625 C-17.67771156 89.5711504 -18.79227649 91.08027896 -19.90625 92.58984375 C-20.48246094 93.35925293 -21.05867187 94.12866211 -21.65234375 94.92138672 C-23.84956096 97.89149128 -25.95382902 100.92073597 -28.05810547 103.95703125 C-32.63489267 110.55259605 -37.35849655 116.91012533 -42.53515625 123.05078125 C-44.22393718 125.06943022 -45.81726396 127.12934377 -47.375 129.25 C-39.87164713 124.35012366 -34.92281494 119.91259445 -30.375 112.25 C-25.06861547 104.21553471 -19.40716967 96.60753015 -13.27294922 89.18701172 C-9.42833598 84.49670941 -7.95538078 81.35797621 -8.0234375 75.1875 C-8.25110271 72.94716866 -8.25110271 72.94716866 -10.625 70.8125 C-13.01678568 69.45353086 -14.74173854 68.82954259 -17.375 68.25 C-16.80569122 57.69671862 -15.98073221 47.19777981 -14.81030273 36.69360352 C-14.64419199 35.18125927 -14.48442701 33.66820541 -14.33081055 32.15454102 C-12.04315231 9.61857087 -12.04315231 9.61857087 -5.6875 3.125 C-4.5428125 2.196875 -4.5428125 2.196875 -3.375 1.25 C-2.375 0.25 -2.375 0.25 0 0 Z " fill="#010101" transform="translate(592.375,282.75)"/>
<path d="M0 0 C4.08721614 1.30790916 5.51337537 2.56365181 8.125 6 C11.37110121 13.15876049 12.87015959 20.18138754 13.609375 27.9609375 C13.71469543 28.95453278 13.82001587 29.94812805 13.92852783 30.97183228 C14.2571375 34.10502775 14.56607377 37.23980969 14.875 40.375 C15.09642778 42.49882635 15.31907405 44.62252604 15.54296875 46.74609375 C15.94551485 50.62479553 16.34717942 54.50352461 16.72949219 58.38427734 C16.80625183 59.15718109 16.88301147 59.93008484 16.96209717 60.72640991 C17.13633222 63.15816062 17.1522413 65.56284534 17.125 68 C16.01125 68.45375 14.8975 68.9075 13.75 69.375 C10.16300992 70.72465986 10.16300992 70.72465986 8.125 73 C7.16029731 79.07762693 7.82356278 82.19154588 11.4375 87.1875 C12.97804971 89.14249849 14.54261285 91.07870788 16.125 93 C17.96920473 95.28307533 19.7987487 97.57754992 21.625 99.875 C22.09574951 100.46120117 22.56649902 101.04740234 23.05151367 101.65136719 C26.16348678 105.58647956 28.74479341 109.59081685 31.25 113.9375 C35.1103857 120.45637812 39.80150339 125.55883446 47.125 128 C46.67511719 127.608125 46.22523438 127.21625 45.76171875 126.8125 C39.85770832 121.32259852 35.59720635 115.10352707 31.140625 108.453125 C27.41653153 102.90417614 23.47679819 97.51493855 19.5402832 92.11572266 C18.06103194 90.0824145 16.59042028 88.04329209 15.125 86 C14.70790771 85.42572266 14.29081543 84.85144531 13.86108398 84.25976562 C11.90585555 81.47922543 11.12963046 80.24078386 11.0625 76.75 C12.125 74 12.125 74 14.25 72.625 C23.68324851 70.5742938 31.1459871 73.86530733 39.109375 78.87890625 C50.19136427 86.83858902 59.53809663 96.5356554 67.65966797 107.45581055 C71.09083664 112.05115091 74.74574554 116.28453017 79.125 120 C79.91132813 120.68835938 80.69765625 121.37671875 81.5078125 122.0859375 C86.54251395 125.35205078 92.93901859 125.3840451 98.75 126.0625 C122.10346961 128.91625909 139.86047667 134.71707164 157.125 151 C157.73085938 151.54140625 158.33671875 152.0828125 158.9609375 152.640625 C172.29267096 165.03350399 185.51299656 186.58241435 186.39453125 205.046875 C186.5384256 212.13040156 185.90936766 218.94069102 185.125 226 C184.795 235.9 184.465 245.8 184.125 256 C161.025 256 137.925 256 114.125 256 C113.795 245.77 113.465 235.54 113.125 225 C107.10173093 212.95346185 102.03019535 207.49716687 90.4375 201.3125 C88.55951991 200.27255572 86.68326255 199.22949537 84.80859375 198.18359375 C83.85968262 197.65620605 82.91077148 197.12881836 81.93310547 196.58544922 C73.8258962 192.00813945 65.96827208 187.01194769 58.125 182 C57.57362366 181.64836792 57.02224731 181.29673584 56.4541626 180.93444824 C52.82523073 178.61728052 49.21003959 176.28028106 45.60772705 173.92193604 C44.42998735 173.1530998 43.24952104 172.38842084 42.06610107 171.62835693 C30.29435257 164.05144461 23.18065137 156.23430013 16.9375 143.75 C16.3906958 142.67588867 15.8438916 141.60177734 15.28051758 140.49511719 C9.30342863 128.6074936 3.81546308 116.51820433 -1.4296875 104.29296875 C-2.71024103 101.37538328 -4.06694794 98.51680233 -5.46875 95.65625 C-16.35387685 72.3707241 -14.34118089 27.30880582 -5.875 3 C-3.82251972 0.39270752 -3.4283823 0 0 0 Z " fill="#010101" transform="translate(200.875,283)"/>
<path d="M0 0 C0.98681997 0.95045068 1.9507183 1.92612792 2.875 2.9375 C3.57625 3.618125 4.2775 4.29875 5 5 C8.46079886 4.68986731 10.05448714 3.21674238 12.4375 0.8125 C23.45098534 -9.2468981 35.88864771 -10.52212003 50 -10 C60.14398329 -8.99548217 70.09861672 -3.03157669 76.95703125 4.2890625 C85.88753248 16.13947905 88.23533785 28.45297803 87 43 C83.25561205 66.86590368 62.60579735 88.59788045 44.7578125 103.49609375 C42.90495681 105.08131473 41.20662975 106.75893153 39.5 108.5 C36.55686847 111.48942798 33.47385511 114.24649898 30.30078125 116.98828125 C27.50132055 119.43602702 24.74551072 121.92966803 22 124.4375 C21.48542236 124.90542969 20.97084473 125.37335938 20.44067383 125.85546875 C16.67029644 129.31089814 13.13412695 132.92952525 9.71875 136.734375 C8 138 8 138 6.11816406 137.78857422 C3.54643476 136.83114157 2.2922712 135.62023059 0.390625 133.6484375 C-0.28226562 132.96136719 -0.95515625 132.27429688 -1.6484375 131.56640625 C-2.34195313 130.84324219 -3.03546875 130.12007812 -3.75 129.375 C-8.96863355 123.98770339 -14.27459138 118.85032108 -20 114 C-18.70754653 110.67817752 -17.29832029 107.46617637 -15.72265625 104.26953125 C-15.07586914 102.94018555 -15.07586914 102.94018555 -14.41601562 101.58398438 C-13.52212299 99.75363279 -12.62376651 97.92545369 -11.72070312 96.09960938 C-6.26710867 84.84293527 -2.04744913 73.07752342 -6.1015625 60.61328125 C-9.50224945 53.22087887 -12.94486029 49.40269843 -20.29296875 45.91015625 C-26.36074611 43.87005218 -33.68757971 43.85648258 -39.73828125 45.9453125 C-45.68908516 49.12574215 -50.12639874 53.49540873 -54 59 C-54.56847656 58.86722656 -55.13695312 58.73445313 -55.72265625 58.59765625 C-60.47151097 57.5115242 -65.16780324 56.61687618 -70 56 C-74.88537198 43.85199915 -76.75119628 29.77915068 -71.875 17.3125 C-65.64123207 4.79272587 -56.30143848 -4.30418914 -43 -9 C-27.71199792 -12.95510502 -12.5956499 -9.09299219 0 0 Z " fill="#010101" transform="translate(390,264)"/>
<path d="M0 0 C5.51027422 3.25554823 9.54955802 7.92726162 12.125 13.75 C15.44541498 35.88609989 2.08885068 55.79652986 -8.52734375 74.3671875 C-9.49107743 76.05846631 -10.44195918 77.75891836 -11.3125 79.5 C-19.46003261 77.00018886 -27.11528789 73.19860005 -34.84033203 69.63867188 C-36.35736767 68.93993059 -37.87618216 68.24501664 -39.39794922 67.55664062 C-52.1569124 61.7622349 -64.37066701 54.77171714 -70.3125 41.5 C-72.40600907 35.21947278 -72.03241316 29.28309596 -69.3125 23.25 C-65.99072458 17.26515816 -61.52015748 14.03409706 -55.4375 11.125 C-46.74992375 9.38748475 -40.263482 10.71059581 -32.3125 14.5 C-32.168125 13.675 -32.02375 12.85 -31.875 12 C-29.33424422 6.30870705 -24.45577337 2.06658319 -18.8828125 -0.7109375 C-12.86953223 -2.55695971 -5.80200991 -2.56104344 0 0 Z " fill="#020202" transform="translate(370.3125,312.5)"/>
<path d="M0 0 C1.75 1 1.75 1 3 3 C3.68097876 5.75205466 3.86313837 8.12590583 4 11 C3.34 11.66 2.68 12.32 2 13 C1.3574765 15.06874034 1.3574765 15.06874034 1 17 C-0.32 17.33 -1.64 17.66 -3 18 C-2.67 18.66 -2.34 19.32 -2 20 C-3.28062485 21.7074998 -4.61767557 23.37373596 -6 25 C-6.66 25 -7.32 25 -8 25 C-8.66 26.32 -9.32 27.64 -10 29 C-11.98 29 -13.96 29 -16 29 C-14.21473272 7.52350109 -14.21473272 7.52350109 -6.99609375 1.26171875 C-4.43651001 -0.3561786 -2.97626413 -0.45788679 0 0 Z " fill="#080808" transform="translate(595,283)"/>
<path d="M0 0 C0.66 0.33 1.32 0.66 2 1 C2 1.99 2 2.98 2 4 C3.32 4 4.64 4 6 4 C6 4.66 6 5.32 6 6 C4.35 6 2.7 6 1 6 C1.226875 6.598125 1.45375 7.19625 1.6875 7.8125 C2 10 2 10 0.8125 11.75 C-1 13 -1 13 -5 13 C-5.99 15.31 -6.98 17.62 -8 20 C-8.66 20 -9.32 20 -10 20 C-10.2475 20.5775 -10.495 21.155 -10.75 21.75 C-12.19393699 24.34908658 -13.73521987 26.07836838 -16 28 C-16.99 28 -17.98 28 -19 28 C-19 27.34 -19 26.68 -19 26 C-19.66 26 -20.32 26 -21 26 C-21 26.66 -21 27.32 -21 28 C-20.34 28.33 -19.68 28.66 -19 29 C-19.33 29.99 -19.66 30.98 -20 32 C-21.32 32 -22.64 32 -24 32 C-24 33.32 -24 34.64 -24 36 C-25.32 36 -26.64 36 -28 36 C-28 37.32 -28 38.64 -28 40 C-28.99 40 -29.98 40 -31 40 C-31 39.34 -31 38.68 -31 38 C-31.66 38 -32.32 38 -33 38 C-33.33 36.68 -33.66 35.36 -34 34 C-32.68 33.34 -31.36 32.68 -30 32 C-30 31.34 -30 30.68 -30 30 C-29.34 30 -28.68 30 -28 30 C-27.7525 29.360625 -27.505 28.72125 -27.25 28.0625 C-26 26 -26 26 -23.875 25.25 C-22.946875 25.12625 -22.946875 25.12625 -22 25 C-21.938125 24.443125 -21.87625 23.88625 -21.8125 23.3125 C-20.6519231 20.00931958 -18.59786554 18.28105267 -16 16 C-15.34 16 -14.68 16 -14 16 C-14 15.34 -14 14.68 -14 14 C-13.34 14 -12.68 14 -12 14 C-11.731875 13.360625 -11.46375 12.72125 -11.1875 12.0625 C-10 10 -10 10 -7 9 C-6.67 8.01 -6.34 7.02 -6 6 C-5.34 6 -4.68 6 -4 6 C-4 5.34 -4 4.68 -4 4 C-3.01 4 -2.02 4 -1 4 C-0.67 2.68 -0.34 1.36 0 0 Z " fill="#121212" transform="translate(361,324)"/>
<path d="M0 0 C1.97599374 0.96713705 3.69170952 1.95520619 5.47265625 3.24609375 C6.30023438 3.84164063 7.1278125 4.4371875 7.98046875 5.05078125 C13.17383438 9.62550144 15.96685284 15.89562151 16.9921875 22.6875 C17.32702671 33.78679975 14.29731114 44.78102956 8.47265625 54.24609375 C6.34765625 54.94921875 6.34765625 54.94921875 4.47265625 55.24609375 C5.73376418 51.29135723 7.19878478 47.4738538 8.78344727 43.63867188 C12.40370552 34.66781305 14.3579255 26.47523505 11.34765625 16.93359375 C8.9017447 11.447437 5.43852357 7.46493149 0.34765625 4.30859375 C-6.00865254 2.05358398 -13.73002011 2.06007343 -19.90234375 4.80859375 C-24.48135836 7.47570247 -28.15897105 11.50934835 -30.52734375 16.24609375 C-31.84734375 15.58609375 -33.16734375 14.92609375 -34.52734375 14.24609375 C-26.98215391 2.16152141 -14.18626324 -4.23176013 0 0 Z " fill="#E6E6E6" transform="translate(369.52734375,308.75390625)"/>
<path d="M0 0 C0.2475 0.639375 0.495 1.27875 0.75 1.9375 C1.81562433 4.18741541 1.81562433 4.18741541 4.125 4.75 C4.74375 4.8325 5.3625 4.915 6 5 C4.35 5.33 2.7 5.66 1 6 C1.226875 6.598125 1.45375 7.19625 1.6875 7.8125 C1.790625 8.534375 1.89375 9.25625 2 10 C0.5625 11.75 0.5625 11.75 -1 13 C-0.34 13.33 0.32 13.66 1 14 C-1.22951749 16.37432028 -3.486592 18.72050145 -5.75 21.0625 C-6.70132812 22.07666992 -6.70132812 22.07666992 -7.671875 23.11132812 C-8.290625 23.74619141 -8.909375 24.38105469 -9.546875 25.03515625 C-10.11245117 25.6269165 -10.67802734 26.21867676 -11.26074219 26.82836914 C-13 28 -13 28 -15.12304688 27.7734375 C-18.40728628 26.42009848 -19.87343662 23.77634663 -22 21 C-21.48050781 20.55269531 -20.96101563 20.10539062 -20.42578125 19.64453125 C-15.64019924 15.49728023 -15.64019924 15.49728023 -11.125 11.0625 C-9 9 -9 9 -7 9 C-6.7525 8.360625 -6.505 7.72125 -6.25 7.0625 C-5 5 -5 5 -2.875 4.25 C-2.25625 4.1675 -1.6375 4.085 -1 4 C-0.67 2.68 -0.34 1.36 0 0 Z " fill="#101010" transform="translate(411,374)"/>
<path d="M0 0 C-1.98 0.99 -1.98 0.99 -4 2 C-3.7525 2.5775 -3.505 3.155 -3.25 3.75 C-3 6 -3 6 -4.625 8.1875 C-7.1766466 10.13480924 -8.84526281 10.64947365 -12 11 C-12 12.32 -12 13.64 -12 15 C-14.90997008 14.65803012 -15.9109504 14.09438191 -17.95703125 11.92578125 C-18.56933594 11.06339844 -19.18164062 10.20101563 -19.8125 9.3125 C-20.43769531 8.46300781 -21.06289062 7.61351562 -21.70703125 6.73828125 C-23.31765577 3.32726073 -23.07857012 1.56991518 -22 -2 C-14.7521042 -6.68981493 -7.06773928 -3.18545996 0 0 Z " fill="#050505" transform="translate(235,359)"/>
<path d="M0 0 C1.32 1.32 2.64 2.64 4 4 C2.7934375 5.0828125 2.7934375 5.0828125 1.5625 6.1875 C-1.02292072 9.02515689 -1.68042813 10.27166147 -2 14 C-2.66 14 -3.32 14 -4 14 C-4.66 15.32 -5.32 16.64 -6 18 C-6.66 18 -7.32 18 -8 18 C-8.66 19.32 -9.32 20.64 -10 22 C-11.65 21.67 -13.3 21.34 -15 21 C-15 21.66 -15 22.32 -15 23 C-14.34 23 -13.68 23 -13 23 C-13 23.66 -13 24.32 -13 25 C-14.65 25.33 -16.3 25.66 -18 26 C-18 27.32 -18 28.64 -18 30 C-18.99 29.67 -19.98 29.34 -21 29 C-21 28.34 -21 27.68 -21 27 C-21.66 27.33 -22.32 27.66 -23 28 C-23 29.98 -23 31.96 -23 34 C-23.66 34 -24.32 34 -25 34 C-25 33.34 -25 32.68 -25 32 C-25.66 32 -26.32 32 -27 32 C-27.765625 30.28515625 -27.765625 30.28515625 -28 28 C-26.234375 25.74609375 -26.234375 25.74609375 -23.75 23.4375 C-22.94046875 22.67308594 -22.1309375 21.90867187 -21.296875 21.12109375 C-20.53890625 20.42113281 -19.7809375 19.72117187 -19 19 C-17.99410045 18.00593456 -16.99273812 17.00720952 -16 16 C-10.66666667 10.66666667 -5.33333333 5.33333333 0 0 Z " fill="#121212" transform="translate(455,430)"/>
<path d="M0 0 C0.66 0 1.32 0 2 0 C2 0.66 2 1.32 2 2 C2.66 2 3.32 2 4 2 C4 2.66 4 3.32 4 4 C7.05847848 4.54372951 9.88772805 5 13 5 C12.60265845 6.94155532 12.18136959 8.87822038 11.75 10.8125 C11.51796875 11.89144531 11.2859375 12.97039063 11.046875 14.08203125 C9.86025656 17.38950876 9.09665568 18.4050853 6 20 C3.52734375 20.3984375 3.52734375 20.3984375 0.9375 20.375 C0.08027344 20.38273438 -0.77695312 20.39046875 -1.66015625 20.3984375 C-4.45727487 19.9221335 -5.3199441 19.25064093 -7 17 C-7.8125 14 -7.8125 14 -8 11 C-7.34 10.01 -6.68 9.02 -6 8 C-6 8.99 -6 9.98 -6 11 C-3.03 11.495 -3.03 11.495 0 12 C-0.34444881 9.52733235 -0.34444881 9.52733235 -1 7 C-1.66 6.67 -2.32 6.34 -3 6 C-2.67 5.01 -2.34 4.02 -2 3 C-1.34 3 -0.68 3 0 3 C0 2.01 0 1.02 0 0 Z " fill="#565656" transform="translate(372,745)"/>
<path d="M0 0 C0.99 0.33 1.98 0.66 3 1 C3 2.65 3 4.3 3 6 C2.38125 6.20625 1.7625 6.4125 1.125 6.625 C-1.28143813 7.86822839 -1.28143813 7.86822839 -1.9375 10.8125 C-3.46139024 15.38417071 -6.15320042 17.95181645 -10.3125 20.3125 C-10.869375 20.539375 -11.42625 20.76625 -12 21 C-12.99 20.34 -13.98 19.68 -15 19 C-14.34 20.65 -13.68 22.3 -13 24 C-14.65 24.33 -16.3 24.66 -18 25 C-18 25.99 -18 26.98 -18 28 C-20.47359354 27.04247992 -21.73064878 26.50503355 -23 24.125 C-23 22 -23 22 -21.25 19.75 C-19 18 -19 18 -16 18 C-15.87625 17.360625 -15.7525 16.72125 -15.625 16.0625 C-15.41875 15.381875 -15.2125 14.70125 -15 14 C-14.34 13.67 -13.68 13.34 -13 13 C-12.67 13.66 -12.34 14.32 -12 15 C-11.34 15 -10.68 15 -10 15 C-10 14.34 -10 13.68 -10 13 C-10.66 13 -11.32 13 -12 13 C-11.34 11.68 -10.68 10.36 -10 9 C-9.34 9 -8.68 9 -8 9 C-7.731875 8.401875 -7.46375 7.80375 -7.1875 7.1875 C-5.99012525 4.98180967 -4.95521016 3.56416813 -3 2 C-2.01 2 -1.02 2 0 2 C0 1.34 0 0.68 0 0 Z " fill="#131313" transform="translate(383,503)"/>
<path d="M0 0 C0.66 0 1.32 0 2 0 C2.33 0.99 2.66 1.98 3 3 C3.99 3.33 4.98 3.66 6 4 C6 4.66 6 5.32 6 6 C4.68 6 3.36 6 2 6 C1.896875 6.639375 1.79375 7.27875 1.6875 7.9375 C1.460625 8.618125 1.23375 9.29875 1 10 C-2 11 -2 11 -5 10 C-5.12375 10.598125 -5.2475 11.19625 -5.375 11.8125 C-6 14 -6 14 -8 17 C-8 17.99 -8 18.98 -8 20 C-9.875 22.1875 -9.875 22.1875 -12 24 C-12.66 24 -13.32 24 -14 24 C-14.33 24.99 -14.66 25.98 -15 27 C-17.375 26.75 -17.375 26.75 -20 26 C-21.3125 23.9375 -21.3125 23.9375 -22 22 C-21.360625 21.7525 -20.72125 21.505 -20.0625 21.25 C-17.81258459 20.18437567 -17.81258459 20.18437567 -17.25 17.875 C-17.1675 17.25625 -17.085 16.6375 -17 16 C-16.01 16 -15.02 16 -14 16 C-13.67 15.01 -13.34 14.02 -13 13 C-12.01 13.33 -11.02 13.66 -10 14 C-9.34 13.34 -8.68 12.68 -8 12 C-8.66 12 -9.32 12 -10 12 C-9.67 11.01 -9.34 10.02 -9 9 C-8.01 9 -7.02 9 -6 9 C-5.67 7.68 -5.34 6.36 -5 5 C-3.35 4.67 -1.7 4.34 0 4 C0 2.68 0 1.36 0 0 Z " fill="#121212" transform="translate(339,446)"/>
<path d="M0 0 C-1.86476739 9.30240285 -6.7217432 16.32052365 -12 24 C-13.65 23.01 -15.3 22.02 -17 21 C-16.67 22.32 -16.34 23.64 -16 25 C-19 25 -19 25 -20.75 23.75 C-22 22 -22 22 -21.875 20 C-20.86923687 17.70111284 -20.01904858 16.49559154 -18 15 C-16.68 15 -15.36 15 -14 15 C-14 15.99 -14 16.98 -14 18 C-13.01 18 -12.02 18 -11 18 C-11.7734375 17.13375 -11.7734375 17.13375 -12.5625 16.25 C-14 14 -14 14 -13.89453125 12.1875 C-12.60248524 9.02791151 -10.53885022 7.14286022 -8.125 4.75 C-7.24070312 3.85796875 -6.35640625 2.9659375 -5.4453125 2.046875 C-3 0 -3 0 0 0 Z " fill="#121212" transform="translate(475,313)"/>
<path d="M0 0 C5.28 0 10.56 0 16 0 C15.34 1.65 14.68 3.3 14 5 C13.01 5.33 12.02 5.66 11 6 C10.731875 6.639375 10.46375 7.27875 10.1875 7.9375 C8.47136575 10.91815423 6.17819022 10.94060326 3 12 C1.50376464 14.16954127 0.9509132 16.16236404 0.1875 18.6875 C-1 21 -1 21 -3.4375 22 C-6 22 -6 22 -7.8125 20.5625 C-8.204375 20.046875 -8.59625 19.53125 -9 19 C-7.78538776 13.98972451 -4.60643511 11.6736026 -0.77734375 8.55078125 C1.10499903 7.10661042 1.10499903 7.10661042 2 5 C2.99 5 3.98 5 5 5 C5 4.01 5 3.02 5 2 C3.35 1.67 1.7 1.34 0 1 C0 0.67 0 0.34 0 0 Z " fill="#0D0D0D" transform="translate(424,254)"/>
<path d="M0 0 C0.99 0.99 1.98 1.98 3 3 C1.36004587 6.75747732 -1.08321378 9.76372787 -3.625 12.9375 C-7.18303978 17.44091577 -10.28503266 21.98456161 -13.1875 26.9375 C-16.21993321 32.00172447 -19.13103902 35.6745791 -24 39 C-24.58394531 39.40863281 -25.16789063 39.81726563 -25.76953125 40.23828125 C-27.16113905 41.18666033 -28.57781266 42.0981251 -30 43 C-30.66 42.67 -31.32 42.34 -32 42 C-31.56429687 41.5875 -31.12859375 41.175 -30.6796875 40.75 C-30.08414063 40.1725 -29.48859375 39.595 -28.875 39 C-28.29492188 38.443125 -27.71484375 37.88625 -27.1171875 37.3125 C-21.85930228 31.56957002 -17.52960817 24.98837082 -13.0625 18.625 C-12.54397461 17.88838135 -12.02544922 17.1517627 -11.49121094 16.39282227 C-9.99261146 14.26295061 -8.49583658 12.13181273 -7 10 C-6.39164307 9.1330249 -6.39164307 9.1330249 -5.77099609 8.24853516 C-3.84419886 5.50120719 -1.9202502 2.75190785 0 0 Z " fill="#E9E9E9" transform="translate(575,370)"/>
<path d="M0 0 C0.66 0 1.32 0 2 0 C2 5.28 2 10.56 2 16 C1.01 15.67 0.02 15.34 -1 15 C-1.33 14.34 -1.66 13.68 -2 13 C-2.37125 13.515625 -2.7425 14.03125 -3.125 14.5625 C-5 16 -5 16 -8.1875 15.6875 C-9.115625 15.460625 -10.04375 15.23375 -11 15 C-11 16.65 -11 18.3 -11 20 C-11.66 20 -12.32 20 -13 20 C-13 15.05 -13 10.1 -13 5 C-9.7 5 -6.4 5 -3 5 C-3 4.34 -3 3.68 -3 3 C-2.34 3 -1.68 3 -1 3 C-0.67 2.01 -0.34 1.02 0 0 Z " fill="#616161" transform="translate(440,748)"/>
<path d="M0 0 C1.1796875 1.578125 1.1796875 1.578125 2 4 C0.8828125 7.234375 0.8828125 7.234375 -0.875 10.75 C-1.44992187 11.92046875 -2.02484375 13.0909375 -2.6171875 14.296875 C-3.07351563 15.18890625 -3.52984375 16.0809375 -4 17 C-4.99 16.67 -5.98 16.34 -7 16 C-7.66 17.32 -8.32 18.64 -9 20 C-10.32 19.67 -11.64 19.34 -13 19 C-13 19.66 -13 20.32 -13 21 C-12.34 21.33 -11.68 21.66 -11 22 C-12.98 22.99 -12.98 22.99 -15 24 C-16.5625 22.75 -16.5625 22.75 -18 21 C-17.6875 18.8125 -17.6875 18.8125 -17 17 C-16.34 17.33 -15.68 17.66 -15 18 C-14.938125 17.443125 -14.87625 16.88625 -14.8125 16.3125 C-13.6519231 13.00931958 -11.59786554 11.28105267 -9 9 C-8.34 9 -7.68 9 -7 9 C-7 8.01 -7 7.02 -7 6 C-6.34 6 -5.68 6 -5 6 C-5 5.34 -5 4.68 -5 4 C-4.01 4 -3.02 4 -2 4 C-1.34 2.68 -0.68 1.36 0 0 Z " fill="#121212" transform="translate(583,402)"/>
<path d="M0 0 C3.5625 0.125 3.5625 0.125 5.5625 1.125 C6.573125 1.125 7.58375 1.125 8.625 1.125 C9.594375 1.125 10.56375 1.125 11.5625 1.125 C12.5625 2.125 12.5625 2.125 12.66015625 4.19140625 C12.64855469 5.01511719 12.63695312 5.83882812 12.625 6.6875 C12.61597656 7.51378906 12.60695313 8.34007812 12.59765625 9.19140625 C12.58605469 9.82949219 12.57445312 10.46757813 12.5625 11.125 C11.2425 11.125 9.9225 11.125 8.5625 11.125 C8.5625 8.485 8.5625 5.845 8.5625 3.125 C7.5725 3.125 6.5825 3.125 5.5625 3.125 C5.5625 6.095 5.5625 9.065 5.5625 12.125 C4.5725 12.125 3.5825 12.125 2.5625 12.125 C2.2325 9.485 1.9025 6.845 1.5625 4.125 C0.5725 3.795 -0.4175 3.465 -1.4375 3.125 C-1.4375 6.095 -1.4375 9.065 -1.4375 12.125 C-2.4275 12.125 -3.4175 12.125 -4.4375 12.125 C-4.46437279 10.31257948 -4.48383715 8.50004767 -4.5 6.6875 C-4.51160156 5.67816406 -4.52320313 4.66882813 -4.53515625 3.62890625 C-4.38374129 -0.25337343 -4.01018381 0.14582487 0 0 Z " fill="#656565" transform="translate(489.4375,751.875)"/>
<path d="M0 0 C0.66 0 1.32 0 2 0 C2 0.99 2 1.98 2 3 C3.11375 2.95875 4.2275 2.9175 5.375 2.875 C9 3 9 3 11 5 C11.33 4.34 11.66 3.68 12 3 C12.66 3 13.32 3 14 3 C13.67 6.3 13.34 9.6 13 13 C7.48369572 14.37907607 5.07141251 13.53570625 0 11 C0 7.37 0 3.74 0 0 Z " fill="#D5D5D5" transform="translate(340,753)"/>
<path d="M0 0 C1.65 0 3.3 0 5 0 C5 0.66 5 1.32 5 2 C4.01 2 3.02 2 2 2 C2 2.99 2 3.98 2 5 C6.455 4.505 6.455 4.505 11 4 C11.33 4.99 11.66 5.98 12 7 C10.68 7 9.36 7 8 7 C8 9.64 8 12.28 8 15 C6.68 15 5.36 15 4 15 C4 12.36 4 9.72 4 7 C3.34 7 2.68 7 2 7 C2 9.64 2 12.28 2 15 C1.01 15.33 0.02 15.66 -1 16 C-1 13.03 -1 10.06 -1 7 C-1.66 7 -2.32 7 -3 7 C-3 6.34 -3 5.68 -3 5 C-2.34 5 -1.68 5 -1 5 C-0.67 3.35 -0.34 1.7 0 0 Z " fill="#5E5E5E" transform="translate(391,748)"/>
<path d="M0 0 C1.7325 0.1546875 1.7325 0.1546875 3.5 0.3125 C5.65502531 3.54503796 5.96856135 4.56400923 5.5 8.3125 C4.375 10.125 4.375 10.125 2.5 11.3125 C-0.5625 11.625 -0.5625 11.625 -3.5 11.3125 C-5.5 9.3125 -5.5 9.3125 -5.75 5.8125 C-5.40893869 1.0376416 -4.76133169 0.4251189 0 0 Z " fill="#565656" transform="translate(478.5,752.6875)"/>
<path d="M0 0 C1.093125 0.00257813 2.18625 0.00515625 3.3125 0.0078125 C4.405625 0.00523437 5.49875 0.00265625 6.625 0 C9.3125 0.1328125 9.3125 0.1328125 10.3125 1.1328125 C10.35330783 3.13239614 10.35504356 5.13326504 10.3125 7.1328125 C9.6525 7.1328125 8.9925 7.1328125 8.3125 7.1328125 C8.3125 5.4828125 8.3125 3.8328125 8.3125 2.1328125 C7.3225 2.1328125 6.3325 2.1328125 5.3125 2.1328125 C5.3125 4.1128125 5.3125 6.0928125 5.3125 8.1328125 C1.9105513 10.22631939 -0.74022412 10.31223413 -4.6875 10.1328125 C-4.6875 9.4728125 -4.6875 8.8128125 -4.6875 8.1328125 C-2.2125 8.6278125 -2.2125 8.6278125 0.3125 9.1328125 C0.3125 8.4728125 0.3125 7.8128125 0.3125 7.1328125 C-1.0075 7.1328125 -2.3275 7.1328125 -3.6875 7.1328125 C-3.73004356 5.13326504 -3.72830783 3.13239614 -3.6875 1.1328125 C-2.6875 0.1328125 -2.6875 0.1328125 0 0 Z " fill="#929292" transform="translate(309.6875,755.8671875)"/>
<path d="M0 0 C1.32 0 2.64 0 4 0 C4.66 1.98 5.32 3.96 6 6 C4.35 6 2.7 6 1 6 C1.33 7.32 1.66 8.64 2 10 C0.68 10 -0.64 10 -2 10 C-2 11.32 -2 12.64 -2 14 C-4.96175123 13.38722388 -6.38058783 12.74627478 -9 11 C-8.1875 9.0625 -8.1875 9.0625 -7 7 C-6.01 6.67 -5.02 6.34 -4 6 C-2.90833725 4.06669397 -2.90833725 4.06669397 -2 2 C-1.34 1.34 -0.68 0.68 0 0 Z " fill="#131313" transform="translate(407,278)"/>
<path d="M0 0 C0.598125 0.226875 1.19625 0.45375 1.8125 0.6875 C1.8125 1.6775 1.8125 2.6675 1.8125 3.6875 C2.4725 3.6875 3.1325 3.6875 3.8125 3.6875 C3.8125 4.3475 3.8125 5.0075 3.8125 5.6875 C2.1625 5.6875 0.5125 5.6875 -1.1875 5.6875 C-1.1875 7.0075 -1.1875 8.3275 -1.1875 9.6875 C-2.5075 9.3575 -3.8275 9.0275 -5.1875 8.6875 C-5.1875 10.6675 -5.1875 12.6475 -5.1875 14.6875 C-7.80937494 13.63875002 -8.98121361 13.03818687 -10.4375 10.5625 C-10.685 9.94375 -10.9325 9.325 -11.1875 8.6875 C-10.56875 8.44 -9.95 8.1925 -9.3125 7.9375 C-6.7802804 6.44795906 -6.38031342 5.31168952 -5.1875 2.6875 C-2.84083333 -0.40583333 -2.84083333 -0.40583333 0 0 Z " fill="#141414" transform="translate(316.1875,471.3125)"/>
<path d="M0 0 C0.9075 0.165 1.815 0.33 2.75 0.5 C5.91372977 0.98672766 7.94173339 0.80954116 11 0 C10.67 0.99 10.34 1.98 10 3 C10.66 3.33 11.32 3.66 12 4 C12.33 2.68 12.66 1.36 13 0 C13.33 0 13.66 0 14 0 C14 2.31 14 4.62 14 7 C11.68756208 7.02685412 9.3750373 7.04632841 7.0625 7.0625 C5.77472656 7.07410156 4.48695313 7.08570313 3.16015625 7.09765625 C0 7 0 7 -1 6 C-1.125 3.5 -1.125 3.5 -1 1 C-0.67 0.67 -0.34 0.34 0 0 Z " fill="#A6A6A6" transform="translate(290,756)"/>
<path d="M0 0 C0.66 0 1.32 0 2 0 C2.33 1.65 2.66 3.3 3 5 C3.99 5.33 4.98 5.66 6 6 C4.125 7.0625 4.125 7.0625 2 8 C1.34 7.67 0.68 7.34 0 7 C-0.33 7.66 -0.66 8.32 -1 9 C-0.34 9 0.32 9 1 9 C1 9.66 1 10.32 1 11 C-0.65 11.33 -2.3 11.66 -4 12 C-4 12.99 -4 13.98 -4 15 C-5.32 14.67 -6.64 14.34 -8 14 C-8.75 12.3125 -8.75 12.3125 -9 10 C-6.86618551 6.7230706 -5.74981988 5.24993996 -2 4 C-0.79117904 1.99983534 -0.79117904 1.99983534 0 0 Z " fill="#141414" transform="translate(269,416)"/>
<path d="M0 0 C0.66 0 1.32 0 2 0 C2 2.64 2 5.28 2 8 C2.66 8 3.32 8 4 8 C4.66 6.68 5.32 5.36 6 4 C6.66 4 7.32 4 8 4 C7.79375 4.928125 7.5875 5.85625 7.375 6.8125 C6.63307034 10.15173402 6.63307034 10.15173402 9 13 C9 13.99 9 14.98 9 16 C6.00667261 15.0022242 5.05233685 14.2477975 3 12 C2.67 13.32 2.34 14.64 2 16 C1.01 15.67 0.02 15.34 -1 15 C-1.02685412 12.68756208 -1.04632841 10.3750373 -1.0625 8.0625 C-1.07410156 6.77472656 -1.08570313 5.48695313 -1.09765625 4.16015625 C-1 1 -1 1 0 0 Z " fill="#535353" transform="translate(445,748)"/>
<path d="M0 0 C0 1.32 0 2.64 0 4 C0.66 4 1.32 4 2 4 C2 4.66 2 5.32 2 6 C0.35 6 -1.3 6 -3 6 C-2.67 7.32 -2.34 8.64 -2 10 C-3.32 9.67 -4.64 9.34 -6 9 C-6 8.34 -6 7.68 -6 7 C-6.99 7.495 -6.99 7.495 -8 8 C-8 9.32 -8 10.64 -8 12 C-7.34 12 -6.68 12 -6 12 C-6.33 12.99 -6.66 13.98 -7 15 C-8.9375 14.3125 -8.9375 14.3125 -11 13 C-11.859375 10.6875 -11.859375 10.6875 -12 8 C-10.48828125 5.76171875 -10.48828125 5.76171875 -8.3125 3.6875 C-7.60738281 2.99011719 -6.90226563 2.29273438 -6.17578125 1.57421875 C-4 0 -4 0 0 0 Z " fill="#151515" transform="translate(561,428)"/>
<path d="M0 0 C3.4375 0.1875 3.4375 0.1875 4.4375 1.1875 C4.47813832 2.85367115 4.480221 4.52138095 4.4375 6.1875 C2.1275 6.1875 -0.1825 6.1875 -2.5625 6.1875 C-2.2325 6.8475 -1.9025 7.5075 -1.5625 8.1875 C0.4175 7.8575 2.3975 7.5275 4.4375 7.1875 C4.4375 8.1775 4.4375 9.1675 4.4375 10.1875 C1.67499964 11.56875018 -0.50981099 11.37829306 -3.5625 11.1875 C-5.5625 9.1875 -5.5625 9.1875 -5.8125 5.6875 C-5.46844738 0.87076336 -4.82491086 0.25394268 0 0 Z " fill="#545454" transform="translate(420.5625,752.8125)"/>
<path d="M0 0 C0.99 0.66 1.98 1.32 3 2 C2.67 3.32 2.34 4.64 2 6 C2.66 6.33 3.32 6.66 4 7 C4.66 6.34 5.32 5.68 6 5 C6 9 6 9 4.25 11.3125 C2 13 2 13 0.0625 13.125 C-3.11480766 11.39192309 -4.8068062 8.86333635 -7 6 C-4.69 4.02 -2.38 2.04 0 0 Z " fill="#181818" transform="translate(396,389)"/>
<path d="M0 0 C0.66 0 1.32 0 2 0 C2.33 1.65 2.66 3.3 3 5 C2.34 5 1.68 5 1 5 C1 8.3 1 11.6 1 15 C0.05125 15.309375 -0.8975 15.61875 -1.875 15.9375 C-4.86080408 16.87394742 -4.86080408 16.87394742 -7 18 C-7.66 17.34 -8.32 16.68 -9 16 C-8.38125 15.54625 -7.7625 15.0925 -7.125 14.625 C-4.04042995 10.81464877 -3.69126624 6.76609884 -3 2 C-2.01 2 -1.02 2 0 2 C0 1.34 0 0.68 0 0 Z " fill="#EDEDED" transform="translate(387,748)"/>
<path d="M0 0 C0.66 0 1.32 0 2 0 C2 3.3 2 6.6 2 10 C-3.53475936 10.36898396 -3.53475936 10.36898396 -5.8125 8.5625 C-6.4003125 7.7890625 -6.4003125 7.7890625 -7 7 C-7.33 6.67 -7.66 6.34 -8 6 C-8.99 6.495 -8.99 6.495 -10 7 C-10 7.66 -10 8.32 -10 9 C-8.68 8.67 -7.36 8.34 -6 8 C-6 8.66 -6 9.32 -6 10 C-7.66611905 10.042721 -9.33382885 10.04063832 -11 10 C-12 9 -12 9 -12.0625 6.4375 C-12.041875 5.633125 -12.02125 4.82875 -12 4 C-9.6875 3.375 -9.6875 3.375 -7 3 C-6.01 3.66 -5.02 4.32 -4 5 C-4 4.34 -4 3.68 -4 3 C-2.68 3 -1.36 3 0 3 C0 2.01 0 1.02 0 0 Z " fill="#737373" transform="translate(333,753)"/>
<path d="M0 0 C0.33 0 0.66 0 1 0 C1 3.3 1 6.6 1 10 C1.99 10.33 2.98 10.66 4 11 C2 13 2 13 -0.5 13.1875 C-3 13 -3 13 -5 12 C-5.78375 12.165 -6.5675 12.33 -7.375 12.5 C-10.12682365 13.02415689 -11.36350711 12.74151363 -14 12 C-15.66623639 11.96213099 -17.33397597 11.95372155 -19 12 C-18.67 9.69 -18.34 7.38 -18 5 C-17.67 5 -17.34 5 -17 5 C-17 6.65 -17 8.3 -17 10 C-16.34 10 -15.68 10 -15 10 C-15 8.35 -15 6.7 -15 5 C-14.34 6.32 -13.68 7.64 -13 9 C-12.67 9 -12.34 9 -12 9 C-12 7.68 -12 6.36 -12 5 C-11.01 5 -10.02 5 -9 5 C-9 5.66 -9 6.32 -9 7 C-8.01 7.33 -7.02 7.66 -6 8 C-6 8.66 -6 9.32 -6 10 C-4.02 10 -2.04 10 0 10 C0 6.7 0 3.4 0 0 Z " fill="#CACACA" transform="translate(335,753)"/>
<path d="M0 0 C2.14915785 3.22373677 2.38286803 4.26703674 2 8 C1.34 8.66 0.68 9.32 0 10 C-0.6425235 12.06874034 -0.6425235 12.06874034 -1 14 C-2.32 14.33 -3.64 14.66 -5 15 C-5 15.99 -5 16.98 -5 18 C-6.32 17.67 -7.64 17.34 -9 17 C-9 16.34 -9 15.68 -9 15 C-9.66 15 -10.32 15 -11 15 C-11 14.34 -11 13.68 -11 13 C-9.35 13 -7.7 13 -6 13 C-6.33 11.68 -6.66 10.36 -7 9 C-6.01 8.67 -5.02 8.34 -4 8 C-4 8.66 -4 9.32 -4 10 C-3.01 9.01 -2.02 8.02 -1 7 C-1.66 7 -2.32 7 -3 7 C-2.690625 6.401875 -2.38125 5.80375 -2.0625 5.1875 C-0.89790296 2.91043228 -0.89790296 2.91043228 0 0 Z " fill="#1D1D1D" transform="translate(597,286)"/>
<path d="M0 0 C2 2 2 2 2 5 C-0.97 4.505 -0.97 4.505 -4 4 C-4 5.65 -4 7.3 -4 9 C-3.401875 8.835 -2.80375 8.67 -2.1875 8.5 C0 8 0 8 3 8 C2.67 8.99 2.34 9.98 2 11 C-4.40096618 12.32850242 -4.40096618 12.32850242 -6.9375 10.9375 C-8.47555213 8.13281671 -8.39310741 6.14485925 -8 3 C-5.8975876 -0.31959853 -3.76753493 -0.4830173 0 0 Z " fill="#555555" transform="translate(469,752)"/>
<path d="M0 0 C-1.24976756 3.65316671 -1.67098753 4.78065836 -5 7 C-7.375 7.30078125 -7.375 7.30078125 -10 7.3125 C-11.299375 7.33763672 -11.299375 7.33763672 -12.625 7.36328125 C-15.4116129 6.93703947 -16.26608617 6.16168863 -18 4 C-17.67 3.34 -17.34 2.68 -17 2 C-16.41992188 2.02320313 -15.83984375 2.04640625 -15.2421875 2.0703125 C-9.84459917 2.19500926 -5.09762812 0 0 0 Z " fill="#4C4C4C" transform="translate(383,758)"/>
<path d="M0 0 C1.2065625 0.0309375 1.2065625 0.0309375 2.4375 0.0625 C1.1175 1.3825 -0.2025 2.7025 -1.5625 4.0625 C0.0875 4.0625 1.7375 4.0625 3.4375 4.0625 C3.4375 3.0725 3.4375 2.0825 3.4375 1.0625 C4.0975 1.0625 4.7575 1.0625 5.4375 1.0625 C5.4375 2.7125 5.4375 4.3625 5.4375 6.0625 C3.1275 6.0625 0.8175 6.0625 -1.5625 6.0625 C-1.2325 6.7225 -0.9025 7.3825 -0.5625 8.0625 C1.4175 7.7325 3.3975 7.4025 5.4375 7.0625 C5.4375 8.0525 5.4375 9.0425 5.4375 10.0625 C-0.9225 11.3825 -0.9225 11.3825 -3.5625 10.0625 C-5.13529672 6.91690657 -4.3040208 4.39934358 -3.5625 1.0625 C-2.5625 0.0625 -2.5625 0.0625 0 0 Z " fill="#4F4F4F" transform="translate(407.5625,752.9375)"/>
<path d="M0 0 C1.9375 0.375 1.9375 0.375 4 1 C4.33 1.66 4.66 2.32 5 3 C4.0625 5.125 4.0625 5.125 3 7 C3.99 7.33 4.98 7.66 6 8 C6 9.65 6 11.3 6 13 C5.01 13 4.02 13 3 13 C-0.0112389 9.9887611 -1.51314051 6.92955723 -3 3 C-2.01 2.67 -1.02 2.34 0 2 C0 1.34 0 0.68 0 0 Z " fill="#E8E8E8" transform="translate(454,753)"/>
<path d="M0 0 C1.134375 0.020625 2.26875 0.04125 3.4375 0.0625 C4.61321451 3.73660785 4.51116746 7.23179183 4.4375 11.0625 C3.7775 11.0625 3.1175 11.0625 2.4375 11.0625 C2.1075 8.7525 1.7775 6.4425 1.4375 4.0625 C0.4475 3.7325 -0.5425 3.4025 -1.5625 3.0625 C-1.5625 6.0325 -1.5625 9.0025 -1.5625 12.0625 C-2.5525 12.0625 -3.5425 12.0625 -4.5625 12.0625 C-4.58937279 10.25007948 -4.60883715 8.43754767 -4.625 6.625 C-4.63660156 5.61566406 -4.64820313 4.60632813 -4.66015625 3.56640625 C-4.50618986 -0.38129207 -4.09874205 0.07190776 0 0 Z " fill="#5C5C5C" transform="translate(489.5625,751.9375)"/>
<path d="M0 0 C5.28 0 10.56 0 16 0 C15.34 1.65 14.68 3.3 14 5 C13.01 5.33 12.02 5.66 11 6 C11 6.66 11 7.32 11 8 C9.68 7.67 8.36 7.34 7 7 C7 6.34 7 5.68 7 5 C6.34 5 5.68 5 5 5 C5 4.01 5 3.02 5 2 C3.35 1.67 1.7 1.34 0 1 C0 0.67 0 0.34 0 0 Z " fill="#1A1A1A" transform="translate(424,254)"/>
<path d="M0 0 C3.1875 0.875 3.1875 0.875 6 2 C4.02 2.99 4.02 2.99 2 4 C2.2475 4.5775 2.495 5.155 2.75 5.75 C3 8 3 8 1.375 10.3125 C-1 12 -1 12 -3.75 11.75 C-4.4925 11.5025 -5.235 11.255 -6 11 C-6.33 10.01 -6.66 9.02 -7 8 C-5.68 7.67 -4.36 7.34 -3 7 C-3 7.99 -3 8.98 -3 10 C-2.34 9.67 -1.68 9.34 -1 9 C-1.33 8.401875 -1.66 7.80375 -2 7.1875 C-3 5 -3 5 -3 2 C-2.01 1.34 -1.02 0.68 0 0 Z " fill="#171717" transform="translate(229,357)"/>
<path d="M0 0 C0.66 0 1.32 0 2 0 C2 0.99 2 1.98 2 3 C3.32 3 4.64 3 6 3 C6.625 5.875 6.625 5.875 7 9 C6.34 9.66 5.68 10.32 5 11 C3.35 11 1.7 11 0 11 C0 7.37 0 3.74 0 0 Z " fill="#5F5F5F" transform="translate(340,753)"/>
<path d="M0 0 C1.32 0.99 2.64 1.98 4 3 C3.525625 3.7425 3.05125 4.485 2.5625 5.25 C1.22130673 7.61050015 0.487688 9.36648477 0 12 C-0.66 12 -1.32 12 -2 12 C-2 11.34 -2 10.68 -2 10 C-2.66 10 -3.32 10 -4 10 C-4.33 7.69 -4.66 5.38 -5 3 C-3.35 2.67 -1.7 2.34 0 2 C0 1.34 0 0.68 0 0 Z " fill="#151515" transform="translate(281,404)"/>
<path d="M0 0 C2.7839183 1.39195915 2.97898997 3.15575779 4 6 C4.99 5.67 5.98 5.34 7 5 C7.73323796 2.98491642 7.73323796 2.98491642 8 1 C8.66 1 9.32 1 10 1 C10.125 3.875 10.125 3.875 10 7 C9.34 7.66 8.68 8.32 8 9 C4.875 8.625 4.875 8.625 2 8 C2 9.65 2 11.3 2 13 C1.34 13 0.68 13 0 13 C0 8.71 0 4.42 0 0 Z " fill="#4C4C4C" transform="translate(427,755)"/>
<path d="M0 0 C0.66 0 1.32 0 2 0 C2 3.3 2 6.6 2 10 C0.00045254 10.04254356 -2.00041636 10.04080783 -4 10 C-5 9 -5 9 -5.0625 6.4375 C-5.041875 5.633125 -5.02125 4.82875 -5 4 C-3.35 3.67 -1.7 3.34 0 3 C0 2.01 0 1.02 0 0 Z " fill="#6C6C6C" transform="translate(286,753)"/>
<path d="M0 0 C0.66 0 1.32 0 2 0 C2 5.28 2 10.56 2 16 C1.01 15.67 0.02 15.34 -1 15 C-1.1953125 12.98177083 -1.390625 10.96354167 -1.5859375 8.9453125 C-1.86374749 6.77331755 -1.86374749 6.77331755 -4 5 C-3.67 4.34 -3.34 3.68 -3 3 C-2.34 3 -1.68 3 -1 3 C-0.67 2.01 -0.34 1.02 0 0 Z " fill="#7D7D7D" transform="translate(440,748)"/>
<path d="M0 0 C-0.6930181 5.28426302 -0.6930181 5.28426302 -2 8 C-6.1695251 10.93588121 -11.01101887 11.37417358 -16 11 C-13.11371599 9.42445965 -10.46657616 8.53723627 -7.25 7.875 C-6.45078125 7.70742188 -5.6515625 7.53984375 -4.828125 7.3671875 C-4.22484375 7.24601563 -3.6215625 7.12484375 -3 7 C-3.33 6.01 -3.66 5.02 -4 4 C-5.32 4.33 -6.64 4.66 -8 5 C-8 3.68 -8 2.36 -8 1 C-2.25 -1.125 -2.25 -1.125 0 0 Z " fill="#858585" transform="translate(385,750)"/>
<path d="M0 0 C0 1.65 0 3.3 0 5 C-1.093125 4.814375 -2.18625 4.62875 -3.3125 4.4375 C-6.93624133 3.7421932 -6.93624133 3.7421932 -10 5 C-9.51851852 0.42592593 -9.51851852 0.42592593 -7.25 -1.4375 C-4.25020339 -2.18744915 -2.7110745 -1.35553725 0 0 Z " fill="#6E6E6E" transform="translate(372,752)"/>
<path d="M0 0 C0.33 0.66 0.66 1.32 1 2 C1.66 2 2.32 2 3 2 C-0.01834862 12.01834862 -0.01834862 12.01834862 -3 15 C-3.99 15.33 -4.98 15.66 -6 16 C-4.27933894 10.55123997 -2.15294651 5.28830549 0 0 Z " fill="#DCDCDC" transform="translate(380,348)"/>
<path d="M0 0 C1.32 0.33 2.64 0.66 4 1 C4.08096803 2.45742463 4.13917774 3.91612807 4.1875 5.375 C4.22230469 6.18710937 4.25710938 6.99921875 4.29296875 7.8359375 C4.19628906 8.55007813 4.09960938 9.26421875 4 10 C3.01 10.66 2.02 11.32 1 12 C0.01 11.01 -0.98 10.02 -2 9 C-1.34 9 -0.68 9 0 9 C0 6.03 0 3.06 0 0 Z " fill="#E0E0E0" transform="translate(488,755)"/>
<path d="M0 0 C0.33 0.66 0.66 1.32 1 2 C-1.03014771 5.84659566 -3.56941824 9.39603395 -6 13 C-7.32 12.34 -8.64 11.68 -10 11 C-9.09066991 9.72390677 -8.17217147 8.45434447 -7.25 7.1875 C-6.73953125 6.47980469 -6.2290625 5.77210938 -5.703125 5.04296875 C-3.97517642 2.97022309 -2.21473524 1.52624146 0 0 Z " fill="#E8E8E8" transform="translate(345,312)"/>
<path d="M0 0 C0.99 0.33 1.98 0.66 3 1 C3 2.65 3 4.3 3 6 C2.0409375 6.37125 2.0409375 6.37125 1.0625 6.75 C-1.18741541 7.81562433 -1.18741541 7.81562433 -1.75 10.125 C-1.8325 10.74375 -1.915 11.3625 -2 12 C-2.99 11.67 -3.98 11.34 -5 11 C-5 8 -5 8 -3 5.8125 C-2.34 5.214375 -1.68 4.61625 -1 4 C-2.98 4.99 -2.98 4.99 -5 6 C-4.34 4.68 -3.68 3.36 -3 2 C-2.01 2 -1.02 2 0 2 C0 1.34 0 0.68 0 0 Z " fill="#1A1A1A" transform="translate(383,503)"/>
<path d="M0 0 C0.2475 0.639375 0.495 1.27875 0.75 1.9375 C1.81562433 4.18741541 1.81562433 4.18741541 4.125 4.75 C4.74375 4.8325 5.3625 4.915 6 5 C4.35 5.33 2.7 5.66 1 6 C1.33 7.32 1.66 8.64 2 10 C-0.62187494 8.95125002 -1.79371361 8.35068687 -3.25 5.875 C-3.4975 5.25625 -3.745 4.6375 -4 4 C-3.01 4 -2.02 4 -1 4 C-0.67 2.68 -0.34 1.36 0 0 Z " fill="#141414" transform="translate(411,374)"/>
<path d="M0 0 C0.66 0.33 1.32 0.66 2 1 C1.67 3.31 1.34 5.62 1 8 C0.34 7.34 -0.32 6.68 -1 6 C-3.60280568 6.32041397 -3.60280568 6.32041397 -6 7 C-6.33 6.01 -6.66 5.02 -7 4 C-4.69 4 -2.38 4 0 4 C0 2.68 0 1.36 0 0 Z M-2 8 C-1.34 8.33 -0.68 8.66 0 9 C0 9.66 0 10.32 0 11 C-2.97 10.505 -2.97 10.505 -6 10 C-4.125 8.9375 -4.125 8.9375 -2 8 Z " fill="#D5D5D5" transform="translate(413,755)"/>
<path d="M0 0 C0.33 0 0.66 0 1 0 C1 4.62 1 9.24 1 14 C0.67 14 0.34 14 0 14 C-0.33 11.69 -0.66 9.38 -1 7 C-1.99 7.66 -2.98 8.32 -4 9 C-6.1875 8.625 -6.1875 8.625 -8 8 C-8 7.34 -8 6.68 -8 6 C-5.69 6 -3.38 6 -1 6 C-0.67 4.02 -0.34 2.04 0 0 Z " fill="#D3D3D3" transform="translate(426,753)"/>
<path d="M0 0 C1.32 0 2.64 0 4 0 C3.67 0.99 3.34 1.98 3 3 C3.66 3.33 4.32 3.66 5 4 C5.33 2.68 5.66 1.36 6 0 C6.33 0 6.66 0 7 0 C7 2.31 7 4.62 7 7 C4.69 7 2.38 7 0 7 C0.66 6.34 1.32 5.68 2 5 C1.34 4.67 0.68 4.34 0 4 C0 2.68 0 1.36 0 0 Z " fill="#5A5A5A" transform="translate(297,756)"/>
<path d="M0 0 C2.97 0.495 2.97 0.495 6 1 C5.525625 1.94875 5.05125 2.8975 4.5625 3.875 C2.57242218 8.4465467 2.28773098 13.06888627 2 18 C1.67 18 1.34 18 1 18 C0.67 12.06 0.34 6.12 0 0 Z " fill="#E4E4E4" transform="translate(441,745)"/>
<path d="M0 0 C1.32 0.66 2.64 1.32 4 2 C-0.11378556 8.70459519 -0.11378556 8.70459519 -3.8125 9.9375 C-4.8953125 9.9684375 -4.8953125 9.9684375 -6 10 C-4.34832443 6.4213696 -2.21713508 3.25179812 0 0 Z " fill="#E4E4E4" transform="translate(563,387)"/>
<path d="M0 0 C1.65 1.65 3.3 3.3 5 5 C4.01 5.33 3.02 5.66 2 6 C2 6.99 2 7.98 2 9 C0.68 8.34 -0.64 7.68 -2 7 C-2 3 -2 3 0 0 Z " fill="#191919" transform="translate(213,372)"/>
<path d="M0 0 C1 3 1 3 0.00390625 5.48046875 C-0.47175781 6.37378906 -0.94742187 7.26710938 -1.4375 8.1875 C-1.91058594 9.08855469 -2.38367188 9.98960937 -2.87109375 10.91796875 C-3.24363281 11.60503906 -3.61617188 12.29210937 -4 13 C-4.99 12.67 -5.98 12.34 -7 12 C-5.63855967 6.80177328 -3.53269829 3.90456127 0 0 Z " fill="#E1E1E1" transform="translate(376,362)"/>
<path d="M0 0 C0.66 0 1.32 0 2 0 C2 0.99 2 1.98 2 3 C3.32 3 4.64 3 6 3 C6 3.66 6 4.32 6 5 C4.68 5 3.36 5 2 5 C2.33 6.32 2.66 7.64 3 9 C2.01 8.67 1.02 8.34 0 8 C0 7.34 0 6.68 0 6 C-0.99 5.67 -1.98 5.34 -3 5 C-3 4.34 -3 3.68 -3 3 C-2.34 3 -1.68 3 -1 3 C-0.67 2.01 -0.34 1.02 0 0 Z " fill="#161616" transform="translate(460,425)"/>
<path d="M0 0 C1.485 0.99 1.485 0.99 3 2 C3.33 1.34 3.66 0.68 4 0 C4.66 0 5.32 0 6 0 C5.01 3.3 4.02 6.6 3 10 C2.34 10 1.68 10 1 10 C0.67 6.7 0.34 3.4 0 0 Z " fill="#5A5A5A" transform="translate(348,756)"/>
<path d="M0 0 C2.475 0.495 2.475 0.495 5 1 C5 2.65 5 4.3 5 6 C3.0625 6.5625 3.0625 6.5625 1 7 C0 6 0 6 -0.0625 2.9375 C-0.041875 1.968125 -0.02125 0.99875 0 0 Z " fill="#E3E3E3" transform="translate(476,755)"/>
<path d="M0 0 C2.5 0.25 2.5 0.25 4.5 2.25 C4.5 3.24 4.5 4.23 4.5 5.25 C1.53 4.755 1.53 4.755 -1.5 4.25 C-2.16 5.57 -2.82 6.89 -3.5 8.25 C-4.125 5.375 -4.125 5.375 -4.5 2.25 C-2.5 0.25 -2.5 0.25 0 0 Z " fill="#626262" transform="translate(466.5,751.75)"/>
<path d="M0 0 C0.33 0 0.66 0 1 0 C1.33 3.96 1.66 7.92 2 12 C-1.465 13.485 -1.465 13.485 -5 15 C-3.92598892 12.08482708 -3.22189824 10.22189824 -1 8 C-0.54188325 6.02764667 -0.54188325 6.02764667 -0.375 3.875 C-0.189375 1.956875 -0.189375 1.956875 0 0 Z " fill="#E9E9E9" transform="translate(438,753)"/>
<path d="M0 0 C1.23367942 2.46735884 1 4.26809601 1 7 C1.33 7.66 1.66 8.32 2 9 C0.35 9.33 -1.3 9.66 -3 10 C-3.33 7.03 -3.66 4.06 -4 1 C-2.68 0.67 -1.36 0.34 0 0 Z " fill="#DEDEDE" transform="translate(403,754)"/>
<path d="M0 0 C0.66 0 1.32 0 2 0 C2.33 1.65 2.66 3.3 3 5 C2.34 5 1.68 5 1 5 C1 5.66 1 6.32 1 7 C-0.65 7 -2.3 7 -4 7 C-3.67 5.35 -3.34 3.7 -3 2 C-2.01 2 -1.02 2 0 2 C0 1.34 0 0.68 0 0 Z " fill="#E4E4E4" transform="translate(387,748)"/>
<path d="M0 0 C0.66 0.66 1.32 1.32 2 2 C1.01 4.31 0.02 6.62 -1 9 C-2.9375 8.6875 -2.9375 8.6875 -5 8 C-5.33 7.01 -5.66 6.02 -6 5 C-5.34 5 -4.68 5 -4 5 C-4 4.34 -4 3.68 -4 3 C-3.34 3 -2.68 3 -2 3 C-1.34 2.01 -0.68 1.02 0 0 Z " fill="#1E1E1E" transform="translate(583,404)"/>
<path d="M0 0 C0.99 0 1.98 0 3 0 C2.01 3.3 1.02 6.6 0 10 C-3 6 -3 6 -2.8125 3.875 C-2 2 -2 2 0 0 Z " fill="#1E1E1E" transform="translate(472,313)"/>
<path d="M0 0 C0.33 0 0.66 0 1 0 C1.66 3.3 2.32 6.6 3 10 C3.66 10 4.32 10 5 10 C5 10.66 5 11.32 5 12 C3.02 12 1.04 12 -1 12 C-0.67 8.04 -0.34 4.08 0 0 Z " fill="#2C2C2C" transform="translate(580,300)"/>
<path d="M0 0 C2.475 0.495 2.475 0.495 5 1 C4.67 2.65 4.34 4.3 4 6 C2.68 6 1.36 6 0 6 C0 4.02 0 2.04 0 0 Z " fill="#E5E5E5" transform="translate(430,755)"/>
<path d="M0 0 C0.66 0 1.32 0 2 0 C2 0.66 2 1.32 2 2 C2.66 2 3.32 2 4 2 C4 3.98 4 5.96 4 8 C1.37812506 6.95125002 0.20628639 6.35068687 -1.25 3.875 C-1.4975 3.25625 -1.745 2.6375 -2 2 C-1.34 1.34 -0.68 0.68 0 0 Z " fill="#141414" transform="translate(357,528)"/>
<path d="M0 0 C1.32 1.32 2.64 2.64 4 4 C2.87926138 4.83905565 1.75325453 5.67107831 0.625 6.5 C-0.00148438 6.9640625 -0.62796875 7.428125 -1.2734375 7.90625 C-3 9 -3 9 -5 9 C-3.90931332 5.22454612 -3.0916909 2.52956528 0 0 Z " fill="#101010" transform="translate(455,430)"/>
<path d="M0 0 C0.66 0 1.32 0 2 0 C2 0.66 2 1.32 2 2 C2.66 2 3.32 2 4 2 C4 3.98 4 5.96 4 8 C1.37812506 6.95125002 0.20628639 6.35068687 -1.25 3.875 C-1.4975 3.25625 -1.745 2.6375 -2 2 C-1.34 1.34 -0.68 0.68 0 0 Z " fill="#131313" transform="translate(257,428)"/>
<path d="M0 0 C0.66 0 1.32 0 2 0 C2 0.66 2 1.32 2 2 C2.66 2 3.32 2 4 2 C4.33 3.65 4.66 5.3 5 7 C4.01 7.33 3.02 7.66 2 8 C2 7.34 2 6.68 2 6 C0.68 5.34 -0.64 4.68 -2 4 C-1.34 2.68 -0.68 1.36 0 0 Z " fill="#141414" transform="translate(273,412)"/>
<path d="M0 0 C0.66 0 1.32 0 2 0 C2 0.66 2 1.32 2 2 C2.66 2 3.32 2 4 2 C3.67 3.32 3.34 4.64 3 6 C3.66 6.33 4.32 6.66 5 7 C1 7 1 7 -0.75 5.5 C-1.1625 5.005 -1.575 4.51 -2 4 C-1.34 2.68 -0.68 1.36 0 0 Z " fill="#131313" transform="translate(207,378)"/>
<path d="M0 0 C0.33 0.66 0.66 1.32 1 2 C1.99 1.67 2.98 1.34 4 1 C4.33 2.65 4.66 4.3 5 6 C3.68 6.33 2.36 6.66 1 7 C-0.32 5.02 -1.64 3.04 -3 1 C-2.01 0.67 -1.02 0.34 0 0 Z " fill="#1C1C1C" transform="translate(219,367)"/>
<path d="M0 0 C0.66 0.33 1.32 0.66 2 1 C0.7251791 3.84383123 -0.45137078 6.13754018 -3 8 C-5.125 7.8125 -5.125 7.8125 -7 7 C-7.33 6.34 -7.66 5.68 -8 5 C-7.01 4.67 -6.02 4.34 -5 4 C-4.34 4.33 -3.68 4.66 -3 5 C-3 4.34 -3 3.68 -3 3 C-1.5 1.375 -1.5 1.375 0 0 Z " fill="#262626" transform="translate(401,394)"/>
<path d="M0 0 C0.66 0 1.32 0 2 0 C2 0.66 2 1.32 2 2 C2.66 2 3.32 2 4 2 C4 2.66 4 3.32 4 4 C4.66 4 5.32 4 6 4 C5.67 4.99 5.34 5.98 5 7 C2.11424181 6.60196439 1.17810487 6.20990931 -0.75 3.9375 C-1.1625 3.298125 -1.575 2.65875 -2 2 C-1.34 2 -0.68 2 0 2 C0 1.34 0 0.68 0 0 Z " fill="#151515" transform="translate(412,273)"/>
<path d="M0 0 C0.99 0 1.98 0 3 0 C2.33333333 3.33333333 1.66666667 6.66666667 1 10 C-0.32 9.67 -1.64 9.34 -3 9 C-3.33 7.68 -3.66 6.36 -4 5 C-3.01 5 -2.02 5 -1 5 C-0.34 4.01 0.32 3.02 1 2 C0.34 1.67 -0.32 1.34 -1 1 C-0.67 0.67 -0.34 0.34 0 0 Z " fill="#171717" transform="translate(424,262)"/>
<path d="M0 0 C0.33 0 0.66 0 1 0 C1 2.97 1 5.94 1 9 C1.99 9 2.98 9 4 9 C3.67 10.98 3.34 12.96 3 15 C2.01 14.67 1.02 14.34 0 14 C0 9.38 0 4.76 0 0 Z " fill="#6B6B6B" transform="translate(444,749)"/>
<path d="M0 0 C0.99 0 1.98 0 3 0 C3 3.3 3 6.6 3 10 C1.02 10.99 1.02 10.99 -1 12 C-0.67 8.04 -0.34 4.08 0 0 Z " fill="#E8E8E8" transform="translate(495,755)"/>
<path d="M0 0 C0.61875 0.66 1.2375 1.32 1.875 2 C3.75637427 4.2284549 3.75637427 4.2284549 6 4 C5.67 4.99 5.34 5.98 5 7 C2.625 6.75 2.625 6.75 0 6 C-1.3125 3.9375 -1.3125 3.9375 -2 2 C-1.34 1.34 -0.68 0.68 0 0 Z " fill="#151515" transform="translate(319,466)"/>
<path d="M0 0 C1.32 0 2.64 0 4 0 C4.33 1.98 4.66 3.96 5 6 C4.01 6.495 4.01 6.495 3 7 C2.01 6.34 1.02 5.68 0 5 C-0.1875 2.375 -0.1875 2.375 0 0 Z " fill="#878787" transform="translate(342,756)"/>
<path d="M0 0 C1.67542976 0.28604898 3.34385343 0.61781233 5 1 C4.67 1.99 4.34 2.98 4 4 C3.67 3.67 3.34 3.34 3 3 C2.01 3.495 2.01 3.495 1 4 C1 4.66 1 5.32 1 6 C2.32 6.33 3.64 6.66 5 7 C3.33388095 7.042721 1.66617115 7.04063832 0 7 C-1 6 -1 6 -1.125 3.5 C-1 1 -1 1 0 0 Z " fill="#505050" transform="translate(290,756)"/>
<path d="M0 0 C2 1 2 1 4 3 C4.66 3.33 5.32 3.66 6 4 C5.67 4.99 5.34 5.98 5 7 C2.03824877 6.38722388 0.61941217 5.74627478 -2 4 C-1.34 2.68 -0.68 1.36 0 0 Z " fill="#161616" transform="translate(562,423)"/>
<path d="M0 0 C0.99 0.33 1.98 0.66 3 1 C2.34 1 1.68 1 1 1 C0.30840599 2.84725052 0.30840599 2.84725052 0 5 C0.99 6.485 0.99 6.485 2 8 C2 8.66 2 9.32 2 10 C1.34 10 0.68 10 0 10 C0 9.34 0 8.68 0 8 C-0.66 8 -1.32 8 -2 8 C-2 7.34 -2 6.68 -2 6 C-2.66 6 -3.32 6 -4 6 C-4 5.34 -4 4.68 -4 4 C-3.34 4 -2.68 4 -2 4 C-1.34 2.68 -0.68 1.36 0 0 Z " fill="#171717" transform="translate(351,334)"/>
<path d="M0 0 C2.375 0.3125 2.375 0.3125 5 1 C5.66 1.99 6.32 2.98 7 4 C4.36 4.33 1.72 4.66 -1 5 C-0.67 3.35 -0.34 1.7 0 0 Z " fill="#8F8F8F" transform="translate(418,755)"/>
<path d="M0 0 C1.66611905 -0.042721 3.33382885 -0.04063832 5 0 C6 1 6 1 6.0625 4.0625 C6.041875 5.031875 6.02125 6.00125 6 7 C5.34 7 4.68 7 4 7 C4 5.35 4 3.7 4 2 C3.01 2 2.02 2 1 2 C1 3.65 1 5.3 1 7 C0.67 7 0.34 7 0 7 C0 4.69 0 2.38 0 0 Z " fill="#505050" transform="translate(314,756)"/>
<path d="M0 0 C1.2065625 0.0309375 1.2065625 0.0309375 2.4375 0.0625 C2.4375 2.0425 2.4375 4.0225 2.4375 6.0625 C1.7775 5.0725 1.1175 4.0825 0.4375 3.0625 C-0.2225 3.0625 -0.8825 3.0625 -1.5625 3.0625 C-1.5625 3.7225 -1.5625 4.3825 -1.5625 5.0625 C-0.9025 5.7225 -0.2425 6.3825 0.4375 7.0625 C-0.8825 7.0625 -2.2025 7.0625 -3.5625 7.0625 C-3.60504356 5.06295254 -3.60330783 3.06208364 -3.5625 1.0625 C-2.5625 0.0625 -2.5625 0.0625 0 0 Z " fill="#4C4C4C" transform="translate(309.5625,755.9375)"/>
<path d="M0 0 C0.66 0.33 1.32 0.66 2 1 C0.49776416 5.20626034 -2.28550034 6.73900021 -6 9 C-6.66 8.67 -7.32 8.34 -8 8 C-5.36 5.36 -2.72 2.72 0 0 Z " fill="#F0F0F0" transform="translate(551,404)"/>
<path d="M0 0 C0.66 0 1.32 0 2 0 C2 0.66 2 1.32 2 2 C2.66 2 3.32 2 4 2 C4 3.65 4 5.3 4 7 C2 6 0 5 -2 4 C-1.34 2.68 -0.68 1.36 0 0 Z " fill="#151515" transform="translate(450,335)"/>
<path d="M0 0 C0.66 0 1.32 0 2 0 C2.66666667 1.33333333 3.33333333 2.66666667 4 4 C4.66 4 5.32 4 6 4 C5.67 4.99 5.34 5.98 5 7 C3.125 6.75 3.125 6.75 1 6 C-0.3125 4.0625 -0.3125 4.0625 -1 2 C-0.67 1.34 -0.34 0.68 0 0 Z " fill="#151515" transform="translate(416,269)"/>
<path d="M0 0 C0.66 0.33 1.32 0.66 2 1 C2 3.97 2 6.94 2 10 C1.01 10 0.02 10 -1 10 C-0.67 6.7 -0.34 3.4 0 0 Z " fill="#535353" transform="translate(486,754)"/>
<path d="M0 0 C1.98 0 3.96 0 6 0 C6.33 0.99 6.66 1.98 7 3 C5.68 3 4.36 3 3 3 C3 5.64 3 8.28 3 11 C2.67 11 2.34 11 2 11 C1.34 7.37 0.68 3.74 0 0 Z " fill="#777777" transform="translate(396,752)"/>
<path d="M0 0 C0.66 0 1.32 0 2 0 C2 0.99 2 1.98 2 3 C-0.70879335 4.35439668 -3.00933268 4.06501451 -6 4 C-6.33 3.01 -6.66 2.02 -7 1 C-5.5459375 1.0309375 -5.5459375 1.0309375 -4.0625 1.0625 C-1.12534105 1.35618499 -1.12534105 1.35618499 0 0 Z " fill="#5E5E5E" transform="translate(423,760)"/>
<path d="M0 0 C1.32 0 2.64 0 4 0 C4 1.65 4 3.3 4 5 C2.35 4.67 0.7 4.34 -1 4 C-0.67 2.68 -0.34 1.36 0 0 Z " fill="#EDEDED" transform="translate(368,752)"/>
<path d="M0 0 C0.66 0.33 1.32 0.66 2 1 C2 1.66 2 2.32 2 3 C1.01 3 0.02 3 -1 3 C-1.33 3.99 -1.66 4.98 -2 6 C-2.66 5.34 -3.32 4.68 -4 4 C-2.68 2.68 -1.36 1.36 0 0 Z M-9 9 C-8.34 9.66 -7.68 10.32 -7 11 C-7.99 11 -8.98 11 -10 11 C-9.67 10.34 -9.34 9.68 -9 9 Z " fill="#0A0A0A" transform="translate(546,367)"/>
<path d="M0 0 C4 4.625 4 4.625 4 8 C2.02 7.34 0.04 6.68 -2 6 C-1.125 1.125 -1.125 1.125 0 0 Z " fill="#0A0A0A" transform="translate(343,342)"/>
<path d="M0 0 C0.99 0 1.98 0 3 0 C3.6875 2.3125 3.6875 2.3125 4 5 C2.5625 6.8125 2.5625 6.8125 1 8 C0.01 7.67 -0.98 7.34 -2 7 C-1.01 6.67 -0.02 6.34 1 6 C0.67 4.02 0.34 2.04 0 0 Z " fill="#212121" transform="translate(466,322)"/>
<path d="M0 0 C0.99 0.33 1.98 0.66 3 1 C3 1.99 3 2.98 3 4 C2.34 4 1.68 4 1 4 C1 4.66 1 5.32 1 6 C2.32 5.67 3.64 5.34 5 5 C5 5.66 5 6.32 5 7 C3.33388095 7.042721 1.66617115 7.04063832 0 7 C-1 6 -1 6 -1.125 3.5 C-1 1 -1 1 0 0 Z " fill="#575757" transform="translate(322,756)"/>
<path d="M0 0 C1.98 0.99 3.96 1.98 6 3 C5.01 4.485 5.01 4.485 4 6 C2.68 5.67 1.36 5.34 0 5 C0 3.35 0 1.7 0 0 Z " fill="#DEDEDE" transform="translate(464,756)"/>
<path d="M0 0 C1.32 0 2.64 0 4 0 C4 0.66 4 1.32 4 2 C4.66 2 5.32 2 6 2 C6 2.66 6 3.32 6 4 C3.36 4 0.72 4 -2 4 C-1.34 2.68 -0.68 1.36 0 0 Z " fill="#101010" transform="translate(314,473)"/>
<path d="M0 0 C0.94875 0.04125 1.8975 0.0825 2.875 0.125 C1.946875 0.4653125 1.946875 0.4653125 1 0.8125 C-1.73910209 2.50429835 -2.17524472 4.11744161 -3.125 7.125 C-3.785 7.125 -4.445 7.125 -5.125 7.125 C-5.25 4.75 -5.25 4.75 -5.125 2.125 C-3.125 0.125 -3.125 0.125 0 0 Z " fill="#484848" transform="translate(478.125,752.875)"/>
<path d="M0 0 C1.65 0 3.3 0 5 0 C5.33 0.66 5.66 1.32 6 2 C5.67 2.99 5.34 3.98 5 5 C3.35 5 1.7 5 0 5 C0 3.33333333 0 1.66666667 0 0 Z " fill="#B0B0B0" transform="translate(406,752)"/>
<path d="M0 0 C1.32 0.33 2.64 0.66 4 1 C4 1.66 4 2.32 4 3 C5.65 2.34 7.3 1.68 9 1 C9 1.66 9 2.32 9 3 C8.34 3 7.68 3 7 3 C6.67 3.66 6.34 4.32 6 5 C4.02 4.34 2.04 3.68 0 3 C0 2.01 0 1.02 0 0 Z " fill="#E5E5E5" transform="translate(376,746)"/>
<path d="M0 0 C0.66 0.33 1.32 0.66 2 1 C1.67 2.32 1.34 3.64 1 5 C-0.32 5.33 -1.64 5.66 -3 6 C-3 3 -3 3 -1.5 1.3125 C-0.7575 0.6628125 -0.7575 0.6628125 0 0 Z " fill="#101010" transform="translate(364,521)"/>
<path d="M0 0 C2.475 0.495 2.475 0.495 5 1 C5 1.66 5 2.32 5 3 C5.66 3 6.32 3 7 3 C7 3.66 7 4.32 7 5 C6.01 5.33 5.02 5.66 4 6 C1.7522025 3.94766315 0.9977758 2.99332739 0 0 Z " fill="#151515" transform="translate(582,303)"/>
<path d="M0 0 C0.2475 0.598125 0.495 1.19625 0.75 1.8125 C2.16370012 4.28647521 3.65055383 5.43370255 6 7 C4.02 7 2.04 7 0 7 C-0.66 5.68 -1.32 4.36 -2 3 C-1.34 3 -0.68 3 0 3 C0 2.01 0 1.02 0 0 Z " fill="#656565" transform="translate(475,757)"/>
<path d="M0 0 C0.66 0 1.32 0 2 0 C2 1.65 2 3.3 2 5 C-0.31 5 -2.62 5 -5 5 C-5 4.34 -5 3.68 -5 3 C-3.35 3 -1.7 3 0 3 C0 2.01 0 1.02 0 0 Z " fill="#585858" transform="translate(411,754)"/>
<path d="M0 0 C-0.66 1.32 -1.32 2.64 -2 4 C-2.66 4 -3.32 4 -4 4 C-4.33 4.66 -4.66 5.32 -5 6 C-5.66 5.67 -6.32 5.34 -7 5 C-6.1875 3.0625 -6.1875 3.0625 -5 1 C-2 0 -2 0 0 0 Z " fill="#101010" transform="translate(382,507)"/>
<path d="M0 0 C3.875 1.75 3.875 1.75 5 4 C3.35 4.66 1.7 5.32 0 6 C-0.66 4.68 -1.32 3.36 -2 2 C-1.34 2 -0.68 2 0 2 C0 1.34 0 0.68 0 0 Z " fill="#E7E7E7" transform="translate(211,364)"/>
<path d="M0 0 C0.33 0.66 0.66 1.32 1 2 C1.66 2 2.32 2 3 2 C3.33 1.34 3.66 0.68 4 0 C4 0.99 4 1.98 4 3 C4.66 3 5.32 3 6 3 C5.67 3.99 5.34 4.98 5 6 C3.0625 5.25 3.0625 5.25 1 4 C0.25 1.875 0.25 1.875 0 0 Z " fill="#171717" transform="translate(444,442)"/>
<path d="M0 0 C0.99 0 1.98 0 3 0 C3 0.66 3 1.32 3 2 C4.32 2.66 5.64 3.32 7 4 C5.35 4 3.7 4 2 4 C1.67 4.66 1.34 5.32 1 6 C1 5.34 1 4.68 1 4 C0.34 4 -0.32 4 -1 4 C-0.67 2.68 -0.34 1.36 0 0 Z " fill="#0D0D0D" transform="translate(556,430)"/>
<path d="M0 0 C3.68754757 0.49831724 5.60490662 1.10067643 8 4 C7.01 4.66 6.02 5.32 5 6 C4.34 5.67 3.68 5.34 3 5 C3 3.68 3 2.36 3 1 C2.01 0.67 1.02 0.34 0 0 Z " fill="#080808" transform="translate(558,427)"/>
<path d="M0 0 C1.32 0 2.64 0 4 0 C4 1.65 4 3.3 4 5 C3.01 5 2.02 5 1 5 C0.67 3.35 0.34 1.7 0 0 Z " fill="#A1A1A1" transform="translate(456,761)"/>
<path d="M0 0 C-0.25 1.875 -0.25 1.875 -1 4 C-3.0625 5.25 -3.0625 5.25 -5 6 C-5.66 5.34 -6.32 4.68 -7 4 C-3.375 0 -3.375 0 0 0 Z " fill="#E6E6E6" transform="translate(385,760)"/>
<path d="M0 0 C-0.66 1.65 -1.32 3.3 -2 5 C-2.99 5 -3.98 5 -5 5 C-4.625 3.0625 -4.625 3.0625 -4 1 C-2 0 -2 0 0 0 Z " fill="#535353" transform="translate(383,758)"/>
<path d="M0 0 C0.99 0.33 1.98 0.66 3 1 C2.34 2.32 1.68 3.64 1 5 C-0.32 4.67 -1.64 4.34 -3 4 C-2.01 2.68 -1.02 1.36 0 0 Z " fill="#0F0F0F" transform="translate(435,450)"/>
<path d="M0 0 C0.66 0 1.32 0 2 0 C1.1654738 2.50357861 0.20628008 4.66785852 -1 7 C-1.66 7 -2.32 7 -3 7 C-3.33 6.01 -3.66 5.02 -4 4 C-3.34 4 -2.68 4 -2 4 C-1.34 2.68 -0.68 1.36 0 0 Z " fill="#0D0D0D" transform="translate(223,362)"/>
<path d="M0 0 C2.64 0 5.28 0 8 0 C7.34 1.32 6.68 2.64 6 4 C4.02 3.34 2.04 2.68 0 2 C0 1.34 0 0.68 0 0 Z " fill="#111111" transform="translate(432,254)"/>
<path d="M0 0 C0.33 0.99 0.66 1.98 1 3 C-0.3125 5.1875 -0.3125 5.1875 -2 7 C-2.66 7 -3.32 7 -4 7 C-2.92598892 4.08482708 -2.22189824 2.22189824 0 0 Z " fill="#F5F5F5" transform="translate(376,362)"/>
<path d="M0 0 C1.32 0 2.64 0 4 0 C4 0.66 4 1.32 4 2 C4.66 2 5.32 2 6 2 C5.67 2.66 5.34 3.32 5 4 C3.02 3.34 1.04 2.68 -1 2 C-0.67 1.34 -0.34 0.68 0 0 Z " fill="#0C0C0C" transform="translate(329,356)"/>
<path d="M0 0 C0.33 0.66 0.66 1.32 1 2 C-0.4375 4.625 -0.4375 4.625 -2 7 C-2.33 6.34 -2.66 5.68 -3 5 C-3.66 4.67 -4.32 4.34 -5 4 C-3.35 2.68 -1.7 1.36 0 0 Z " fill="#DEDEDE" transform="translate(345,312)"/>
</svg>
