<?xml version="1.0" encoding="utf-8"?>
<!-- Generator: Adobe Illustrator 27.5.0, SVG Export Plug-In . SVG Version: 6.00 Build 0)  -->
<svg version="1.1" xmlns="http://www.w3.org/2000/svg" xmlns:xlink="http://www.w3.org/1999/xlink" x="0px" y="0px"
	 viewBox="0 0 600 600" style="enable-background:new 0 0 600 600;" xml:space="preserve">
<g id="background">
	<rect style="fill:#FFFFFF;" width="600" height="600"/>
</g>
<g id="objects">
	<g>
		<defs>
			<rect id="SVGID_1_" width="600" height="600"/>
		</defs>
		<clipPath id="SVGID_00000134967962241450149860000002507165815622997181_">
			<use xlink:href="#SVGID_1_"  style="overflow:visible;"/>
		</clipPath>
		<g style="clip-path:url(#SVGID_00000134967962241450149860000002507165815622997181_);">
			<g>
				<g>
					
						<linearGradient id="SVGID_00000021809158655198675530000001928556162798296197_" gradientUnits="userSpaceOnUse" x1="201.6492" y1="227.9872" x2="437.3476" y2="367.9884">
						<stop  offset="0" style="stop-color:#F71B38"/>
						<stop  offset="1" style="stop-color:#A60437"/>
					</linearGradient>
					<path style="fill:url(#SVGID_00000021809158655198675530000001928556162798296197_);" d="M442,271.208
						C442,374.75,300,428,300,428s-142-53.25-142-156.792c0-44.138,34.307-79.875,76.68-79.875c27.605,0,51.802,15.206,65.32,37.985
						c13.518-22.779,37.715-37.985,65.32-37.985C407.693,191.333,442,227.07,442,271.208z"/>
				</g>
			</g>
		</g>
		
			<linearGradient id="SVGID_00000168804201306490910430000001118665903420729533_" gradientUnits="userSpaceOnUse" x1="146.6753" y1="376.07" x2="146.6753" y2="376.07">
			<stop  offset="0" style="stop-color:#F71B38"/>
			<stop  offset="1" style="stop-color:#A60437"/>
		</linearGradient>
		
			<line style="clip-path:url(#SVGID_00000134967962241450149860000002507165815622997181_);fill:url(#SVGID_00000168804201306490910430000001118665903420729533_);" x1="146.675" y1="376.074" x2="146.675" y2="376.066"/>
		<g style="clip-path:url(#SVGID_00000134967962241450149860000002507165815622997181_);">
			<g>
				
					<linearGradient id="SVGID_00000119093069826915590880000012814878416538509696_" gradientUnits="userSpaceOnUse" x1="205.015" y1="495.7183" x2="221.002" y2="496.881">
					<stop  offset="0" style="stop-color:#F79B77"/>
					<stop  offset="1" style="stop-color:#DB7455"/>
				</linearGradient>
				<path style="fill:url(#SVGID_00000119093069826915590880000012814878416538509696_);" d="M215.232,514.871
					c-3.018-4.816-8.056-8.59-8.056-8.59c-0.177-6.187-4.142-27.905-4.142-27.905c0.092-0.486,1.143-0.548,1.202-1.125
					c1.863,0.328,5.242,1.666,7.538,6.889c2.637,6.016,4.494,8.477,5.511,16.074c0,0,5.413,4.809,6.6,14.657H215.232z"/>
				
					<linearGradient id="SVGID_00000180355352496057035380000011292947869571138711_" gradientUnits="userSpaceOnUse" x1="190.0511" y1="481.4343" x2="210.9795" y2="481.289">
					<stop  offset="0" style="stop-color:#F79B77"/>
					<stop  offset="1" style="stop-color:#DB7455"/>
				</linearGradient>
				<path style="fill:url(#SVGID_00000180355352496057035380000011292947869571138711_);" d="M185.665,447.148
					c5.83-3.336,6.873-3.402,7.936-3.232c4.166,0.663,8.398,3.858,9.684,13.476c1.017,7.611,1.45,15.195,0.951,19.86
					c-0.059,0.577-0.131,1.109-0.223,1.594c0,0,4.041,19.243,4.219,25.43c0,0,3.982,3.799,7,8.614
					c-1.181,0.118-9.507,5.985-9.507,5.985L185.665,447.148z"/>
				
					<linearGradient id="SVGID_00000057119264231619756780000012059569249678988202_" gradientUnits="userSpaceOnUse" x1="182.9466" y1="475.9612" x2="200.823" y2="473.3452">
					<stop  offset="0" style="stop-color:#F79B77"/>
					<stop  offset="1" style="stop-color:#DB7455"/>
				</linearGradient>
				<path style="fill:url(#SVGID_00000057119264231619756780000012059569249678988202_);" d="M206.939,517.217
					c-10.833-3.494-30.163-56.16-33.421-67.56c-0.426-1.647-1.233-4.691-2.244-7.971c-1.45-4.704,1.942-9.553,6.856-9.743
					c4.212-0.171,8.988,2.132,12.131,11.317c0.092,0.276,0.184,0.545,0.269,0.814c3.713,11.167,3.772,18.534,3.175,22.74
					c0,0,6.088,12.203,6.226,28.763c0,0,1.457,2.913,1.857,5.826c0,0,6.462,5.977,9.986,12.321L206.939,517.217z"/>
				
					<linearGradient id="SVGID_00000111159297631678589660000002402426957495818664_" gradientUnits="userSpaceOnUse" x1="197.0217" y1="597.7117" x2="347.5898" y2="527.9504">
					<stop  offset="0" style="stop-color:#F79B77"/>
					<stop  offset="1" style="stop-color:#DB7455"/>
				</linearGradient>
				<path style="fill:url(#SVGID_00000111159297631678589660000002402426957495818664_);" d="M271.511,635.171
					c0.44-9.841-3.608-19.414-11.147-25.751c-10.281-8.647-24.124-15.707-33.421-18.534c-7.617-2.316-12.84-5.367-15.995-7.624
					c-2.277-1.634-3.845-4.061-4.429-6.797c-4.698-22.097-15.995-33.716-26.217-54.153c-4.907-9.815-4.186-15.543-10.76-39.463
					c-3.359-12.21-5.78-19.433-7.348-23.58c-1.463-3.877,0.479-8.28,4.396-9.651c2.047-0.709,4.422-0.932,6.928,0.039
					c3.202,1.24,6.607,4.442,9.776,11.075c3.458,7.223,5.977,16.14,5.977,16.14c4.186,5.977,10.93,22.504,11.363,31.092
					c0,0,4.205,2.349,8.444,7.217c0.085-0.066,0.171-0.125,0.262-0.184c0.085-0.059,0.171-0.112,0.262-0.171
					c0.695-0.44,1.417-0.807,2.172-1.102c1.109-0.44,2.277-0.715,3.458-0.833c2.224-0.223,4.507,0.131,6.607,1.056
					c0.636,0.282,1.325,0.591,2.047,0.925v0.007c7.263,3.385,18.37,9.494,24.964,17.649c2.316,2.874,4.789,5.452,7.387,7.761
					c10.025,8.923,23.114,13.502,36.537,13.574c8.857,0.039,27.017,5.216,32.542,18.397c7.945,18.98,0.197,32.666-0.052,52.841
					c-0.518,41.32,7.611,71.9,7.611,71.9l-76.079-0.21C256.795,696.79,269.49,680.362,271.511,635.171z"/>
				
					<linearGradient id="SVGID_00000103970474812062612030000002515297389346759054_" gradientUnits="userSpaceOnUse" x1="201.3338" y1="550.3524" x2="274.9883" y2="550.3524">
					<stop  offset="0" style="stop-color:#DD7356"/>
					<stop  offset="1" style="stop-color:#DB7455"/>
				</linearGradient>
				<path style="fill:url(#SVGID_00000103970474812062612030000002515297389346759054_);" d="M274.988,589.803
					c-7.689-2.152-14.184-13.036-14.184-13.036c-18.167-9.592-32.194-22.596-32.194-22.596s-10.169-3.49-20.634-17.734
					c-10.018-13.64-6.607-21.703-3.261-25.535c1.319,1.102,2.841,2.526,4.363,4.278c-5.852,4.074-4.074,11.324,0.131,17.262
					c9.093,12.826,21.224,18.738,21.224,18.738c7.945,7.768,32.122,24.288,32.122,24.288S267.942,586.627,274.988,589.803z"/>
			</g>
			<g>
				
					<linearGradient id="SVGID_00000085245459909598403230000010107503632538454167_" gradientUnits="userSpaceOnUse" x1="118.8018" y1="513.8554" x2="134.7888" y2="515.0181" gradientTransform="matrix(0.7071 -0.7071 0.7071 0.7071 -76.127 226.2132)">
					<stop  offset="0" style="stop-color:#804C3D"/>
					<stop  offset="1" style="stop-color:#593629"/>
				</linearGradient>
				<path style="fill:url(#SVGID_00000085245459909598403230000010107503632538454167_);" d="M391.997,511.877
					c-5.539-1.271-11.771-0.378-11.771-0.378c-4.5-4.249-22.66-16.803-22.66-16.803c-0.278-0.408,0.421-1.196,0.055-1.646
					c1.549-1.086,4.885-2.528,10.202-0.459c6.119,2.389,9.172,2.816,15.263,7.469c0,0,7.228-0.427,15.031,5.697L391.997,511.877z"/>
				
					<linearGradient id="SVGID_00000091708479248120333140000016322281854467827092_" gradientUnits="userSpaceOnUse" x1="103.8379" y1="499.5714" x2="124.7663" y2="499.4261" gradientTransform="matrix(0.7071 -0.7071 0.7071 0.7071 -76.127 226.2132)">
					<stop  offset="0" style="stop-color:#804C3D"/>
					<stop  offset="1" style="stop-color:#593629"/>
				</linearGradient>
				<path style="fill:url(#SVGID_00000091708479248120333140000016322281854467827092_);" d="M323.202,484.896
					c1.763-6.482,2.455-7.266,3.327-7.897c3.414-2.477,8.666-3.21,16.376,2.681c6.101,4.662,11.77,9.719,14.716,13.37
					c0.367,0.45,0.691,0.877,0.97,1.285c0,0,16.465,10.749,20.965,14.999c0,0,5.502-0.13,11.041,1.141
					c-0.752,0.919-2.49,10.954-2.49,10.954L323.202,484.896z"/>
				
					<linearGradient id="SVGID_00000089555601695413318280000001531241086133344930_" gradientUnits="userSpaceOnUse" x1="96.7334" y1="494.0983" x2="114.6098" y2="491.4823" gradientTransform="matrix(0.7071 -0.7071 0.7071 0.7071 -76.127 226.2132)">
					<stop  offset="0" style="stop-color:#804C3D"/>
					<stop  offset="1" style="stop-color:#593629"/>
				</linearGradient>
				<path style="fill:url(#SVGID_00000089555601695413318280000001531241086133344930_);" d="M387.792,519.4
					c-10.131,5.19-61.039-18.383-71.404-24.14c-1.466-0.863-4.189-2.445-7.223-4.05c-4.352-2.301-5.381-8.128-2.041-11.737
					c2.858-3.099,7.863-4.848,16.581-0.575c0.26,0.13,0.515,0.255,0.765,0.385c10.522,5.27,15.773,10.438,18.325,13.834
					c0,0,12.934,4.324,24.741,15.936c0,0,3.09,1.03,5.433,2.807c0,0,8.796-0.343,15.773,1.652L387.792,519.4z"/>
				
					<linearGradient id="SVGID_00000011024016018537474700000011024324540316776854_" gradientUnits="userSpaceOnUse" x1="115.0835" y1="625.0758" x2="265.6517" y2="555.3145" gradientTransform="matrix(0.7071 -0.7071 0.7071 0.7071 -76.127 226.2132)">
					<stop  offset="0" style="stop-color:#804C3D"/>
					<stop  offset="1" style="stop-color:#593629"/>
				</linearGradient>
				<path style="fill:url(#SVGID_00000011024016018537474700000011024324540316776854_);" d="M516.857,557.146
					c-6.648-7.27-16.279-11.176-26.091-10.327c-13.384,1.155-28.165,5.952-36.738,10.526c-7.024,3.748-12.874,5.284-16.701,5.92
					c-2.765,0.455-5.59-0.153-7.938-1.675c-18.947-12.303-35.151-12.531-56.83-19.754c-10.41-3.47-13.95-8.03-35.513-20.297
					c-11.009-6.258-17.828-9.654-21.869-11.477c-3.776-1.707-5.516-6.193-3.716-9.933c0.946-1.948,2.468-3.786,4.927-4.871
					c3.141-1.387,7.812-1.531,14.743,0.919c7.553,2.663,15.639,7.186,15.639,7.186c7.186,1.267,23.641,8.184,30.02,13.95
					c0,0,4.635-1.313,11.074-0.867c0.014-0.107,0.032-0.209,0.056-0.315c0.019-0.102,0.042-0.2,0.065-0.306
					c0.181-0.803,0.431-1.573,0.756-2.315c0.473-1.095,1.104-2.115,1.856-3.034c1.415-1.73,3.28-3.094,5.419-3.925
					c0.649-0.251,1.355-0.52,2.102-0.793l0.005,0.005c7.529-2.742,19.703-6.277,30.132-5.173c3.67,0.394,7.242,0.469,10.712,0.264
					c13.398-0.779,25.891-6.796,35.434-16.237c6.291-6.235,22.792-15.416,36.019-10.002c19.039,7.803,23.238,22.959,37.327,37.401
					c28.851,29.584,56.223,45.46,56.223,45.46L606,611l-55.978,0.123C550.022,611.123,547.383,590.53,516.857,557.146z"/>
				
					<linearGradient id="SVGID_00000061457659918603755550000006911280653661066645_" gradientUnits="userSpaceOnUse" x1="115.1206" y1="568.4894" x2="188.7751" y2="568.4894" gradientTransform="matrix(0.7071 -0.7071 0.7071 0.7071 -76.127 226.2132)">
					<stop  offset="0" style="stop-color:#633B2E"/>
					<stop  offset="1" style="stop-color:#593629"/>
				</linearGradient>
				<path style="fill:url(#SVGID_00000061457659918603755550000006911280653661066645_);" d="M487.235,522.607
					c-6.959,3.916-19.248,0.812-19.248,0.812c-19.628,6.063-38.742,6.787-38.742,6.787s-9.659,4.723-27.13,2.051
					c-16.729-2.561-20.018-10.675-20.361-15.75c1.712-0.153,3.795-0.223,6.11-0.06c-1.257,7.019,5.126,10.888,12.299,12.113
					c15.5,2.64,28.257-1.758,28.257-1.758c11.111-0.125,39.888-5.539,39.888-5.539S480.008,525.344,487.235,522.607z"/>
			</g>
			<g>
				
					<linearGradient id="SVGID_00000047742168558837606630000016456570804979419315_" gradientUnits="userSpaceOnUse" x1="45.015" y1="465.7183" x2="61.002" y2="466.881" gradientTransform="matrix(4.489700e-11 -1 1 4.489700e-11 30 440)">
					<stop  offset="0.0012" style="stop-color:#E67B5E"/>
					<stop  offset="1" style="stop-color:#CF5840"/>
				</linearGradient>
				<path style="fill:url(#SVGID_00000047742168558837606630000016456570804979419315_);" d="M514.871,384.768
					c-4.816,3.018-8.59,8.056-8.59,8.056c-6.187,0.177-27.905,4.142-27.905,4.142c-0.486-0.092-0.548-1.143-1.125-1.202
					c0.328-1.863,1.666-5.242,6.889-7.538c6.016-2.637,8.477-4.494,16.074-5.511c0,0,4.809-5.413,14.657-6.6V384.768z"/>
				
					<linearGradient id="SVGID_00000154394102640110075210000006312005271211199633_" gradientUnits="userSpaceOnUse" x1="30.0511" y1="451.4343" x2="50.9795" y2="451.289" gradientTransform="matrix(4.489700e-11 -1 1 4.489700e-11 30 440)">
					<stop  offset="0.0012" style="stop-color:#E67B5E"/>
					<stop  offset="1" style="stop-color:#CF5840"/>
				</linearGradient>
				<path style="fill:url(#SVGID_00000154394102640110075210000006312005271211199633_);" d="M447.148,414.335
					c-3.336-5.83-3.402-6.873-3.232-7.936c0.663-4.166,3.858-8.398,13.476-9.684c7.611-1.017,15.195-1.45,19.86-0.951
					c0.577,0.059,1.109,0.131,1.594,0.223c0,0,19.243-4.041,25.43-4.219c0,0,3.799-3.982,8.614-7
					c0.118,1.181,5.985,9.507,5.985,9.507L447.148,414.335z"/>
				
					<linearGradient id="SVGID_00000179626586890590629610000013844222923284284553_" gradientUnits="userSpaceOnUse" x1="22.9466" y1="445.9612" x2="40.823" y2="443.3452" gradientTransform="matrix(4.489700e-11 -1 1 4.489700e-11 30 440)">
					<stop  offset="0.0012" style="stop-color:#E67B5E"/>
					<stop  offset="1" style="stop-color:#CF5840"/>
				</linearGradient>
				<path style="fill:url(#SVGID_00000179626586890590629610000013844222923284284553_);" d="M517.217,393.061
					c-3.494,10.833-56.16,30.163-67.56,33.421c-1.647,0.426-4.691,1.233-7.971,2.244c-4.704,1.45-9.553-1.942-9.743-6.856
					c-0.171-4.212,2.132-8.988,11.317-12.131c0.276-0.092,0.545-0.184,0.814-0.269c11.167-3.713,18.534-3.772,22.74-3.175
					c0,0,12.203-6.088,28.763-6.226c0,0,2.913-1.457,5.826-1.857c0,0,5.977-6.462,12.321-9.986L517.217,393.061z"/>
				
					<linearGradient id="SVGID_00000038372310699961828180000012903042559534232192_" gradientUnits="userSpaceOnUse" x1="37.0217" y1="567.7117" x2="187.5899" y2="497.9504" gradientTransform="matrix(4.489700e-11 -1 1 4.489700e-11 30 440)">
					<stop  offset="0.0012" style="stop-color:#E67B5E"/>
					<stop  offset="1" style="stop-color:#CF5840"/>
				</linearGradient>
				<path style="fill:url(#SVGID_00000038372310699961828180000012903042559534232192_);" d="M635.171,328.489
					c-9.841-0.44-19.414,3.608-25.751,11.147c-8.647,10.281-15.707,24.124-18.534,33.421c-2.316,7.617-5.367,12.84-7.624,15.995
					c-1.634,2.277-4.061,3.845-6.797,4.429c-22.097,4.698-33.716,15.995-54.153,26.217c-9.815,4.908-15.543,4.186-39.463,10.76
					c-12.21,3.359-19.433,5.78-23.58,7.348c-3.877,1.463-8.28-0.479-9.651-4.396c-0.709-2.047-0.932-4.422,0.039-6.928
					c1.24-3.202,4.442-6.607,11.075-9.776c7.223-3.458,16.14-5.977,16.14-5.977c5.977-4.186,22.504-10.93,31.092-11.363
					c0,0,2.349-4.205,7.217-8.444c-0.066-0.085-0.125-0.171-0.184-0.262c-0.059-0.085-0.112-0.171-0.171-0.262
					c-0.44-0.695-0.807-1.417-1.102-2.172c-0.44-1.109-0.715-2.277-0.833-3.458c-0.223-2.224,0.131-4.507,1.056-6.607
					c0.282-0.636,0.591-1.325,0.925-2.047h0.007c3.385-7.263,9.494-18.37,17.649-24.964c2.874-2.316,5.452-4.789,7.761-7.387
					c8.923-10.025,13.502-23.114,13.574-36.537c0.039-8.857,5.216-27.017,18.397-32.542c18.98-7.945,32.666-0.197,52.841,0.052
					c41.32,0.518,71.9-7.611,71.9-7.611l-0.21,76.079C696.79,343.205,680.362,330.51,635.171,328.489z"/>
				
					<linearGradient id="SVGID_00000121983372507063872280000012516743731395687103_" gradientUnits="userSpaceOnUse" x1="41.3338" y1="520.3524" x2="114.9883" y2="520.3524" gradientTransform="matrix(4.489700e-11 -1 1 4.489700e-11 30 440)">
					<stop  offset="0" style="stop-color:#D25C44"/>
					<stop  offset="1" style="stop-color:#CF5840"/>
				</linearGradient>
				<path style="fill:url(#SVGID_00000121983372507063872280000012516743731395687103_);" d="M589.803,325.012
					c-2.152,7.689-13.036,14.184-13.036,14.184c-9.592,18.167-22.596,32.194-22.596,32.194s-3.49,10.169-17.734,20.634
					c-13.64,10.018-21.703,6.607-25.535,3.261c1.102-1.319,2.526-2.841,4.278-4.363c4.074,5.852,11.324,4.074,17.262-0.131
					c12.826-9.093,18.738-21.224,18.738-21.224c7.768-7.945,24.288-32.122,24.288-32.122S586.627,332.058,589.803,325.012z"/>
			</g>
			<g>
				
					<linearGradient id="SVGID_00000007422400620193120160000010398654879024746145_" gradientUnits="userSpaceOnUse" x1="26.8779" y1="379.5051" x2="42.8649" y2="380.6678" gradientTransform="matrix(-0.7071 -0.7071 0.7071 -0.7071 256.2132 516.127)">
					<stop  offset="0" style="stop-color:#804C3D"/>
					<stop  offset="1" style="stop-color:#593629"/>
				</linearGradient>
				<path style="fill:url(#SVGID_00000007422400620193120160000010398654879024746145_);" d="M511.877,208.003
					c-1.271,5.539-0.378,11.771-0.378,11.771c-4.249,4.5-16.803,22.66-16.803,22.66c-0.408,0.278-1.196-0.421-1.646-0.055
					c-1.086-1.549-2.528-4.885-0.459-10.202c2.389-6.119,2.816-9.172,7.469-15.263c0,0-0.427-7.228,5.697-15.031L511.877,208.003z"
					/>
				
					<linearGradient id="SVGID_00000013894383773113694070000001857285002945512361_" gradientUnits="userSpaceOnUse" x1="11.914" y1="365.2211" x2="32.8424" y2="365.0758" gradientTransform="matrix(-0.7071 -0.7071 0.7071 -0.7071 256.2132 516.127)">
					<stop  offset="0" style="stop-color:#804C3D"/>
					<stop  offset="1" style="stop-color:#593629"/>
				</linearGradient>
				<path style="fill:url(#SVGID_00000013894383773113694070000001857285002945512361_);" d="M484.896,276.798
					c-6.482-1.763-7.266-2.455-7.897-3.327c-2.477-3.414-3.21-8.666,2.681-16.376c4.662-6.101,9.719-11.77,13.37-14.716
					c0.45-0.367,0.877-0.691,1.285-0.97c0,0,10.749-16.465,14.999-20.965c0,0-0.13-5.502,1.141-11.041
					c0.919,0.752,10.954,2.49,10.954,2.49L484.896,276.798z"/>
				
					<linearGradient id="SVGID_00000111894285058616291790000011924419272193772191_" gradientUnits="userSpaceOnUse" x1="4.8096" y1="359.748" x2="22.6859" y2="357.132" gradientTransform="matrix(-0.7071 -0.7071 0.7071 -0.7071 256.2132 516.127)">
					<stop  offset="0" style="stop-color:#804C3D"/>
					<stop  offset="1" style="stop-color:#593629"/>
				</linearGradient>
				<path style="fill:url(#SVGID_00000111894285058616291790000011924419272193772191_);" d="M519.4,212.208
					c5.19,10.131-18.383,61.039-24.14,71.404c-0.863,1.466-2.445,4.189-4.05,7.223c-2.301,4.352-8.128,5.381-11.737,2.041
					c-3.099-2.858-4.848-7.863-0.575-16.581c0.13-0.26,0.255-0.515,0.385-0.765c5.27-10.522,10.438-15.773,13.834-18.325
					c0,0,4.324-12.934,15.936-24.741c0,0,1.03-3.09,2.807-5.433c0,0-0.343-8.796,1.652-15.773L519.4,212.208z"/>
				
					<linearGradient id="SVGID_00000159449443024779243210000010865684354133474200_" gradientUnits="userSpaceOnUse" x1="22.6926" y1="489.7174" x2="173.2608" y2="419.9561" gradientTransform="matrix(-0.7071 -0.7071 0.7071 -0.7071 256.2132 516.127)">
					<stop  offset="0" style="stop-color:#804C3D"/>
					<stop  offset="1" style="stop-color:#593629"/>
				</linearGradient>
				<path style="fill:url(#SVGID_00000159449443024779243210000010865684354133474200_);" d="M557.146,83.143
					c-7.27,6.648-11.176,16.279-10.327,26.091c1.155,13.384,5.952,28.165,10.526,36.738c3.748,7.024,5.284,12.874,5.92,16.701
					c0.455,2.765-0.153,5.59-1.675,7.938c-12.303,18.947-12.531,35.151-19.754,56.83c-3.47,10.41-8.03,13.95-20.297,35.513
					c-6.258,11.009-9.654,17.828-11.477,21.869c-1.707,3.776-6.193,5.516-9.933,3.716c-1.948-0.946-3.786-2.468-4.871-4.927
					c-1.387-3.141-1.531-7.812,0.919-14.743c2.663-7.553,7.186-15.639,7.186-15.639c1.267-7.186,8.184-23.641,13.95-30.02
					c0,0-1.313-4.635-0.867-11.074c-0.107-0.014-0.209-0.032-0.315-0.056c-0.102-0.019-0.2-0.042-0.306-0.065
					c-0.803-0.181-1.573-0.431-2.315-0.756c-1.095-0.473-2.115-1.104-3.034-1.856c-1.73-1.415-3.094-3.28-3.925-5.419
					c-0.251-0.649-0.52-1.355-0.793-2.102l0.005-0.005c-2.742-7.529-6.277-19.703-5.173-30.132c0.394-3.67,0.469-7.242,0.264-10.712
					c-0.779-13.398-6.796-25.891-16.237-35.434c-6.235-6.291-15.416-22.792-10.002-36.019c7.803-19.039,22.959-23.238,37.401-37.327
					c29.584-28.851,45.46-56.223,45.46-56.223L610-4l1.123,53.978C611.123,49.978,590.53,52.617,557.146,83.143z"/>
				
					<linearGradient id="SVGID_00000128463176222301688510000014018044680321202600_" gradientUnits="userSpaceOnUse" x1="23.1967" y1="434.1392" x2="96.8512" y2="434.1392" gradientTransform="matrix(-0.7071 -0.7071 0.7071 -0.7071 256.2132 516.127)">
					<stop  offset="0" style="stop-color:#633B2E"/>
					<stop  offset="1" style="stop-color:#593629"/>
				</linearGradient>
				<path style="fill:url(#SVGID_00000128463176222301688510000014018044680321202600_);" d="M522.607,112.765
					c3.916,6.959,0.812,19.248,0.812,19.248c6.063,19.628,6.787,38.742,6.787,38.742s4.723,9.659,2.051,27.13
					c-2.561,16.729-10.675,20.018-15.75,20.361c-0.153-1.712-0.223-3.795-0.06-6.11c7.019,1.257,10.888-5.126,12.113-12.299
					c2.64-15.5-1.758-28.257-1.758-28.257c-0.125-11.111-5.539-39.888-5.539-39.888S525.344,119.992,522.607,112.765z"/>
			</g>
			<g>
				
					<linearGradient id="SVGID_00000133509513508269267450000015220906830214756227_" gradientUnits="userSpaceOnUse" x1="75.015" y1="305.7183" x2="91.002" y2="306.881" gradientTransform="matrix(-1 0 0 -1 470 410)">
					<stop  offset="0.0012" style="stop-color:#E67B5E"/>
					<stop  offset="1" style="stop-color:#CF5840"/>
				</linearGradient>
				<path style="fill:url(#SVGID_00000133509513508269267450000015220906830214756227_);" d="M384.768,85.129
					c3.018,4.816,8.056,8.59,8.056,8.59c0.177,6.187,4.142,27.905,4.142,27.905c-0.092,0.485-1.143,0.548-1.202,1.125
					c-1.863-0.328-5.242-1.666-7.538-6.889c-2.637-6.016-4.494-8.477-5.511-16.074c0,0-5.413-4.809-6.6-14.657H384.768z"/>
				
					<linearGradient id="SVGID_00000023982180885402858900000000484683134766566064_" gradientUnits="userSpaceOnUse" x1="60.0511" y1="291.4343" x2="80.9795" y2="291.289" gradientTransform="matrix(-1 0 0 -1 470 410)">
					<stop  offset="0.0012" style="stop-color:#E67B5E"/>
					<stop  offset="1" style="stop-color:#CF5840"/>
				</linearGradient>
				<path style="fill:url(#SVGID_00000023982180885402858900000000484683134766566064_);" d="M414.335,152.852
					c-5.83,3.336-6.873,3.402-7.936,3.232c-4.166-0.663-8.398-3.858-9.684-13.476c-1.017-7.611-1.45-15.195-0.951-19.86
					c0.059-0.577,0.131-1.109,0.223-1.594c0,0-4.041-19.243-4.219-25.43c0,0-3.982-3.799-7-8.614
					c1.181-0.118,9.507-5.985,9.507-5.985L414.335,152.852z"/>
				
					<linearGradient id="SVGID_00000152223173541220516140000006328329693368869541_" gradientUnits="userSpaceOnUse" x1="52.9466" y1="285.9612" x2="70.823" y2="283.3452" gradientTransform="matrix(-1 0 0 -1 470 410)">
					<stop  offset="0.0012" style="stop-color:#E67B5E"/>
					<stop  offset="1" style="stop-color:#CF5840"/>
				</linearGradient>
				<path style="fill:url(#SVGID_00000152223173541220516140000006328329693368869541_);" d="M393.061,82.783
					c10.833,3.494,30.163,56.16,33.421,67.56c0.426,1.647,1.233,4.691,2.244,7.971c1.45,4.704-1.942,9.553-6.856,9.743
					c-4.212,0.171-8.988-2.132-12.131-11.317c-0.092-0.276-0.184-0.545-0.269-0.814c-3.713-11.167-3.772-18.534-3.175-22.74
					c0,0-6.088-12.203-6.226-28.763c0,0-1.457-2.913-1.857-5.826c0,0-6.462-5.977-9.986-12.321L393.061,82.783z"/>
				
					<linearGradient id="SVGID_00000132770391766105872480000010702412497590226864_" gradientUnits="userSpaceOnUse" x1="67.0217" y1="407.7117" x2="217.5899" y2="337.9504" gradientTransform="matrix(-1 0 0 -1 470 410)">
					<stop  offset="0.0012" style="stop-color:#E67B5E"/>
					<stop  offset="1" style="stop-color:#CF5840"/>
				</linearGradient>
				<path style="fill:url(#SVGID_00000132770391766105872480000010702412497590226864_);" d="M328.489-35.171
					c-0.44,9.841,3.608,19.414,11.147,25.751c10.281,8.647,24.124,15.707,33.421,18.534c7.617,2.316,12.84,5.367,15.995,7.624
					c2.277,1.634,3.845,4.061,4.429,6.797c4.698,22.097,15.995,33.716,26.217,54.153c4.908,9.815,4.186,15.543,10.76,39.463
					c3.359,12.21,5.78,19.433,7.348,23.58c1.463,3.877-0.479,8.28-4.396,9.651c-2.047,0.709-4.422,0.932-6.928-0.039
					c-3.202-1.24-6.607-4.442-9.776-11.075c-3.458-7.223-5.977-16.14-5.977-16.14c-4.186-5.977-10.93-22.504-11.363-31.092
					c0,0-4.205-2.349-8.444-7.217c-0.085,0.066-0.171,0.125-0.262,0.184c-0.085,0.059-0.171,0.112-0.262,0.171
					c-0.695,0.44-1.417,0.807-2.172,1.102c-1.109,0.44-2.277,0.715-3.458,0.833c-2.224,0.223-4.507-0.131-6.607-1.056
					c-0.636-0.282-1.325-0.59-2.047-0.925v-0.007c-7.263-3.385-18.37-9.494-24.964-17.649c-2.316-2.874-4.789-5.452-7.387-7.761
					c-10.025-8.923-23.114-13.502-36.537-13.574c-8.857-0.039-27.017-5.216-32.542-18.397c-7.945-18.98-0.197-32.666,0.052-52.841
					c0.518-41.32-7.611-71.9-7.611-71.9l76.079,0.21C343.205-96.79,330.51-80.362,328.489-35.171z"/>
				
					<linearGradient id="SVGID_00000093149415953030241010000013258446017048008375_" gradientUnits="userSpaceOnUse" x1="71.3338" y1="360.3524" x2="144.9883" y2="360.3524" gradientTransform="matrix(-1 0 0 -1 470 410)">
					<stop  offset="0" style="stop-color:#D25C44"/>
					<stop  offset="1" style="stop-color:#CF5840"/>
				</linearGradient>
				<path style="fill:url(#SVGID_00000093149415953030241010000013258446017048008375_);" d="M325.012,10.197
					c7.689,2.152,14.184,13.036,14.184,13.036c18.167,9.592,32.194,22.595,32.194,22.595s10.169,3.49,20.634,17.734
					c10.018,13.64,6.607,21.703,3.261,25.535c-1.319-1.102-2.841-2.526-4.363-4.278c5.852-4.074,4.074-11.324-0.131-17.262
					c-9.093-12.826-21.224-18.738-21.224-18.738c-7.945-7.768-32.122-24.288-32.122-24.288S332.058,13.373,325.012,10.197z"/>
			</g>
			<g>
				
					<linearGradient id="SVGID_00000043418291402690922560000003263225003441283723_" gradientUnits="userSpaceOnUse" x1="161.2282" y1="287.5812" x2="177.2152" y2="288.7439" gradientTransform="matrix(-0.7071 0.7071 -0.7071 -0.7071 546.127 183.7868)">
					<stop  offset="0" style="stop-color:#F79B77"/>
					<stop  offset="1" style="stop-color:#DB7455"/>
				</linearGradient>
				<path style="fill:url(#SVGID_00000043418291402690922560000003263225003441283723_);" d="M208.003,88.123
					c5.539,1.271,11.771,0.378,11.771,0.378c4.5,4.249,22.66,16.803,22.66,16.803c0.278,0.408-0.421,1.196-0.055,1.646
					c-1.549,1.086-4.885,2.528-10.202,0.459c-6.119-2.389-9.172-2.816-15.263-7.469c0,0-7.228,0.427-15.031-5.697L208.003,88.123z"
					/>
				
					<linearGradient id="SVGID_00000027590354230929576900000002608394119494980480_" gradientUnits="userSpaceOnUse" x1="146.2643" y1="273.2972" x2="167.1927" y2="273.1519" gradientTransform="matrix(-0.7071 0.7071 -0.7071 -0.7071 546.127 183.7868)">
					<stop  offset="0" style="stop-color:#F79B77"/>
					<stop  offset="1" style="stop-color:#DB7455"/>
				</linearGradient>
				<path style="fill:url(#SVGID_00000027590354230929576900000002608394119494980480_);" d="M276.798,115.104
					c-1.763,6.482-2.455,7.266-3.327,7.897c-3.414,2.477-8.666,3.21-16.376-2.681c-6.101-4.662-11.77-9.719-14.716-13.37
					c-0.367-0.45-0.691-0.877-0.97-1.285c0,0-16.465-10.749-20.965-14.999c0,0-5.502,0.13-11.041-1.141
					c0.752-0.919,2.49-10.954,2.49-10.954L276.798,115.104z"/>
				
					<linearGradient id="SVGID_00000031209370465553887040000004593608870529124527_" gradientUnits="userSpaceOnUse" x1="139.1599" y1="267.8242" x2="157.0362" y2="265.2081" gradientTransform="matrix(-0.7071 0.7071 -0.7071 -0.7071 546.127 183.7868)">
					<stop  offset="0" style="stop-color:#F79B77"/>
					<stop  offset="1" style="stop-color:#DB7455"/>
				</linearGradient>
				<path style="fill:url(#SVGID_00000031209370465553887040000004593608870529124527_);" d="M212.208,80.6
					c10.131-5.189,61.039,18.383,71.404,24.14c1.466,0.863,4.189,2.445,7.223,4.05c4.352,2.301,5.381,8.128,2.041,11.737
					c-2.858,3.099-7.863,4.848-16.581,0.575c-0.26-0.13-0.515-0.255-0.765-0.385c-10.522-5.27-15.773-10.438-18.325-13.834
					c0,0-12.934-4.324-24.741-15.936c0,0-3.09-1.03-5.433-2.807c0,0-8.796,0.343-15.773-1.652L212.208,80.6z"/>
				
					<linearGradient id="SVGID_00000062185734209874751360000011124941771568719019_" gradientUnits="userSpaceOnUse" x1="157.2402" y1="398.2195" x2="307.8084" y2="328.4581" gradientTransform="matrix(-0.7071 0.7071 -0.7071 -0.7071 546.127 183.7868)">
					<stop  offset="0" style="stop-color:#F79B77"/>
					<stop  offset="1" style="stop-color:#DB7455"/>
				</linearGradient>
				<path style="fill:url(#SVGID_00000062185734209874751360000011124941771568719019_);" d="M83.143,42.854
					c6.648,7.27,16.279,11.176,26.091,10.327c13.384-1.155,28.165-5.952,36.738-10.526c7.024-3.748,12.874-5.284,16.701-5.92
					c2.765-0.455,5.59,0.153,7.938,1.675c18.947,12.303,35.151,12.53,56.83,19.754c10.41,3.47,13.95,8.03,35.513,20.296
					c11.009,6.258,17.828,9.654,21.869,11.477c3.776,1.707,5.516,6.193,3.716,9.933c-0.946,1.948-2.468,3.786-4.927,4.871
					c-3.141,1.387-7.812,1.531-14.743-0.919c-7.553-2.663-15.639-7.186-15.639-7.186c-7.186-1.267-23.641-8.184-30.02-13.95
					c0,0-4.635,1.313-11.074,0.868c-0.014,0.107-0.032,0.209-0.056,0.315c-0.019,0.102-0.042,0.2-0.065,0.306
					c-0.181,0.803-0.431,1.573-0.756,2.315c-0.473,1.095-1.104,2.116-1.856,3.034c-1.415,1.73-3.28,3.094-5.419,3.925
					c-0.649,0.251-1.355,0.52-2.102,0.793l-0.005-0.005c-7.529,2.742-19.703,6.277-30.132,5.173
					c-3.67-0.394-7.242-0.469-10.712-0.264c-13.398,0.779-25.891,6.796-35.434,16.237c-6.291,6.235-22.792,15.416-36.019,10.002
					c-19.039-7.803-23.238-22.959-37.327-37.401C23.404,58.4-3.967,42.524-3.967,42.524L-5-10l54.978-1.123
					C49.978-11.123,52.617,9.47,83.143,42.854z"/>
				
					<linearGradient id="SVGID_00000020363890218868966160000002773693170732940944_" gradientUnits="userSpaceOnUse" x1="157.547" y1="342.2153" x2="231.2015" y2="342.2153" gradientTransform="matrix(-0.7071 0.7071 -0.7071 -0.7071 546.127 183.7868)">
					<stop  offset="0" style="stop-color:#DD7356"/>
					<stop  offset="1" style="stop-color:#DB7455"/>
				</linearGradient>
				<path style="fill:url(#SVGID_00000020363890218868966160000002773693170732940944_);" d="M112.765,77.393
					c6.959-3.916,19.248-0.812,19.248-0.812c19.628-6.063,38.742-6.787,38.742-6.787s9.659-4.723,27.13-2.051
					c16.729,2.561,20.018,10.675,20.361,15.75c-1.712,0.153-3.795,0.223-6.11,0.06c1.257-7.019-5.126-10.888-12.299-12.113
					c-15.5-2.64-28.257,1.758-28.257,1.758c-11.111,0.125-39.888,5.539-39.888,5.539S119.992,74.656,112.765,77.393z"/>
			</g>
			<g>
				
					<linearGradient id="SVGID_00000063602480396120043400000001279509010362184615_" gradientUnits="userSpaceOnUse" x1="235.015" y1="335.7183" x2="251.002" y2="336.881" gradientTransform="matrix(-4.489700e-11 1 -1 -4.489700e-11 440 -30)">
					<stop  offset="0" style="stop-color:#804C3D"/>
					<stop  offset="1" style="stop-color:#593629"/>
				</linearGradient>
				<path style="fill:url(#SVGID_00000063602480396120043400000001279509010362184615_);" d="M85.129,215.232
					c4.816-3.018,8.59-8.056,8.59-8.056c6.187-0.177,27.905-4.142,27.905-4.142c0.485,0.092,0.548,1.143,1.125,1.202
					c-0.328,1.863-1.666,5.242-6.889,7.538c-6.016,2.637-8.477,4.494-16.074,5.511c0,0-4.809,5.413-14.657,6.6V215.232z"/>
				
					<linearGradient id="SVGID_00000014601649346338399900000000950414370549410473_" gradientUnits="userSpaceOnUse" x1="220.0511" y1="321.4343" x2="240.9795" y2="321.289" gradientTransform="matrix(-4.489700e-11 1 -1 -4.489700e-11 440 -30)">
					<stop  offset="0" style="stop-color:#804C3D"/>
					<stop  offset="1" style="stop-color:#593629"/>
				</linearGradient>
				<path style="fill:url(#SVGID_00000014601649346338399900000000950414370549410473_);" d="M152.852,185.665
					c3.336,5.83,3.402,6.873,3.232,7.936c-0.663,4.166-3.858,8.398-13.476,9.684c-7.611,1.017-15.195,1.45-19.86,0.951
					c-0.577-0.059-1.109-0.131-1.594-0.223c0,0-19.243,4.041-25.43,4.219c0,0-3.799,3.982-8.614,7
					c-0.118-1.181-5.985-9.507-5.985-9.507L152.852,185.665z"/>
				
					<linearGradient id="SVGID_00000109016484918146576230000005242390584820360064_" gradientUnits="userSpaceOnUse" x1="212.9466" y1="315.9612" x2="230.823" y2="313.3452" gradientTransform="matrix(-4.489700e-11 1 -1 -4.489700e-11 440 -30)">
					<stop  offset="0" style="stop-color:#804C3D"/>
					<stop  offset="1" style="stop-color:#593629"/>
				</linearGradient>
				<path style="fill:url(#SVGID_00000109016484918146576230000005242390584820360064_);" d="M82.783,206.939
					c3.494-10.833,56.16-30.163,67.56-33.421c1.647-0.426,4.691-1.233,7.971-2.244c4.704-1.45,9.553,1.942,9.743,6.856
					c0.171,4.212-2.132,8.988-11.317,12.131c-0.276,0.092-0.545,0.184-0.814,0.269c-11.167,3.713-18.534,3.772-22.74,3.175
					c0,0-12.203,6.088-28.763,6.226c0,0-2.913,1.457-5.826,1.857c0,0-5.977,6.462-12.321,9.986L82.783,206.939z"/>
				
					<linearGradient id="SVGID_00000017479342637952148440000013259397754202102708_" gradientUnits="userSpaceOnUse" x1="227.0217" y1="437.7117" x2="377.5898" y2="367.9504" gradientTransform="matrix(-4.489700e-11 1 -1 -4.489700e-11 440 -30)">
					<stop  offset="0" style="stop-color:#804C3D"/>
					<stop  offset="1" style="stop-color:#593629"/>
				</linearGradient>
				<path style="fill:url(#SVGID_00000017479342637952148440000013259397754202102708_);" d="M-35.171,271.511
					c9.841,0.44,19.414-3.608,25.751-11.147c8.647-10.281,15.707-24.124,18.534-33.421c2.316-7.617,5.367-12.84,7.624-15.995
					c1.634-2.277,4.061-3.845,6.797-4.429c22.097-4.698,33.716-15.995,54.153-26.217c9.815-4.907,15.543-4.186,39.463-10.76
					c12.21-3.359,19.433-5.78,23.58-7.348c3.877-1.463,8.28,0.479,9.651,4.396c0.709,2.047,0.932,4.422-0.039,6.928
					c-1.24,3.202-4.442,6.607-11.075,9.776c-7.223,3.458-16.14,5.977-16.14,5.977c-5.977,4.186-22.504,10.93-31.092,11.363
					c0,0-2.349,4.205-7.217,8.444c0.066,0.085,0.125,0.171,0.184,0.262c0.059,0.085,0.112,0.171,0.171,0.262
					c0.44,0.695,0.807,1.417,1.102,2.172c0.44,1.109,0.715,2.277,0.833,3.458c0.223,2.224-0.131,4.507-1.056,6.607
					c-0.282,0.636-0.59,1.325-0.925,2.047h-0.007c-3.385,7.263-9.494,18.37-17.649,24.964c-2.874,2.316-5.452,4.789-7.761,7.387
					c-8.923,10.025-13.502,23.114-13.574,36.537c-0.039,8.857-5.216,27.017-18.397,32.542c-18.98,7.945-32.666,0.197-52.841-0.052
					c-41.32-0.518-71.9,7.611-71.9,7.611l0.21-76.079C-96.79,256.795-80.362,269.49-35.171,271.511z"/>
				
					<linearGradient id="SVGID_00000113315921654434442150000005074471440782832040_" gradientUnits="userSpaceOnUse" x1="231.3338" y1="390.3524" x2="304.9883" y2="390.3524" gradientTransform="matrix(-4.489700e-11 1 -1 -4.489700e-11 440 -30)">
					<stop  offset="0" style="stop-color:#633B2E"/>
					<stop  offset="1" style="stop-color:#593629"/>
				</linearGradient>
				<path style="fill:url(#SVGID_00000113315921654434442150000005074471440782832040_);" d="M10.197,274.988
					c2.152-7.689,13.036-14.184,13.036-14.184c9.592-18.167,22.595-32.194,22.595-32.194s3.49-10.169,17.734-20.634
					c13.64-10.018,21.703-6.607,25.535-3.261c-1.102,1.319-2.526,2.841-4.278,4.363c-4.074-5.852-11.324-4.074-17.262,0.131
					c-12.826,9.093-18.738,21.224-18.738,21.224c-7.768,7.945-24.288,32.122-24.288,32.122S13.373,267.942,10.197,274.988z"/>
			</g>
			<g>
				
					<linearGradient id="SVGID_00000133520705966270402210000002160029925934195389_" gradientUnits="userSpaceOnUse" x1="253.1521" y1="421.9315" x2="269.1391" y2="423.0942" gradientTransform="matrix(0.7071 0.7071 -0.7071 0.7071 213.7868 -106.127)">
					<stop  offset="0.0012" style="stop-color:#E67B5E"/>
					<stop  offset="1" style="stop-color:#CF5840"/>
				</linearGradient>
				<path style="fill:url(#SVGID_00000133520705966270402210000002160029925934195389_);" d="M88.123,391.997
					c1.271-5.539,0.378-11.771,0.378-11.771c4.249-4.5,16.803-22.66,16.803-22.66c0.408-0.278,1.196,0.421,1.646,0.055
					c1.086,1.549,2.528,4.885,0.459,10.202c-2.389,6.119-2.816,9.172-7.469,15.263c0,0,0.427,7.228-5.697,15.031L88.123,391.997z"/>
				
					<linearGradient id="SVGID_00000118377486506235240820000012131647587753477266_" gradientUnits="userSpaceOnUse" x1="238.1882" y1="407.6476" x2="259.1166" y2="407.5022" gradientTransform="matrix(0.7071 0.7071 -0.7071 0.7071 213.7868 -106.127)">
					<stop  offset="0.0012" style="stop-color:#E67B5E"/>
					<stop  offset="1" style="stop-color:#CF5840"/>
				</linearGradient>
				<path style="fill:url(#SVGID_00000118377486506235240820000012131647587753477266_);" d="M115.104,323.202
					c6.482,1.763,7.266,2.455,7.897,3.327c2.477,3.414,3.21,8.666-2.681,16.376c-4.662,6.101-9.719,11.77-13.37,14.716
					c-0.45,0.367-0.877,0.691-1.285,0.97c0,0-10.749,16.465-14.999,20.965c0,0,0.13,5.502-1.141,11.041
					c-0.919-0.752-10.954-2.49-10.954-2.49L115.104,323.202z"/>
				
					<linearGradient id="SVGID_00000136387110905624051450000005526595118052267910_" gradientUnits="userSpaceOnUse" x1="231.0837" y1="402.1744" x2="248.9601" y2="399.5584" gradientTransform="matrix(0.7071 0.7071 -0.7071 0.7071 213.7868 -106.127)">
					<stop  offset="0.0012" style="stop-color:#E67B5E"/>
					<stop  offset="1" style="stop-color:#CF5840"/>
				</linearGradient>
				<path style="fill:url(#SVGID_00000136387110905624051450000005526595118052267910_);" d="M80.6,387.792
					c-5.189-10.131,18.383-61.039,24.14-71.404c0.863-1.466,2.445-4.189,4.05-7.223c2.301-4.352,8.128-5.381,11.737-2.041
					c3.099,2.858,4.848,7.863,0.575,16.581c-0.13,0.26-0.255,0.515-0.385,0.765c-5.27,10.522-10.438,15.773-13.834,18.325
					c0,0-4.324,12.934-15.936,24.741c0,0-1.03,3.09-2.807,5.433c0,0,0.343,8.796-1.652,15.773L80.6,387.792z"/>
				
					<linearGradient id="SVGID_00000097496458333290845130000001193402074349034159_" gradientUnits="userSpaceOnUse" x1="249.1115" y1="532.4562" x2="399.6797" y2="462.6949" gradientTransform="matrix(0.7071 0.7071 -0.7071 0.7071 213.7868 -106.127)">
					<stop  offset="0.0012" style="stop-color:#E67B5E"/>
					<stop  offset="1" style="stop-color:#CF5840"/>
				</linearGradient>
				<path style="fill:url(#SVGID_00000097496458333290845130000001193402074349034159_);" d="M42.854,516.857
					c7.27-6.648,11.176-16.279,10.327-26.091c-1.155-13.384-5.952-28.165-10.526-36.738c-3.748-7.024-5.284-12.874-5.92-16.701
					c-0.455-2.765,0.153-5.59,1.675-7.938c12.303-18.947,12.53-35.151,19.754-56.83c3.47-10.41,8.03-13.95,20.296-35.513
					c6.258-11.009,9.654-17.828,11.477-21.869c1.707-3.776,6.193-5.516,9.933-3.716c1.948,0.946,3.786,2.468,4.871,4.927
					c1.387,3.141,1.531,7.812-0.919,14.743c-2.663,7.553-7.186,15.639-7.186,15.639c-1.267,7.186-8.184,23.641-13.95,30.02
					c0,0,1.313,4.635,0.868,11.074c0.107,0.014,0.209,0.032,0.315,0.056c0.102,0.019,0.2,0.042,0.306,0.065
					c0.803,0.181,1.573,0.431,2.315,0.756c1.095,0.473,2.116,1.104,3.034,1.856c1.73,1.415,3.094,3.28,3.925,5.419
					c0.251,0.649,0.52,1.355,0.793,2.102l-0.005,0.005c2.742,7.529,6.277,19.703,5.173,30.132c-0.394,3.67-0.469,7.242-0.264,10.712
					c0.779,13.398,6.796,25.891,16.237,35.434c6.235,6.291,15.416,22.792,10.002,36.019c-7.803,19.039-22.959,23.238-37.401,37.327
					c-29.584,28.851-45.46,56.223-45.46,56.223L-12,604l0.877-53.978C-11.123,550.022,9.47,547.383,42.854,516.857z"/>
				
					<linearGradient id="SVGID_00000147204898322179951780000012133443936379229855_" gradientUnits="userSpaceOnUse" x1="249.4709" y1="476.5656" x2="323.1254" y2="476.5656" gradientTransform="matrix(0.7071 0.7071 -0.7071 0.7071 213.7868 -106.127)">
					<stop  offset="0" style="stop-color:#D25C44"/>
					<stop  offset="1" style="stop-color:#CF5840"/>
				</linearGradient>
				<path style="fill:url(#SVGID_00000147204898322179951780000012133443936379229855_);" d="M77.393,487.235
					c-3.916-6.959-0.812-19.248-0.812-19.248c-6.063-19.628-6.787-38.742-6.787-38.742s-4.723-9.659-2.051-27.13
					c2.561-16.729,10.675-20.018,15.75-20.361c0.153,1.712,0.223,3.795,0.06,6.11c-7.019-1.257-10.888,5.126-12.113,12.299
					c-2.64,15.5,1.758,28.257,1.758,28.257c0.125,11.111,5.539,39.888,5.539,39.888S74.656,480.008,77.393,487.235z"/>
			</g>
		</g>
	</g>
</g>
</svg>
