<?xml version="1.0" encoding="UTF-8"?>
<svg version="1.1" xmlns="http://www.w3.org/2000/svg" width="936" height="612">
<path d="M0 0 C1.05852173 0.19734741 1.05852173 0.19734741 2.13842773 0.39868164 C3.59106712 0.67013201 5.04314843 0.94458749 6.49462891 1.22216797 C8.56037904 1.61278082 10.62866812 1.98344374 12.69921875 2.34765625 C20.8166247 3.79295048 28.75290648 5.59657881 36.7109375 7.7578125 C46.29266332 10.05312908 56.19598875 9.84105859 65.99121094 9.86523438 C68.3564799 9.87492413 70.72087178 9.90603135 73.0859375 9.9375 C82.72567794 10.00352217 91.24921703 9.02638382 100.625 6.625 C101.53604492 6.4487207 102.44708984 6.27244141 103.38574219 6.09082031 C105.64891195 5.71957626 105.64891195 5.71957626 107.625 4.625 C110.50432444 4.18571333 113.38953038 3.84432749 116.28173828 3.50244141 C117.02794434 3.41397949 117.77415039 3.32551758 118.54296875 3.234375 C119.34782715 3.13962891 120.15268555 3.04488281 120.98193359 2.94726562 C123.8622121 2.59607704 126.73737903 2.21346576 129.61328125 1.828125 C142.00055112 0.19937882 154.12900588 -1.07837791 166.625 -0.375 C167.32979492 -0.33777832 168.03458984 -0.30055664 168.76074219 -0.26220703 C180.74256731 0.48494652 189.86114874 3.29472481 198.25 12.1875 C202.92816288 17.54351913 202.98024881 23.0243606 202.90625 29.90625 C202.25338682 36.2172607 198.3562529 40.61372037 193.625 44.625 C186.47542577 49.64576842 178.79766922 52.66870026 170.625 55.625 C169.84721191 55.9535498 169.06942383 56.28209961 168.26806641 56.62060547 C163.60320253 58.39330545 158.70812946 59.10070219 153.8125 60 C152.64356201 60.21551514 151.47462402 60.43103027 150.27026367 60.65307617 C140.69243595 62.3629755 131.08946796 63.72634167 121.4375 64.9375 C120.75368256 65.02449158 120.06986511 65.11148315 119.36532593 65.20111084 C112.42315525 66.07605578 105.62616457 66.86519243 98.625 66.625 C98.295 67.285 97.965 67.945 97.625 68.625 C96.738125 68.604375 95.85125 68.58375 94.9375 68.5625 C89.82867336 68.65889296 85.58265505 69.90587583 80.8125 71.6875 C79.83667969 72.04972656 78.86085938 72.41195312 77.85546875 72.78515625 C77.11941406 73.06230469 76.38335937 73.33945312 75.625 73.625 C75.582279 75.29111905 75.58436168 76.95882885 75.625 78.625 C77.22423259 80.22423259 78.90813695 79.75485428 81.12109375 79.7578125 C82.53612183 79.76083374 82.53612183 79.76083374 83.97973633 79.76391602 C84.99704834 79.75932373 86.01436035 79.75473145 87.0625 79.75 C88.09334717 79.74734131 89.12419434 79.74468262 90.1862793 79.74194336 C96.77863651 79.70177396 103.35441694 79.54068871 109.9375 79.1875 C110.68894287 79.14834473 111.44038574 79.10918945 112.21459961 79.06884766 C116.04691191 78.87929363 116.04691191 78.87929363 119.625 77.625 C122.97270046 77.5545221 126.30851157 77.62824799 129.65625 77.6875 C132.55494225 77.83848248 132.55494225 77.83848248 134.625 76.625 C136.36916038 76.48327555 138.11814821 76.39891178 139.8671875 76.34375 C140.93453125 76.30636719 142.001875 76.26898438 143.1015625 76.23046875 C144.78378906 76.17826172 144.78378906 76.17826172 146.5 76.125 C160.44027096 76.58972612 160.44027096 76.58972612 173.625 73.625 C175.27017844 73.57857521 176.91710014 73.58722898 178.5625 73.625 C188.3544575 74.01862363 188.3544575 74.01862363 197.625 71.625 C199.12256871 71.53000497 200.62442932 71.49512802 202.125 71.5 C203.31609375 71.49613281 203.31609375 71.49613281 204.53125 71.4921875 C206.625 71.625 206.625 71.625 208.625 72.625 C208.955 71.965 209.285 71.305 209.625 70.625 C210.90375 70.66625 212.1825 70.7075 213.5 70.75 C218.61445438 70.73538727 223.66321651 70.36767428 228.75 69.875 C229.5013623 69.81328613 230.25272461 69.75157227 231.02685547 69.68798828 C236.44118952 69.11799601 241.06235514 67.67450064 245.625 64.625 C245.955 63.965 246.285 63.305 246.625 62.625 C248.11 62.13 248.11 62.13 249.625 61.625 C250.0684375 61.1815625 250.511875 60.738125 250.96875 60.28125 C253.87896922 57.37103078 257.53795257 55.48480326 261.03125 53.34375 C263.21841388 51.89442454 264.81170259 50.48212333 266.625 48.625 C268.8125 47.9375 268.8125 47.9375 270.625 47.625 C270.625 46.965 270.625 46.305 270.625 45.625 C275.00961538 42.625 275.00961538 42.625 277.625 42.625 C277.955 41.965 278.285 41.305 278.625 40.625 C280.23508755 39.52889102 281.88785919 38.4946934 283.5625 37.5 C284.90634766 36.69175781 284.90634766 36.69175781 286.27734375 35.8671875 C288.625 34.625 288.625 34.625 290.625 34.625 C290.955 33.965 291.285 33.305 291.625 32.625 C293.96853275 31.23623985 296.20238825 30.44385859 298.8125 29.625 C301.75365478 28.94512508 301.75365478 28.94512508 302.625 26.625 C304.59375 25.6953125 304.59375 25.6953125 307.125 24.75 C310.591389 23.42286821 313.9974118 22.03944496 317.375 20.5 C322.19654307 18.34008476 326.27116296 16.625 331.625 16.625 C331.955 15.965 332.285 15.305 332.625 14.625 C333.945 14.625 335.265 14.625 336.625 14.625 C336.955 13.965 337.285 13.305 337.625 12.625 C338.945 12.625 340.265 12.625 341.625 12.625 C343.08482101 12.47191016 344.54312922 12.30400119 346 12.125 C356.84958836 11.03523337 366.70724204 10.66612102 376.625 15.625 C377.305625 15.893125 377.98625 16.16125 378.6875 16.4375 C380.625 17.625 380.625 17.625 381.375 19.75 C381.49875 20.678125 381.49875 20.678125 381.625 21.625 C382.285 21.625 382.945 21.625 383.625 21.625 C383.8486337 23.03933206 384.05326476 24.45667618 384.25 25.875 C384.36601563 26.66390625 384.48203125 27.4528125 384.6015625 28.265625 C384.64304888 32.44192047 382.29979741 35.55393631 379.625 38.625 C376.95340512 40.42832654 374.68768393 41.60410536 371.625 42.625 C371.625 43.285 371.625 43.945 371.625 44.625 C370.965 44.625 370.305 44.625 369.625 44.625 C369.625 45.285 369.625 45.945 369.625 46.625 C368.965 46.625 368.305 46.625 367.625 46.625 C367.295 47.285 366.965 47.945 366.625 48.625 C364.58948786 50.93808198 363.64893066 51.61702311 360.625 52.625 C360.295 53.285 359.965 53.945 359.625 54.625 C358.965 54.625 358.305 54.625 357.625 54.625 C357.625 55.285 357.625 55.945 357.625 56.625 C355.64553408 57.98863208 353.6430755 59.31918644 351.625 60.625 C350.62235801 61.62235101 349.62243262 62.62243919 348.625 63.625 C346.89525401 64.91444701 345.12414556 66.12558461 343.34375 67.34375 C341.56560167 68.59650235 341.56560167 68.59650235 340.03125 70.28125 C338.625 71.625 338.625 71.625 336.625 71.625 C336.625 72.285 336.625 72.945 336.625 73.625 C335.965 73.625 335.305 73.625 334.625 73.625 C334.625 74.285 334.625 74.945 334.625 75.625 C332.97428604 76.65111949 331.30529994 77.64808143 329.625 78.625 C329.068125 79.181875 328.51125 79.73875 327.9375 80.3125 C327.2878125 80.9621875 327.2878125 80.9621875 326.625 81.625 C325.965 81.625 325.305 81.625 324.625 81.625 C324.5425 82.24375 324.46 82.8625 324.375 83.5 C323.625 85.625 323.625 85.625 321.75 86.75 C321.04875 87.03875 320.3475 87.3275 319.625 87.625 C318.14 88.615 318.14 88.615 316.625 89.625 C315.965 89.625 315.305 89.625 314.625 89.625 C314.625 90.285 314.625 90.945 314.625 91.625 C312.64553408 92.98863208 310.6430755 94.31918644 308.625 95.625 C307.62361783 96.62361592 306.62376923 97.62377075 305.625 98.625 C303.33607915 100.42023204 301.01208448 102.16274955 298.68359375 103.90625 C296.41164546 105.63823817 296.41164546 105.63823817 294.625 108.625 C292.97232301 109.64795481 291.30397408 110.64580451 289.625 111.625 C288.12961381 112.85555035 286.65105399 114.10675564 285.1875 115.375 C277.16362089 121.87052118 263.37941669 130.625 252.625 130.625 C252.295 131.285 251.965 131.945 251.625 132.625 C249.56234178 133.0161938 247.53056733 133.13174519 245.4375 133.28125 C244.839375 133.3946875 244.24125 133.508125 243.625 133.625 C243.295 134.285 242.965 134.945 242.625 135.625 C240.90234375 136.265625 240.90234375 136.265625 238.5625 136.875 C233.73947226 138.23908865 229.06527261 139.86797126 224.375 141.625 C223.36554321 141.99866699 223.36554321 141.99866699 222.33569336 142.37988281 C217.55390117 144.18272775 212.99888185 146.25821954 208.5625 148.8125 C206.15719003 149.82117837 204.20683152 149.76843508 201.625 149.625 C201.295 150.285 200.965 150.945 200.625 151.625 C198.625 151.95833333 196.625 152.29166667 194.625 152.625 C194.295 153.285 193.965 153.945 193.625 154.625 C192.635 154.625 191.645 154.625 190.625 154.625 C190.295 155.285 189.965 155.945 189.625 156.625 C187.94428258 157.3965749 186.22798679 158.09106104 184.5 158.75 C178.65156741 161.09217804 173.19658009 163.88554734 167.70263672 166.94580078 C164.69898198 168.60130164 161.99571748 169.96393256 158.625 170.625 C155.08037176 171.83654286 151.60184768 173.13657616 148.25 174.8125 C146.625 175.625 146.625 175.625 144.625 175.625 C144.625 174.965 144.625 174.305 144.625 173.625 C143.965 173.625 143.305 173.625 142.625 173.625 C142.295 174.285 141.965 174.945 141.625 175.625 C141.295 175.295 140.965 174.965 140.625 174.625 C139.19312078 174.71528078 137.76532746 174.87149919 136.34228516 175.05419922 C130.26626855 175.72458849 124.25635731 175.76868142 118.1484375 175.7578125 C116.96034988 175.75917709 115.77226227 175.76054169 114.548172 175.76194763 C110.69875258 175.7639658 106.84941151 175.75767071 103 175.75 C101.6878653 175.74878143 100.37573059 175.74756287 99.02383423 175.74630737 C82.28347659 175.73015533 65.5479947 175.61278019 48.8125 175.1875 C48.01922302 175.1679425 47.22594604 175.14838501 46.40863037 175.12823486 C36.7906668 174.88237199 27.21627731 174.40133241 17.625 173.625 C17.295 174.285 16.965 174.945 16.625 175.625 C16.625 174.965 16.625 174.305 16.625 173.625 C15.54863281 173.75777344 14.47226562 173.89054688 13.36328125 174.02734375 C11.88810644 174.20643574 10.41283895 174.38476527 8.9375 174.5625 C8.16164551 174.6560376 7.38579102 174.7495752 6.58642578 174.84594727 C2.05901832 175.37866569 -2.44802301 175.78972235 -7 176.0625 C-16.36157029 176.72193137 -25.49554787 178.60794859 -34.375 181.625 C-35.80687156 181.96235194 -37.24436823 182.27713496 -38.6875 182.5625 C-43.38363322 183.56370607 -47.85004136 185.03490409 -52.375 186.625 C-55.0489124 187.51630413 -57.61223823 188.10231534 -60.375 188.625 C-60.375 189.285 -60.375 189.945 -60.375 190.625 C-61.22191406 190.80869141 -61.22191406 190.80869141 -62.0859375 190.99609375 C-65.35034934 191.8929714 -68.29068263 193.35640668 -71.3515625 194.78515625 C-73.375 195.625 -73.375 195.625 -75.375 195.625 C-75.705 196.285 -76.035 196.945 -76.375 197.625 C-77.365 197.625 -78.355 197.625 -79.375 197.625 C-79.375 198.285 -79.375 198.945 -79.375 199.625 C-81.16381736 200.63008801 -82.95614696 201.62892736 -84.75 202.625 C-85.74773437 203.181875 -86.74546875 203.73875 -87.7734375 204.3125 C-90.375 205.625 -90.375 205.625 -92.375 205.625 C-92.705 206.615 -93.035 207.605 -93.375 208.625 C-95.1171875 209.6875 -95.1171875 209.6875 -97.25 210.625 C-100.23737897 211.94782464 -102.15023722 213.2374497 -104.375 215.625 C-105.42792942 216.55264415 -106.49096864 217.46890697 -107.5625 218.375 C-108.16964844 218.89320313 -108.77679688 219.41140625 -109.40234375 219.9453125 C-110.76820852 221.10832607 -112.1354924 222.26967429 -113.50390625 223.4296875 C-114.20386719 224.03039062 -114.90382813 224.63109375 -115.625 225.25 C-116.26953125 225.79914063 -116.9140625 226.34828125 -117.578125 226.9140625 C-120.32003858 229.52484109 -122.28000624 232.48250936 -124.375 235.625 C-125.035 235.625 -125.695 235.625 -126.375 235.625 C-126.705 236.615 -127.035 237.605 -127.375 238.625 C-127.705 239.615 -128.035 240.605 -128.375 241.625 C-129.365 241.625 -130.355 241.625 -131.375 241.625 C-131.375 242.285 -131.375 242.945 -131.375 243.625 C-133.0765625 243.810625 -133.0765625 243.810625 -134.8125 244 C-135.988125 244.20625 -137.16375 244.4125 -138.375 244.625 C-138.705 245.285 -139.035 245.945 -139.375 246.625 C-139.766875 245.90699219 -140.15875 245.18898438 -140.5625 244.44921875 C-142.54785358 241.35566135 -144.75662927 239.01301049 -147.375 236.4375 C-148.24125 235.57769531 -149.1075 234.71789062 -150 233.83203125 C-152.36559241 231.51567113 -152.36559241 231.51567113 -155.375 229.625 C-156.61152266 228.16069685 -157.84598764 226.69438348 -159.0546875 225.20703125 C-161.67357395 222.06901642 -164.50255566 219.29081279 -167.75 216.8125 C-170.75265827 214.31028478 -173.1509762 211.5332347 -175.6875 208.5703125 C-177.80365362 206.13085763 -180.06314413 203.87905947 -182.375 201.625 C-183.54301776 200.45968599 -184.70958984 199.29292182 -185.875 198.125 C-186.4215625 197.5784375 -186.968125 197.031875 -187.53125 196.46875 C-188.1396875 195.8603125 -188.748125 195.251875 -189.375 194.625 C-190.41297729 193.58811035 -190.41297729 193.58811035 -191.47192383 192.53027344 C-194.44561925 189.55664561 -197.41200616 186.57575774 -200.37895203 183.59539795 C-203.59190575 180.36910091 -206.80747412 177.14541533 -210.02319336 173.921875 C-211.72232295 172.21768118 -213.42055908 170.51259611 -215.11791992 168.80664062 C-217.56977165 166.34271548 -220.02478922 163.88198441 -222.48046875 161.421875 C-223.24191696 160.6552655 -224.00336517 159.88865601 -224.78788757 159.09881592 C-225.49234512 158.39428284 -226.19680267 157.68974976 -226.92260742 156.96386719 C-227.54262131 156.34163269 -228.16263519 155.71939819 -228.80143738 155.07830811 C-230.32946478 153.53180179 -230.32946478 153.53180179 -232.375 152.625 C-232.375 151.965 -232.375 151.305 -232.375 150.625 C-233.035 150.625 -233.695 150.625 -234.375 150.625 C-234.375 149.965 -234.375 149.305 -234.375 148.625 C-235.035 148.625 -235.695 148.625 -236.375 148.625 C-239.28879487 145.5346115 -241.48124826 142.98117855 -241.375 138.625 C-238.41389195 134.18333792 -236.40402924 132.44103834 -231.375 130.625 C-231.045 129.635 -230.715 128.645 -230.375 127.625 C-229.06968049 126.90502556 -227.72919085 126.24820894 -226.375 125.625 C-223.75592968 123.82183943 -221.18903569 121.95567876 -218.6171875 120.0859375 C-216.375 118.625 -216.375 118.625 -214.375 118.625 C-214.375 117.965 -214.375 117.305 -214.375 116.625 C-213.715 116.625 -213.055 116.625 -212.375 116.625 C-212.045 115.965 -211.715 115.305 -211.375 114.625 C-206.875 111.625 -206.875 111.625 -204.375 111.625 C-204.375 110.965 -204.375 110.305 -204.375 109.625 C-202.74154487 108.57162346 -201.06764369 107.58037172 -199.375 106.625 C-197.82244133 105.57848008 -196.28098529 104.51533413 -194.75 103.4375 C-193.89148438 102.83421875 -193.03296875 102.2309375 -192.1484375 101.609375 C-188.26928072 98.83386564 -184.44341362 95.98729258 -180.625 93.12890625 C-178.375 91.625 -178.375 91.625 -176.375 91.625 C-176.045 90.965 -175.715 90.305 -175.375 89.625 C-174.05941297 88.60176564 -172.72131825 87.60744845 -171.375 86.625 C-167.3142911 83.61739559 -167.3142911 83.61739559 -164.375 79.625 C-163.715 79.625 -163.055 79.625 -162.375 79.625 C-162.08625 79.0475 -161.7975 78.47 -161.5 77.875 C-160.45833333 75.79166667 -159.41666667 73.70833333 -158.375 71.625 C-157.715 71.625 -157.055 71.625 -156.375 71.625 C-156.375 70.635 -156.375 69.645 -156.375 68.625 C-155.2567854 67.42615512 -154.12461672 66.23766362 -152.93017578 65.11474609 C-151.19353299 63.45116771 -149.58254939 61.70512201 -147.96484375 59.92578125 C-147.36736328 59.27416016 -146.76988281 58.62253906 -146.15429688 57.95117188 C-144.91881217 56.60039273 -143.68707778 55.24617449 -142.45898438 53.88867188 C-141.86279297 53.24091797 -141.26660156 52.59316406 -140.65234375 51.92578125 C-140.11859131 51.33966064 -139.58483887 50.75354004 -139.03491211 50.1496582 C-137.26323306 48.52234012 -135.52102274 47.67897384 -133.375 46.625 C-132.68025885 45.30607735 -132.01551863 43.97108993 -131.375 42.625 C-129.5 40.7734375 -129.5 40.7734375 -127.375 39 C-125.29839664 37.2516832 -123.29537235 35.54537235 -121.375 33.625 C-120.23910743 32.59311687 -119.09225956 31.57322503 -117.9375 30.5625 C-117.34066406 30.03527344 -116.74382812 29.50804687 -116.12890625 28.96484375 C-114.375 27.625 -114.375 27.625 -111.375 26.625 C-111.045 25.635 -110.715 24.645 -110.375 23.625 C-109.715 23.625 -109.055 23.625 -108.375 23.625 C-108.045 22.965 -107.715 22.305 -107.375 21.625 C-101.99837662 16.83279221 -101.99837662 16.83279221 -98.375 15.625 C-97.859375 15.109375 -97.34375 14.59375 -96.8125 14.0625 C-96.338125 13.588125 -95.86375 13.11375 -95.375 12.625 C-94.715 12.625 -94.055 12.625 -93.375 12.625 C-92.715 11.965 -92.055 11.305 -91.375 10.625 C-85.73178847 7.208644 -79.69361329 5.36445241 -73.375 3.625 C-72.3025 3.295 -71.23 2.965 -70.125 2.625 C-59.15510025 -0.3003066 -48.73151022 -1.87913741 -37.375 -2.125 C-35.49941406 -2.18880859 -35.49941406 -2.18880859 -33.5859375 -2.25390625 C-22.28187477 -2.56985831 -11.12480847 -2.0985947 0 0 Z " fill="#370C53" transform="translate(403.375,342.375)"/>
<path d="M0 0 C14.85086311 11.531512 21.78987981 24.99394809 25.69140625 43.08984375 C26.13871094 42.42597656 26.58601563 41.76210937 27.046875 41.078125 C34.90057122 29.60737466 45.10729963 18.92871199 59.06640625 15.5078125 C71.89413879 13.46530152 82.90769426 16.0895354 93.69140625 23.08984375 C94.28566406 23.47398438 94.87992188 23.858125 95.4921875 24.25390625 C104.18618673 30.76940912 110.74761669 42.50502604 112.69140625 53.08984375 C112.85382813 53.85167969 113.01625 54.61351563 113.18359375 55.3984375 C114.90267987 66.08132981 112.01000567 77.48058018 106.48046875 86.66015625 C101.61441151 93.26864447 95.32942846 97.50498583 88.29296875 101.53515625 C79.49658769 106.79185244 70.13815069 113.39902349 63.03515625 120.8203125 C61.69140625 122.08984375 61.69140625 122.08984375 59.69140625 122.08984375 C59.42585937 122.68796875 59.1603125 123.28609375 58.88671875 123.90234375 C57.65439972 126.15756812 56.4703437 127.38958333 54.56640625 129.08984375 C44.83796277 138.61561133 37.48282915 151.84863101 36.67578125 165.61328125 C36.7171271 172.16659898 37.4737712 178.65377279 38.69140625 185.08984375 C31.17160474 183.42639139 24.56084668 178.95032694 18.06640625 174.96484375 C17.2887793 174.48909912 16.51115234 174.01335449 15.70996094 173.52319336 C9.51932153 169.69237096 3.57197669 165.59044915 -2.29296875 161.28125 C-4.40791027 159.74435597 -6.49777237 158.32458057 -8.69921875 156.9296875 C-9.5603125 156.32253906 -10.42140625 155.71539062 -11.30859375 155.08984375 C-11.30859375 154.42984375 -11.30859375 153.76984375 -11.30859375 153.08984375 C-12.13423828 152.72632813 -12.13423828 152.72632813 -12.9765625 152.35546875 C-17.90341292 149.68160018 -22.02734461 145.67765113 -26.30859375 142.08984375 C-27.05882812 141.47753906 -27.8090625 140.86523438 -28.58203125 140.234375 C-30.19717758 138.89940711 -31.7596578 137.50109651 -33.30859375 136.08984375 C-33.30859375 135.42984375 -33.30859375 134.76984375 -33.30859375 134.08984375 C-33.96859375 134.08984375 -34.62859375 134.08984375 -35.30859375 134.08984375 C-35.30859375 133.42984375 -35.30859375 132.76984375 -35.30859375 132.08984375 C-35.96859375 132.08984375 -36.62859375 132.08984375 -37.30859375 132.08984375 C-38.640625 130.734375 -38.640625 130.734375 -40.12109375 128.90234375 C-41.90578713 126.70616611 -43.70171753 124.70434111 -45.7265625 122.71875 C-48.3676512 120.02971415 -50.57235863 117.24635966 -52.80859375 114.21484375 C-53.58074219 113.168125 -54.35289062 112.12140625 -55.1484375 111.04296875 C-55.86128906 110.0684375 -56.57414062 109.09390625 -57.30859375 108.08984375 C-57.86675781 107.3421875 -58.42492187 106.59453125 -59 105.82421875 C-62.30859375 101.33735087 -62.30859375 101.33735087 -62.30859375 99.08984375 C-62.96859375 99.08984375 -63.62859375 99.08984375 -64.30859375 99.08984375 C-74.82770814 76.8326907 -83.78972623 53.05757615 -75.640625 28.4375 C-70.0079922 14.28158707 -62.85967226 0.4627985 -48.39453125 -6.265625 C-31.95976547 -12.40097557 -14.51606922 -9.99432422 0 0 Z " fill="#BE1724" transform="translate(484.30859375,58.91015625)"/>
<path d="M0 0 C11.48920602 8.09316432 18.41243445 19.9431496 20.91015625 33.74609375 C23.19324985 55.4367556 15.34957693 75.90201983 1.91015625 92.74609375 C-3.77773173 99.68608327 -9.53169172 106.60654717 -16.08984375 112.74609375 C-16.74984375 112.74609375 -17.40984375 112.74609375 -18.08984375 112.74609375 C-18.08984375 113.40609375 -18.08984375 114.06609375 -18.08984375 114.74609375 C-21.55812227 117.97541607 -25.35371675 120.83329844 -29.08984375 123.74609375 C-30.03859375 124.48601562 -30.98734375 125.2259375 -31.96484375 125.98828125 C-63.07827791 149.74609375 -63.07827791 149.74609375 -72.08984375 149.74609375 C-71.93 149.24464844 -71.77015625 148.74320313 -71.60546875 148.2265625 C-69.68570836 138.99135154 -70.5682691 129.4032981 -74.08984375 120.74609375 C-74.08984375 119.75609375 -74.08984375 118.76609375 -74.08984375 117.74609375 C-74.74984375 117.74609375 -75.40984375 117.74609375 -76.08984375 117.74609375 C-77.17312596 116.14067552 -78.18034892 114.48373378 -79.15234375 112.80859375 C-83.34616367 106.00352746 -88.41046913 100.19901016 -95.08984375 95.74609375 C-95.08984375 95.08609375 -95.08984375 94.42609375 -95.08984375 93.74609375 C-95.59644531 93.51792969 -96.10304688 93.28976562 -96.625 93.0546875 C-100.09133955 91.21439629 -103.28051419 89.00805893 -106.52734375 86.80859375 C-111.65996148 83.3358508 -111.65996148 83.3358508 -116.91796875 80.05859375 C-119.39019603 78.5645859 -121.19525996 76.92135662 -123.08984375 74.74609375 C-123.08984375 74.08609375 -123.08984375 73.42609375 -123.08984375 72.74609375 C-123.74984375 72.74609375 -124.40984375 72.74609375 -125.08984375 72.74609375 C-130.31112776 63.34778253 -132.29292565 54.41134455 -130.08984375 43.74609375 C-127.26584012 33.98238612 -122.16012921 25.79612722 -113.6015625 20.0859375 C-105.18611738 15.59682758 -96.49424674 13.42249126 -87.08984375 15.74609375 C-75.22450339 20.23442276 -66.42594144 27.16220329 -61.08984375 38.74609375 C-60.96867188 38.02164063 -60.8475 37.2971875 -60.72265625 36.55078125 C-59.84044796 31.46111802 -58.92542028 26.59726029 -57.08984375 21.74609375 C-56.42984375 21.74609375 -55.76984375 21.74609375 -55.08984375 21.74609375 C-54.99703125 20.72515625 -54.99703125 20.72515625 -54.90234375 19.68359375 C-53.8258299 15.79158213 -51.83319343 12.71164621 -49.08984375 9.74609375 C-48.42984375 9.74609375 -47.76984375 9.74609375 -47.08984375 9.74609375 C-46.75984375 8.75609375 -46.42984375 7.76609375 -46.08984375 6.74609375 C-33.35716389 -3.72677843 -14.85575501 -8.913453 0 0 Z " fill="#E30A15" transform="translate(669.08984375,170.25390625)"/>
<path d="M0 0 C1.09376953 -0.01611328 2.18753906 -0.03222656 3.31445312 -0.04882812 C9.82297885 -0.05274656 14.63142671 0.62274805 20.5625 3.3125 C21.5525 3.6425 22.5425 3.9725 23.5625 4.3125 C28.31721698 7.82193396 28.31721698 7.82193396 29.5625 10.3125 C26.96052798 11.31855593 24.35620638 12.31752525 21.75 13.3125 C21.01201172 13.59867187 20.27402344 13.88484375 19.51367188 14.1796875 C18.80146484 14.45039063 18.08925781 14.72109375 17.35546875 15 C16.7008667 15.25136719 16.04626465 15.50273437 15.37182617 15.76171875 C13.5625 16.3125 13.5625 16.3125 10.5625 16.3125 C10.2325 16.9725 9.9025 17.6325 9.5625 18.3125 C8.5725 18.3125 7.5825 18.3125 6.5625 18.3125 C6.2325 18.9725 5.9025 19.6325 5.5625 20.3125 C3.63343746 21.04421338 1.70220487 21.77099182 -0.2421875 22.4609375 C-4.29528236 24.03313444 -7.95711659 26.20221244 -11.4375 28.8125 C-13.28469174 30.1978938 -15.10584304 31.26507802 -17.125 32.375 C-20.47315915 33.92859514 -20.47315915 33.92859514 -21.4375 36.3125 C-23.10336346 36.9811712 -24.77018356 37.64746006 -26.4375 38.3125 C-28.19596717 39.47778109 -29.92542466 40.68788787 -31.625 41.9375 C-36.21913265 45.3125 -36.21913265 45.3125 -38.4375 45.3125 C-38.4375 45.9725 -38.4375 46.6325 -38.4375 47.3125 C-39.01757812 47.61542969 -39.59765625 47.91835938 -40.1953125 48.23046875 C-46.00501794 51.34623487 -50.76147545 54.63647545 -55.4375 59.3125 C-65.33252735 64.06972469 -76.65931094 63.53601083 -87.4375 63.3125 C-87.4375 63.9725 -87.4375 64.6325 -87.4375 65.3125 C-88.9225 64.8175 -88.9225 64.8175 -90.4375 64.3125 C-91.4584375 64.5290625 -91.4584375 64.5290625 -92.5 64.75 C-96.06284454 65.43224683 -99.41851562 65.33916217 -103.03515625 65.25 C-105.34029801 65.30997117 -107.21806818 65.73989606 -109.4375 66.3125 C-111.6875 65.875 -111.6875 65.875 -113.4375 65.3125 C-113.1075 63.9925 -112.7775 62.6725 -112.4375 61.3125 C-111.58027344 61.22097656 -110.72304688 61.12945312 -109.83984375 61.03515625 C-101.06008145 59.17033877 -93.11441261 52.78661653 -87.51171875 45.9765625 C-86.25671618 44.36256094 -86.25671618 44.36256094 -86.4375 42.3125 C-85.7775 42.3125 -85.1175 42.3125 -84.4375 42.3125 C-83.7775 40.0025 -83.1175 37.6925 -82.4375 35.3125 C-83.0975 34.9825 -83.7575 34.6525 -84.4375 34.3125 C-83.4475 33.8175 -83.4475 33.8175 -82.4375 33.3125 C-82.4375 30.3425 -82.4375 27.3725 -82.4375 24.3125 C-81.1175 23.9 -79.7975 23.4875 -78.4375 23.0625 C-72.92641503 21.2226058 -67.97751813 18.65744152 -62.85546875 15.9453125 C-61.97503906 15.48898437 -61.09460938 15.03265625 -60.1875 14.5625 C-59.37796875 14.13453125 -58.5684375 13.7065625 -57.734375 13.265625 C-55.4375 12.3125 -55.4375 12.3125 -51.4375 12.3125 C-51.1075 11.3225 -50.7775 10.3325 -50.4375 9.3125 C-49.6640625 9.20292969 -48.890625 9.09335937 -48.09375 8.98046875 C-41.81064475 8.02400595 -36.30912236 6.72405919 -30.4375 4.3125 C-29.10725479 3.96704873 -27.77387075 3.63343943 -26.4375 3.3125 C-24.43367991 2.65740497 -22.43291868 1.99275637 -20.4375 1.3125 C-19.9425 1.8075 -19.9425 1.8075 -19.4375 2.3125 C-18.53902344 1.98894531 -17.64054688 1.66539062 -16.71484375 1.33203125 C-11.23014981 -0.22773462 -5.65916278 -0.01661528 0 0 Z " fill="#3A1055" transform="translate(700.4375,337.6875)"/>
<path d="M0 0 C0.99 -0.01611328 1.98 -0.03222656 3 -0.04882812 C11.09461881 -0.05416758 17.45892649 1.6254041 24.625 5.3125 C24.625 5.9725 24.625 6.6325 24.625 7.3125 C23.86574219 7.43753906 23.10648438 7.56257813 22.32421875 7.69140625 C17.3586237 8.52512284 12.39815119 9.38741747 7.4375 10.25 C5.97086914 10.50426758 5.97086914 10.50426758 4.47460938 10.76367188 C2.51199413 11.10482707 0.54990832 11.44904276 -1.41162109 11.79638672 C-3.44852264 12.1511412 -5.48815154 12.49047331 -7.52978516 12.81689453 C-8.52671387 12.9817334 -9.52364258 13.14657227 -10.55078125 13.31640625 C-11.45352783 13.46021729 -12.35627441 13.60402832 -13.28637695 13.75219727 C-13.97562256 13.93709717 -14.66486816 14.12199707 -15.375 14.3125 C-15.705 14.9725 -16.035 15.6325 -16.375 16.3125 C-18.5546875 17.1640625 -18.5546875 17.1640625 -21.25 17.9375 C-22.13429688 18.19789063 -23.01859375 18.45828125 -23.9296875 18.7265625 C-26.375 19.3125 -26.375 19.3125 -29.375 19.3125 C-29.705 19.9725 -30.035 20.6325 -30.375 21.3125 C-32.375 21.64583333 -34.375 21.97916667 -36.375 22.3125 C-36.705 22.9725 -37.035 23.6325 -37.375 24.3125 C-39.92769648 25.19885295 -42.51119737 25.84809704 -45.125 26.53125 C-47.54953207 27.0796887 -47.54953207 27.0796887 -48.375 29.3125 C-50.68032837 30.61885274 -52.85071223 31.47107074 -55.375 32.3125 C-56.055625 31.24 -56.73625 30.1675 -57.4375 29.0625 C-60.21564297 25.12679746 -63.08429306 23.41578772 -67.375 21.3125 C-66.88 19.8275 -66.88 19.8275 -66.375 18.3125 C-65.715 18.3125 -65.055 18.3125 -64.375 18.3125 C-64.045 17.6525 -63.715 16.9925 -63.375 16.3125 C-62.385 16.3125 -61.395 16.3125 -60.375 16.3125 C-60.045 15.6525 -59.715 14.9925 -59.375 14.3125 C-55.9375 12.625 -55.9375 12.625 -52.375 11.3125 C-51.715 11.6425 -51.055 11.9725 -50.375 12.3125 C-50.045 11.6525 -49.715 10.9925 -49.375 10.3125 C-47.3359375 9.53125 -47.3359375 9.53125 -44.75 8.8125 C-43.85023438 8.55726563 -42.95046875 8.30203125 -42.0234375 8.0390625 C-41.14945313 7.79929687 -40.27546875 7.55953125 -39.375 7.3125 C-34.770308 6.09815167 -34.770308 6.09815167 -30.375 4.3125 C-27.46219574 3.78651562 -24.53983799 3.35267245 -21.61328125 2.91015625 C-18.34709015 2.38256855 -18.34709015 2.38256855 -15.19140625 1.265625 C-10.08360821 -0.0100175 -5.24383012 -0.01693744 0 0 Z " fill="#512C69" transform="translate(666.375,319.6875)"/>
<path d="M0 0 C1.01707031 -0.020625 2.03414062 -0.04125 3.08203125 -0.0625 C11.3285889 -0.10484433 17.69957939 1.49794231 25 5.25 C25 5.91 25 6.57 25 7.25 C24.24460937 7.37503906 23.48921875 7.50007813 22.7109375 7.62890625 C17.68038652 8.47086163 12.65208 9.32507365 7.625 10.1875 C6.62210938 10.35701172 5.61921875 10.52652344 4.5859375 10.70117188 C0.18869417 11.45802724 -4.15794767 12.24293314 -8.4765625 13.37109375 C-12.22836804 14.30696542 -15.16521378 14.40978276 -19 14.25 C-21.125 7.5 -21.125 7.5 -20 5.25 C-20.99 4.59 -21.98 3.93 -23 3.25 C-21.82630859 3.05083984 -21.82630859 3.05083984 -20.62890625 2.84765625 C-19.61699219 2.67105469 -18.60507812 2.49445313 -17.5625 2.3125 C-16.55316406 2.13847656 -15.54382813 1.96445312 -14.50390625 1.78515625 C-9.52199104 0.72037874 -5.52658784 0.02719108 0 0 Z " fill="#5F3B74" transform="translate(666,319.75)"/>
<path d="M0 0 C3.64567713 -0.08816905 7.29107474 -0.14077948 10.9375 -0.1875 C12.46987305 -0.22520508 12.46987305 -0.22520508 14.03320312 -0.26367188 C22.32277828 -0.34312467 28.66170794 1.23002794 36 5 C36 5.66 36 6.32 36 7 C28.24046047 8.35791942 20.86771307 9.16391069 13 9 C13.33 8.01 13.66 7.02 14 6 C13.67 5.34 13.34 4.68 13 4 C12.11248047 4.01740234 12.11248047 4.01740234 11.20703125 4.03515625 C6.99768215 4.08322386 3.1077667 4.06006883 -1 3 C-0.67 2.01 -0.34 1.02 0 0 Z " fill="#2B124C" transform="translate(655,320)"/>
<path d="M0 0 C0 0.66 0 1.32 0 2 C-0.99 2 -1.98 2 -3 2 C-2.67 3.65 -2.34 5.3 -2 7 C-1.01 6.67 -0.02 6.34 1 6 C10.96287018 4.7584731 20.98209893 4.89202262 31 5 C31 5.33 31 5.66 31 6 C23.97360585 6.74805717 17.06608191 7.13794954 10 7 C10 7.66 10 8.32 10 9 C9.01 8.67 8.02 8.34 7 8 C6.319375 8.144375 5.63875 8.28875 4.9375 8.4375 C1.37465546 9.11974683 -1.98101562 9.02666217 -5.59765625 8.9375 C-7.90279801 8.99747117 -9.78056818 9.42739606 -12 10 C-14.25 9.5625 -14.25 9.5625 -16 9 C-15.67 7.68 -15.34 6.36 -15 5 C-13.7315625 4.87625 -13.7315625 4.87625 -12.4375 4.75 C-8.17292832 3.819548 -4.12887298 0 0 0 Z " fill="#9179A0" transform="translate(603,394)"/>
<path d="M0 0 C1.75570312 0.01353516 1.75570312 0.01353516 3.546875 0.02734375 C4.43890625 0.03894531 5.3309375 0.05054688 6.25 0.0625 C6.91 1.7125 7.57 3.3625 8.25 5.0625 C-3.27164009 8.50669134 -3.27164009 8.50669134 -8.75 8.0625 C-10.2106285 5.41511084 -10.75 4.16801666 -10.75 1.0625 C-7.14006828 -0.07230527 -3.7657673 -0.03765767 0 0 Z " fill="#340950" transform="translate(662.75,322.9375)"/>
<path d="M0 0 C0.33 0 0.66 0 1 0 C1.33 2.31 1.66 4.62 2 7 C1.01 7 0.02 7 -1 7 C-1.99620574 34.41828992 -1.99620574 34.41828992 6.36328125 60.265625 C7 62 7 62 6 65 C-3.74841237 45.42327024 -7.81386381 23.47614873 -0.875 2.39453125 C-0.58625 1.60433594 -0.2975 0.81414062 0 0 Z " fill="#E8A9AC" transform="translate(410,84)"/>
<path d="M0 0 C0.66 0.33 1.32 0.66 2 1 C1.525625 1.433125 1.05125 1.86625 0.5625 2.3125 C-1.23686957 4.02309613 -1.23686957 4.02309613 -2 7 C-1.34 7.33 -0.68 7.66 0 8 C-4.455 8.495 -4.455 8.495 -9 9 C-9.66 10.98 -10.32 12.96 -11 15 C-17.75 16.125 -17.75 16.125 -20 15 C-20 15.66 -20 16.32 -20 17 C-25.61 16.67 -31.22 16.34 -37 16 C-37 15.67 -37 15.34 -37 15 C-35.19015625 14.85304688 -35.19015625 14.85304688 -33.34375 14.703125 C-31.72908825 14.55292391 -30.11450895 14.4018347 -28.5 14.25 C-27.70851563 14.188125 -26.91703125 14.12625 -26.1015625 14.0625 C-20.48464581 13.51001639 -15.72082719 12.20102541 -11 9 C-10.67 8.34 -10.34 7.68 -10 7 C-9.01 6.67 -8.02 6.34 -7 6 C-5.97803008 5.02246356 -4.98020375 4.0194119 -4 3 C-2.68036291 1.98199424 -1.34990354 0.97751635 0 0 Z " fill="#7F6391" transform="translate(660,398)"/>
<path d="M0 0 C0.66 0.33 1.32 0.66 2 1 C1.95875 2.051875 1.9175 3.10375 1.875 4.1875 C1.85331681 10.20458589 2.99023708 16.0856743 4 22 C-2.11658892 20.66497614 -7.79562701 17.41536977 -13 14 C-13 13.67 -13 13.34 -13 13 C-11.56465159 12.7773254 -10.12654475 12.57238094 -8.6875 12.375 C-7.88699219 12.25898438 -7.08648437 12.14296875 -6.26171875 12.0234375 C-4 12 -4 12 -1 14 C-0.67 9.38 -0.34 4.76 0 0 Z " fill="#D15B64" transform="translate(519,222)"/>
<path d="M0 0 C4.54797959 4.54797959 5.56599716 12.88858274 6.07421875 19.13671875 C5.91773733 25.17360715 5.37035629 34.62964371 1 39 C1 35.37 1 31.74 1 28 C1.66 28 2.32 28 3 28 C2.85811015 25.45805839 2.71160845 22.91652007 2.5625 20.375 C2.52318359 19.66214844 2.48386719 18.94929688 2.44335938 18.21484375 C2.19680628 14.08033795 1.7589239 10.07921595 1 6 C0.66666667 4 0.33333333 2 0 0 Z " fill="#DC7A82" transform="translate(592,100)"/>
<path d="M0 0 C0 0.33 0 0.66 0 1 C-5.3900915 0.57724773 -7.94728488 -0.49494909 -12 -4 C-16.24696662 -5.38448582 -20.51672398 -5.18394918 -24.9375 -5.1875 C-25.73607422 -5.19974609 -26.53464844 -5.21199219 -27.35742188 -5.22460938 C-31.75706682 -5.2355447 -34.94627732 -4.88208553 -39 -3 C-41.3125 -3.375 -41.3125 -3.375 -43 -4 C-28.49803092 -11.75686718 -13.39748998 -8.18735499 0 0 Z " fill="#EAB7B9" transform="translate(578,82)"/>
<path d="M0 0 C0.66 0.66 1.32 1.32 2 2 C1.67 2.61875 1.34 3.2375 1 3.875 C-0.14193235 5.91018344 -0.14193235 5.91018344 0 8 C-3 9 -3 9 -6 9 C-6.61875 10.2375 -6.61875 10.2375 -7.25 11.5 C-7.8275 12.325 -8.405 13.15 -9 14 C-12.6875 14.3125 -12.6875 14.3125 -16 14 C-16 14.66 -16 15.32 -16 16 C-17.98 16.66 -19.96 17.32 -22 18 C-17.3452026 12.86367183 -11.80457439 8.76689771 -6 5 C-5.34 5 -4.68 5 -4 5 C-3.67 4.34 -3.34 3.68 -3 3 C-2.01979625 1.9805881 -1.02196992 0.97753644 0 0 Z " fill="#77598B" transform="translate(231,429)"/>
<path d="M0 0 C-2 1 -2 1 -5.04492188 0.0324707 C-5.66492065 -0.19253616 -6.28491943 -0.41754303 -6.92370605 -0.64936829 C-16.83229551 -4.22195803 -26.05185908 -4.77651705 -36.5 -4.8125 C-38.1133139 -4.83572366 -39.72659822 -4.86110479 -41.33984375 -4.88867188 C-45.22667365 -4.95052171 -49.11272355 -4.98364265 -53 -5 C-53 -5.33 -53 -5.66 -53 -6 C-36.64739518 -8.11001352 -13.93517087 -10.14170769 0 0 Z " fill="#D3C9D9" transform="translate(595,349)"/>
<path d="M0 0 C1.12728516 -0.01611328 2.25457031 -0.03222656 3.41601562 -0.04882812 C5.04120117 -0.04979492 5.04120117 -0.04979492 6.69921875 -0.05078125 C7.68108154 -0.05376221 8.66294434 -0.05674316 9.67456055 -0.05981445 C12.3125 0.3125 12.3125 0.3125 16.3125 3.3125 C9.8775 3.8075 9.8775 3.8075 3.3125 4.3125 C3.3125 3.6525 3.3125 2.9925 3.3125 2.3125 C2.3678186 2.40337891 2.3678186 2.40337891 1.40405273 2.49609375 C-1.48031833 2.77162842 -4.36514307 3.04210176 -7.25 3.3125 C-8.7359668 3.45558594 -8.7359668 3.45558594 -10.25195312 3.6015625 C-15.42290428 4.08258121 -20.49434952 4.42903634 -25.6875 4.3125 C-24.6975 3.3225 -23.7075 2.3325 -22.6875 1.3125 C-21.6975 1.6425 -20.7075 1.9725 -19.6875 2.3125 C-18.73230469 2.00957031 -17.77710938 1.70664062 -16.79296875 1.39453125 C-11.31677484 -0.31381098 -5.68356433 -0.016417 0 0 Z " fill="#E1D9E4" transform="translate(700.6875,337.6875)"/>
<path d="M0 0 C0 0.33 0 0.66 0 1 C-1.51980469 0.98259766 -1.51980469 0.98259766 -3.0703125 0.96484375 C-4.42187314 0.95545791 -5.7734358 0.94635857 -7.125 0.9375 C-7.79015625 0.92912109 -8.4553125 0.92074219 -9.140625 0.91210938 C-13.21205444 0.89215139 -17.00719012 1.2199286 -21 2 C-22.010625 2.165 -23.02125 2.33 -24.0625 2.5 C-26.7201828 2.95237154 -29.35966537 3.45640169 -32 4 C-24.47903815 -4.33592676 -9.58898181 -4.7944909 0 0 Z " fill="#EF727A" transform="translate(587,188)"/>
<path d="M0 0 C0 0.33 0 0.66 0 1 C-8.415 1.495 -8.415 1.495 -17 2 C-17.33 2.66 -17.66 3.32 -18 4 C-18.886875 3.979375 -19.77375 3.95875 -20.6875 3.9375 C-25.64530374 4.03104347 -30.05271488 5.20116545 -34.75 6.75 C-35.71421875 7.05421875 -36.6784375 7.3584375 -37.671875 7.671875 C-40.26695711 8.80229956 -40.26695711 8.80229956 -40.828125 11.640625 C-40.88484375 12.41921875 -40.9415625 13.1978125 -41 14 C-41.33 14 -41.66 14 -42 14 C-42.33 12.02 -42.66 10.04 -43 8 C-41.45925192 7.37273892 -39.91735077 6.7483099 -38.375 6.125 C-37.08722656 5.60292969 -37.08722656 5.60292969 -35.7734375 5.0703125 C-24.11003361 0.56922424 -12.43286203 -0.37174671 0 0 Z " fill="#C3B5CB" transform="translate(519,407)"/>
<path d="M0 0 C10.77793053 1.60473939 21.4231366 3.33331206 32 6 C32.84820312 6.20882813 33.69640625 6.41765625 34.5703125 6.6328125 C36.3820854 7.08102113 38.19144087 7.53899473 40 8 C40 8.33 40 8.66 40 9 C36.37 9 32.74 9 29 9 C29 8.67 29 8.34 29 8 C25.31341552 7.18330882 21.62558072 6.3724052 17.9375 5.5625 C16.37999023 5.21735352 16.37999023 5.21735352 14.79101562 4.86523438 C9.53886783 3.7147639 4.33720197 2.65863343 -1 2 C-0.67 1.34 -0.34 0.68 0 0 Z " fill="#C4B6CC" transform="translate(399,342)"/>
<path d="M0 0 C2.42479736 3.63719605 2.38662577 5.85703482 2.625 10.1875 C2.69976563 11.45980469 2.77453125 12.73210937 2.8515625 14.04296875 C2.92503906 15.50669922 2.92503906 15.50669922 3 17 C3.598125 17.12375 4.19625 17.2475 4.8125 17.375 C7 18 7 18 10 20 C8.73308493 20.67408308 7.46129251 21.33900497 6.1875 22 C5.47980469 22.37125 4.77210938 22.7425 4.04296875 23.125 C2 24 2 24 -1 24 C-0.83701416 23.43829102 -0.67402832 22.87658203 -0.50610352 22.29785156 C0.02985098 19.86446819 0.11361396 17.72377772 0.09765625 15.234375 C0.09443359 14.34492188 0.09121094 13.45546875 0.08789062 12.5390625 C0.07951172 11.61867188 0.07113281 10.69828125 0.0625 9.75 C0.05798828 8.81414062 0.05347656 7.87828125 0.04882812 6.9140625 C0.03706918 4.60930959 0.02063426 2.30468773 0 0 Z " fill="#EF8086" transform="translate(598,296)"/>
<path d="M0 0 C3.64567713 -0.08816905 7.29107474 -0.14077948 10.9375 -0.1875 C12.46987305 -0.22520508 12.46987305 -0.22520508 14.03320312 -0.26367188 C22.32277828 -0.34312467 28.66170794 1.23002794 36 5 C36 5.66 36 6.32 36 7 C34.125 7.625 34.125 7.625 32 8 C31.34 7.34 30.68 6.68 30 6 C30.33 5.67 30.66 5.34 31 5 C23.92716743 3.18569675 17.2232602 2.59564132 9.9375 2.375 C8.88111328 2.33632813 7.82472656 2.29765625 6.73632812 2.2578125 C4.15771592 2.16446907 1.57909392 2.07868747 -1 2 C-0.67 1.34 -0.34 0.68 0 0 Z " fill="#DAD1DD" transform="translate(655,320)"/>
<path d="M0 0 C1.75 1.60546875 1.75 1.60546875 3 3 C1.35328588 2.69217504 -0.29235576 2.37860766 -1.9375 2.0625 C-2.85402344 1.88847656 -3.77054688 1.71445313 -4.71484375 1.53515625 C-7 1 -7 1 -8 0 C-9.4887186 -0.08669432 -10.981445 -0.10703494 -12.47265625 -0.09765625 C-13.82133789 -0.09282227 -13.82133789 -0.09282227 -15.19726562 -0.08789062 C-16.14279297 -0.07951172 -17.08832031 -0.07113281 -18.0625 -0.0625 C-19.01189453 -0.05798828 -19.96128906 -0.05347656 -20.93945312 -0.04882812 C-23.29303065 -0.0370011 -25.64648477 -0.02052025 -28 0 C-20.16255412 -5.22496392 -8.18916467 -4.14576461 0 0 Z " fill="#F4ACB0" transform="translate(667,169)"/>
<path d="M0 0 C0 0.33 0 0.66 0 1 C-7.02639415 1.74805717 -13.93391809 2.13794954 -21 2 C-21 2.66 -21 3.32 -21 4 C-21.99 3.67 -22.98 3.34 -24 3 C-25.051875 3.2165625 -25.051875 3.2165625 -26.125 3.4375 C-30.09200711 4.21365357 -33.9709291 4.07900139 -38 4 C-37.67 3.34 -37.34 2.68 -37 2 C-33.97922789 1.50668843 -31.04290286 1.1469071 -28 0.875 C-27.10893555 0.79008301 -26.21787109 0.70516602 -25.29980469 0.61767578 C-16.85602782 -0.12665858 -8.46820244 -0.19744513 0 0 Z " fill="#D7CDDB" transform="translate(634,399)"/>
<path d="M0 0 C0.33 0 0.66 0 1 0 C1.47166615 7.24531618 1.38908827 12.06182175 -3 18 C-3.66 18.33 -4.32 18.66 -5 19 C-5.33 17.68 -5.66 16.36 -6 15 C-5.34 15 -4.68 15 -4 15 C-4 14.01 -4 13.02 -4 12 C-4.99 12.495 -4.99 12.495 -6 13 C-5.125 8.25 -5.125 8.25 -4 6 C-3.01 6 -2.02 6 -1 6 C-0.67 4.02 -0.34 2.04 0 0 Z " fill="#5E3C74" transform="translate(605,364)"/>
<path d="M0 0 C0.66 0.33 1.32 0.66 2 1 C1.67 2.65 1.34 4.3 1 6 C-0.65 6 -2.3 6 -4 6 C-3.67 7.65 -3.34 9.3 -3 11 C-4.32 11.99 -5.64 12.98 -7 14 C-7.66 13.34 -8.32 12.68 -9 12 C-8.01 11.67 -7.02 11.34 -6 11 C-6 10.34 -6 9.68 -6 9 C-8.31 10.65 -10.62 12.3 -13 14 C-10.51712435 7.90566886 -4.96608691 4.04216377 0 0 Z " fill="#D1505B" transform="translate(528,82)"/>
<path d="M0 0 C2.0625 0.4375 2.0625 0.4375 4 1 C3.32105531 3.87898661 2.4684916 6.64340175 1.5 9.4375 C0.42789949 12.60673369 -0.46583034 15.68814809 -1 19 C-3 16 -3 16 -3 13 C-2.34 13 -1.68 13 -1 13 C-1.66 11.68 -2.32 10.36 -3 9 C-2.67 8.67 -2.34 8.34 -2 8 C-1.835 6.845 -1.67 5.69 -1.5 4.5 C-1 1 -1 1 0 0 Z " fill="#CE535C" transform="translate(522,203)"/>
<path d="M0 0 C4.72129239 0.51682787 7.78731772 1.78064724 11.75 4.375 C12.69359375 4.98085938 13.6371875 5.58671875 14.609375 6.2109375 C17 8 17 8 19 11 C16.73806201 10.515299 14.93034549 9.96312408 12.875 8.875 C11.946875 8.441875 11.946875 8.441875 11 8 C10.01 8.495 10.01 8.495 9 9 C9 8.34 9 7.68 9 7 C8.01 7 7.02 7 6 7 C5.7525 6.21625 5.505 5.4325 5.25 4.625 C3.84610901 1.67682892 2.99324263 1.0975223 0 0 Z " fill="#D15660" transform="translate(470,53)"/>
<path d="M0 0 C-0.66 1.98 -1.32 3.96 -2 6 C-3.65 6 -5.3 6 -7 6 C-7.33 6.99 -7.66 7.98 -8 9 C-8.66 9 -9.32 9 -10 9 C-10 9.66 -10 10.32 -10 11 C-9.34 11.33 -8.68 11.66 -8 12 C-8.99 12.66 -9.98 13.32 -11 14 C-11.99 13.67 -12.98 13.34 -14 13 C-12.5 10 -12.5 10 -11 7 C-10.34 7 -9.68 7 -9 7 C-8.67 6.01 -8.34 5.02 -8 4 C-2.62857143 0 -2.62857143 0 0 0 Z " fill="#EE6C73" transform="translate(631,173)"/>
<path d="M0 0 C0 0.33 0 0.66 0 1 C-1.45635371 1.22174933 -2.91522956 1.42698698 -4.375 1.625 C-5.18710937 1.74101563 -5.99921875 1.85703125 -6.8359375 1.9765625 C-7.55007813 1.98429687 -8.26421875 1.99203125 -9 2 C-9.66 1.34 -10.32 0.68 -11 0 C-18.88476957 -0.71203762 -26.39121732 -0.09897453 -34 2 C-33 0 -33 0 -30.76953125 -0.88671875 C-20.4376985 -3.68463911 -10.14529022 -3.62331794 0 0 Z " fill="#E9B3B4" transform="translate(470,52)"/>
<path d="M0 0 C-0.66 0.33 -1.32 0.66 -2 1 C-2.33 1.99 -2.66 2.98 -3 4 C-4.51980469 3.70802734 -4.51980469 3.70802734 -6.0703125 3.41015625 C-10.1615593 2.98313745 -12.91410904 3.42706863 -16.875 4.4375 C-22.46114839 5.7504836 -27.28277876 6.29571834 -33 6 C-33 5.67 -33 5.34 -33 5 C-31.78763672 4.81824219 -31.78763672 4.81824219 -30.55078125 4.6328125 C-29.48214844 4.46523438 -28.41351563 4.29765625 -27.3125 4.125 C-26.25675781 3.96257812 -25.20101563 3.80015625 -24.11328125 3.6328125 C-21.04152019 3.10712108 -21.04152019 3.10712108 -18.44921875 1.96875 C-15.72726853 0.89212535 -13.41260899 0.59590012 -10.5 0.375 C-9.5821875 0.30023438 -8.664375 0.22546875 -7.71875 0.1484375 C-5.13899479 0.0075888 -2.58294004 -0.02807544 0 0 Z " fill="#C6B9CE" transform="translate(527,346)"/>
<path d="M0 0 C1.37478516 0.01740234 1.37478516 0.01740234 2.77734375 0.03515625 C3.69644531 0.04417969 4.61554687 0.05320312 5.5625 0.0625 C6.27277344 0.07410156 6.98304688 0.08570313 7.71484375 0.09765625 C7.38484375 1.08765625 7.05484375 2.07765625 6.71484375 3.09765625 C3.65234375 4.28515625 3.65234375 4.28515625 0.71484375 5.09765625 C0.71484375 5.75765625 0.71484375 6.41765625 0.71484375 7.09765625 C-0.93515625 7.09765625 -2.58515625 7.09765625 -4.28515625 7.09765625 C-3.29515625 5.77765625 -2.30515625 4.45765625 -1.28515625 3.09765625 C-5.90515625 3.09765625 -10.52515625 3.09765625 -15.28515625 3.09765625 C-15.28515625 2.76765625 -15.28515625 2.43765625 -15.28515625 2.09765625 C-14.43050781 2.03707031 -13.57585938 1.97648437 -12.6953125 1.9140625 C-11.03822266 1.78837891 -11.03822266 1.78837891 -9.34765625 1.66015625 C-8.24550781 1.57894531 -7.14335938 1.49773437 -6.0078125 1.4140625 C-3.13002374 1.07962794 -2.76630195 0.11821803 0 0 Z " fill="#846995" transform="translate(578.28515625,415.90234375)"/>
<path d="M0 0 C1.32 0.33 2.64 0.66 4 1 C3.34 1 2.68 1 2 1 C2.10699219 1.90363281 2.21398437 2.80726563 2.32421875 3.73828125 C2.44410156 4.91777344 2.56398438 6.09726562 2.6875 7.3125 C2.81511719 8.48425781 2.94273437 9.65601563 3.07421875 10.86328125 C3 14 3 14 1.55078125 15.78515625 C1.03902344 16.18605469 0.52726563 16.58695312 0 17 C-0.165 17.70125 -0.33 18.4025 -0.5 19.125 C-0.665 19.74375 -0.83 20.3625 -1 21 C-1.99 21.33 -2.98 21.66 -4 22 C-4 20.68 -4 19.36 -4 18 C-3.34 18 -2.68 18 -2 18 C-1.34 15.69 -0.68 13.38 0 11 C-0.66 10.67 -1.32 10.34 -2 10 C-1.34 9.67 -0.68 9.34 0 9 C0 6.03 0 3.06 0 0 Z " fill="#9680A4" transform="translate(618,362)"/>
<path d="M0 0 C0.77214844 0.03996094 1.54429687 0.07992187 2.33984375 0.12109375 C6.14572166 0.36514485 8.27212455 0.59808303 11.5 2.75 C9.52 3.08 7.54 3.41 5.5 3.75 C5.5 3.09 5.5 2.43 5.5 1.75 C4.84 1.75 4.18 1.75 3.5 1.75 C3.17 2.41 2.84 3.07 2.5 3.75 C2.17 3.42 1.84 3.09 1.5 2.75 C-1.03383643 2.97250535 -3.53638139 3.33531923 -6.0546875 3.69140625 C-8.5 3.75 -8.5 3.75 -11.5 1.75 C-7.58050343 -0.86299771 -4.4980671 -0.32289964 0 0 Z " fill="#957FA4" transform="translate(542.5,514.25)"/>
<path d="M0 0 C0.66 0.66 1.32 1.32 2 2 C-0.31 3.32 -2.62 4.64 -5 6 C-5 7.98 -5 9.96 -5 12 C-5.598125 11.690625 -6.19625 11.38125 -6.8125 11.0625 C-9.08956772 9.89790296 -9.08956772 9.89790296 -12 9 C-11.67 8.01 -11.34 7.02 -11 6 C-10.34 6 -9.68 6 -9 6 C-8.67 5.34 -8.34 4.68 -8 4 C-7.01 4 -6.02 4 -5 4 C-4.67 3.34 -4.34 2.68 -4 2 C-1.9375 0.875 -1.9375 0.875 0 0 Z " fill="#A995B5" transform="translate(611,332)"/>
<path d="M0 0 C0.53238281 0.30035156 1.06476562 0.60070312 1.61328125 0.91015625 C5.3796598 2.62999195 9.38137144 3.26691657 13.41796875 4.12109375 C14.27003906 4.41113281 15.12210938 4.70117188 16 5 C16.33 5.99 16.66 6.98 17 8 C16.34 8 15.68 8 15 8 C15 8.66 15 9.32 15 10 C11.43574301 8.68552225 8.40275366 7.11594205 5.25 5 C4.47140625 4.484375 3.6928125 3.96875 2.890625 3.4375 C1 2 1 2 0 0 Z " fill="#EC5D65" transform="translate(549,247)"/>
<path d="M0 0 C2 0 2 0 4.625 2.375 C7 5 7 5 7 7 C7.66 7 8.32 7 9 7 C8.67 6.01 8.34 5.02 8 4 C8.99 4.33 9.98 4.66 11 5 C11.5625 6.6875 11.5625 6.6875 12 9 C12.65509503 11.00382009 13.31974363 13.00458132 14 15 C13.34 15 12.68 15 12 15 C10.66796875 13.64453125 10.66796875 13.64453125 9.1875 11.8125 C7.25931454 9.47315735 5.36542224 7.37952397 3.1875 5.25 C1 3 1 3 0 0 Z " fill="#D96C75" transform="translate(435,176)"/>
<path d="M0 0 C0.33 0 0.66 0 1 0 C1.66 4.29 2.32 8.58 3 13 C-0.7364797 12.06588007 -3.60899585 10.77257035 -7 9 C-5 7 -5 7 -2.375 6.875 C-1.59125 6.91625 -0.8075 6.9575 0 7 C0 4.69 0 2.38 0 0 Z " fill="#DC868B" transform="translate(520,231)"/>
<path d="M0 0 C3.55513387 5.33270081 3.15522094 10.79463325 3.125 17 C3.12886719 17.7940625 3.13273438 18.588125 3.13671875 19.40625 C3.13005759 23.4029478 2.99085908 27.09947535 2 31 C1.67 31 1.34 31 1 31 C1.33 24.73 1.66 18.46 2 12 C1.34 12 0.68 12 0 12 C0 8.04 0 4.08 0 0 Z " fill="#F4ABAE" transform="translate(687,196)"/>
<path d="M0 0 C-0.77085937 0.48210937 -1.54171875 0.96421875 -2.3359375 1.4609375 C-3.33882812 2.09257812 -4.34171875 2.72421875 -5.375 3.375 C-6.37273438 4.00148437 -7.37046875 4.62796875 -8.3984375 5.2734375 C-11.0248019 6.89269712 -11.0248019 6.89269712 -13 9 C-13.99 8.67 -14.98 8.34 -16 8 C-15.34 8 -14.68 8 -14 8 C-14.33 7.01 -14.66 6.02 -15 5 C-13.68 5 -12.36 5 -11 5 C-11.33 3.68 -11.66 2.36 -12 1 C-10.68 1 -9.36 1 -8 1 C-6.96875 0.649375 -5.9375 0.29875 -4.875 -0.0625 C-2 -1 -2 -1 0 0 Z " fill="#DA767D" transform="translate(581,155)"/>
<path d="M0 0 C-0.99 0.33 -1.98 0.66 -3 1 C-3 1.66 -3 2.32 -3 3 C-9.435 3.495 -9.435 3.495 -16 4 C-15.67 3.34 -15.34 2.68 -15 2 C-13.02 2 -11.04 2 -9 2 C-9.33 1.01 -9.66 0.02 -10 -1 C-6.06329512 -2.31223496 -3.87511856 -1.24296256 0 0 Z " fill="#6B4B7F" transform="translate(688,325)"/>
<path d="M0 0 C0.66 0 1.32 0 2 0 C1.67 3.63 1.34 7.26 1 11 C0.34 11 -0.32 11 -1 11 C-1.33 14.3 -1.66 17.6 -2 21 C-2.66 21 -3.32 21 -4 21 C-3.71583399 18.62388845 -3.42291099 16.24939504 -3.125 13.875 C-3.04636719 13.20984375 -2.96773437 12.5446875 -2.88671875 11.859375 C-2.35611974 7.69621356 -1.45813446 3.93328708 0 0 Z " fill="#EE6770" transform="translate(612,192)"/>
<path d="M0 0 C2.475 0.99 2.475 0.99 5 2 C2.81482901 4.40575607 0.74080329 5.79535581 -2.1875 7.1875 C-2.90292969 7.53167969 -3.61835937 7.87585938 -4.35546875 8.23046875 C-4.89816406 8.48441406 -5.44085937 8.73835938 -6 9 C-6 8.01 -6 7.02 -6 6 C-5.34 6 -4.68 6 -4 6 C-4 4.68 -4 3.36 -4 2 C-2.68 2 -1.36 2 0 2 C0 1.34 0 0.68 0 0 Z " fill="#EA444C" transform="translate(614,306)"/>
<path d="M0 0 C-2.77842595 2.77842595 -4.78366581 3.94471208 -8.75 4.125 C-9.4925 4.08375 -10.235 4.0425 -11 4 C-11.33 4.66 -11.66 5.32 -12 6 C-15.0625 6.625 -15.0625 6.625 -18 7 C-17.01 6.67 -16.02 6.34 -15 6 C-15 5.01 -15 4.02 -15 3 C-14.01 2.67 -13.02 2.34 -12 2 C-11.34 2.33 -10.68 2.66 -10 3 C-10 2.34 -10 1.68 -10 1 C-6.61981469 -0.04005702 -3.5219721 -0.08004482 0 0 Z " fill="#9E89AB" transform="translate(616,488)"/>
<path d="M0 0 C0 0.66 0 1.32 0 2 C-0.66 2.639375 -1.32 3.27875 -2 3.9375 C-4.34807292 5.88012332 -4.34807292 5.88012332 -4 9 C-5.65 8.67 -7.3 8.34 -9 8 C-9 6.68 -9 5.36 -9 4 C-2.25 0 -2.25 0 0 0 Z " fill="#502C67" transform="translate(631,358)"/>
<path d="M0 0 C2 3 2 3 3 6 C3.99 5.01 4.98 4.02 6 3 C6.68707555 5.49064888 7 7.37886292 7 10 C6.34 9.67 5.68 9.34 5 9 C3.49076914 10.50923086 2.28062485 12.2925002 1 14 C0.67 9.38 0.34 4.76 0 0 Z " fill="#DE858B" transform="translate(507,96)"/>
<path d="M0 0 C2 3 2 3 3 6 C4.175625 6.0928125 4.175625 6.0928125 5.375 6.1875 C6.674375 6.5896875 6.674375 6.5896875 8 7 C9.25 9.4375 9.25 9.4375 10 12 C10.33 12.66 10.66 13.32 11 14 C7.28954753 12.42219077 4.70093616 10.09296752 1.75 7.375 C0.85796875 6.55773437 -0.0340625 5.74046875 -0.953125 4.8984375 C-1.96632813 3.95871094 -1.96632813 3.95871094 -3 3 C-2.01 2.67 -1.02 2.34 0 2 C0 1.34 0 0.68 0 0 Z " fill="#DC797F" transform="translate(458,195)"/>
<path d="M0 0 C-1.99065541 1.01847486 -3.99248185 2.01517978 -6 3 C-7.2065625 3.6496875 -7.2065625 3.6496875 -8.4375 4.3125 C-12.05501692 5.28305332 -14.5360945 4.22255488 -18 3 C-17.1646875 2.80277344 -17.1646875 2.80277344 -16.3125 2.6015625 C-12.97104155 1.73233175 -9.71329266 0.61203933 -6.4375 -0.4765625 C-3.86320759 -1.02937529 -2.45852388 -0.85365413 0 0 Z " fill="#A995B6" transform="translate(671,344)"/>
<path d="M0 0 C-6.435 0.495 -6.435 0.495 -13 1 C-13 0.34 -13 -0.32 -13 -1 C-15.31 -1 -17.62 -1 -20 -1 C-20 -1.33 -20 -1.66 -20 -2 C-5.44 -4.08 -5.44 -4.08 0 0 Z " fill="#9E8AAC" transform="translate(717,341)"/>
<path d="M0 0 C0.99 0.33 1.98 0.66 3 1 C1.63629701 3.99220268 0.05091917 6.29026529 -2.125 8.75 C-2.93324219 9.67039062 -2.93324219 9.67039062 -3.7578125 10.609375 C-4.16773438 11.06828125 -4.57765625 11.5271875 -5 12 C-5.61328125 10.16796875 -5.61328125 10.16796875 -6 8 C-4.21482174 5.35301155 -2.87978754 3.43989377 0 2 C0 1.34 0 0.68 0 0 Z " fill="#EE626A" transform="translate(670,258)"/>
<path d="M0 0 C2.97 0.495 2.97 0.495 6 1 C5.67 1.66 5.34 2.32 5 3 C3.109375 3.5625 3.109375 3.5625 0.75 4 C-1.93870504 4.5360393 -4.20114105 5.08228497 -6.75 6.125 C-9.30307007 7.11786058 -11.28433419 7.1551809 -14 7 C-10.98509443 4.99006295 -8.7850073 4.27376659 -5.3125 3.375 C-3.82169922 2.98441406 -3.82169922 2.98441406 -2.30078125 2.5859375 C-1.54152344 2.39257812 -0.78226562 2.19921875 0 2 C0 1.34 0 0.68 0 0 Z " fill="#CABDD0" transform="translate(364,521)"/>
<path d="M0 0 C-3 2 -3 2 -6 2 C-5.01 2.66 -4.02 3.32 -3 4 C-3.66 4.66 -4.32 5.32 -5 6 C-5.99 6 -6.98 6 -8 6 C-8 5.34 -8 4.68 -8 4 C-8.66 4 -9.32 4 -10 4 C-10.33 4.66 -10.66 5.32 -11 6 C-11.66 5.34 -12.32 4.68 -13 4 C-12.34 4 -11.68 4 -11 4 C-10.67 3.34 -10.34 2.68 -10 2 C-8.22265625 1.11328125 -8.22265625 1.11328125 -6.0625 0.3125 C-5.35222656 0.04050781 -4.64195312 -0.23148437 -3.91015625 -0.51171875 C-2 -1 -2 -1 0 0 Z " fill="#7A5E8E" transform="translate(716,367)"/>
<path d="M0 0 C2.97 0.495 2.97 0.495 6 1 C5.4375 2.875 5.4375 2.875 4 5 C0.08675304 6.52181826 -2.98417068 7.60633173 -7 6 C-6.01 5.67 -5.02 5.34 -4 5 C-2.61423077 3.37667033 -1.27358732 1.71275535 0 0 Z " fill="#3A1157" transform="translate(675,322)"/>
<path d="M0 0 C0.66 0.66 1.32 1.32 2 2 C1.67 2.61875 1.34 3.2375 1 3.875 C-0.14193235 5.91018344 -0.14193235 5.91018344 0 8 C-3.28976808 9.09658936 -4.71303767 8.79953138 -8 8 C-7.34 7.01 -6.68 6.02 -6 5 C-5.34 5 -4.68 5 -4 5 C-3.67 4.34 -3.34 3.68 -3 3 C-2.01979625 1.9805881 -1.02196992 0.97753644 0 0 Z " fill="#866B97" transform="translate(231,429)"/>
<path d="M0 0 C-0.99 0.33 -1.98 0.66 -3 1 C-3.73323796 3.01508358 -3.73323796 3.01508358 -4 5 C-5.32 4.67 -6.64 4.34 -8 4 C-7.67 3.67 -7.34 3.34 -7 3 C-9.64 2.67 -12.28 2.34 -15 2 C-15 1.67 -15 1.34 -15 1 C-10.03926578 -0.32286246 -5.08888488 -0.08893197 0 0 Z " fill="#9780A5" transform="translate(542,344)"/>
<path d="M0 0 C0.66 0.66 1.32 1.32 2 2 C1.54545455 7.45454545 1.54545455 7.45454545 -1 10 C-1 9.34 -1 8.68 -1 8 C-1.66 8 -2.32 8 -3 8 C-3.66 6.02 -4.32 4.04 -5 2 C-3.68 2.33 -2.36 2.66 -1 3 C-0.67 2.01 -0.34 1.02 0 0 Z " fill="#E93C46" transform="translate(547,235)"/>
<path d="M0 0 C0.66 0.33 1.32 0.66 2 1 C1.175 1.763125 0.35 2.52625 -0.5 3.3125 C-3.34055197 5.75434142 -3.34055197 5.75434142 -3 9 C-3.639375 9.268125 -4.27875 9.53625 -4.9375 9.8125 C-7.33131686 10.88667752 -7.33131686 10.88667752 -8 14 C-8.66 14 -9.32 14 -10 14 C-8.38798165 8.2683792 -4.12110332 4.12110332 0 0 Z " fill="#F29399" transform="translate(553,192)"/>
<path d="M0 0 C0.66 0.66 1.32 1.32 2 2 C1.01 2.33 0.02 2.66 -1 3 C-0.67 3.99 -0.34 4.98 0 6 C-0.66 6 -1.32 6 -2 6 C-2 6.99 -2 7.98 -2 9 C-2.598125 8.835 -3.19625 8.67 -3.8125 8.5 C-6.11344336 7.8885876 -6.11344336 7.8885876 -9 8 C-4.25 4 -4.25 4 -2 4 C-2 3.34 -2 2.68 -2 2 C-1.34 2 -0.68 2 0 2 C0 1.34 0 0.68 0 0 Z " fill="#8D759E" transform="translate(191,457)"/>
<path d="M0 0 C0.66 0.99 1.32 1.98 2 3 C1.01 3.33 0.02 3.66 -1 4 C-1 4.66 -1 5.32 -1 6 C-1.97850195 7.02104551 -2.97980427 8.0206121 -4 9 C-4.33 9.66 -4.66 10.32 -5 11 C-6.32 10.67 -7.64 10.34 -9 10 C-8.04882866 8.8274869 -7.08882991 7.66212985 -6.125 6.5 C-5.32449219 5.52546875 -5.32449219 5.52546875 -4.5078125 4.53125 C-4.01023438 4.0259375 -3.51265625 3.520625 -3 3 C-2.34 3 -1.68 3 -1 3 C-0.67 2.01 -0.34 1.02 0 0 Z " fill="#9780A5" transform="translate(242,419)"/>
<path d="M0 0 C0.66 0.66 1.32 1.32 2 2 C0.4375 4.9375 0.4375 4.9375 -2 8 C-5.75 8.875 -5.75 8.875 -9 9 C-4.375 3.125 -4.375 3.125 -1 2 C-0.67 1.34 -0.34 0.68 0 0 Z " fill="#89709A" transform="translate(306,356)"/>
<path d="M0 0 C3.81936528 1.55603771 6.26044438 3.95604931 9 7 C9 7.66 9 8.32 9 9 C7.68 8.67 6.36 8.34 5 8 C5 7.34 5 6.68 5 6 C4.01 6 3.02 6 2 6 C1.34 4.02 0.68 2.04 0 0 Z " fill="#EE666E" transform="translate(670,172)"/>
<path d="M0 0 C-2.13584075 2.34942482 -4.11211477 3.69579377 -7 5 C-7.99 5.495 -7.99 5.495 -9 6 C-9.66 5.34 -10.32 4.68 -11 4 C-10.34 4 -9.68 4 -9 4 C-9 3.01 -9 2.02 -9 1 C-5.64919071 -1.10976881 -3.77897651 -1.0497157 0 0 Z " fill="#816691" transform="translate(573,507)"/>
<path d="M0 0 C1.65 0.33 3.3 0.66 5 1 C1.63263969 3.82858266 -1.87451958 5.4998253 -6 7 C-6.99 6.67 -7.98 6.34 -9 6 C-6.16569547 2.7457985 -4.31392226 1.4793247 0 1 C0 0.67 0 0.34 0 0 Z " fill="#866A97" transform="translate(625,481)"/>
<path d="M0 0 C-2.03819846 2.03819846 -3.29417798 2.67841059 -5.9375 3.6875 C-6.62714844 3.95949219 -7.31679688 4.23148437 -8.02734375 4.51171875 C-10 5 -10 5 -13 4 C-12.360625 3.896875 -11.72125 3.79375 -11.0625 3.6875 C-10.381875 3.460625 -9.70125 3.23375 -9 3 C-8.67 2.01 -8.34 1.02 -8 0 C-2.25 -1.125 -2.25 -1.125 0 0 Z " fill="#A38DAF" transform="translate(647,395)"/>
<path d="M0 0 C1.67542976 0.28604898 3.34385343 0.61781233 5 1 C3.60624928 3.78750144 1.83755139 3.89266287 -1 5 C-1.66 5.66 -2.32 6.32 -3 7 C-3.99 5.35 -4.98 3.7 -6 2 C-4.7934375 1.7834375 -4.7934375 1.7834375 -3.5625 1.5625 C-1.07896294 1.25864751 -1.07896294 1.25864751 0 0 Z " fill="#775A8B" transform="translate(690,361)"/>
<path d="M0 0 C3.96 0.33 7.92 0.66 12 1 C12 1.33 12 1.66 12 2 C10.12612523 2.3396019 8.25083303 2.67138691 6.375 3 C5.33085937 3.185625 4.28671875 3.37125 3.2109375 3.5625 C0.09425135 3.98715797 -2.85930812 4.07545206 -6 4 C-6 3.67 -6 3.34 -6 3 C-4.35 3 -2.7 3 -1 3 C-0.67 2.01 -0.34 1.02 0 0 Z " fill="#947CA3" transform="translate(385,516)"/>
<path d="M0 0 C1.65 0.33 3.3 0.66 5 1 C2.06626269 2.95582488 -0.78216298 4.56224304 -4 6 C-4.66 5.67 -5.32 5.34 -6 5 C-6 3.68 -6 2.36 -6 1 C-3.03 1.495 -3.03 1.495 0 2 C0 1.34 0 0.68 0 0 Z " fill="#7D608E" transform="translate(585,498)"/>
<path d="M0 0 C0 2 0 4 0 6 C-1.32 6.33 -2.64 6.66 -4 7 C-4.33 8.32 -4.66 9.64 -5 11 C-5.99 11 -6.98 11 -8 11 C-7.67 10.01 -7.34 9.02 -7 8 C-6.34 8 -5.68 8 -5 8 C-5 7.01 -5 6.02 -5 5 C-2.5 2.3125 -2.5 2.3125 0 0 Z " fill="#9982A6" transform="translate(252,406)"/>
<path d="M0 0 C0.66 1.32 1.32 2.64 2 4 C0.68 5.32 -0.64 6.64 -2 8 C-2 7.34 -2 6.68 -2 6 C-2.99 6 -3.98 6 -5 6 C-3.63016497 2.83884224 -3.0109362 2.0072908 0 0 Z " fill="#64447B" transform="translate(275,383)"/>
<path d="M0 0 C9.73995772 -0.57293869 9.73995772 -0.57293869 14 3 C14 3.66 14 4.32 14 5 C12.125 5.625 12.125 5.625 10 6 C9.34 5.34 8.68 4.68 8 4 C8.33 3.67 8.66 3.34 9 3 C4.545 2.01 4.545 2.01 0 1 C0 0.67 0 0.34 0 0 Z " fill="#BEB0C7" transform="translate(677,322)"/>
<path d="M0 0 C1.37478516 0.01740234 1.37478516 0.01740234 2.77734375 0.03515625 C3.69644531 0.04417969 4.61554687 0.05320312 5.5625 0.0625 C6.27277344 0.07410156 6.98304688 0.08570313 7.71484375 0.09765625 C7.71484375 0.75765625 7.71484375 1.41765625 7.71484375 2.09765625 C0.34996971 3.09628324 -6.8582931 3.20096656 -14.28515625 3.09765625 C-14.28515625 2.76765625 -14.28515625 2.43765625 -14.28515625 2.09765625 C-13.50269531 2.03707031 -12.72023438 1.97648437 -11.9140625 1.9140625 C-10.90214844 1.83027344 -9.89023437 1.74648438 -8.84765625 1.66015625 C-7.83832031 1.57894531 -6.82898438 1.49773437 -5.7890625 1.4140625 C-3.03433753 1.06596153 -2.71135493 0.11586987 0 0 Z " fill="#B6A7C0" transform="translate(602.28515625,413.90234375)"/>
<path d="M0 0 C2.31 0 4.62 0 7 0 C6.67 0.99 6.34 1.98 6 3 C3.38502661 4.23867161 0.74488051 5.08503983 -2 6 C-2 3 -2 3 0 1 C0 0.67 0 0.34 0 0 Z " fill="#8E779E" transform="translate(673,371)"/>
<path d="M0 0 C0 0.99 0 1.98 0 3 C-1.98 3.99 -1.98 3.99 -4 5 C-4 4.34 -4 3.68 -4 3 C-5.32 2.67 -6.64 2.34 -8 2 C-4.77208445 -0.1519437 -3.71599191 -0.20086443 0 0 Z " fill="#E73B45" transform="translate(632,297)"/>
<path d="M0 0 C-4.625 4.875 -4.625 4.875 -8 6 C-8.33 4.68 -8.66 3.36 -9 2 C-5.86501708 0.14223235 -3.62528568 -0.20140476 0 0 Z " fill="#EC4D57" transform="translate(641,292)"/>
<path d="M0 0 C5.37305699 0.1761658 5.37305699 0.1761658 8 1 C10 4.0625 10 4.0625 11 7 C6.89188572 5.55007731 3.53144334 3.54592427 0 1 C0 0.67 0 0.34 0 0 Z " fill="#DA777E" transform="translate(492,226)"/>
<path d="M0 0 C0.66 0.33 1.32 0.66 2 1 C1.67 2.65 1.34 4.3 1 6 C0.2575 5.95875 -0.485 5.9175 -1.25 5.875 C-4.08758952 6.00398134 -5.58773938 6.57051222 -8 8 C-8 7.34 -8 6.68 -8 6 C-6.25 4.4921875 -6.25 4.4921875 -4 2.875 C-3.2575 2.33617188 -2.515 1.79734375 -1.75 1.2421875 C-1.1725 0.83226563 -0.595 0.42234375 0 0 Z " fill="#DC7D83" transform="translate(528,82)"/>
<path d="M0 0 C3.43950364 0.61198376 5.51564485 1.92058847 8.25 4.0625 C8.95640625 4.61035156 9.6628125 5.15820312 10.390625 5.72265625 C11.18726563 6.35494141 11.18726563 6.35494141 12 7 C10.68 7.33 9.36 7.66 8 8 C8 7.34 8 6.68 8 6 C7.4225 5.938125 6.845 5.87625 6.25 5.8125 C3.11309013 4.67972699 1.90832496 2.65802405 0 0 Z " fill="#E0898E" transform="translate(477,56)"/>
<path d="M0 0 C-3.64116773 3.33773709 -7.28607242 3.97864902 -12 5 C-8.62270271 0.0144659 -5.847905 -0.12995344 0 0 Z " fill="#846A98" transform="translate(676,465)"/>
<path d="M0 0 C0 0.66 0 1.32 0 2 C-0.66 2 -1.32 2 -2 2 C-2.33 2.99 -2.66 3.98 -3 5 C-5 7 -5 7 -7.625 7.125 C-8.40875 7.08375 -9.1925 7.0425 -10 7 C-3.18421053 0 -3.18421053 0 0 0 Z " fill="#7F6490" transform="translate(674,390)"/>
<path d="M0 0 C4.83256305 0.41421969 6.82679218 2.46413986 10 6 C6.62972148 6 5.93297304 5.50175992 3.3125 3.5625 C2.68988281 3.11003906 2.06726563 2.65757812 1.42578125 2.19140625 C0.95527344 1.79824219 0.48476563 1.40507812 0 1 C0 0.67 0 0.34 0 0 Z " fill="#E0858A" transform="translate(482,219)"/>
<path d="M0 0 C0.66 0.33 1.32 0.66 2 1 C1.67 1.66 1.34 2.32 1 3 C0.01 3.33 -0.98 3.66 -2 4 C-1.67 4.66 -1.34 5.32 -1 6 C-1.99 6 -2.98 6 -4 6 C-4 6.66 -4 7.32 -4 8 C-5.32 7.67 -6.64 7.34 -8 7 C-8 6.34 -8 5.68 -8 5 C-6.36935236 3.94228261 -4.69719127 2.94726954 -3 2 C-2.01 1.34 -1.02 0.68 0 0 Z " fill="#8B719B" transform="translate(207,447)"/>
<path d="M0 0 C0.66 0.33 1.32 0.66 2 1 C0.68 3.31 -0.64 5.62 -2 8 C-3.65 8 -5.3 8 -7 8 C-6.02133662 6.85373678 -5.04205413 5.70800212 -4.0625 4.5625 C-3.51722656 3.92441406 -2.97195313 3.28632813 -2.41015625 2.62890625 C-1.63204305 1.73008851 -0.84063472 0.84063472 0 0 Z " fill="#8B729B" transform="translate(268,389)"/>
<path d="M0 0 C0.66 0 1.32 0 2 0 C1.875 1.875 1.875 1.875 1 4 C-0.98723268 4.70381157 -2.98777953 5.3711811 -5 6 C-5.33 6.99 -5.66 7.98 -6 9 C-6.66 8.67 -7.32 8.34 -8 8 C-6.37660195 6.29115995 -4.70680947 4.62553283 -3 3 C-2.34 3 -1.68 3 -1 3 C-0.67 2.01 -0.34 1.02 0 0 Z " fill="#A793B3" transform="translate(293,366)"/>
<path d="M0 0 C1.65 0 3.3 0 5 0 C1.56638098 3.63559661 -1.7973607 6.36113346 -6 9 C-6 7.68 -6 6.36 -6 5 C-5.195625 4.731875 -4.39125 4.46375 -3.5625 4.1875 C-2.716875 3.795625 -1.87125 3.40375 -1 3 C-0.67 2.01 -0.34 1.02 0 0 Z " fill="#DE8C92" transform="translate(555,168)"/>
<path d="M0 0 C0.66 0.33 1.32 0.66 2 1 C-1.75 4 -1.75 4 -4 4 C-4 4.66 -4 5.32 -4 6 C-4.99 5.67 -5.98 5.34 -7 5 C-7.33 4.34 -7.66 3.68 -8 3 C-7.67 2.34 -7.34 1.68 -7 1 C-6.401875 1.20625 -5.80375 1.4125 -5.1875 1.625 C-2.71549154 2.30671915 -2.71549154 2.30671915 0 0 Z " fill="#A792B2" transform="translate(666,379)"/>
<path d="M0 0 C0.33 0.66 0.66 1.32 1 2 C1.99 2 2.98 2 4 2 C3.67 3.98 3.34 5.96 3 8 C1.29115995 6.37660195 -0.37446717 4.70680947 -2 3 C-2 2.34 -2 1.68 -2 1 C-1.34 0.67 -0.68 0.34 0 0 Z " fill="#D4626A" transform="translate(424,157)"/>
<path d="M0 0 C1.2065625 0.0309375 1.2065625 0.0309375 2.4375 0.0625 C1.4375 3.0625 1.4375 3.0625 -1.625 4.75 C-2.594375 5.183125 -3.56375 5.61625 -4.5625 6.0625 C-3.48963568 0.08511307 -3.48963568 0.08511307 0 0 Z " fill="#816593" transform="translate(696.5625,447.9375)"/>
<path d="M0 0 C0 0.66 0 1.32 0 2 C0.66 2.33 1.32 2.66 2 3 C0.9275 3.144375 -0.145 3.28875 -1.25 3.4375 C-3.91662949 3.83749442 -6.41399729 4.27591924 -9 5 C-7.73223544 2.46447088 -6.53176935 2.15080425 -4 1 C-2 0 -2 0 0 0 Z " fill="#90769F" transform="translate(703,372)"/>
<path d="M0 0 C1.32 1.32 2.64 2.64 4 4 C1.35261084 5.4606285 0.10551666 6 -3 6 C-2.42655063 3.13275314 -2.1385485 2.1385485 0 0 Z " fill="#5E3A73" transform="translate(681,365)"/>
<path d="M0 0 C1.32 0.33 2.64 0.66 4 1 C3.67 2.32 3.34 3.64 3 5 C0.03 5 -2.94 5 -6 5 C-5.67 4.34 -5.34 3.68 -5 3 C-3.68 3 -2.36 3 -1 3 C-0.67 2.01 -0.34 1.02 0 0 Z " fill="#B9AAC1" transform="translate(650,347)"/>
<path d="M0 0 C0 3 0 3 -1.3125 4.38671875 C-2.875 5.59114583 -4.4375 6.79557292 -6 8 C-6 6.02 -6 4.04 -6 2 C-4.7934375 1.7834375 -4.7934375 1.7834375 -3.5625 1.5625 C-1.07896294 1.25864751 -1.07896294 1.25864751 0 0 Z " fill="#F0747C" transform="translate(662,271)"/>
<path d="M0 0 C2.64 0.33 5.28 0.66 8 1 C8.33 2.98 8.66 4.96 9 7 C6.525 6.01 6.525 6.01 4 5 C4 4.34 4 3.68 4 3 C2.68 2.34 1.36 1.68 0 1 C0 0.67 0 0.34 0 0 Z " fill="#DD7F86" transform="translate(469,209)"/>
<path d="M0 0 C0.99 0.33 1.98 0.66 3 1 C2.1875 2.9375 2.1875 2.9375 1 5 C0.01 5.33 -0.98 5.66 -2 6 C-3.66710346 7.49985609 -3.66710346 7.49985609 -5 9 C-4.67 7.35 -4.34 5.7 -4 4 C-3.01 4 -2.02 4 -1 4 C-0.67 2.68 -0.34 1.36 0 0 Z " fill="#EA2A36" transform="translate(546,202)"/>
<path d="M0 0 C6.4 -0.49230769 6.4 -0.49230769 9.4375 2 C10.2109375 2.99 10.2109375 2.99 11 4 C9.35232753 3.71890887 7.70686855 3.42481474 6.0625 3.125 C4.68771484 2.88136719 4.68771484 2.88136719 3.28515625 2.6328125 C2.53105469 2.42398438 1.77695312 2.21515625 1 2 C0.67 1.34 0.34 0.68 0 0 Z " fill="#EF7177" transform="translate(659,168)"/>
<path d="M0 0 C0.99 0.33 1.98 0.66 3 1 C2.67 1.99 2.34 2.98 2 4 C-1.17242648 5.31035007 -3.55881664 6 -7 6 C-5.90716423 4.96704564 -4.80029421 3.94892165 -3.6875 2.9375 C-3.07261719 2.36902344 -2.45773437 1.80054688 -1.82421875 1.21484375 C-0.92123047 0.61349609 -0.92123047 0.61349609 0 0 Z " fill="#E18F94" transform="translate(433,54)"/>
<path d="M0 0 C-0.99 0.495 -0.99 0.495 -2 1 C-2.33 1.66 -2.66 2.32 -3 3 C-5.64860427 3.59355614 -8.29197322 3.74209269 -11 4 C-10.67 3.01 -10.34 2.02 -10 1 C-6.59437148 0.22157062 -3.49234244 -0.09978121 0 0 Z " fill="#9D89AA" transform="translate(658,472)"/>
<path d="M0 0 C1.98 0 3.96 0 6 0 C1.56923077 5.78461538 1.56923077 5.78461538 -1.3125 6.875 C-1.869375 6.91625 -2.42625 6.9575 -3 7 C-2.01 4.69 -1.02 2.38 0 0 Z " fill="#A792B4" transform="translate(743,407)"/>
<path d="M0 0 C-1.5 1.125 -1.5 1.125 -4 2 C-6.7773082 1.57598348 -9.29639783 0.81108065 -12 0 C-12 -0.33 -12 -0.66 -12 -1 C-7.48281619 -2.36884358 -4.41225737 -1.47075246 0 0 Z " fill="#795A8B" transform="translate(408,516)"/>
<path d="M0 0 C0 3.38023517 -0.87455622 5.83468937 -2 9 C-3.65 9 -5.3 9 -7 9 C-6.02180976 7.68677212 -5.0424189 6.37443848 -4.0625 5.0625 C-3.51722656 4.33160156 -2.97195313 3.60070312 -2.41015625 2.84765625 C-1 1 -1 1 0 0 Z " fill="#9179A0" transform="translate(260,397)"/>
<path d="M0 0 C3.37503669 1.1858237 5.64722731 2.27573689 8 5 C6.35 5.33 4.7 5.66 3 6 C2.01 4.02 1.02 2.04 0 0 Z " fill="#9A84A9" transform="translate(722,343)"/>
<path d="M0 0 C2.0625 0.4375 2.0625 0.4375 4 1 C2.25 5.875 2.25 5.875 0 7 C-0.38133299 5.0085944 -0.71325582 3.00720923 -1 1 C-0.67 0.67 -0.34 0.34 0 0 Z " fill="#ED5C63" transform="translate(673,252)"/>
<path d="M0 0 C5.53846154 0.61538462 5.53846154 0.61538462 7.875 2.5625 C8.431875 3.2740625 8.431875 3.2740625 9 4 C2.25 3.125 2.25 3.125 0 2 C0 1.34 0 0.68 0 0 Z " fill="#D96F7A" transform="translate(569,79)"/>
<path d="M0 0 C0.99 0.66 1.98 1.32 3 2 C1.25 3.5625 1.25 3.5625 -1 5 C-3.25 4.6875 -3.25 4.6875 -5 4 C-3.36587557 2.29159719 -2.13093906 1.06546953 0 0 Z " fill="#745889" transform="translate(284,375)"/>
<path d="M0 0 C-0.99 0.495 -0.99 0.495 -2 1 C-2.33 1.66 -2.66 2.32 -3 3 C-4.32 3 -5.64 3 -7 3 C-7 2.01 -7 1.02 -7 0 C-4.3333581 -1.33332095 -2.83319697 -0.67102033 0 0 Z " fill="#785A8A" transform="translate(709,355)"/>
<path d="M0 0 C1.66666667 0 3.33333333 0 5 0 C5.33 0.99 5.66 1.98 6 3 C5.34 3 4.68 3 4 3 C3.67 3.66 3.34 4.32 3 5 C1.68 4.67 0.36 4.34 -1 4 C-0.67 2.68 -0.34 1.36 0 0 Z " fill="#330A4E" transform="translate(611,344)"/>
<path d="M0 0 C2.50298434 2.93828597 3.46930939 5.17902761 4 9 C3.01 9 2.02 9 1 9 C0.67 6.03 0.34 3.06 0 0 Z " fill="#F1767E" transform="translate(683,187)"/>
<path d="M0 0 C-6.45 4.09326923 -6.45 4.09326923 -9.234375 3.62109375 C-9.81703125 3.41613281 -10.3996875 3.21117187 -11 3 C-9.73581754 2.30034557 -8.46334598 1.61565237 -7.1875 0.9375 C-6.47980469 0.55464844 -5.77210938 0.17179688 -5.04296875 -0.22265625 C-3 -1 -3 -1 0 0 Z " fill="#F3A3A8" transform="translate(566,188)"/>
<path d="M0 0 C0.66 0.33 1.32 0.66 2 1 C1.34 2.65 0.68 4.3 0 6 C-0.99 6 -1.98 6 -3 6 C-3.33 5.01 -3.66 4.02 -4 3 C-2.68 2.01 -1.36 1.02 0 0 Z " fill="#6C4C7F" transform="translate(692,377)"/>
<path d="M0 0 C1.32 0.33 2.64 0.66 4 1 C2.02 3.97 2.02 3.97 0 7 C-1.32 6.67 -2.64 6.34 -4 6 C-3.01 5.34 -2.02 4.68 -1 4 C-0.27617533 1.94074861 -0.27617533 1.94074861 0 0 Z " fill="#C3B2CB" transform="translate(784,374)"/>
<path d="M0 0 C2.31 0.66 4.62 1.32 7 2 C6.34 3.32 5.68 4.64 5 6 C4.01 5.34 3.02 4.68 2 4 C2 3.34 2 2.68 2 2 C1.34 2 0.68 2 0 2 C0 1.34 0 0.68 0 0 Z " fill="#D4666F" transform="translate(449,191)"/>
<path d="M0 0 C2.475 0.495 2.475 0.495 5 1 C5.66 2.98 6.32 4.96 7 7 C6.34 7 5.68 7 5 7 C0 1.4047619 0 1.4047619 0 0 Z " fill="#DC7D82" transform="translate(442,184)"/>
<path d="M0 0 C1.24546405 2.49092811 0.7767578 3.41080733 0 6 C-1.65 6.33 -3.3 6.66 -5 7 C-3.70700306 4.11562221 -2.34058637 2.12780579 0 0 Z " fill="#DC7C81" transform="translate(425,61)"/>
<path d="M0 0 C0 3 0 3 -1 6 C-1.99 5.67 -2.98 5.34 -4 5 C-4 4.01 -4 3.02 -4 2 C-2.68 1.34 -1.36 0.68 0 0 Z " fill="#A38FB2" transform="translate(276,578)"/>
<path d="M0 0 C0.99 0.33 1.98 0.66 3 1 C2.34 1 1.68 1 1 1 C0.814375 2.2065625 0.814375 2.2065625 0.625 3.4375 C0.41875 4.283125 0.2125 5.12875 0 6 C-0.99 6.495 -0.99 6.495 -2 7 C-2 6.34 -2 5.68 -2 5 C-2.66 4.67 -3.32 4.34 -4 4 C-2.68 2.68 -1.36 1.36 0 0 Z " fill="#8F769E" transform="translate(650,405)"/>
<path d="M0 0 C0.33 0.99 0.66 1.98 1 3 C-0.65 4.65 -2.3 6.3 -4 8 C-4.33 6.68 -4.66 5.36 -5 4 C-4.34 4 -3.68 4 -3 4 C-2.67 3.34 -2.34 2.68 -2 2 C-1.34 1.34 -0.68 0.68 0 0 Z " fill="#9176A1" transform="translate(604,375)"/>
<path d="M0 0 C1.65 0 3.3 0 5 0 C5.33 1.32 5.66 2.64 6 4 C5.34 3.67 4.68 3.34 4 3 C3.67 3.66 3.34 4.32 3 5 C2.01 4.67 1.02 4.34 0 4 C0.66 4 1.32 4 2 4 C2 3.34 2 2.68 2 2 C1.34 2 0.68 2 0 2 C0 1.34 0 0.68 0 0 Z " fill="#7E618F" transform="translate(779,360)"/>
<path d="M0 0 C5.57142857 5.14285714 5.57142857 5.14285714 6 9 C1.2 5.67692308 1.2 5.67692308 0.1875 2.25 C0.125625 1.5075 0.06375 0.765 0 0 Z " fill="#9A84A9" transform="translate(599,353)"/>
<path d="M0 0 C1.98 0.495 1.98 0.495 4 1 C3.67 2.32 3.34 3.64 3 5 C1.68 4.67 0.36 4.34 -1 4 C-0.67 2.68 -0.34 1.36 0 0 Z " fill="#CB434C" transform="translate(522,203)"/>
<path d="M0 0 C0.66 0 1.32 0 2 0 C2 0.66 2 1.32 2 2 C2.66 2.33 3.32 2.66 4 3 C3.01 3.66 2.02 4.32 1 5 C0.01 4.67 -0.98 4.34 -2 4 C-1.34 2.68 -0.68 1.36 0 0 Z " fill="#E94A54" transform="translate(619,182)"/>
<path d="M0 0 C0.66 0.33 1.32 0.66 2 1 C1.34 2.32 0.68 3.64 0 5 C-0.66 5 -1.32 5 -2 5 C-2 4.34 -2 3.68 -2 3 C-3.32 3.33 -4.64 3.66 -6 4 C-3.94766315 1.7522025 -2.99332739 0.9977758 0 0 Z " fill="#F07B82" transform="translate(637,169)"/>
<path d="M0 0 C0.66 0.66 1.32 1.32 2 2 C1.01 2.495 1.01 2.495 0 3 C0 2.01 0 1.02 0 0 Z " fill="#FAFCF8" transform="translate(615,364)"/>
<path d="M0 0 C3 1 3 1 3 1 Z " fill="#FAFCF7" transform="translate(588,396)"/>
<path d="M0 0 C0.99 0.495 0.99 0.495 2 1 C1.01 1.495 1.01 1.495 0 2 C0 1.34 0 0.68 0 0 Z " fill="#FBFDFA" transform="translate(684,379)"/>
<path d="M0 0 C0.99 0.495 0.99 0.495 2 1 C1.01 1.495 1.01 1.495 0 2 C0 1.34 0 0.68 0 0 Z " fill="#FAFBF4" transform="translate(282,373)"/>
<path d="M0 0 C0.99 0.495 0.99 0.495 2 1 C1.01 1.495 1.01 1.495 0 2 C0 1.34 0 0.68 0 0 Z " fill="#FCFCFB" transform="translate(730,357)"/>
<path d="M0 0 C3 1 3 1 3 1 Z " fill="#FAFCF6" transform="translate(684,337)"/>
<path d="" fill="#F9F9F9" transform="translate(0,0)"/>
<path d="" fill="#FBFDFA" transform="translate(0,0)"/>
<path d="M0 0 C2 1 2 1 2 1 Z " fill="#F8FEFA" transform="translate(404,518)"/>
<path d="M0 0 C2 1 2 1 2 1 Z " fill="#FAFEF9" transform="translate(417,517)"/>
<path d="M0 0 C2 1 2 1 2 1 Z " fill="#FBFAF9" transform="translate(410,517)"/>
<path d="M0 0 C2 1 2 1 2 1 Z " fill="#FAFEF8" transform="translate(575,507)"/>
<path d="M0 0 C2 1 2 1 2 1 Z " fill="#FAFDF7" transform="translate(633,482)"/>
<path d="M0 0 C2 1 2 1 2 1 Z " fill="#FBFAF5" transform="translate(636,481)"/>
<path d="M0 0 C2 1 2 1 2 1 Z " fill="#FBFBFB" transform="translate(658,473)"/>
<path d="M0 0 C2 1 2 1 2 1 Z " fill="#FAFCF8" transform="translate(683,462)"/>
<path d="M0 0 C2 1 2 1 2 1 Z " fill="#F8FEFA" transform="translate(534,419)"/>
<path d="M0 0 C2 1 2 1 2 1 Z " fill="#F6F9F7" transform="translate(621,411)"/>
<path d="M0 0 C2 1 2 1 2 1 Z " fill="#F7F8FA" transform="translate(589,398)"/>
<path d="M0 0 C2 1 2 1 2 1 Z " fill="#F9FAF5" transform="translate(658,397)"/>
<path d="" fill="#F9FBF7" transform="translate(0,0)"/>
<path d="M0 0 C2 1 2 1 2 1 Z " fill="#FCFDF9" transform="translate(661,395)"/>
<path d="M0 0 C2 1 2 1 2 1 Z " fill="#FBFCF6" transform="translate(648,395)"/>
<path d="M0 0 C2 1 2 1 2 1 Z " fill="#F7F9F9" transform="translate(680,381)"/>
<path d="" fill="#FCFBFC" transform="translate(0,0)"/>
<path d="" fill="#FCF9F9" transform="translate(0,0)"/>
<path d="" fill="#F9FBFB" transform="translate(0,0)"/>
<path d="" fill="#F8FDF8" transform="translate(0,0)"/>
<path d="M0 0 C2 1 2 1 2 1 Z " fill="#F9FAFD" transform="translate(714,363)"/>
<path d="M0 0 C2 1 2 1 2 1 Z " fill="#F8FCFD" transform="translate(722,351)"/>
<path d="M0 0 C2 1 2 1 2 1 Z " fill="#FDFEF8" transform="translate(614,350)"/>
<path d="M0 0 C2 1 2 1 2 1 Z " fill="#FAFDFC" transform="translate(599,336)"/>
<path d="M0 0 C2 1 2 1 2 1 Z " fill="#F8FFF6" transform="translate(654,334)"/>
<path d="M0 0 C2 1 2 1 2 1 Z " fill="#FBFCFE" transform="translate(636,323)"/>
<path d="M0 0 C2 1 2 1 2 1 Z " fill="#F9FFF8" transform="translate(646,321)"/>
<path d="" fill="#FDFCF8" transform="translate(0,0)"/>
<path d="" fill="#FAFFF9" transform="translate(0,0)"/>
<path d="" fill="#FDFFF4" transform="translate(0,0)"/>
<path d="" fill="#FCFDF7" transform="translate(0,0)"/>
<path d="" fill="#FBFDFA" transform="translate(0,0)"/>
<path d="" fill="#F5FFF6" transform="translate(0,0)"/>
<path d="" fill="#F8FDF6" transform="translate(0,0)"/>
<path d="" fill="#FBFFFA" transform="translate(0,0)"/>
<path d="" fill="#FAFBF6" transform="translate(0,0)"/>
<path d="" fill="#F5FDF2" transform="translate(0,0)"/>
<path d="" fill="#FCFBF9" transform="translate(0,0)"/>
<path d="" fill="#FBFEF3" transform="translate(0,0)"/>
<path d="" fill="#FCFBF6" transform="translate(0,0)"/>
<path d="" fill="#F7FCF5" transform="translate(0,0)"/>
<path d="" fill="#F9FBFA" transform="translate(0,0)"/>
<path d="" fill="#FCFDF8" transform="translate(0,0)"/>
<path d="" fill="#FAFCFB" transform="translate(0,0)"/>
<path d="" fill="#FDFDFB" transform="translate(0,0)"/>
<path d="" fill="#FDFDFF" transform="translate(0,0)"/>
<path d="" fill="#FAFBFD" transform="translate(0,0)"/>
<path d="" fill="#FCFEFB" transform="translate(0,0)"/>
<path d="" fill="#F9FDFE" transform="translate(0,0)"/>
<path d="" fill="#FCFCFA" transform="translate(0,0)"/>
<path d="" fill="#FCFCFA" transform="translate(0,0)"/>
<path d="" fill="#FCFCFA" transform="translate(0,0)"/>
<path d="" fill="#F8FEFC" transform="translate(0,0)"/>
<path d="" fill="#F5FBF9" transform="translate(0,0)"/>
<path d="" fill="#FDFDFB" transform="translate(0,0)"/>
<path d="" fill="#FAFFF8" transform="translate(0,0)"/>
<path d="" fill="#FCFEFB" transform="translate(0,0)"/>
<path d="" fill="#FCFFFB" transform="translate(0,0)"/>
<path d="" fill="#FDFEF9" transform="translate(0,0)"/>
<path d="" fill="#F9FBF8" transform="translate(0,0)"/>
<path d="" fill="#F6F8F7" transform="translate(0,0)"/>
<path d="" fill="#F8FDFF" transform="translate(0,0)"/>
<path d="" fill="#FCFAFB" transform="translate(0,0)"/>
<path d="" fill="#F9FAFE" transform="translate(0,0)"/>
<path d="" fill="#FBFBFB" transform="translate(0,0)"/>
<path d="" fill="#F6FFF9" transform="translate(0,0)"/>
<path d="" fill="#F5FBF7" transform="translate(0,0)"/>
<path d="" fill="#FAFBFF" transform="translate(0,0)"/>
<path d="" fill="#FBFEF7" transform="translate(0,0)"/>
<path d="" fill="#F9FAF4" transform="translate(0,0)"/>
<path d="" fill="#FCFBF9" transform="translate(0,0)"/>
<path d="" fill="#F9FAFC" transform="translate(0,0)"/>
<path d="" fill="#FAFCF7" transform="translate(0,0)"/>
<path d="" fill="#F6FAFB" transform="translate(0,0)"/>
<path d="" fill="#F9FBF8" transform="translate(0,0)"/>
<path d="" fill="#FBF9FC" transform="translate(0,0)"/>
<path d="" fill="#FAFBF6" transform="translate(0,0)"/>
<path d="" fill="#F9FEF8" transform="translate(0,0)"/>
<path d="" fill="#FDFEF9" transform="translate(0,0)"/>
<path d="" fill="#F7FDFD" transform="translate(0,0)"/>
<path d="" fill="#FDFCF7" transform="translate(0,0)"/>
<path d="" fill="#F7F8F0" transform="translate(0,0)"/>
<path d="" fill="#FCFCFA" transform="translate(0,0)"/>
<path d="" fill="#FAF9FE" transform="translate(0,0)"/>
<path d="" fill="#F8FAEC" transform="translate(0,0)"/>
<path d="" fill="#F8F8F8" transform="translate(0,0)"/>
<path d="" fill="#F9FBF8" transform="translate(0,0)"/>
<path d="" fill="#FAF8F9" transform="translate(0,0)"/>
<path d="" fill="#FAFAF8" transform="translate(0,0)"/>
<path d="" fill="#FBFBFF" transform="translate(0,0)"/>
<path d="" fill="#F9FBF8" transform="translate(0,0)"/>
<path d="" fill="#F9FFF8" transform="translate(0,0)"/>
<path d="" fill="#FBFBF9" transform="translate(0,0)"/>
<path d="" fill="#FAFAF8" transform="translate(0,0)"/>
<path d="" fill="#FBFBF9" transform="translate(0,0)"/>
<path d="" fill="#F9FBF6" transform="translate(0,0)"/>
<path d="" fill="#F9FBF6" transform="translate(0,0)"/>
<path d="" fill="#FCFCFC" transform="translate(0,0)"/>
<path d="" fill="#F6FBF7" transform="translate(0,0)"/>
<path d="" fill="#F4FDF8" transform="translate(0,0)"/>
<path d="" fill="#F9FAF4" transform="translate(0,0)"/>
<path d="" fill="#FBFCF4" transform="translate(0,0)"/>
<path d="" fill="#FBFDFA" transform="translate(0,0)"/>
<path d="" fill="#F8FAF5" transform="translate(0,0)"/>
<path d="" fill="#FCFAFB" transform="translate(0,0)"/>
<path d="" fill="#F7FCF8" transform="translate(0,0)"/>
<path d="" fill="#FCFAFB" transform="translate(0,0)"/>
<path d="" fill="#FCFAFB" transform="translate(0,0)"/>
<path d="" fill="#F9FAF4" transform="translate(0,0)"/>
<path d="" fill="#F5F6F8" transform="translate(0,0)"/>
<path d="" fill="#FAF9F7" transform="translate(0,0)"/>
<path d="" fill="#FCFCFC" transform="translate(0,0)"/>
<path d="" fill="#FBFCF7" transform="translate(0,0)"/>
<path d="" fill="#FBFBFB" transform="translate(0,0)"/>
<path d="" fill="#FCFBF9" transform="translate(0,0)"/>
<path d="" fill="#F8F8FA" transform="translate(0,0)"/>
<path d="" fill="#FBFCF6" transform="translate(0,0)"/>
<path d="" fill="#F7F9F6" transform="translate(0,0)"/>
<path d="" fill="#FFFCF7" transform="translate(0,0)"/>
<path d="" fill="#F9F8F4" transform="translate(0,0)"/>
<path d="" fill="#FBFBF9" transform="translate(0,0)"/>
<path d="" fill="#FAFBFD" transform="translate(0,0)"/>
<path d="" fill="#FBFBF9" transform="translate(0,0)"/>
<path d="" fill="#FCFCFA" transform="translate(0,0)"/>
<path d="" fill="#FAFCFB" transform="translate(0,0)"/>
<path d="" fill="#F9FBFA" transform="translate(0,0)"/>
<path d="" fill="#F7FBFE" transform="translate(0,0)"/>
<path d="" fill="#F4F4F4" transform="translate(0,0)"/>
<path d="" fill="#FBFDF8" transform="translate(0,0)"/>
<path d="" fill="#FBFDFA" transform="translate(0,0)"/>
<path d="" fill="#F5F9FC" transform="translate(0,0)"/>
<path d="" fill="#F8FBFF" transform="translate(0,0)"/>
<path d="" fill="#FCFDF8" transform="translate(0,0)"/>
<path d="" fill="#FCFDFF" transform="translate(0,0)"/>
<path d="" fill="#FAFCFB" transform="translate(0,0)"/>
<path d="" fill="#F9F9F7" transform="translate(0,0)"/>
<path d="" fill="#F8FAF9" transform="translate(0,0)"/>
<path d="" fill="#FBFDFA" transform="translate(0,0)"/>
<path d="" fill="#FBFDFA" transform="translate(0,0)"/>
<path d="" fill="#FDFCFA" transform="translate(0,0)"/>
<path d="" fill="#FCFDF8" transform="translate(0,0)"/>
<path d="" fill="#F5F9F8" transform="translate(0,0)"/>
<path d="" fill="#FCFCFC" transform="translate(0,0)"/>
<path d="" fill="#FEFDF9" transform="translate(0,0)"/>
<path d="" fill="#FBFDFA" transform="translate(0,0)"/>
<path d="" fill="#FAFCF9" transform="translate(0,0)"/>
<path d="" fill="#FBFCF7" transform="translate(0,0)"/>
<path d="" fill="#F7F7F7" transform="translate(0,0)"/>
<path d="" fill="#FDFEF9" transform="translate(0,0)"/>
<path d="" fill="#FAFBF3" transform="translate(0,0)"/>
<path d="" fill="#FAFBFD" transform="translate(0,0)"/>
<path d="" fill="#FCFCFE" transform="translate(0,0)"/>
<path d="" fill="#FDFDFD" transform="translate(0,0)"/>
<path d="" fill="#FBFAF5" transform="translate(0,0)"/>
<path d="" fill="#F9F9FB" transform="translate(0,0)"/>
<path d="" fill="#F9FBF8" transform="translate(0,0)"/>
<path d="" fill="#F8F8F6" transform="translate(0,0)"/>
<path d="" fill="#F8FAF7" transform="translate(0,0)"/>
<path d="" fill="#F9FBF8" transform="translate(0,0)"/>
<path d="" fill="#F9F9FF" transform="translate(0,0)"/>
<path d="" fill="#FAFDF4" transform="translate(0,0)"/>
<path d="" fill="#FAF9F5" transform="translate(0,0)"/>
<path d="" fill="#FDFDFB" transform="translate(0,0)"/>
<path d="" fill="#F7FBFA" transform="translate(0,0)"/>
<path d="" fill="#FBFDFA" transform="translate(0,0)"/>
<path d="" fill="#F9FEF7" transform="translate(0,0)"/>
<path d="" fill="#FAFCFB" transform="translate(0,0)"/>
<path d="" fill="#F5FFFC" transform="translate(0,0)"/>
<path d="" fill="#FDFBFE" transform="translate(0,0)"/>
<path d="" fill="#FAFFFB" transform="translate(0,0)"/>
<path d="" fill="#F5FEFB" transform="translate(0,0)"/>
<path d="" fill="#FCFDF8" transform="translate(0,0)"/>
<path d="" fill="#F6FAF9" transform="translate(0,0)"/>
<path d="" fill="#FAFBF6" transform="translate(0,0)"/>
<path d="" fill="#F8F9F4" transform="translate(0,0)"/>
<path d="" fill="#FBFDFA" transform="translate(0,0)"/>
<path d="" fill="#F9F9F7" transform="translate(0,0)"/>
<path d="" fill="#F8F9FE" transform="translate(0,0)"/>
<path d="" fill="#F6FAF9" transform="translate(0,0)"/>
<path d="" fill="#F9F8F4" transform="translate(0,0)"/>
<path d="" fill="#F4F9FC" transform="translate(0,0)"/>
<path d="" fill="#F6F8F5" transform="translate(0,0)"/>
<path d="" fill="#F9FEFA" transform="translate(0,0)"/>
<path d="" fill="#F9FFF6" transform="translate(0,0)"/>
<path d="" fill="#F9FBFA" transform="translate(0,0)"/>
<path d="" fill="#FAFCFB" transform="translate(0,0)"/>
<path d="" fill="#FAF8FB" transform="translate(0,0)"/>
<path d="" fill="#FCFDF8" transform="translate(0,0)"/>
<path d="" fill="#F8FBFF" transform="translate(0,0)"/>
<path d="" fill="#F9F9FB" transform="translate(0,0)"/>
<path d="" fill="#F6F9FF" transform="translate(0,0)"/>
<path d="" fill="#F6F8F7" transform="translate(0,0)"/>
<path d="" fill="#F8F8F8" transform="translate(0,0)"/>
<path d="" fill="#F5FEFB" transform="translate(0,0)"/>
<path d="" fill="#FCFCFA" transform="translate(0,0)"/>
<path d="" fill="#FFFCF9" transform="translate(0,0)"/>
<path d="" fill="#F9FDFC" transform="translate(0,0)"/>
<path d="" fill="#FCFCFC" transform="translate(0,0)"/>
<path d="" fill="#F5FAF6" transform="translate(0,0)"/>
<path d="" fill="#F7F8FD" transform="translate(0,0)"/>
<path d="" fill="#F9F9F9" transform="translate(0,0)"/>
<path d="" fill="#F7F9F6" transform="translate(0,0)"/>
<path d="" fill="#FBFBFB" transform="translate(0,0)"/>
<path d="" fill="#F5F9FC" transform="translate(0,0)"/>
<path d="" fill="#FDFBFC" transform="translate(0,0)"/>
<path d="" fill="#F9FBF8" transform="translate(0,0)"/>
<path d="" fill="#FCFBF7" transform="translate(0,0)"/>
<path d="" fill="#F9FBF8" transform="translate(0,0)"/>
<path d="" fill="#F7F8F3" transform="translate(0,0)"/>
<path d="" fill="#FDFBFC" transform="translate(0,0)"/>
<path d="" fill="#FCFCFE" transform="translate(0,0)"/>
<path d="" fill="#FBFBFB" transform="translate(0,0)"/>
<path d="" fill="#FBFDFA" transform="translate(0,0)"/>
<path d="" fill="#F6FFF6" transform="translate(0,0)"/>
<path d="" fill="#F6FBF5" transform="translate(0,0)"/>
<path d="" fill="#FCFCFE" transform="translate(0,0)"/>
<path d="" fill="#FAFCFB" transform="translate(0,0)"/>
<path d="" fill="#FEF5F6" transform="translate(0,0)"/>
<path d="" fill="#FCFCFA" transform="translate(0,0)"/>
<path d="" fill="#FBFCF6" transform="translate(0,0)"/>
<path d="" fill="#FAF7F0" transform="translate(0,0)"/>
<path d="" fill="#FAFAFC" transform="translate(0,0)"/>
<path d="" fill="#FAFBF3" transform="translate(0,0)"/>
<path d="" fill="#FAFBFD" transform="translate(0,0)"/>
<path d="" fill="#FCFEF9" transform="translate(0,0)"/>
<path d="" fill="#F6F8F5" transform="translate(0,0)"/>
<path d="" fill="#FDFAFF" transform="translate(0,0)"/>
<path d="" fill="#F8FEFC" transform="translate(0,0)"/>
<path d="" fill="#F9FBF0" transform="translate(0,0)"/>
<path d="" fill="#FDFCFA" transform="translate(0,0)"/>
<path d="" fill="#F6FCFA" transform="translate(0,0)"/>
<path d="" fill="#FCF9F4" transform="translate(0,0)"/>
<path d="" fill="#F9FCF3" transform="translate(0,0)"/>
<path d="" fill="#FCFBF7" transform="translate(0,0)"/>
<path d="" fill="#F5FBFB" transform="translate(0,0)"/>
<path d="" fill="#FCFCFC" transform="translate(0,0)"/>
<path d="" fill="#FBFAFF" transform="translate(0,0)"/>
<path d="" fill="#F9FDFC" transform="translate(0,0)"/>
<path d="" fill="#FBFBFD" transform="translate(0,0)"/>
<path d="" fill="#F5F9FC" transform="translate(0,0)"/>
<path d="" fill="#F7FBFE" transform="translate(0,0)"/>
<path d="" fill="#F8FDF7" transform="translate(0,0)"/>
<path d="" fill="#FBFDFC" transform="translate(0,0)"/>
<path d="" fill="#F6FAFD" transform="translate(0,0)"/>
<path d="" fill="#F7FDFB" transform="translate(0,0)"/>
<path d="" fill="#F7F9F6" transform="translate(0,0)"/>
<path d="" fill="#FBFDFA" transform="translate(0,0)"/>
<path d="" fill="#F6FAFB" transform="translate(0,0)"/>
<path d="" fill="#FCFEFD" transform="translate(0,0)"/>
<path d="" fill="#FCFEFB" transform="translate(0,0)"/>
<path d="" fill="#FBFCF7" transform="translate(0,0)"/>
<path d="" fill="#FAF9FE" transform="translate(0,0)"/>
<path d="" fill="#F6FBF5" transform="translate(0,0)"/>
<path d="" fill="#FCF8F5" transform="translate(0,0)"/>
<path d="" fill="#FAF8F9" transform="translate(0,0)"/>
<path d="" fill="#F9FDFC" transform="translate(0,0)"/>
<path d="" fill="#FDFAF3" transform="translate(0,0)"/>
<path d="" fill="#FAFCF9" transform="translate(0,0)"/>
<path d="" fill="#F9F8FD" transform="translate(0,0)"/>
<path d="" fill="#F8FDF9" transform="translate(0,0)"/>
<path d="" fill="#FDFCF8" transform="translate(0,0)"/>
<path d="" fill="#FFFDF4" transform="translate(0,0)"/>
<path d="" fill="#F2F6F9" transform="translate(0,0)"/>
<path d="" fill="#FBFBFF" transform="translate(0,0)"/>
<path d="" fill="#FAFBFD" transform="translate(0,0)"/>
<path d="" fill="#F7FDFB" transform="translate(0,0)"/>
<path d="" fill="#F9FFF5" transform="translate(0,0)"/>
<path d="" fill="#FBFBF9" transform="translate(0,0)"/>
<path d="" fill="#FAF8FB" transform="translate(0,0)"/>
<path d="" fill="#F9F7FA" transform="translate(0,0)"/>
<path d="" fill="#F6FAF9" transform="translate(0,0)"/>
<path d="" fill="#F5FAF6" transform="translate(0,0)"/>
<path d="" fill="#F6FEF3" transform="translate(0,0)"/>
</svg>
