<?xml version="1.0" encoding="utf-8"?>
<svg viewBox="0 0 936 612" xmlns="http://www.w3.org/2000/svg">
  <path d="M 397.896 346.077 C 398.955 346.274 398.955 346.274 400.035 346.475 C 401.487 346.747 402.939 347.021 404.391 347.299 C 406.457 347.689 408.525 348.06 410.596 348.424 C 418.713 349.869 426.649 351.673 434.607 353.834 C 444.189 356.13 454.092 355.918 463.888 355.942 C 466.253 355.951 468.617 355.983 470.982 356.014 C 480.622 356.08 489.146 355.103 498.521 352.702 C 499.432 352.525 500.343 352.349 501.282 352.167 C 503.545 351.796 503.545 351.796 505.521 350.702 C 508.401 350.262 511.286 349.921 514.178 349.579 C 514.924 349.49 515.67 349.402 516.439 349.311 C 517.244 349.216 518.049 349.121 518.878 349.024 C 521.759 348.673 524.634 348.29 527.51 347.905 C 539.897 346.276 552.025 344.998 564.521 345.702 C 565.226 345.739 565.931 345.776 566.657 345.814 C 578.639 346.561 587.757 349.371 596.146 358.264 C 600.824 363.62 600.877 369.101 600.803 375.983 C 600.15 382.294 596.253 386.69 591.521 390.702 C 584.372 395.722 576.694 398.745 568.521 401.702 C 567.744 402.03 566.966 402.359 566.164 402.697 C 561.5 404.47 556.604 405.177 551.709 406.077 C 550.54 406.292 549.371 406.508 548.167 406.73 C 538.589 408.439 528.986 409.803 519.334 411.014 C 518.65 411.101 517.966 411.188 517.262 411.278 C 510.319 412.153 503.522 412.942 496.521 412.702 C 496.191 413.362 495.861 414.022 495.521 414.702 C 494.634 414.681 493.748 414.66 492.834 414.639 C 487.725 414.735 483.479 415.982 478.709 417.764 C 477.733 418.126 476.757 418.488 475.752 418.862 C 475.016 419.139 474.28 419.416 473.521 419.702 C 473.479 421.368 473.481 423.035 473.521 424.702 C 475.121 426.301 476.804 425.831 479.017 425.834 C 480.432 425.837 480.432 425.837 481.876 425.84 C 482.893 425.836 483.911 425.831 484.959 425.827 C 485.99 425.824 487.021 425.821 488.083 425.818 C 494.675 425.778 501.251 425.617 507.834 425.264 C 508.585 425.225 509.337 425.186 510.111 425.145 C 513.943 424.956 513.943 424.956 517.521 423.702 C 520.869 423.631 524.205 423.705 527.553 423.764 C 530.451 423.915 530.451 423.915 532.521 422.702 C 534.265 422.56 536.014 422.475 537.764 422.42 C 538.831 422.383 539.898 422.345 540.998 422.307 C 542.68 422.255 542.68 422.255 544.396 422.202 C 558.337 422.666 558.337 422.666 571.521 419.702 C 573.167 419.655 574.813 419.664 576.459 419.702 C 586.251 420.095 586.251 420.095 595.521 417.702 C 597.019 417.607 598.521 417.572 600.021 417.577 C 601.212 417.573 601.212 417.573 602.428 417.569 C 604.521 417.702 604.521 417.702 606.521 418.702 C 606.851 418.042 607.181 417.382 607.521 416.702 C 608.8 416.743 610.079 416.784 611.396 416.827 C 616.511 416.812 621.56 416.444 626.646 415.952 C 627.398 415.89 628.149 415.828 628.923 415.764 C 634.338 415.195 638.959 413.751 643.521 410.702 C 643.851 410.042 644.181 409.382 644.521 408.702 C 646.006 408.207 646.006 408.207 647.521 407.702 C 647.965 407.258 648.408 406.815 648.865 406.358 C 651.775 403.448 655.434 401.561 658.928 399.42 C 661.115 397.971 662.708 396.559 664.521 394.702 C 666.709 394.014 666.709 394.014 668.521 393.702 C 668.521 393.042 668.521 392.382 668.521 391.702 C 672.906 388.702 672.906 388.702 675.521 388.702 C 675.851 388.042 676.181 387.382 676.521 386.702 C 678.131 385.605 679.784 384.571 681.459 383.577 C 682.803 382.768 682.803 382.768 684.174 381.944 C 686.521 380.702 686.521 380.702 688.521 380.702 C 688.851 380.042 689.181 379.382 689.521 378.702 C 691.865 377.313 694.099 376.52 696.709 375.702 C 699.65 375.022 699.65 375.022 700.521 372.702 C 702.49 371.772 702.49 371.772 705.021 370.827 C 708.488 369.499 711.894 368.116 715.271 366.577 C 720.093 364.417 724.167 362.702 729.521 362.702 C 729.851 362.042 730.181 361.382 730.521 360.702 C 731.841 360.702 733.161 360.702 734.521 360.702 C 734.851 360.042 735.181 359.382 735.521 358.702 C 736.841 358.702 738.161 358.702 739.521 358.702 C 740.981 358.548 742.439 358.381 743.896 358.202 C 754.746 357.112 764.604 356.743 774.521 361.702 C 775.202 361.97 775.883 362.238 776.584 362.514 C 778.521 363.702 778.521 363.702 779.271 365.827 C 779.395 366.755 779.395 366.755 779.521 367.702 C 780.181 367.702 780.841 367.702 781.521 367.702 C 781.745 369.116 781.95 370.533 782.146 371.952 C 782.262 372.74 782.378 373.529 782.498 374.342 C 782.539 378.518 780.196 381.63 777.521 384.702 C 774.85 386.505 772.584 387.681 769.521 388.702 C 769.521 389.362 769.521 390.022 769.521 390.702 C 768.861 390.702 768.201 390.702 767.521 390.702 C 767.521 391.362 767.521 392.022 767.521 392.702 C 766.861 392.702 766.201 392.702 765.521 392.702 C 765.191 393.362 764.861 394.022 764.521 394.702 C 762.486 397.015 761.545 397.694 758.521 398.702 C 758.191 399.362 757.861 400.022 757.521 400.702 C 756.861 400.702 756.201 400.702 755.521 400.702 C 755.521 401.362 755.521 402.022 755.521 402.702 C 753.542 404.065 751.539 405.396 749.521 406.702 C 748.519 407.699 747.519 408.699 746.521 409.702 C 744.792 410.991 743.02 412.202 741.24 413.42 C 739.462 414.673 739.462 414.673 737.928 416.358 C 736.521 417.702 736.521 417.702 734.521 417.702 C 734.521 418.362 734.521 419.022 734.521 419.702 C 733.861 419.702 733.201 419.702 732.521 419.702 C 732.521 420.362 732.521 421.022 732.521 421.702 C 730.871 422.728 729.202 423.725 727.521 424.702 C 726.964 425.258 726.408 425.815 725.834 426.389 C 725.184 427.039 725.184 427.039 724.521 427.702 C 723.861 427.702 723.201 427.702 722.521 427.702 C 722.439 428.32 722.356 428.939 722.271 429.577 C 721.521 431.702 721.521 431.702 719.646 432.827 C 718.945 433.115 718.244 433.404 717.521 433.702 C 716.036 434.692 716.036 434.692 714.521 435.702 C 713.861 435.702 713.201 435.702 712.521 435.702 C 712.521 436.362 712.521 437.022 712.521 437.702 C 710.542 439.065 708.539 440.396 706.521 441.702 C 705.52 442.7 704.52 443.7 703.521 444.702 C 701.232 446.497 698.908 448.239 696.58 449.983 C 694.308 451.715 694.308 451.715 692.521 454.702 C 690.869 455.724 689.2 456.722 687.521 457.702 C 686.026 458.932 684.547 460.183 683.084 461.452 C 675.06 467.947 661.276 476.702 650.521 476.702 C 650.191 477.362 649.861 478.022 649.521 478.702 C 647.459 479.093 645.427 479.208 643.334 479.358 C 642.736 479.471 642.138 479.585 641.521 479.702 C 641.191 480.362 640.861 481.022 640.521 481.702 C 638.799 482.342 638.799 482.342 636.459 482.952 C 631.636 484.316 626.962 485.944 622.271 487.702 C 621.262 488.075 621.262 488.075 620.232 488.456 C 615.45 490.259 610.895 492.335 606.459 494.889 C 604.054 495.898 602.103 495.845 599.521 495.702 C 599.191 496.362 598.861 497.022 598.521 497.702 C 596.521 498.035 594.521 498.368 592.521 498.702 C 592.191 499.362 591.861 500.022 591.521 500.702 C 590.531 500.702 589.541 500.702 588.521 500.702 C 588.191 501.362 587.861 502.022 587.521 502.702 C 585.841 503.473 584.124 504.168 582.396 504.827 C 576.548 507.169 571.093 509.962 565.599 513.022 C 562.595 514.678 559.892 516.04 556.521 516.702 C 552.977 517.913 549.498 519.213 546.146 520.889 C 544.521 521.702 544.521 521.702 542.521 521.702 C 542.521 521.042 542.521 520.382 542.521 519.702 C 541.861 519.702 541.201 519.702 540.521 519.702 C 540.191 520.362 539.861 521.022 539.521 521.702 C 539.191 521.372 538.861 521.042 538.521 520.702 C 537.089 520.792 535.662 520.948 534.239 521.131 C 528.163 521.801 522.153 521.845 516.045 521.834 C 514.857 521.836 513.669 521.837 512.445 521.838 C 508.595 521.84 504.746 521.834 500.896 521.827 C 499.584 521.825 498.272 521.824 496.92 521.823 C 480.18 521.807 463.444 521.689 446.709 521.264 C 445.916 521.244 445.122 521.225 444.305 521.205 C 434.687 520.959 425.113 520.478 415.521 519.702 C 415.191 520.362 414.861 521.022 414.521 521.702 C 414.521 521.042 414.521 520.382 414.521 519.702 C 413.445 519.834 412.369 519.967 411.26 520.104 C 409.784 520.283 408.309 520.461 406.834 520.639 C 406.058 520.733 405.282 520.826 404.483 520.922 C 399.955 521.455 395.448 521.866 390.896 522.139 C 381.535 522.798 372.401 524.684 363.521 527.702 C 362.089 528.039 360.652 528.354 359.209 528.639 C 354.513 529.64 350.046 531.111 345.521 532.702 C 342.847 533.593 340.284 534.179 337.521 534.702 C 337.521 535.362 337.521 536.022 337.521 536.702 C 336.674 536.885 336.674 536.885 335.81 537.073 C 332.546 537.969 329.606 539.433 326.545 540.862 C 324.521 541.702 324.521 541.702 322.521 541.702 C 322.191 542.362 321.861 543.022 321.521 543.702 C 320.531 543.702 319.541 543.702 318.521 543.702 C 318.521 544.362 318.521 545.022 318.521 545.702 C 316.733 546.707 314.94 547.705 313.146 548.702 C 312.149 549.258 311.151 549.815 310.123 550.389 C 307.521 551.702 307.521 551.702 305.521 551.702 C 305.191 552.692 304.861 553.682 304.521 554.702 C 302.779 555.764 302.779 555.764 300.646 556.702 C 297.659 558.024 295.746 559.314 293.521 561.702 C 292.468 562.629 291.405 563.545 290.334 564.452 C 289.727 564.97 289.12 565.488 288.494 566.022 C 287.128 567.185 285.761 568.346 284.392 569.506 C 283.692 570.107 282.993 570.708 282.271 571.327 C 281.627 571.876 280.982 572.425 280.318 572.991 C 277.576 575.601 275.616 578.559 273.521 581.702 C 272.861 581.702 272.201 581.702 271.521 581.702 C 271.191 582.692 270.861 583.682 270.521 584.702 C 270.191 585.692 269.861 586.682 269.521 587.702 C 268.531 587.702 267.541 587.702 266.521 587.702 C 266.521 588.362 266.521 589.022 266.521 589.702 C 264.82 589.887 264.82 589.887 263.084 590.077 C 261.908 590.283 260.733 590.489 259.521 590.702 C 259.191 591.362 258.861 592.022 258.521 592.702 C 258.129 591.984 257.738 591.265 257.334 590.526 C 255.348 587.432 253.14 585.09 250.521 582.514 C 249.655 581.654 248.789 580.794 247.896 579.909 C 245.531 577.592 245.531 577.592 242.521 575.702 C 241.285 574.237 240.05 572.771 238.842 571.284 C 236.223 568.146 233.394 565.367 230.146 562.889 C 227.144 560.387 224.745 557.61 222.209 554.647 C 220.093 552.207 217.833 549.956 215.521 547.702 C 214.353 546.536 213.187 545.369 212.021 544.202 C 211.475 543.655 210.928 543.108 210.365 542.545 C 209.757 541.937 209.148 541.328 208.521 540.702 C 207.483 539.665 207.483 539.665 206.424 538.607 C 203.451 535.633 200.484 532.652 197.517 529.672 C 194.304 526.446 191.089 523.222 187.873 519.998 C 186.174 518.294 184.476 516.589 182.778 514.883 C 180.327 512.419 177.872 509.958 175.416 507.498 C 174.654 506.732 173.893 505.965 173.108 505.175 C 172.404 504.471 171.7 503.766 170.974 503.04 C 170.354 502.418 169.734 501.796 169.095 501.155 C 167.567 499.608 167.567 499.608 165.521 498.702 C 165.521 498.042 165.521 497.382 165.521 496.702 C 164.861 496.702 164.201 496.702 163.521 496.702 C 163.521 496.042 163.521 495.382 163.521 494.702 C 162.861 494.702 162.201 494.702 161.521 494.702 C 158.608 491.611 156.415 489.058 156.521 484.702 C 159.482 480.26 161.492 478.518 166.521 476.702 C 166.851 475.712 167.181 474.722 167.521 473.702 C 168.827 472.982 170.167 472.325 171.521 471.702 C 174.14 469.898 176.707 468.032 179.279 466.162 C 181.521 464.702 181.521 464.702 183.521 464.702 C 183.521 464.042 183.521 463.382 183.521 462.702 C 184.181 462.702 184.841 462.702 185.521 462.702 C 185.851 462.042 186.181 461.382 186.521 460.702 C 191.021 457.702 191.021 457.702 193.521 457.702 C 193.521 457.042 193.521 456.382 193.521 455.702 C 195.155 454.648 196.829 453.657 198.521 452.702 C 200.074 451.655 201.615 450.592 203.146 449.514 C 204.005 448.911 204.863 448.307 205.748 447.686 C 209.627 444.91 213.453 442.064 217.271 439.205 C 219.521 437.702 219.521 437.702 221.521 437.702 C 221.851 437.042 222.181 436.382 222.521 435.702 C 223.837 434.678 225.175 433.684 226.521 432.702 C 230.582 429.694 230.582 429.694 233.521 425.702 C 234.181 425.702 234.841 425.702 235.521 425.702 C 235.81 425.124 236.099 424.547 236.396 423.952 C 237.438 421.868 238.48 419.785 239.521 417.702 C 240.181 417.702 240.841 417.702 241.521 417.702 C 241.521 416.712 241.521 415.722 241.521 414.702 C 242.64 413.503 243.772 412.314 244.966 411.191 C 246.703 409.528 248.314 407.782 249.931 406.002 C 250.529 405.351 251.126 404.699 251.742 404.028 C 252.978 402.677 254.209 401.323 255.437 399.965 C 256.034 399.317 256.63 398.67 257.244 398.002 C 257.778 397.416 258.311 396.83 258.861 396.226 C 260.633 394.599 262.375 393.755 264.521 392.702 C 265.216 391.383 265.881 390.048 266.521 388.702 C 268.396 386.85 268.396 386.85 270.521 385.077 C 272.598 383.328 274.601 381.622 276.521 379.702 C 277.657 378.67 278.804 377.65 279.959 376.639 C 280.556 376.112 281.153 375.585 281.767 375.041 C 283.521 373.702 283.521 373.702 286.521 372.702 C 286.851 371.712 287.181 370.722 287.521 369.702 C 288.181 369.702 288.841 369.702 289.521 369.702 C 289.851 369.042 290.181 368.382 290.521 367.702 C 295.898 362.909 295.898 362.909 299.521 361.702 C 300.037 361.186 300.553 360.67 301.084 360.139 C 301.558 359.665 302.033 359.19 302.521 358.702 C 303.181 358.702 303.841 358.702 304.521 358.702 C 305.181 358.042 305.841 357.382 306.521 356.702 C 312.165 353.285 318.203 351.441 324.521 349.702 C 325.594 349.372 326.666 349.042 327.771 348.702 C 338.741 345.776 349.165 344.197 360.521 343.952 C 362.397 343.888 362.397 343.888 364.31 343.823 C 375.614 343.507 386.772 343.978 397.896 346.077 Z" fill="#cc7068"/>
  <path d="M0 0 C0.99 0.495 0.99 0.495 2 1 C1.01 1.495 1.01 1.495 0 2 C0 1.34 0 0.68 0 0 Z " fill="#FCFCFB" transform="matrix(1, 0, 0, 1, 730, 357)"/>
  <path d="M 698.374 336.655 C 699.468 336.639 700.562 336.623 701.689 336.606 C 708.197 336.602 713.006 337.278 718.937 339.968 C 719.927 340.298 720.917 340.628 721.937 340.968 C 726.691 344.477 726.691 344.477 727.937 346.968 C 725.335 347.974 722.73 348.973 720.124 349.968 C 719.386 350.254 718.648 350.54 717.888 350.835 C 717.176 351.106 716.463 351.376 715.73 351.655 C 715.075 351.907 714.42 352.158 713.746 352.417 C 711.937 352.968 711.937 352.968 708.937 352.968 C 708.607 353.628 708.277 354.288 707.937 354.968 C 706.947 354.968 705.957 354.968 704.937 354.968 C 704.607 355.628 704.277 356.288 703.937 356.968 C 702.008 357.699 700.076 358.426 698.132 359.116 C 694.079 360.688 690.417 362.857 686.937 365.468 C 685.089 366.853 683.268 367.92 681.249 369.03 C 677.901 370.584 677.901 370.584 676.937 372.968 C 675.271 373.636 673.604 374.303 671.937 374.968 C 670.178 376.133 668.449 377.343 666.749 378.593 C 662.155 381.968 662.155 381.968 659.937 381.968 C 659.937 382.628 659.937 383.288 659.937 383.968 C 659.357 384.271 658.776 384.574 658.179 384.886 C 652.369 388.001 647.613 391.292 642.937 395.968 C 633.042 400.725 621.715 400.191 610.937 399.968 C 610.937 400.628 610.937 401.288 610.937 401.968 C 609.452 401.473 609.452 401.473 607.937 400.968 C 606.916 401.184 606.916 401.184 605.874 401.405 C 602.311 402.087 598.956 401.994 595.339 401.905 C 593.034 401.965 591.156 402.395 588.937 402.968 C 586.687 402.53 586.687 402.53 584.937 401.968 C 585.267 400.648 585.597 399.328 585.937 397.968 C 586.794 397.876 587.651 397.785 588.534 397.69 C 597.314 395.826 605.26 389.442 610.862 382.632 C 612.117 381.018 612.117 381.018 611.937 378.968 C 612.597 378.968 613.257 378.968 613.937 378.968 C 614.597 376.658 615.257 374.348 615.937 371.968 C 615.277 371.638 614.617 371.308 613.937 370.968 C 614.927 370.473 614.927 370.473 615.937 369.968 C 615.937 366.998 615.937 364.028 615.937 360.968 C 617.257 360.555 618.577 360.143 619.937 359.718 C 625.448 357.878 630.397 355.313 635.519 352.601 C 636.399 352.144 637.279 351.688 638.187 351.218 C 638.996 350.79 639.806 350.362 640.64 349.921 C 642.937 348.968 642.937 348.968 646.937 348.968 C 647.267 347.978 647.597 346.988 647.937 345.968 C 648.71 345.858 649.483 345.749 650.28 345.636 C 656.563 344.679 662.065 343.379 667.937 340.968 C 669.267 340.622 670.6 340.289 671.937 339.968 C 673.94 339.313 675.941 338.648 677.937 337.968 C 678.432 338.463 678.432 338.463 678.937 338.968 C 679.835 338.644 680.734 338.321 681.659 337.987 C 687.144 336.427 692.715 336.639 698.374 336.655 Z" fill="#c45c53"/>
  <path d="M 665.431 319.555 C 666.421 319.539 667.411 319.523 668.431 319.506 C 676.526 319.501 682.89 321.18 690.056 324.868 C 690.056 325.528 690.056 326.188 690.056 326.868 C 689.297 326.993 688.537 327.118 687.755 327.246 C 682.79 328.08 677.829 328.942 672.868 329.805 C 671.402 330.059 671.402 330.059 669.906 330.319 C 667.943 330.66 665.981 331.004 664.019 331.351 C 661.982 331.706 659.943 332.046 657.901 332.372 C 656.904 332.537 655.907 332.702 654.88 332.871 C 653.977 333.015 653.075 333.159 652.145 333.307 C 651.455 333.492 650.766 333.677 650.056 333.868 C 649.726 334.528 649.396 335.188 649.056 335.868 C 646.876 336.719 646.876 336.719 644.181 337.493 C 643.297 337.753 642.412 338.013 641.501 338.282 C 639.056 338.868 639.056 338.868 636.056 338.868 C 635.726 339.528 635.396 340.188 635.056 340.868 C 633.056 341.201 631.056 341.534 629.056 341.868 C 628.726 342.528 628.396 343.188 628.056 343.868 C 625.503 344.754 622.92 345.403 620.306 346.086 C 617.881 346.635 617.881 346.635 617.056 348.868 C 614.751 350.174 612.58 351.026 610.056 351.868 C 609.375 350.795 608.695 349.723 607.993 348.618 C 605.215 344.682 602.347 342.971 598.056 340.868 C 598.551 339.383 598.551 339.383 599.056 337.868 C 599.716 337.868 600.376 337.868 601.056 337.868 C 601.386 337.208 601.716 336.548 602.056 335.868 C 603.046 335.868 604.036 335.868 605.056 335.868 C 605.386 335.208 605.716 334.548 606.056 333.868 C 609.493 332.18 609.493 332.18 613.056 330.868 C 613.716 331.198 614.376 331.528 615.056 331.868 C 615.386 331.208 615.716 330.548 616.056 329.868 C 618.095 329.086 618.095 329.086 620.681 328.368 C 621.581 328.112 622.48 327.857 623.407 327.594 C 624.281 327.354 625.155 327.115 626.056 326.868 C 630.661 325.653 630.661 325.653 635.056 323.868 C 637.969 323.342 640.891 322.908 643.818 322.465 C 647.084 321.938 647.084 321.938 650.24 320.821 C 655.347 319.545 660.187 319.538 665.431 319.555 Z" fill="#c45c53"/>
  <path d="M0 0 C3 1 3 1 3 1 Z " fill="#FAFCF7" transform="matrix(1, 0, 0, 1, 588, 396)"/>
  <path d="M0 0 C0.99 0.495 0.99 0.495 2 1 C1.01 1.495 1.01 1.495 0 2 C0 1.34 0 0.68 0 0 Z " fill="#FBFDFA" transform="matrix(1, 0, 0, 1, 684, 379)"/>
  <path d="M0 0 C3 1 3 1 3 1 Z " fill="#FAFCF6" transform="matrix(1, 0, 0, 1, 684, 337)"/>
  <path d="" fill="#F9F9F9"/>
  <path d="" fill="#FBFDFA"/>
  <path d="M0 0 C2 1 2 1 2 1 Z " fill="#F8FEFA" transform="matrix(1, 0, 0, 1, 404, 518)"/>
  <path d="M0 0 C2 1 2 1 2 1 Z " fill="#FAFEF9" transform="matrix(1, 0, 0, 1, 417, 517)"/>
  <path d="M0 0 C2 1 2 1 2 1 Z " fill="#FBFAF9" transform="matrix(1, 0, 0, 1, 410, 517)"/>
  <path d="M0 0 C2 1 2 1 2 1 Z " fill="#FAFEF8" transform="matrix(1, 0, 0, 1, 575, 507)"/>
  <path d="M0 0 C2 1 2 1 2 1 Z " fill="#FAFDF7" transform="matrix(1, 0, 0, 1, 633, 482)"/>
  <path d="M0 0 C2 1 2 1 2 1 Z " fill="#FBFAF5" transform="matrix(1, 0, 0, 1, 636, 481)"/>
  <path d="M0 0 C2 1 2 1 2 1 Z " fill="#FBFBFB" transform="matrix(1, 0, 0, 1, 658, 473)"/>
  <path d="M0 0 C2 1 2 1 2 1 Z " fill="#FAFCF8" transform="matrix(1, 0, 0, 1, 683, 462)"/>
  <path d="M0 0 C2 1 2 1 2 1 Z " fill="#F8FEFA" transform="matrix(1, 0, 0, 1, 534, 419)"/>
  <path d="M0 0 C2 1 2 1 2 1 Z " fill="#F6F9F7" transform="matrix(1, 0, 0, 1, 621, 411)"/>
  <path d="M0 0 C2 1 2 1 2 1 Z " fill="#F7F8FA" transform="matrix(1, 0, 0, 1, 589, 398)"/>
  <path d="M0 0 C2 1 2 1 2 1 Z " fill="#F9FAF5" transform="matrix(1, 0, 0, 1, 658, 397)"/>
  <path d="" fill="#F9FBF7"/>
  <path d="M0 0 C2 1 2 1 2 1 Z " fill="#FCFDF9" transform="matrix(1, 0, 0, 1, 661, 395)"/>
  <path d="M0 0 C2 1 2 1 2 1 Z " fill="#FBFCF6" transform="matrix(1, 0, 0, 1, 648, 395)"/>
  <path d="M0 0 C2 1 2 1 2 1 Z " fill="#F7F9F9" transform="matrix(1, 0, 0, 1, 680, 381)"/>
  <path d="" fill="#FCFBFC"/>
  <path d="" fill="#FCF9F9"/>
  <path d="" fill="#F9FBFB"/>
  <path d="" fill="#F8FDF8"/>
  <path d="M0 0 C2 1 2 1 2 1 Z " fill="#F9FAFD" transform="matrix(1, 0, 0, 1, 714, 363)"/>
  <path d="M0 0 C2 1 2 1 2 1 Z " fill="#F8FCFD" transform="matrix(1, 0, 0, 1, 722, 351)"/>
  <path d="M0 0 C2 1 2 1 2 1 Z " fill="#FDFEF8" transform="matrix(1, 0, 0, 1, 614, 350)"/>
  <path d="M0 0 C2 1 2 1 2 1 Z " fill="#FAFDFC" transform="matrix(1, 0, 0, 1, 599, 336)"/>
  <path d="" fill="#FDFCF8"/>
  <path d="" fill="#FAFFF9"/>
  <path d="" fill="#FDFFF4"/>
  <path d="" fill="#FCFDF7"/>
  <path d="" fill="#FBFDFA"/>
  <path d="" fill="#F5FFF6"/>
  <path d="" fill="#F8FDF6"/>
  <path d="" fill="#FBFFFA"/>
  <path d="" fill="#FAFBF6"/>
  <path d="" fill="#F5FDF2"/>
  <path d="" fill="#FCFBF9"/>
  <path d="" fill="#FBFEF3"/>
  <path d="" fill="#FCFBF6"/>
  <path d="" fill="#F7FCF5"/>
  <path d="" fill="#F9FBFA"/>
  <path d="" fill="#FCFDF8"/>
  <path d="" fill="#FAFCFB"/>
  <path d="" fill="#FDFDFB"/>
  <path d="" fill="#FDFDFF"/>
  <path d="" fill="#FAFBFD"/>
  <path d="" fill="#FCFEFB"/>
  <path d="" fill="#F9FDFE"/>
  <path d="" fill="#FCFCFA"/>
  <path d="" fill="#FCFCFA"/>
  <path d="" fill="#FCFCFA"/>
  <path d="" fill="#F8FEFC"/>
  <path d="" fill="#F5FBF9"/>
  <path d="" fill="#FDFDFB"/>
  <path d="" fill="#FAFFF8"/>
  <path d="" fill="#FCFEFB"/>
  <path d="" fill="#FCFFFB"/>
  <path d="" fill="#FDFEF9"/>
  <path d="" fill="#F9FBF8"/>
  <path d="" fill="#F6F8F7"/>
  <path d="" fill="#F8FDFF"/>
  <path d="" fill="#FCFAFB"/>
  <path d="" fill="#F9FAFE"/>
  <path d="" fill="#FBFBFB"/>
  <path d="" fill="#F6FFF9"/>
  <path d="" fill="#F5FBF7"/>
  <path d="" fill="#FAFBFF"/>
  <path d="" fill="#FBFEF7"/>
  <path d="" fill="#F9FAF4"/>
  <path d="" fill="#FCFBF9"/>
  <path d="" fill="#F9FAFC"/>
  <path d="" fill="#FAFCF7"/>
  <path d="" fill="#F6FAFB"/>
  <path d="" fill="#F9FBF8"/>
  <path d="" fill="#FBF9FC"/>
  <path d="" fill="#FAFBF6"/>
  <path d="" fill="#F9FEF8"/>
  <path d="" fill="#FDFEF9"/>
  <path d="" fill="#F7FDFD"/>
  <path d="" fill="#FDFCF7"/>
  <path d="" fill="#F7F8F0"/>
  <path d="" fill="#FCFCFA"/>
  <path d="" fill="#FAF9FE"/>
  <path d="" fill="#F8FAEC"/>
  <path d="" fill="#F8F8F8"/>
  <path d="" fill="#F9FBF8"/>
  <path d="" fill="#FAF8F9"/>
  <path d="" fill="#FAFAF8"/>
  <path d="" fill="#FBFBFF"/>
  <path d="" fill="#F9FBF8"/>
  <path d="" fill="#F9FFF8"/>
  <path d="" fill="#FBFBF9"/>
  <path d="" fill="#FAFAF8"/>
  <path d="" fill="#FBFBF9"/>
  <path d="" fill="#F9FBF6"/>
  <path d="" fill="#F9FBF6"/>
  <path d="" fill="#FCFCFC"/>
  <path d="" fill="#F6FBF7"/>
  <path d="" fill="#F4FDF8"/>
  <path d="" fill="#F9FAF4"/>
  <path d="" fill="#FBFCF4"/>
  <path d="" fill="#FBFDFA"/>
  <path d="" fill="#F8FAF5"/>
  <path d="" fill="#FCFAFB"/>
  <path d="" fill="#F7FCF8"/>
  <path d="" fill="#FCFAFB"/>
  <path d="" fill="#FCFAFB"/>
  <path d="" fill="#F9FAF4"/>
  <path d="" fill="#F5F6F8"/>
  <path d="" fill="#FAF9F7"/>
  <path d="" fill="#FCFCFC"/>
  <path d="" fill="#FBFCF7"/>
  <path d="" fill="#FBFBFB"/>
  <path d="" fill="#FCFBF9"/>
  <path d="" fill="#F8F8FA"/>
  <path d="" fill="#FBFCF6"/>
  <path d="" fill="#F7F9F6"/>
  <path d="" fill="#FFFCF7"/>
  <path d="" fill="#F9F8F4"/>
  <path d="" fill="#FBFBF9"/>
  <path d="" fill="#FAFBFD"/>
  <path d="" fill="#FBFBF9"/>
  <path d="" fill="#FCFCFA"/>
  <path d="" fill="#FAFCFB"/>
  <path d="" fill="#F9FBFA"/>
  <path d="" fill="#F7FBFE"/>
  <path d="" fill="#F4F4F4"/>
  <path d="" fill="#FBFDF8"/>
  <path d="" fill="#FBFDFA"/>
  <path d="" fill="#F5F9FC"/>
  <path d="" fill="#F8FBFF"/>
  <path d="" fill="#FCFDF8"/>
  <path d="" fill="#FCFDFF"/>
  <path d="" fill="#FAFCFB"/>
  <path d="" fill="#F9F9F7"/>
  <path d="" fill="#F8FAF9"/>
  <path d="" fill="#FBFDFA"/>
  <path d="" fill="#FBFDFA"/>
  <path d="" fill="#FDFCFA"/>
  <path d="" fill="#FCFDF8"/>
  <path d="" fill="#F5F9F8"/>
  <path d="" fill="#FCFCFC"/>
  <path d="" fill="#FEFDF9"/>
  <path d="" fill="#FBFDFA"/>
  <path d="" fill="#FAFCF9"/>
  <path d="" fill="#FBFCF7"/>
  <path d="" fill="#F7F7F7"/>
  <path d="" fill="#FDFEF9"/>
  <path d="" fill="#FAFBF3"/>
  <path d="" fill="#FAFBFD"/>
  <path d="" fill="#FCFCFE"/>
  <path d="" fill="#FDFDFD"/>
  <path d="" fill="#FBFAF5"/>
  <path d="" fill="#F9F9FB"/>
  <path d="" fill="#F9FBF8"/>
  <path d="" fill="#F8F8F6"/>
  <path d="" fill="#F8FAF7"/>
  <path d="" fill="#F9FBF8"/>
  <path d="" fill="#F9F9FF"/>
  <path d="" fill="#FAFDF4"/>
  <path d="" fill="#FAF9F5"/>
  <path d="" fill="#FDFDFB"/>
  <path d="" fill="#F7FBFA"/>
  <path d="" fill="#FBFDFA"/>
  <path d="" fill="#F9FEF7"/>
  <path d="" fill="#FAFCFB"/>
  <path d="" fill="#F5FFFC"/>
  <path d="" fill="#FDFBFE"/>
  <path d="" fill="#FAFFFB"/>
  <path d="" fill="#F5FEFB"/>
  <path d="" fill="#FCFDF8"/>
  <path d="" fill="#F6FAF9"/>
  <path d="" fill="#FAFBF6"/>
  <path d="" fill="#F8F9F4"/>
  <path d="" fill="#FBFDFA"/>
  <path d="" fill="#F9F9F7"/>
  <path d="" fill="#F8F9FE"/>
  <path d="" fill="#F6FAF9"/>
  <path d="" fill="#F9F8F4"/>
  <path d="" fill="#F4F9FC"/>
  <path d="" fill="#F6F8F5"/>
  <path d="" fill="#F9FEFA"/>
  <path d="" fill="#F9FFF6"/>
  <path d="" fill="#F9FBFA"/>
  <path d="" fill="#FAFCFB"/>
  <path d="" fill="#FAF8FB"/>
  <path d="" fill="#FCFDF8"/>
  <path d="" fill="#F8FBFF"/>
  <path d="" fill="#F9F9FB"/>
  <path d="" fill="#F6F9FF"/>
  <path d="" fill="#F6F8F7"/>
  <path d="" fill="#F8F8F8"/>
  <path d="" fill="#F5FEFB"/>
  <path d="" fill="#FCFCFA"/>
  <path d="" fill="#FFFCF9"/>
  <path d="" fill="#F9FDFC"/>
  <path d="" fill="#FCFCFC"/>
  <path d="" fill="#F5FAF6"/>
  <path d="" fill="#F7F8FD"/>
  <path d="" fill="#F9F9F9"/>
  <path d="" fill="#F7F9F6"/>
  <path d="" fill="#FBFBFB"/>
  <path d="" fill="#F5F9FC"/>
  <path d="" fill="#FDFBFC"/>
  <path d="" fill="#F9FBF8"/>
  <path d="" fill="#FCFBF7"/>
  <path d="" fill="#F9FBF8"/>
  <path d="" fill="#F7F8F3"/>
  <path d="" fill="#FDFBFC"/>
  <path d="" fill="#FCFCFE"/>
  <path d="" fill="#FBFBFB"/>
  <path d="" fill="#FBFDFA"/>
  <path d="" fill="#F6FFF6"/>
  <path d="" fill="#F6FBF5"/>
  <path d="" fill="#FCFCFE"/>
  <path d="" fill="#FAFCFB"/>
  <path d="" fill="#FEF5F6"/>
  <path d="" fill="#FCFCFA"/>
  <path d="" fill="#FBFCF6"/>
  <path d="" fill="#FAF7F0"/>
  <path d="" fill="#FAFAFC"/>
  <path d="" fill="#FAFBF3"/>
  <path d="" fill="#FAFBFD"/>
  <path d="" fill="#FCFEF9"/>
  <path d="" fill="#F6F8F5"/>
  <path d="" fill="#FDFAFF"/>
  <path d="" fill="#F8FEFC"/>
  <path d="" fill="#F9FBF0"/>
  <path d="" fill="#FDFCFA"/>
  <path d="" fill="#F6FCFA"/>
  <path d="" fill="#FCF9F4"/>
  <path d="" fill="#F9FCF3"/>
  <path d="" fill="#FCFBF7"/>
  <path d="" fill="#F5FBFB"/>
  <path d="" fill="#FCFCFC"/>
  <path d="" fill="#FBFAFF"/>
  <path d="" fill="#F9FDFC"/>
  <path d="" fill="#FBFBFD"/>
  <path d="" fill="#F5F9FC"/>
  <path d="" fill="#F7FBFE"/>
  <path d="" fill="#F8FDF7"/>
  <path d="" fill="#FBFDFC"/>
  <path d="" fill="#F6FAFD"/>
  <path d="" fill="#F7FDFB"/>
  <path d="" fill="#F7F9F6"/>
  <path d="" fill="#FBFDFA"/>
  <path d="" fill="#F6FAFB"/>
  <path d="" fill="#FCFEFD"/>
  <path d="" fill="#FCFEFB"/>
  <path d="" fill="#FBFCF7"/>
  <path d="" fill="#FAF9FE"/>
  <path d="" fill="#F6FBF5"/>
  <path d="" fill="#FCF8F5"/>
  <path d="" fill="#FAF8F9"/>
  <path d="" fill="#F9FDFC"/>
  <path d="" fill="#FDFAF3"/>
  <path d="" fill="#FAFCF9"/>
  <path d="" fill="#F9F8FD"/>
  <path d="" fill="#F8FDF9"/>
  <path d="" fill="#FDFCF8"/>
  <path d="" fill="#FFFDF4"/>
  <path d="" fill="#F2F6F9"/>
  <path d="" fill="#FBFBFF"/>
  <path d="" fill="#FAFBFD"/>
  <path d="" fill="#F7FDFB"/>
  <path d="" fill="#F9FFF5"/>
  <path d="" fill="#FBFBF9"/>
  <path d="" fill="#FAF8FB"/>
  <path d="" fill="#F9F7FA"/>
  <path d="" fill="#F6FAF9"/>
  <path d="" fill="#F5FAF6"/>
  <path d="" fill="#F6FEF3"/>
</svg>