<?xml version="1.0" encoding="utf-8"?>
<svg viewBox="0 0 600 600" style="enable-background:new 0 0 600 600;" xmlns="http://www.w3.org/2000/svg">
  <g id="objects" transform="matrix(0.9999999999999999, 0, 0, 0.9999999999999999, 0, -3.552713678800501e-15)">
    <g>
      <defs>
        <rect id="SVGID_1_" width="600" height="600"/>
      </defs>
      <clipPath id="SVGID_00000134967962241450149860000002507165815622997181_">
        <rect width="600" height="600" style="overflow: visible;"/>
      </clipPath>
      <g style="clip-path:url(#SVGID_00000134967962241450149860000002507165815622997181_);" transform="matrix(1, 0, 0, 1, 62.556034, -65.919281)">
        <g>
          <g>
            <linearGradient id="SVGID_00000021809158655198675530000001928556162798296197_" gradientUnits="userSpaceOnUse" x1="201.6492" y1="227.9872" x2="437.3476" y2="367.9884">
              <stop offset="0" style="stop-color:#F71B38"/>
              <stop offset="1" style="stop-color:#A60437"/>
            </linearGradient>
            <path style="fill:url(#SVGID_00000021809158655198675530000001928556162798296197_);" d="M442,271.208 C442,374.75,300,428,300,428s-142-53.25-142-156.792c0-44.138,34.307-79.875,76.68-79.875c27.605,0,51.802,15.206,65.32,37.985 c13.518-22.779,37.715-37.985,65.32-37.985C407.693,191.333,442,227.07,442,271.208z"/>
          </g>
        </g>
      </g>
      <linearGradient id="SVGID_00000168804201306490910430000001118665903420729533_" gradientUnits="userSpaceOnUse" x1="146.6753" y1="376.07" x2="146.6753" y2="376.07">
        <stop offset="0" style="stop-color:#F71B38"/>
        <stop offset="1" style="stop-color:#A60437"/>
      </linearGradient>
      <line style="clip-path:url(#SVGID_00000134967962241450149860000002507165815622997181_);fill:url(#SVGID_00000168804201306490910430000001118665903420729533_);" x1="146.675" y1="376.074" x2="146.675" y2="376.066"/>
      <g style="clip-path:url(#SVGID_00000134967962241450149860000002507165815622997181_);">
        <g/>
        <g/>
        <g/>
        <g/>
      </g>
      <path d="M 125.191 -39.743 C 129.913 -39.226 132.979 -37.962 136.941 -35.368 C 137.885 -34.762 138.828 -34.156 139.801 -33.532 C 142.191 -31.743 142.191 -31.743 144.191 -28.743 C 141.929 -29.228 140.122 -29.78 138.066 -30.868 C 137.138 -31.301 137.138 -31.301 136.191 -31.743 C 135.201 -31.248 135.201 -31.248 134.191 -30.743 C 134.191 -31.403 134.191 -32.063 134.191 -32.743 C 133.201 -32.743 132.211 -32.743 131.191 -32.743 C 130.944 -33.527 130.696 -34.31 130.441 -35.118 C 129.037 -38.066 128.184 -38.645 125.191 -39.743 Z" fill="#D15660"/>
      <path d="M 125.191 -40.743 C 125.191 -40.413 125.191 -40.083 125.191 -39.743 C 123.735 -39.521 122.276 -39.316 120.816 -39.118 C 120.004 -39.002 119.192 -38.886 118.355 -38.766 C 117.641 -38.759 116.927 -38.751 116.191 -38.743 C 115.531 -39.403 114.871 -40.063 114.191 -40.743 C 106.306 -41.455 98.8 -40.842 91.191 -38.743 C 92.191 -40.743 92.191 -40.743 94.422 -41.63 C 104.754 -44.427 115.046 -44.366 125.191 -40.743 Z" fill="#E9B3B4"/>
      <path d="M 132.191 -36.743 C 135.631 -36.131 137.707 -34.822 140.441 -32.68 C 141.148 -32.132 141.854 -31.585 142.582 -31.02 C 143.379 -30.388 143.379 -30.388 144.191 -29.743 C 142.871 -29.413 141.551 -29.083 140.191 -28.743 C 140.191 -29.403 140.191 -30.063 140.191 -30.743 C 139.614 -30.805 139.036 -30.867 138.441 -30.93 C 135.304 -32.063 134.1 -34.085 132.191 -36.743 Z" fill="#E0898E"/>
      <path d="M 88.191 -38.743 C 89.181 -38.413 90.171 -38.083 91.191 -37.743 C 90.861 -36.753 90.531 -35.763 90.191 -34.743 C 87.019 -33.433 84.632 -32.743 81.191 -32.743 C 82.284 -33.776 83.391 -34.794 84.504 -35.805 C 85.119 -36.374 85.734 -36.942 86.367 -37.528 C 87.27 -38.129 87.27 -38.129 88.191 -38.743 Z" fill="#E18F94"/>
      <path d="M 80.191 -31.743 C 81.437 -29.252 80.968 -28.332 80.191 -25.743 C 78.541 -25.413 76.891 -25.083 75.191 -24.743 C 76.484 -27.627 77.851 -29.615 80.191 -31.743 Z" fill="#DC7C81"/>
    </g>
  </g>
</svg>