<?xml version="1.0" encoding="UTF-8"?>
<svg version="1.1" xmlns="http://www.w3.org/2000/svg" width="445" height="371">
<path d="M0 0 C1.90062361 1.51978031 3.71134891 3.10341206 5.5234375 4.7265625 C7.67784593 6.58459728 9.15932741 7.57389911 12 8 C16.31399061 6.09188877 19.52302104 3.57074617 23.125 0.5625 C35.23408281 -9.09568783 51.0942892 -10.38466689 66 -9 C74.99381918 -7.36457027 82.37016857 -3.15627204 89 3 C89.70898438 3.63035156 90.41796875 4.26070312 91.1484375 4.91015625 C95.99083004 9.43752325 99.08814663 14.08202463 102 20 C102.35835937 20.63550781 102.71671875 21.27101563 103.0859375 21.92578125 C111.91712615 37.96136065 111.11019592 59.00430156 106.19140625 76.21484375 C100.88187563 93.08348366 92.54262437 106.96109714 82 121 C81.28328125 121.95777344 80.5665625 122.91554687 79.828125 123.90234375 C79.22484375 124.59457031 78.6215625 125.28679687 78 126 C77.34 126 76.68 126 76 126 C75.73703125 126.58523437 75.4740625 127.17046875 75.203125 127.7734375 C66.52568138 143.8323429 40.91975664 155.64153471 25 163 C24.28457031 163.3403125 23.56914062 163.680625 22.83203125 164.03125 C16.16992633 166.90353476 10.32983398 167.13915373 3.4375 164.78125 C-11.2398452 158.83207724 -25.59384161 150.82875494 -38 141 C-38.94488281 140.26910156 -39.88976562 139.53820312 -40.86328125 138.78515625 C-46.54875062 134.28448022 -51.51496693 129.6944802 -56 124 C-56.70769531 123.11699219 -57.41539062 122.23398438 -58.14453125 121.32421875 C-63.89786833 113.92427072 -68.56993418 106.2272651 -73 98 C-73.47308594 97.14792969 -73.94617188 96.29585938 -74.43359375 95.41796875 C-85.28432362 75.03482198 -88.87446082 52.41371533 -83 30 C-80.73466834 22.74087055 -77.21321541 16.30912968 -73 10 C-72.59523437 9.38382813 -72.19046875 8.76765625 -71.7734375 8.1328125 C-66.11758224 0.60323832 -55.22163686 -6.39618275 -46.015625 -8.63671875 C-29.51577111 -10.62439545 -14.15924004 -9.28291409 0 0 Z M-40.5078125 2.015625 C-48.96457004 2.43997843 -55.53184975 7.07563017 -61.125 13.1875 C-63.69545386 16.1310193 -63.69545386 16.1310193 -64 20 C-59.5099458 21.27280626 -55.19944686 21.1839845 -50.5625 21.1875 C-49.71623047 21.19974609 -48.86996094 21.21199219 -47.99804688 21.22460938 C-40.60967276 21.26084541 -40.60967276 21.26084541 -34.40600586 17.55541992 C-32.60703505 15.75139511 -30.89237623 13.89303983 -29.1875 12 C-28.59001953 11.35804687 -27.99253906 10.71609375 -27.37695312 10.0546875 C-24.13989685 6.98703337 -24.13989685 6.98703337 -23 3 C-27.97412571 0.51293714 -35.04229874 1.98157195 -40.5078125 2.015625 Z M47 3 C47.33 4.32 47.66 5.64 48 7 C48.66 7 49.32 7 50 7 C50.2578125 7.57363281 50.515625 8.14726563 50.78125 8.73828125 C52.1105164 11.20509293 53.64404017 13.09168096 55.5 15.1875 C56.1084375 15.88230469 56.716875 16.57710937 57.34375 17.29296875 C60.71448632 20.76705312 64.61845859 20.32690277 69.1875 20.5625 C70.3022168 20.62727539 70.3022168 20.62727539 71.43945312 20.69335938 C80.1265333 21.65464696 80.1265333 21.65464696 88 19 C87.50637629 14.72192783 85.17867901 11.72362601 82 9 C73.48411675 3.92344996 66.67903037 1.82142608 56.8125 1.875 C56.08869141 1.87113281 55.36488281 1.86726563 54.61914062 1.86328125 C50.68083498 1.79545674 50.68083498 1.79545674 47 3 Z M-19 10 C-23.30530326 14.40536531 -23.30530326 14.40536531 -25 20 C-21.53093048 20.78493495 -18.32375132 21.12827119 -14.76953125 21.1328125 C-13.80208984 21.13410156 -12.83464844 21.13539062 -11.83789062 21.13671875 C-10.83951172 21.13285156 -9.84113281 21.12898438 -8.8125 21.125 C-7.80251953 21.12886719 -6.79253906 21.13273437 -5.75195312 21.13671875 C-4.3065918 21.13478516 -4.3065918 21.13478516 -2.83203125 21.1328125 C-1.95264893 21.13168457 -1.0732666 21.13055664 -0.16723633 21.12939453 C2.0483677 21.13961278 2.0483677 21.13961278 4 20 C3.44846785 16.26275228 2.03850239 14.7764009 -0.8125 12.375 C-1.49957031 11.78460938 -2.18664062 11.19421875 -2.89453125 10.5859375 C-8.47466579 6.38271927 -12.98374086 6.1287784 -19 10 Z M20 17 C20.33 17.99 20.66 18.98 21 20 C25.30062019 21.43354006 29.4330541 21.18431214 33.9375 21.1875 C34.84435547 21.19974609 35.75121094 21.21199219 36.68554688 21.22460938 C37.56146484 21.22654297 38.43738281 21.22847656 39.33984375 21.23046875 C40.13769287 21.23457764 40.93554199 21.23868652 41.75756836 21.24291992 C44.2309205 20.97498466 45.85860446 20.23514985 48 19 C46.61263155 13.75883031 43.35449676 10.93974465 39 8 C31.67037246 4.81320542 24.68372896 11.70534987 20 17 Z M-71.82788086 30.30371094 C-76.08142512 36.45943382 -75.30265171 44.94135635 -75.25 52.0625 C-75.25773438 53.11244141 -75.26546875 54.16238281 -75.2734375 55.24414062 C-75.3233583 63.3585744 -75.3233583 63.3585744 -73 71 C-67.85616339 74.09459848 -61.53398649 73.03770231 -55.75 72.6875 C-54.74453125 72.63916016 -53.7390625 72.59082031 -52.703125 72.54101562 C-47.68765035 72.45374175 -47.68765035 72.45374175 -43 71 C-43.00785522 69.6682373 -43.00785522 69.6682373 -43.01586914 68.30957031 C-43.03293868 65.00715482 -43.04546363 61.70478641 -43.05493164 58.40234375 C-43.05995206 56.97460184 -43.06676972 55.54686504 -43.07543945 54.11914062 C-43.08760553 52.06378921 -43.09325128 50.00850593 -43.09765625 47.953125 C-43.10551147 46.09929199 -43.10551147 46.09929199 -43.11352539 44.20800781 C-43.01939953 41.54819316 -42.68815921 39.53123791 -42 37 C-41.93543121 35.58465222 -41.91388961 34.16662311 -41.9375 32.75 C-41.958125 31.5125 -41.97875 30.275 -42 29 C-45.93260944 28.92578546 -49.86494722 28.87136864 -53.7980957 28.83520508 C-55.79327701 28.81271667 -57.78826213 28.77459802 -59.78320312 28.73632812 C-61.03681641 28.72666016 -62.29042969 28.71699219 -63.58203125 28.70703125 C-64.73936768 28.6913208 -65.8967041 28.67561035 -67.08911133 28.65942383 C-69.97398913 28.75985085 -69.97398913 28.75985085 -71.82788086 30.30371094 Z M-32.66799927 30.33087158 C-38.78779719 37.99958255 -37.82769592 53.94461253 -37 63 C-36.5293378 64.58597551 -36.02046954 66.16097638 -35.47949219 67.72436523 C-35.2040155 68.527285 -34.92853882 69.33020477 -34.64471436 70.15745544 C-34.43195862 70.76549515 -34.21920288 71.37353485 -34 72 C-28.50074579 72.04940929 -23.00162058 72.08572395 -17.50219727 72.10986328 C-15.63108062 72.11992567 -13.75997972 72.13357691 -11.88891602 72.15087891 C-9.20064409 72.17511684 -6.51257994 72.18648063 -3.82421875 72.1953125 C-2.56782845 72.21079636 -2.56782845 72.21079636 -1.28605652 72.22659302 C3.65099493 72.23304617 3.65099493 72.23304617 8 70 C8.27897038 66.96094254 8.37167364 64.12842703 8.328125 61.08984375 C8.32625183 60.20720352 8.32437866 59.32456329 8.32244873 58.41517639 C8.31572096 56.54814887 8.30179213 54.68113562 8.28125 52.81420898 C8.25008874 49.94566863 8.24028019 47.07767719 8.234375 44.20898438 C8.22520566 42.39843075 8.21483011 40.58788275 8.203125 38.77734375 C8.19887512 37.91382797 8.19462524 37.05031219 8.19024658 36.16062927 C8.52503251 32.26659777 8.52503251 32.26659777 7 29 C4.22346201 28.87412316 1.47315673 28.81133134 -1.3046875 28.796875 C-2.13960724 28.79117493 -2.97452698 28.78547485 -3.83474731 28.77960205 C-5.60515062 28.77013742 -7.37557167 28.76361228 -9.14599609 28.75976562 C-11.85675798 28.75006528 -14.5667602 28.71905855 -17.27734375 28.6875 C-18.99478715 28.68096972 -20.71223599 28.67571935 -22.4296875 28.671875 C-23.2422702 28.6595282 -24.05485291 28.6471814 -24.89205933 28.63446045 C-29.06846731 28.52318994 -29.06846731 28.52318994 -32.66799927 30.33087158 Z M16 31 C15.72088055 33.95637208 15.62824563 36.70041355 15.671875 39.65625 C15.67374817 40.51432251 15.67562134 41.37239502 15.67755127 42.25646973 C15.68427934 44.07222371 15.69820879 45.88796302 15.71875 47.70361328 C15.7498742 50.48874319 15.75971667 53.27330727 15.765625 56.05859375 C15.77479607 57.82031942 15.78517217 59.58203932 15.796875 61.34375 C15.80112488 62.18023071 15.80537476 63.01671143 15.80975342 63.87854004 C15.75197292 68.07333561 15.75197292 68.07333561 17 72 C22.4809035 72.09893328 27.96128645 72.17149865 33.44287109 72.21972656 C35.30722101 72.23983261 37.17150794 72.2671218 39.03564453 72.30175781 C41.71662948 72.35032121 44.39678023 72.37297838 47.078125 72.390625 C48.32677338 72.42159271 48.32677338 72.42159271 49.60064697 72.45318604 C53.29216246 72.45461497 55.37706567 72.40270016 58.52880859 70.36523438 C60.42635693 67.31454598 60.48768006 65.34912819 60.4609375 61.765625 C60.45513672 59.94417969 60.45513672 59.94417969 60.44921875 58.0859375 C60.42472656 56.82007812 60.40023437 55.55421875 60.375 54.25 C60.37306641 52.37441406 60.37306641 52.37441406 60.37109375 50.4609375 C60.2745544 39.91880497 60.2745544 39.91880497 57 30 C53.34359964 28.78119988 49.96400664 28.8377521 46.15625 28.83203125 C45.39074829 28.82870285 44.62524658 28.82537445 43.83654785 28.82194519 C42.21932577 28.81688648 40.60209327 28.81453654 38.98486328 28.81469727 C36.50926593 28.81250819 34.03411243 28.79433467 31.55859375 28.77539062 C29.98698069 28.77245702 28.41536552 28.770472 26.84375 28.76953125 C26.10306274 28.76234573 25.36237549 28.75516022 24.59924316 28.74775696 C20.84844987 28.76446154 19.20242715 28.86504857 16 31 Z M66.08007812 30.18920898 C64.50390487 32.83172188 65.12372323 34.33869744 65.80859375 37.30078125 C67.18725743 44.32318403 67.19079237 51.05366665 67.0625 58.1875 C67.02826924 60.59759923 66.99808321 63.00776056 66.97265625 65.41796875 C66.95468994 66.46750732 66.93672363 67.5170459 66.91821289 68.59838867 C66.72482553 70.95236902 66.72482553 70.95236902 68 72 C71.54738659 72.41266472 75.12127259 72.51746373 78.6875 72.6875 C79.68201172 72.74744141 80.67652344 72.80738281 81.70117188 72.86914062 C89.12965977 73.37179673 89.12965977 73.37179673 96 71 C99.47104222 65.42441007 99.42794218 60.11993848 99.3125 53.6875 C99.31572266 52.80126953 99.31894531 51.91503906 99.32226562 51.00195312 C99.26418019 43.76239579 98.29335129 36.88005386 96 30 C91.6570639 27.82853195 85.8327644 28.77033144 81.0625 28.75 C79.85658203 28.729375 78.65066406 28.70875 77.40820312 28.6875 C75.67666992 28.67976563 75.67666992 28.67976563 73.91015625 28.671875 C72.31892944 28.65785645 72.31892944 28.65785645 70.69555664 28.64355469 C68.01210352 28.81071547 68.01210352 28.81071547 66.08007812 30.18920898 Z M-67 80 C-68.61433157 83.22866314 -67.18856717 85.7883466 -66.12109375 89.109375 C-62.78087182 97.7217939 -57.33175001 105.12556104 -51.875 112.5 C-51.37234619 113.18271973 -50.86969238 113.86543945 -50.35180664 114.56884766 C-46.87425419 119.16555323 -43.63297355 123.12234215 -38 125 C-36.35720783 125.11792999 -34.70947306 125.17511674 -33.0625 125.1875 C-31.78052734 125.20876953 -31.78052734 125.20876953 -30.47265625 125.23046875 C-27.86090697 124.98703556 -26.24499348 124.3178268 -24 123 C-24.5421389 117.35271982 -26.74083741 113.04654976 -29.25 108.0625 C-32.81772395 100.80572973 -35.65394491 93.66063215 -37.9296875 85.90625 C-39.01620837 82.95598895 -39.52841171 81.84233436 -42 80 C-44.7094472 79.58589567 -44.7094472 79.58589567 -47.76171875 79.70703125 C-48.87998047 79.71669922 -49.99824219 79.72636719 -51.15039062 79.73632812 C-52.90125977 79.7740332 -52.90125977 79.7740332 -54.6875 79.8125 C-55.86634766 79.82603516 -57.04519531 79.83957031 -58.25976562 79.85351562 C-61.17363411 79.88890674 -64.08658945 79.93828191 -67 80 Z M-31 81 C-30.41082274 92.39076033 -25.90039427 102.51522914 -20.9375 112.625 C-20.60935303 113.29990479 -20.28120605 113.97480957 -19.94311523 114.67016602 C-17.27031182 120.01673283 -17.27031182 120.01673283 -13 124 C-9.9617691 124.51858346 -7.0109234 124.46776417 -3.9375 124.375 C-3.12216797 124.37371094 -2.30683594 124.37242187 -1.46679688 124.37109375 C3.55423427 124.33582816 3.55423427 124.33582816 8 122 C8.43554127 120.14996109 8.43554127 120.14996109 8.34057617 118.00927734 C8.34034958 117.18857758 8.34012299 116.36787781 8.33988953 115.52230835 C8.32440567 114.63580597 8.30892181 113.74930359 8.29296875 112.8359375 C8.28660149 111.47512558 8.28660149 111.47512558 8.28010559 110.08682251 C8.26328133 107.18258268 8.2256226 104.2790309 8.1875 101.375 C8.17245799 99.40886417 8.15876875 97.44271749 8.14648438 95.4765625 C8.11336557 90.65077561 8.06155786 85.82550455 8 81 C4.89913331 79.44956666 1.62099234 79.8579925 -1.78125 79.8671875 C-2.55053833 79.86623077 -3.31982666 79.86527405 -4.11242676 79.86428833 C-5.73982831 79.86360746 -7.36723257 79.86545527 -8.99462891 79.86962891 C-11.48997073 79.8749785 -13.98513255 79.86968081 -16.48046875 79.86328125 C-18.05989623 79.86394205 -19.6393236 79.86522325 -21.21875 79.8671875 C-21.9677356 79.86516327 -22.71672119 79.86313904 -23.48840332 79.86105347 C-27.37189584 79.80474374 -27.37189584 79.80474374 -31 81 Z M16 81 C15.92598036 86.80238024 15.87146011 92.60448722 15.83520508 98.40722656 C15.82009538 100.38221013 15.79960672 102.35716004 15.77368164 104.33203125 C15.73739381 107.16675106 15.72029584 110.00102826 15.70703125 112.8359375 C15.69154739 113.72243988 15.67606354 114.60894226 15.66011047 115.52230835 C15.65988388 116.34300812 15.65965729 117.16370789 15.65942383 118.00927734 C15.65276199 118.73319672 15.64610016 119.45711609 15.63923645 120.20297241 C15.86410414 122.41971982 15.86410414 122.41971982 19 124 C21.85904164 124.24811058 24.57884378 124.37019957 27.4375 124.375 C28.5831543 124.41173828 28.5831543 124.41173828 29.75195312 124.44921875 C33.26701245 124.46757415 35.34731756 124.44622167 38.296875 122.4296875 C40.45907084 119.34508701 42.18576415 116.13640838 43.8125 112.75 C44.15289307 112.05269775 44.49328613 111.35539551 44.84399414 110.63696289 C45.91085321 108.4313633 46.9591523 106.21798534 48 104 C48.34063477 103.27474121 48.68126953 102.54948242 49.03222656 101.80224609 C50.01563132 99.68711511 50.98072099 97.56479315 51.9375 95.4375 C52.23180908 94.79586914 52.52611816 94.15423828 52.8293457 93.49316406 C54.65275249 89.34546807 55.64109617 85.51763076 56 81 C54.22100317 79.22100317 51.84347164 79.87155458 49.47488403 79.86105347 C48.31555862 79.86408981 48.31555862 79.86408981 47.1328125 79.8671875 C45.94702103 79.86575241 45.94702103 79.86575241 44.73727417 79.86428833 C43.061014 79.86360641 41.38475122 79.86546151 39.70849609 79.86962891 C37.14284305 79.8749629 34.57736621 79.86969167 32.01171875 79.86328125 C30.38541628 79.86394231 28.75911392 79.86522404 27.1328125 79.8671875 C26.36397736 79.86516327 25.59514221 79.86313904 24.80300903 79.86105347 C21.60431406 79.87511021 19.05685734 79.98104755 16 81 Z M65 80 C60.93399303 87.91916626 60.93399303 87.91916626 58 95.9375 C55.7239076 103.09751537 52.68890042 109.79691299 49.1875 116.4375 C47.71969266 119.13416026 47.71969266 119.13416026 48 123 C53.54283299 124.52082266 58.38436141 125.80502669 64 124 C76.2765462 116.32417888 87.34816858 98.57831873 92 85 C91.505 82.525 91.505 82.525 91 80 C82.42 80 73.84 80 65 80 Z M-26 132 C-26.99 133.485 -26.99 133.485 -28 135 C-26.87720538 135.98169476 -25.75168527 136.96027298 -24.625 137.9375 C-23.99851562 138.48277344 -23.37203125 139.02804688 -22.7265625 139.58984375 C-19.46881768 142.25058104 -17.12877792 142.08975604 -13 142 C-13.25375209 138.27830274 -13.60373916 136.44287976 -16.125 133.625 C-19.70800364 131.59982403 -21.94496062 131.46442876 -26 132 Z M-8 133 C-7.51744703 137.94982367 -6.12337388 140.75007496 -3.125 144.6875 C-2.42632812 145.61949219 -1.72765625 146.55148438 -1.0078125 147.51171875 C1.32091499 150.42931185 1.32091499 150.42931185 4 153 C6.13745922 152.74853421 7.45925779 152.54074221 9 151 C9.1002074 148.53018231 9.13877038 146.09448776 9.125 143.625 C9.12886719 142.93921875 9.13273437 142.2534375 9.13671875 141.546875 C9.13065046 138.42777362 8.99341455 135.98024365 8 133 C5.40483479 131.70241739 3.45816973 131.86730898 0.5625 131.875 C-0.40558594 131.87242187 -1.37367188 131.86984375 -2.37109375 131.8671875 C-5.11017829 131.88786027 -5.11017829 131.88786027 -8 133 Z M16.6953125 133.50390625 C14.31977961 137.00152265 14.56327228 140.18508117 14.75 144.25 C14.76804687 144.99507812 14.78609375 145.74015625 14.8046875 146.5078125 C14.85164351 148.33909701 14.92338348 150.16971649 15 152 C17.26338701 152.8083525 18.63428592 153.09358825 20.984375 152.4921875 C23.96934347 150.28238526 25.49411076 147.3181171 27.25 144.125 C27.61351562 143.49980469 27.97703125 142.87460938 28.3515625 142.23046875 C30.27570499 138.80896725 31 137.01157054 31 133 C28.57038821 131.7851941 26.83615884 131.76392733 24.125 131.6875 C23.26132813 131.65011719 22.39765625 131.61273438 21.5078125 131.57421875 C18.90285528 131.84509162 18.90285528 131.84509162 16.6953125 133.50390625 Z M38 136 C37.11406002 139.13863704 37.11406002 139.13863704 37 142 C43.34447335 141.73564694 47.45018459 139.45527379 52 135 C52 134.34 52 133.68 52 133 C46.63311663 130.31655832 41.84836347 131.69888789 38 136 Z " fill="#DFB6B2" transform="translate(223,38)"/>
<path d="M0 0 C3.9035525 0.76676924 4.92177136 1.84495851 7.31298828 4.90551758 C9.28068539 7.8594915 10.49275023 11.05806741 11.6875 14.375 C12.11361572 15.5036145 12.11361572 15.5036145 12.54833984 16.6550293 C14.42260854 21.64763358 16.20802282 26.67132892 17.99609375 31.6953125 C18.43091064 32.90227783 18.86572754 34.10924316 19.3137207 35.3527832 C20.17568614 37.75027002 21.02488677 40.15239163 21.86010742 42.55932617 C25.6705063 53.15879968 30.39683462 57.13045397 40.44921875 61.91015625 C60.89036126 71.13723641 78.14154665 73.56264951 99.37109375 65.703125 C113.99332956 61.13098425 113.99332956 61.13098425 124.78686523 51.98876953 C125.20653564 50.86067871 125.62620605 49.73258789 126.05859375 48.5703125 C126.28901871 47.95791718 126.51944366 47.34552185 126.7568512 46.71456909 C127.49296254 44.75051602 128.21511343 42.78163653 128.9375 40.8125 C129.4190697 39.52572242 129.90148355 38.23926043 130.38476562 36.953125 C132.93644031 30.12644168 135.35387459 23.26811871 137.5703125 16.32397461 C141.81777218 4.27872328 141.81777218 4.27872328 146.5 0.6875 C149.22507798 0.29671444 151.73121956 0.55133047 154.5 0.6875 C154.5 1.3475 154.5 2.0075 154.5 2.6875 C155.16 2.6875 155.82 2.6875 156.5 2.6875 C156.5 3.3475 156.5 4.0075 156.5 4.6875 C157.16 4.6875 157.82 4.6875 158.5 4.6875 C160.60763378 8.90276756 159.07833012 14.63892618 157.84082031 19.02246094 C156.99502255 21.39708193 156.07855884 23.72907175 155.125 26.0625 C154.77920898 26.93592041 154.43341797 27.80934082 154.07714844 28.70922852 C153.31349534 30.63723546 152.54503411 32.56334304 151.77246094 34.48779297 C150.374436 38.00324095 149.01684869 41.53340319 147.6640625 45.06640625 C146.93396861 46.96263376 146.20274841 48.85842159 145.47088623 50.75396729 C144.76310111 52.59099658 144.06045618 54.43000368 143.35791016 56.26904297 C139.01631909 67.41440789 139.01631909 67.41440789 135.5 71.6875 C134.84 71.6875 134.18 71.6875 133.5 71.6875 C133.5 72.3475 133.5 73.0075 133.5 73.6875 C132.2421875 74.9921875 132.2421875 74.9921875 130.375 76.5625 C129.65828125 77.17738281 128.9415625 77.79226563 128.203125 78.42578125 C126.12085489 80.16802748 124.02610016 81.8901159 121.921875 83.60546875 C121.29684082 84.12318848 120.67180664 84.6409082 120.02783203 85.17431641 C118.77742871 86.20974148 117.51815281 87.2345614 116.24951172 88.24755859 C115.66443848 88.73434082 115.07936523 89.22112305 114.4765625 89.72265625 C113.95143066 90.1494165 113.42629883 90.57617676 112.88525391 91.01586914 C109.3515354 95.28012198 109.26385742 100.26989625 109.33984375 105.58203125 C109.35080078 106.86658203 109.36175781 108.15113281 109.37304688 109.47460938 C109.39384121 110.81641712 109.41533376 112.15821422 109.4375 113.5 C109.47379899 116.15235131 109.50192893 118.80452615 109.52734375 121.45703125 C109.54531006 122.62854736 109.56327637 123.80006348 109.58178711 125.00708008 C109.5 127.6875 109.5 127.6875 108.5 128.6875 C106.90932549 128.84583321 105.31204989 128.93873462 103.71484375 129.00390625 C102.21957153 129.06698975 102.21957153 129.06698975 100.6940918 129.13134766 C99.08207886 129.19008057 99.08207886 129.19008057 97.4375 129.25 C96.33639893 129.2917334 95.23529785 129.3334668 94.10083008 129.37646484 C76.52511195 130.00688003 59.06694532 129.41238712 41.5 128.6875 C41.54302246 127.65979492 41.58604492 126.63208984 41.63037109 125.57324219 C43.44624309 105.79606677 43.44624309 105.79606677 37.59765625 87.87109375 C34.78007056 85.24150247 31.64538313 83.31716942 28.21044922 81.59033203 C25.82090713 80.32905218 23.96720762 78.64932739 22 76.8125 C19.47571393 74.54933677 19.47571393 74.54933677 16.86328125 72.390625 C11.41164916 67.72172094 9.83301509 61.2761778 7.5 54.6875 C6.76385324 52.91086311 6.01383785 51.13990862 5.25 49.375 C2.60038163 43.08533083 0.20834343 36.70252941 -2.1875 30.3125 C-2.5803418 29.26537842 -2.97318359 28.21825684 -3.37792969 27.1394043 C-9.23344717 11.4502992 -9.23344717 11.4502992 -8.5 5.6875 C-5.91370196 2.00398461 -4.43024874 0.87022743 0 0 Z " fill="#DFB6B2" transform="translate(159.5,213.3125)"/>
<path d="M0 0 C1.39791665 1.20303979 2.77350237 2.43253791 4.125 3.6875 C4.83398438 4.31785156 5.54296875 4.94820312 6.2734375 5.59765625 C10.51617875 9.56438273 13.49414863 13.52515375 16.1171875 18.70703125 C17.19210038 20.91491246 17.19210038 20.91491246 19.125 23.6875 C19.75 26.375 19.75 26.375 20.125 29.6875 C20.20234375 30.35652344 20.2796875 31.02554688 20.359375 31.71484375 C20.5 33.8125 20.5 33.8125 20.125 37.6875 C17.625 40.1875 17.625 40.1875 15.125 41.6875 C14.125 37.6875 13.125 33.6875 12.125 29.6875 C1.235 29.6875 -9.655 29.6875 -20.875 29.6875 C-19.885 33.6475 -19.885 33.6475 -18.875 37.6875 C-18.75 41.1875 -18.75 41.1875 -18.875 43.6875 C-20.855 43.1925 -20.855 43.1925 -22.875 42.6875 C-23.37 43.6775 -23.37 43.6775 -23.875 44.6875 C-24.21395656 42.95942682 -24.54591525 41.22998026 -24.875 39.5 C-25.060625 38.53707031 -25.24625 37.57414062 -25.4375 36.58203125 C-25.875 33.6875 -25.875 33.6875 -25.875 28.6875 C-40.065 29.0175 -54.255 29.3475 -68.875 29.6875 C-69.205 43.2175 -69.535 56.7475 -69.875 70.6875 C-69.215 70.6875 -68.555 70.6875 -67.875 70.6875 C-67.875 71.6775 -67.875 72.6675 -67.875 73.6875 C-55.665 74.0175 -43.455 74.3475 -30.875 74.6875 C-30.545 76.3375 -30.215 77.9875 -29.875 79.6875 C-31.01565918 79.70208252 -32.15631836 79.71666504 -33.33154297 79.73168945 C-37.55484717 79.78956727 -41.77761225 79.86679977 -46.00048828 79.94995117 C-47.8298265 79.98325026 -49.6592687 80.01126657 -51.48876953 80.03393555 C-54.11536056 80.06739077 -56.74099441 80.11969963 -59.3671875 80.17578125 C-60.59850906 80.18536613 -60.59850906 80.18536613 -61.85470581 80.19514465 C-64.40114374 80.22692217 -64.40114374 80.22692217 -67.875 80.6875 C-70.2189746 84.20346189 -70.13773837 85.73128248 -70.18359375 89.89453125 C-70.20873047 91.12107422 -70.23386719 92.34761719 -70.25976562 93.61132812 C-70.2947623 96.1920092 -70.32604669 98.77274344 -70.35351562 101.35351562 C-70.37994141 102.58392578 -70.40636719 103.81433594 -70.43359375 105.08203125 C-70.44704834 106.20456299 -70.46050293 107.32709473 -70.47436523 108.48364258 C-70.9245763 112.08395932 -72.0907039 114.55233406 -73.875 117.6875 C-74.205 117.6875 -74.535 117.6875 -74.875 117.6875 C-75.205 105.4775 -75.535 93.2675 -75.875 80.6875 C-89.405 80.6875 -102.935 80.6875 -116.875 80.6875 C-116.875 75.6875 -116.875 75.6875 -115.875 74.6875 C-113.21073315 74.52746512 -110.56939572 74.42807111 -107.90234375 74.37109375 C-106.70587975 74.3399221 -106.70587975 74.3399221 -105.48524475 74.30812073 C-102.92775389 74.24253842 -100.3701572 74.18370033 -97.8125 74.125 C-96.08267118 74.08182301 -94.35285321 74.03820899 -92.62304688 73.99414062 C-88.3738074 73.88684828 -84.1244611 73.78560574 -79.875 73.6875 C-79.875 73.0275 -79.875 72.3675 -79.875 71.6875 C-79.215 71.3575 -78.555 71.0275 -77.875 70.6875 C-77.875 57.4875 -77.875 44.2875 -77.875 30.6875 C-84.083125 30.666875 -90.29125 30.64625 -96.6875 30.625 C-98.64405518 30.615896 -100.60061035 30.60679199 -102.61645508 30.59741211 C-104.16747977 30.59449146 -105.71850523 30.59194325 -107.26953125 30.58984375 C-108.07467163 30.58472778 -108.87981201 30.57961182 -109.70935059 30.57434082 C-113.02375343 30.5738214 -115.70793208 30.63181069 -118.875 31.6875 C-123.36781435 38.42672152 -121.99897304 48.4050946 -121.9375 56.25 C-121.93298828 57.35408203 -121.92847656 58.45816406 -121.92382812 59.59570312 C-121.9121514 62.293027 -121.89577525 64.99023347 -121.875 67.6875 C-122.865 67.6875 -123.855 67.6875 -124.875 67.6875 C-124.875 69.9975 -124.875 72.3075 -124.875 74.6875 C-126.855 75.1825 -126.855 75.1825 -128.875 75.6875 C-128.92513226 71.08343013 -128.9610587 66.47952555 -128.98486328 61.87524414 C-128.99480628 60.31499457 -129.00836547 58.75476304 -129.02587891 57.19458008 C-129.13271374 47.41919278 -128.65158244 38.33280388 -126.875 28.6875 C-134.135 28.6875 -141.395 28.6875 -148.875 28.6875 C-148.545 27.6975 -148.215 26.7075 -147.875 25.6875 C-147.875 24.6975 -147.875 23.7075 -147.875 22.6875 C-138.965 22.6875 -130.055 22.6875 -120.875 22.6875 C-120.215 21.3675 -119.555 20.0475 -118.875 18.6875 C-115.75 17.4375 -115.75 17.4375 -112.875 16.6875 C-110.875 18.6875 -110.875 18.6875 -110.875 22.6875 C-100.315 22.3575 -89.755 22.0275 -78.875 21.6875 C-79.29272076 16.88578979 -79.29272076 16.88578979 -81.50390625 15.32421875 C-82.14199219 15.01097656 -82.78007812 14.69773437 -83.4375 14.375 C-84.571875 13.818125 -85.70625 13.26125 -86.875 12.6875 C-86.75 10.8125 -86.75 10.8125 -85.875 8.6875 C-83.25 7.3125 -83.25 7.3125 -79.875 6.6875 C-78.740625 7.05875 -77.60625 7.43 -76.4375 7.8125 C-72.84375 9.07291667 -72.84375 9.07291667 -69.5 7.25 C-67.51644526 5.95103495 -65.71147662 4.55101592 -63.890625 3.03125 C-46.64946243 -11.31541083 -18.38761416 -13.63435335 0 0 Z M-37.875 3.6875 C-37.545 5.0075 -37.215 6.3275 -36.875 7.6875 C-36.215 7.6875 -35.555 7.6875 -34.875 7.6875 C-34.6171875 8.26113281 -34.359375 8.83476563 -34.09375 9.42578125 C-32.7644836 11.89259293 -31.23095983 13.77918096 -29.375 15.875 C-28.7665625 16.56980469 -28.158125 17.26460937 -27.53125 17.98046875 C-24.16051368 21.45455312 -20.25654141 21.01440277 -15.6875 21.25 C-14.5727832 21.31477539 -14.5727832 21.31477539 -13.43554688 21.38085938 C-4.7484667 22.34214696 -4.7484667 22.34214696 3.125 19.6875 C2.63137629 15.40942783 0.30367901 12.41112601 -2.875 9.6875 C-11.39088325 4.61094996 -18.19596963 2.50892608 -28.0625 2.5625 C-28.78630859 2.55863281 -29.51011719 2.55476563 -30.25585938 2.55078125 C-34.19416502 2.48295674 -34.19416502 2.48295674 -37.875 3.6875 Z M-64.875 17.6875 C-64.545 18.6775 -64.215 19.6675 -63.875 20.6875 C-59.57437981 22.12104006 -55.4419459 21.87181214 -50.9375 21.875 C-50.03064453 21.88724609 -49.12378906 21.89949219 -48.18945312 21.91210938 C-47.31353516 21.91404297 -46.43761719 21.91597656 -45.53515625 21.91796875 C-44.73730713 21.92207764 -43.93945801 21.92618652 -43.11743164 21.93041992 C-40.6440795 21.66248466 -39.01639554 20.92264985 -36.875 19.6875 C-38.26236845 14.44633031 -41.52050324 11.62724465 -45.875 8.6875 C-53.20462754 5.50070542 -60.19127104 12.39284987 -64.875 17.6875 Z " fill="#DFB6B2" transform="translate(307.875,37.3125)"/>
<path d="M0 0 C4.00674927 3.09224944 5.27206697 6.83439993 6.75 11.5 C9.04325512 18.36088152 11.55013274 25.10091004 14.25 31.8125 C14.5912793 32.66585937 14.93255859 33.51921875 15.28417969 34.3984375 C16.61822629 37.70914293 16.61822629 37.70914293 18 41 C18.31549805 41.73694092 18.63099609 42.47388184 18.95605469 43.2331543 C19.30055664 43.81621338 19.64505859 44.39927246 20 45 C21.99569601 45.35820185 23.99722415 45.68377223 26 46 C27.78872069 46.75037664 29.5583357 47.5470541 31.3125 48.375 C32.75882813 49.04208984 32.75882813 49.04208984 34.234375 49.72265625 C35.85359271 50.47051528 37.46976178 51.22516777 39.078125 51.99609375 C54.28801809 58.25370725 69.70112379 52.77910094 84 47 C85.093125 46.52820313 86.18625 46.05640625 87.3125 45.5703125 C90 45 90 45 92.265625 46.265625 C92.92046875 46.92046875 93.5753125 47.5753125 94.25 48.25 C94.91515625 48.89453125 95.5803125 49.5390625 96.265625 50.203125 C96.83796875 50.79609375 97.4103125 51.3890625 98 52 C98.66 52.66 99.32 53.32 100 54 C99.8295192 56.82175119 99.07409338 57.92013513 97.14453125 60 C96.37496094 60.66 95.60539062 61.32 94.8125 62 C94.00296875 62.69609375 93.1934375 63.3921875 92.359375 64.109375 C90.46887873 65.62427599 88.61301927 66.97096323 86.5625 68.25 C83.79521337 70.13985428 83.16027996 70.94047407 82 74 C81.74183914 76.6923119 81.74183914 76.6923119 81.83984375 79.60546875 C81.85080078 80.67087891 81.86175781 81.73628906 81.87304688 82.83398438 C81.90495117 84.49397461 81.90495117 84.49397461 81.9375 86.1875 C81.9717637 88.38925999 82.00194258 90.59108869 82.02734375 92.79296875 C82.04531006 93.7677417 82.06327637 94.74251465 82.08178711 95.74682617 C82 98 82 98 81 99 C78.51097141 99.17311991 76.04729168 99.28426864 73.5546875 99.3515625 C72.41158615 99.38629166 72.41158615 99.38629166 71.24539185 99.42172241 C69.61955754 99.46950273 67.99364623 99.51471897 66.36767578 99.55761719 C63.93356747 99.62341679 61.50009972 99.70173377 59.06640625 99.78125 C49.3031846 100.06957096 39.73314978 99.86238503 30 99 C29.17244125 96.12848062 28.89992582 93.64698874 28.97265625 90.6640625 C28.99102539 89.43816406 28.99102539 89.43816406 29.00976562 88.1875 C29.04476292 86.48689065 29.08378858 84.78635916 29.12695312 83.0859375 C29.20654846 77.13033363 29.11041938 72.31909891 24.90625 67.69921875 C23.71515625 66.70341797 23.71515625 66.70341797 22.5 65.6875 C21.7059375 65.01074219 20.911875 64.33398438 20.09375 63.63671875 C18.1025531 61.96856098 18.1025531 61.96856098 16 61 C16 60.34 16 59.68 16 59 C15.39913574 58.72510742 14.79827148 58.45021484 14.17919922 58.16699219 C5.55869495 53.5505895 3.02366196 43.31588765 -0.125 34.75 C-0.64060185 33.38101056 -1.15752091 32.01251647 -1.67578125 30.64453125 C-2.67686443 27.99511628 -3.66343295 25.34102997 -4.63769531 22.68164062 C-5.49735785 20.35839492 -6.37924591 18.04314222 -7.29199219 15.74023438 C-7.66743164 14.77923828 -8.04287109 13.81824219 -8.4296875 12.828125 C-8.9244458 11.59690918 -8.9244458 11.59690918 -9.42919922 10.34082031 C-10.11243739 7.53890088 -9.80002188 5.75040202 -9 3 C-6.64075898 -0.60094682 -4.08994652 -0.58427807 0 0 Z " fill="#DFB6B2" transform="translate(71,243)"/>
<path d="M0 0 C3.4375 0.875 3.4375 0.875 5.4375 3.875 C5.33386165 11.80804467 1.98112823 18.96645855 -0.875 26.25 C-1.36734934 27.52572824 -1.8588914 28.80176835 -2.34960938 30.078125 C-3.30242272 32.55303388 -4.2688825 35.02108618 -5.24316406 37.48779297 C-6.05351433 39.56825181 -6.83778237 41.65938255 -7.57714844 43.76611328 C-9.74142999 49.78573515 -12.51387344 53.66020391 -17.1875 58 C-17.77273438 58.57492187 -18.35796875 59.14984375 -18.9609375 59.7421875 C-23.25119048 63.875 -23.25119048 63.875 -25.5625 63.875 C-25.5625 64.535 -25.5625 65.195 -25.5625 65.875 C-30.03308824 69.875 -30.03308824 69.875 -32.5625 69.875 C-32.8925 79.445 -33.2225 89.015 -33.5625 98.875 C-51.0216569 99.83826383 -68.11186326 100.07112688 -85.5625 98.875 C-85.52471436 98.11993164 -85.48692871 97.36486328 -85.44799805 96.58691406 C-84.18007266 81.26085912 -84.18007266 81.26085912 -89.3828125 67.515625 C-92.47144363 64.46283102 -95.87184243 62.14617389 -99.5625 59.875 C-101.98046875 58.34375 -101.98046875 58.34375 -103.5625 56.875 C-103.5625 52.875 -103.5625 52.875 -102.12890625 50.91796875 C-97.02718553 46.19415327 -97.02718553 46.19415327 -93.5546875 45.4375 C-87.06929481 45.8320486 -80.82782934 48.98151033 -74.91796875 51.5 C-60.70981431 57.32220066 -47.24022172 53.22485748 -33.66699219 47.77880859 C-31.781093 46.96887834 -29.93734086 46.06242043 -28.1015625 45.14453125 C-25.5625 43.875 -25.5625 43.875 -23.5625 43.875 C-21.96318025 40.79502993 -20.63423638 37.66300328 -19.35546875 34.4375 C-18.7222168 32.84615234 -18.7222168 32.84615234 -18.07617188 31.22265625 C-17.63853516 30.11792969 -17.20089844 29.01320313 -16.75 27.875 C-15.02934181 23.53821249 -13.29875055 19.20556587 -11.5625 14.875 C-11.12244629 13.75867188 -10.68239258 12.64234375 -10.22900391 11.4921875 C-9.79894043 10.42226562 -9.36887695 9.35234375 -8.92578125 8.25 C-8.35210815 6.80753906 -8.35210815 6.80753906 -7.7668457 5.3359375 C-5.70588905 1.12461719 -4.82715932 -0.16937401 0 0 Z " fill="#DFB6B2" transform="translate(402.5625,243.125)"/>
<path d="M0 0 C3.3125 1.75 3.3125 1.75 5.9375 4 C8.1313904 5.96542837 8.1313904 5.96542837 10.625 5.8125 C13.84693802 4.53871055 16.57161637 2.82950189 19.4453125 0.90625 C23.81787164 -1.80144352 28.33719002 -1.82216065 33.3125 -1.25 C38.88784538 0.48676433 41.55133017 4.00357613 44.3671875 8.9453125 C47.82371402 15.54413585 47.36448321 25.37821298 45.25 32.5 C40.52882686 44.24752002 33.05597802 52.80494788 22.25 59.125 C21.66017334 59.47135498 21.07034668 59.81770996 20.46264648 60.17456055 C16.75678567 62.23946888 13.56900105 63.59151326 9.3125 63.75 C-5.30754612 58.62624207 -15.78320496 48.42623937 -22.6875 34.75 C-25.5331296 26.98919199 -26.47145039 16.63923595 -23.625 8.75 C-17.92977927 -0.06840629 -10.13708677 -3.4363006 0 0 Z " fill="#DFB6B2" transform="translate(89.6875,157.25)"/>
<path d="M0 0 C3.3125 1.75 3.3125 1.75 6 4 C8.0865235 6.00133468 8.0865235 6.00133468 10.20703125 5.515625 C12.50137177 4.68131936 14.28796101 3.61023713 16.3125 2.25 C21.33717019 -1.12595029 26.25404182 -2.05552534 32.3125 -1.25 C38.59607478 1.01260409 42.7239838 5.49732396 45.625 11.4375 C47.89792543 22.38886798 45.84735689 31.88999748 40.125 41.375 C34.03194359 50.42535576 25.15518497 59.77548316 14.5 63.25 C7.1255236 64.40678061 1.34911488 60.60695125 -4.6875 56.75 C-15.33509696 48.65226298 -23.0578678 38.97339578 -25.1875 25.61328125 C-26.12783776 17.17962694 -25.34963126 11.12350136 -20.9375 3.875 C-14.76339538 -1.95609881 -7.69139715 -2.60725327 0 0 Z " fill="#DFB6B2" transform="translate(358.6875,157.25)"/>
<path d="M0 0 C6.10929061 3.73126566 12.11755651 9.08696517 14.21875 16.109375 C15.68410585 24.73243058 15.66044448 32.70659346 11.16796875 40.3828125 C6.74306502 46.45445255 0.83813894 50.39518241 -6.375 52.5 C-13.82333701 53.66603359 -19.68356108 51.68911132 -26.375 48.5 C-26.375 47.84 -26.375 47.18 -26.375 46.5 C-26.97054687 46.25378906 -27.56609375 46.00757813 -28.1796875 45.75390625 C-32.73953459 43.14943843 -35.41484774 38.03289036 -37.23828125 33.22265625 C-39.46028392 24.62184318 -38.01404672 17.46699766 -33.8203125 9.7265625 C-31.65964898 6.39797275 -29.70138776 4.71759184 -26.375 2.5 C-25.82457031 2.10941406 -25.27414063 1.71882812 -24.70703125 1.31640625 C-17.66161178 -3.02501428 -7.54666409 -3.34081573 0 0 Z " fill="#DFB6B2" transform="translate(246.375,219.5)"/>
<path d="M0 0 C4.61771733 3.36259741 8.56884911 8.83892196 9.92578125 14.40234375 C10.73991579 20.99174515 9.65016906 25.89410676 5.92578125 31.40234375 C3.42578125 34.21484375 3.42578125 34.21484375 0.92578125 36.40234375 C0.34828125 36.97984375 -0.22921875 37.55734375 -0.82421875 38.15234375 C-4.41914055 40.14952253 -7.9922981 40.51322784 -12.07421875 40.40234375 C-18.62838108 38.36829337 -24.95121836 34.88266483 -28.51171875 28.83984375 C-31.11485435 22.87855053 -31.06179964 16.31342569 -29.484375 10.06640625 C-27.08426093 4.29285997 -22.52998064 1.17825077 -17.07421875 -1.59765625 C-10.92977388 -3.49180843 -5.61673312 -3.06466409 0 0 Z " fill="#DFB6B2" transform="translate(137.07421875,247.59765625)"/>
<path d="M0 0 C4.53848586 3.35723611 8.21348483 8.12873573 9.99609375 13.4765625 C10.78133222 20.31935489 10.26384257 25.64706437 6.5625 31.53125 C3.42247137 35.43083668 -0.23025735 37.8853462 -5.00390625 39.4765625 C-10.24358067 39.97832096 -14.61329385 40.1718687 -19.37890625 37.7890625 C-20.24515625 37.0259375 -21.11140625 36.2628125 -22.00390625 35.4765625 C-22.89078125 34.7134375 -23.77765625 33.9503125 -24.69140625 33.1640625 C-28.71919054 28.483124 -30.59124188 23.82377493 -30.27734375 17.58203125 C-29.30820724 10.11968015 -27.01769975 5.55541066 -21.05078125 0.8515625 C-14.31586711 -3.67265463 -7.04723463 -3.81896925 0 0 Z " fill="#DFB6B2" transform="translate(353.00390625,247.5234375)"/>
<path d="M0 0 C0.76166977 0.00222061 1.52333954 0.00444122 2.30809021 0.00672913 C3.16890701 0.00680466 4.02972382 0.00688019 4.91662598 0.00695801 C5.8520372 0.01211929 6.78744843 0.01728058 7.75120544 0.02259827 C8.70422043 0.02401321 9.65723541 0.02542816 10.63912964 0.02688599 C13.69605085 0.032503 16.75289996 0.04505836 19.80979919 0.05775452 C21.87685543 0.06276733 23.94391281 0.06733061 26.01097107 0.07142639 C31.08977507 0.08247795 36.16852489 0.09975397 41.24729919 0.12025452 C42.23729919 4.74025452 43.22729919 9.36025452 44.24729919 14.12025452 C45.23729919 14.12025452 46.22729919 14.12025452 47.24729919 14.12025452 C46.91729919 9.83025452 46.58729919 5.54025452 46.24729919 1.12025452 C49.06554111 -0.28886644 51.41981201 0.00841899 54.56761169 0.02259827 C55.82444763 0.02582092 57.08128357 0.02904358 58.37620544 0.03236389 C59.69491638 0.0407428 61.01362732 0.0491217 62.37229919 0.05775452 C63.71214131 0.06276962 65.0519852 0.06733251 66.39183044 0.07142639 C69.67703126 0.08324366 72.96214317 0.09971834 76.24729919 0.12025452 C76.24729919 0.45025452 76.24729919 0.78025452 76.24729919 1.12025452 C75.08158386 1.14998352 75.08158386 1.14998352 73.89231873 1.18031311 C70.38529229 1.2753246 66.87888125 1.38510011 63.37229919 1.49525452 C61.53731873 1.54166077 61.53731873 1.54166077 59.66526794 1.58900452 C57.9153656 1.64701233 57.9153656 1.64701233 56.13011169 1.70619202 C55.05132751 1.73761292 53.97254333 1.76903381 52.86106873 1.80140686 C50.08968266 1.86701774 50.08968266 1.86701774 48.24729919 4.12025452 C48.45377551 6.55420425 48.45377551 6.55420425 49.11448669 9.35462952 C50.42756386 16.40688667 50.47327688 23.21637404 50.37229919 30.37025452 C50.36327576 31.60388733 50.35425232 32.83752014 50.34495544 34.10853577 C50.3216677 37.11265476 50.28896675 40.11634394 50.24729919 43.12025452 C50.86250427 43.14007385 51.47770935 43.15989319 52.11155701 43.18031311 C54.90722461 43.27575178 57.7021643 43.38535406 60.49729919 43.49525452 C61.46538513 43.52619202 62.43347107 43.55712952 63.43089294 43.58900452 C64.83274841 43.64701233 64.83274841 43.64701233 66.26292419 43.70619202 C67.12176208 43.73761292 67.98059998 43.76903381 68.86546326 43.80140686 C71.37550199 44.13741656 73.06662248 44.8621718 75.24729919 46.12025452 C74.96886169 47.32681702 74.96886169 47.32681702 74.68479919 48.55775452 C74.54042419 49.40337952 74.39604919 50.24900452 74.24729919 51.12025452 C74.57729919 51.45025452 74.90729919 51.78025452 75.24729919 52.12025452 C75.11489167 57.04988846 74.40867711 61.65340683 72.24729919 66.12025452 C71.58729919 66.12025452 70.92729919 66.12025452 70.24729919 66.12025452 C70.46386169 65.51697327 70.68042419 64.91369202 70.90354919 64.29212952 C71.18198669 63.49291077 71.46042419 62.69369202 71.74729919 61.87025452 C72.02573669 61.08134827 72.30417419 60.29244202 72.59104919 59.47962952 C73.42594781 56.88612714 73.42594781 56.88612714 73.24729919 53.12025452 C64.66729919 53.12025452 56.08729919 53.12025452 47.24729919 53.12025452 C43.34988889 62.42859079 43.34988889 62.42859079 39.68479919 71.80775452 C37.97817297 76.29099207 36.1495411 80.67783326 34.16136169 85.04212952 C32.70704065 88.34853463 31.48147257 91.72627772 30.24729919 95.12025452 C29.25729919 93.80025452 28.26729919 92.48025452 27.24729919 91.12025452 C26.29854919 91.92462952 25.34979919 92.72900452 24.37229919 93.55775452 C21.06338753 96.36313614 19.03609096 97.24353589 14.67698669 97.43666077 C13.78108826 97.4785553 12.88518982 97.52044983 11.96214294 97.56361389 C11.02499451 97.6029303 10.08784607 97.6422467 9.12229919 97.68275452 C8.17741638 97.72593811 7.23253357 97.7691217 6.25901794 97.81361389 C3.92192828 97.91984524 1.58473089 98.02188628 -0.75270081 98.12025452 C-1.08270081 96.80025452 -1.41270081 95.48025452 -1.75270081 94.12025452 C-0.76270081 94.45025452 0.22729919 94.78025452 1.24729919 95.12025452 C4.09398132 95.26828199 6.90010877 95.35124156 9.74729919 95.37025452 C10.51944763 95.39087952 11.29159607 95.41150452 12.08714294 95.43275452 C16.27363949 95.60092452 16.27363949 95.60092452 19.87913513 93.801651 C22.06726205 91.1125664 23.48816627 88.03274504 24.99729919 84.93275452 C25.34220398 84.23094055 25.68710876 83.52912659 26.04246521 82.80604553 C28.5000897 77.758787 30.88460746 72.67865029 33.18479919 67.55775452 C33.47902771 66.91620422 33.77325623 66.27465393 34.07640076 65.61366272 C36.00791537 61.22078443 36.53738639 58.08964414 37.24729919 53.12025452 C24.37729919 53.12025452 11.50729919 53.12025452 -1.75270081 53.12025452 C-1.42270081 52.46025452 -1.09270081 51.80025452 -0.75270081 51.12025452 C11.78729919 51.12025452 24.32729919 51.12025452 37.24729919 51.12025452 C36.75229919 49.14025452 36.75229919 49.14025452 36.24729919 47.12025452 C35.19751892 47.10043518 34.14773865 47.08061584 33.06614685 47.06019592 C29.17836658 46.98423253 25.29096516 46.89550154 21.40354919 46.8028717 C19.7197059 46.76454348 18.03577965 46.72969739 16.35179138 46.69837952 C13.93384613 46.65281164 11.51647392 46.59480529 9.09886169 46.53431702 C8.34360199 46.52276581 7.58834229 46.5112146 6.81019592 46.49931335 C1.47504261 46.34799793 1.47504261 46.34799793 -0.75270081 44.12025452 C0.41301453 44.105672 1.57872986 44.09108948 2.7797699 44.07606506 C7.10186041 44.01812335 11.42342766 43.94089058 15.74510193 43.85780334 C17.61610933 43.8245345 19.48721758 43.79650867 21.35838318 43.77381897 C24.04705303 43.74030863 26.73479717 43.68799586 29.42308044 43.63197327 C30.67947075 43.62238838 30.67947075 43.62238838 31.96124268 43.61260986 C36.25654199 43.6282806 36.25654199 43.6282806 39.96907043 41.76524353 C41.90999778 39.26740882 41.61909142 37.17645748 41.61058044 34.05384827 C41.60993591 32.84535217 41.60929138 31.63685608 41.60862732 30.39173889 C41.59251404 29.12652405 41.57640076 27.8613092 41.55979919 26.55775452 C41.56302185 25.31960999 41.56624451 24.08146545 41.56956482 22.80580139 C41.52806751 15.67958223 41.00307144 9.03580622 39.24729919 2.12025452 C33.87213986 2.09557692 28.49701334 2.07740524 23.12181091 2.06532288 C21.29237799 2.06028714 19.4629491 2.05345825 17.63352966 2.04481506 C15.00738022 2.03271627 12.38128388 2.02701869 9.75511169 2.02259827 C8.93423065 2.01743698 8.11334961 2.0122757 7.26759338 2.00695801 C3.12518075 1.89673578 3.12518075 1.89673578 -0.75270081 3.12025452 C-1.08270081 15.99025452 -1.41270081 28.86025452 -1.75270081 42.12025452 C-2.08270081 42.12025452 -2.41270081 42.12025452 -2.75270081 42.12025452 C-2.77734718 36.29953829 -2.79553511 30.47885217 -2.80763245 24.65809631 C-2.81267348 22.6763201 -2.81950619 20.69454763 -2.82814026 18.71278381 C-2.84021595 15.87073343 -2.84593126 13.02873204 -2.85035706 10.18666077 C-2.85551834 9.2949971 -2.86067963 8.40333344 -2.86599731 7.48464966 C-2.86619257 5.3628485 -2.81480111 3.24114672 -2.75270081 1.12025452 C-1.75270081 0.12025452 -1.75270081 0.12025452 0 0 Z " fill="#564FED" transform="translate(240.75270080566406,65.87974548339844)"/>
<path d="M0 0 C0 0.99 0 1.98 0 3 C18.315 3.495 18.315 3.495 37 4 C37.495 6.475 37.495 6.475 38 9 C36.85934082 9.01458252 35.71868164 9.02916504 34.54345703 9.04418945 C30.32015283 9.10206727 26.09738775 9.17929977 21.87451172 9.26245117 C20.0451735 9.29575026 18.2157313 9.32376657 16.38623047 9.34643555 C13.75963944 9.37989077 11.13400559 9.43219963 8.5078125 9.48828125 C7.68693146 9.49467117 6.86605042 9.5010611 6.02029419 9.50764465 C3.47385626 9.53942217 3.47385626 9.53942217 0 10 C-2.3439746 13.51596189 -2.26273837 15.04378248 -2.30859375 19.20703125 C-2.33373047 20.43357422 -2.35886719 21.66011719 -2.38476562 22.92382812 C-2.4197623 25.5045092 -2.45104669 28.08524344 -2.47851562 30.66601562 C-2.50494141 31.89642578 -2.53136719 33.12683594 -2.55859375 34.39453125 C-2.57204834 35.51706299 -2.58550293 36.63959473 -2.59936523 37.79614258 C-3.0495763 41.39645932 -4.2157039 43.86483406 -6 47 C-6.33 47 -6.66 47 -7 47 C-7.33 34.79 -7.66 22.58 -8 10 C-21.53 10 -35.06 10 -49 10 C-49 5 -49 5 -48 4 C-45.55115678 3.876977 -43.12614954 3.81392054 -40.67578125 3.7890625 C-39.15689062 3.76097495 -37.63801056 3.73231038 -36.11914062 3.703125 C-33.72078967 3.66198942 -31.32263222 3.62511186 -28.92407227 3.59863281 C-26.61172324 3.57087984 -24.30027776 3.52498898 -21.98828125 3.4765625 C-21.27867752 3.47330963 -20.56907379 3.47005676 -19.83796692 3.46670532 C-15.15645169 3.3521509 -12.04616533 2.30014376 -8 0 C-4.58654134 -0.95259312 -3.41579574 -1.13859858 0 0 Z " fill="#1D15E1" transform="translate(240,108)"/>
<path d="M0 0 C0.83587646 -0.00095673 1.67175293 -0.00191345 2.53295898 -0.00289917 C4.30159582 -0.00358018 6.07023515 -0.00173141 7.83886719 0.00244141 C10.55148921 0.00779079 13.26394565 0.00249375 15.9765625 -0.00390625 C17.6927087 -0.00324545 19.4088548 -0.00196426 21.125 0 C22.3469104 -0.00303635 22.3469104 -0.00303635 23.59350586 -0.00613403 C29.33258072 0.01785286 29.33258072 0.01785286 31.5625 1.1328125 C31.63651212 7.22002481 31.69103646 13.30697676 31.72729492 19.39453125 C31.74240586 21.46651774 31.76289541 23.53847213 31.78881836 25.61035156 C31.82510051 28.58406483 31.84220298 31.55735623 31.85546875 34.53125 C31.87095261 35.46149994 31.88643646 36.39174988 31.90238953 37.35018921 C31.90261612 38.21093048 31.90284271 39.07167175 31.90307617 39.95849609 C31.90973801 40.71794525 31.91639984 41.47739441 31.92326355 42.25985718 C31.80421158 42.87793243 31.68515961 43.49600769 31.5625 44.1328125 C27.32085919 46.96057304 23.67750278 46.5383708 18.6875 46.5703125 C17.33978516 46.61961914 17.33978516 46.61961914 15.96484375 46.66992188 C11.34484721 46.70745508 9.2300906 46.63142443 5.4296875 43.79296875 C3.5625 41.1328125 3.5625 41.1328125 3.5625 38.1328125 C2.9025 38.1328125 2.2425 38.1328125 1.5625 38.1328125 C0.9025 40.4428125 0.2425 42.7528125 -0.4375 45.1328125 C-2.9125 45.6278125 -2.9125 45.6278125 -5.4375 46.1328125 C-4.4475 45.4728125 -3.4575 44.8128125 -2.4375 44.1328125 C-2.97819032 38.43265354 -5.22816066 34.04496312 -7.75 29.0078125 C-14.89314918 14.34414555 -14.89314918 14.34414555 -16.4375 7.1328125 C-16.1075 6.4728125 -15.7775 5.8128125 -15.4375 5.1328125 C-14.4475 5.1328125 -13.4575 5.1328125 -12.4375 5.1328125 C-12.004375 4.17375 -12.004375 4.17375 -11.5625 3.1953125 C-9.14889119 -1.22963699 -4.45478926 -0.01106978 0 0 Z M-8.4375 2.1328125 C-7.84832274 13.52357283 -3.33789427 23.64804164 1.625 33.7578125 C1.95314697 34.43271729 2.28129395 35.10762207 2.61938477 35.80297852 C5.29218818 41.14954533 5.29218818 41.14954533 9.5625 45.1328125 C12.6007309 45.65139596 15.5515766 45.60057667 18.625 45.5078125 C19.44033203 45.50652344 20.25566406 45.50523437 21.09570312 45.50390625 C26.11673427 45.46864066 26.11673427 45.46864066 30.5625 43.1328125 C30.99804127 41.28277359 30.99804127 41.28277359 30.90307617 39.14208984 C30.90284958 38.32139008 30.90262299 37.50069031 30.90238953 36.65512085 C30.88690567 35.76861847 30.87142181 34.88211609 30.85546875 33.96875 C30.84910149 32.60793808 30.84910149 32.60793808 30.84260559 31.21963501 C30.82578133 28.31539518 30.7881226 25.4118434 30.75 22.5078125 C30.73495799 20.54167667 30.72126875 18.57552999 30.70898438 16.609375 C30.67586557 11.78358811 30.62405786 6.95831705 30.5625 2.1328125 C27.46163331 0.58237916 24.18349234 0.990805 20.78125 1 C20.01196167 0.99904327 19.24267334 0.99808655 18.45007324 0.99710083 C16.82267169 0.99641996 15.19526743 0.99826777 13.56787109 1.00244141 C11.07252927 1.007791 8.57736745 1.00249331 6.08203125 0.99609375 C4.50260377 0.99675455 2.9231764 0.99803575 1.34375 1 C0.5947644 0.99797577 -0.15422119 0.99595154 -0.92590332 0.99386597 C-4.80939584 0.93755624 -4.80939584 0.93755624 -8.4375 2.1328125 Z " fill="#6F67F3" transform="translate(200.4375,116.8671875)"/>
<path d="M0 0 C0.87914062 0.00451172 1.75828125 0.00902344 2.6640625 0.01367188 C4.81773803 0.02537663 6.97137817 0.04330931 9.125 0.0625 C9.125 2.0425 9.125 4.0225 9.125 6.0625 C12.095 6.0625 15.065 6.0625 18.125 6.0625 C15.125 8.0625 15.125 8.0625 12.75 9.1875 C9.13049375 11.52047603 9.13049375 11.52047603 5.125 19.0625 C14.695 19.0625 24.265 19.0625 34.125 19.0625 C33.135 17.4125 32.145 15.7625 31.125 14.0625 C30.63 13.0725 30.63 13.0725 30.125 12.0625 C32.105 12.7225 34.085 13.3825 36.125 14.0625 C36.125 16.0425 36.125 18.0225 36.125 20.0625 C33.2030231 21.52348845 30.62606525 21.17384901 27.3671875 21.16015625 C26.37261032 21.15803383 26.37261032 21.15803383 25.35794067 21.15586853 C23.23858137 21.15026754 21.11932741 21.137715 19 21.125 C17.56380361 21.11998512 16.12760556 21.11542219 14.69140625 21.11132812 C11.16923655 21.10029782 7.64712855 21.08303259 4.125 21.0625 C4.125 19.7425 4.125 18.4225 4.125 17.0625 C2.37828412 16.26893199 2.37828412 16.26893199 0.125 16.0625 C-3.57259178 17.83113589 -3.57259178 17.83113589 -5.875 21.0625 C-9.82599928 21.0871985 -13.77696874 21.10535923 -17.72802734 21.11743164 C-19.73406551 21.12494036 -21.74008202 21.1376447 -23.74609375 21.15039062 C-25.63134766 21.15522461 -25.63134766 21.15522461 -27.5546875 21.16015625 C-29.29854736 21.16801147 -29.29854736 21.16801147 -31.07763672 21.17602539 C-33.875 21.0625 -33.875 21.0625 -35.875 20.0625 C-35.545 18.7425 -35.215 17.4225 -34.875 16.0625 C-34.545 17.0525 -34.215 18.0425 -33.875 19.0625 C-30.14589934 19.1207462 -26.41691636 19.15617917 -22.6875 19.1875 C-21.63240234 19.20425781 -20.57730469 19.22101562 -19.49023438 19.23828125 C-17.95786133 19.24794922 -17.95786133 19.24794922 -16.39453125 19.2578125 C-14.98844604 19.27352295 -14.98844604 19.27352295 -13.55395508 19.28955078 C-8.98373562 18.90220875 -5.85973379 17.49039532 -2.796875 14.09375 C-2.27609375 13.52269531 -1.7553125 12.95164062 -1.21875 12.36328125 C-0.6928125 11.76902344 -0.166875 11.17476562 0.375 10.5625 C1.18710938 9.67111328 1.18710938 9.67111328 2.015625 8.76171875 C4.88874094 5.63962307 4.88874094 5.63962307 7.125 2.0625 C-0.465 2.0625 -8.055 2.0625 -15.875 2.0625 C-15.875 1.7325 -15.875 1.4025 -15.875 1.0625 C-10.54632017 -0.04691367 -5.41218145 -0.05298069 0 0 Z " fill="#6B65F6" transform="translate(192.875,38.9375)"/>
<path d="M0 0 C7.50836203 11.26254305 6.2791728 28.83259493 4.484375 41.6953125 C4.32453125 42.45585938 4.1646875 43.21640625 4 44 C3.67 44 3.34 44 3 44 C3.00523682 43.26362305 3.01047363 42.52724609 3.01586914 41.76855469 C3.03666867 38.42904515 3.04966968 35.08954926 3.0625 31.75 C3.07087891 30.59113281 3.07925781 29.43226562 3.08789062 28.23828125 C3.09111328 27.12324219 3.09433594 26.00820312 3.09765625 24.859375 C3.10289307 23.83295898 3.10812988 22.80654297 3.11352539 21.74902344 C3.01336951 19.32374344 2.69923078 17.31302639 2 15 C0.93957438 18.18127686 1.04054406 20.64830491 1.2578125 23.96484375 C1 26 1 26 -2 30 C-2 26.37 -2 22.74 -2 19 C-2.04898437 20.07378906 -2.09796875 21.14757812 -2.1484375 22.25390625 C-2.22353398 23.69012642 -2.29907876 25.12632319 -2.375 26.5625 C-2.4059375 27.26697266 -2.436875 27.97144531 -2.46875 28.69726562 C-2.72952558 33.41295741 -3.54658123 37.50385496 -5 42 C-5.95206108 39.14381677 -6.09511333 37.51752939 -6.02734375 34.5703125 C-6.01364746 33.69793945 -5.99995117 32.82556641 -5.98583984 31.92675781 C-5.9698877 31.00217773 -5.95393555 30.07759766 -5.9375 29.125 C-5.80744483 16.94224222 -5.80744483 16.94224222 -8 5 C-8.66 4.67 -9.32 4.34 -10 4 C-9.01 4 -8.02 4 -7 4 C-5.68 7.3 -4.36 10.6 -3 14 C-2.01 13.34 -1.02 12.68 0 12 C0.36498034 9.10391601 0.36498034 9.10391601 0.1875 5.875 C0.16042969 4.77929688 0.13335937 3.68359375 0.10546875 2.5546875 C0.05326172 1.29011719 0.05326172 1.29011719 0 0 Z " fill="#6058F3" transform="translate(327,63)"/>
<path d="M0 0 C3.36014997 3.36014997 3.13868701 6.79080154 3.18945312 11.43359375 C3.18880859 12.11550781 3.18816406 12.79742187 3.1875 13.5 C3.18814453 14.20253906 3.18878906 14.90507813 3.18945312 15.62890625 C3.1270488 21.88068536 2.2976429 27.88254064 1 34 C-0.485 34.495 -0.485 34.495 -2 35 C-4.48592749 32.35923232 -5.92350797 30.80944859 -6.27050781 27.13745117 C-6.16577148 26.11627197 -6.06103516 25.09509277 -5.953125 24.04296875 C-5.85 22.93115234 -5.746875 21.81933594 -5.640625 20.67382812 C-5.51171875 19.52333984 -5.3828125 18.37285156 -5.25 17.1875 C-5.1365625 16.01767578 -5.023125 14.84785156 -4.90625 13.64257812 C-4.62379157 10.75914836 -4.32109015 7.87934098 -4 5 C-2 7 -2 7 -1.875 10.625 C-1.91625 11.73875 -1.9575 12.8525 -2 14 C-0.7497715 12.97862121 -0.7497715 12.97862121 -0.9375 10.8203125 C-0.97904596 9.02864303 -1.02071192 7.23697634 -1.0625 5.4453125 C-1 3 -1 3 0 0 Z " fill="#2119E2" transform="translate(328,76)"/>
<path d="M0 0 C0.76166977 0.00222061 1.52333954 0.00444122 2.30809021 0.00672913 C3.16890701 0.00680466 4.02972382 0.00688019 4.91662598 0.00695801 C5.8520372 0.01211929 6.78744843 0.01728058 7.75120544 0.02259827 C8.70422043 0.02401321 9.65723541 0.02542816 10.63912964 0.02688599 C13.69605085 0.032503 16.75289996 0.04505836 19.80979919 0.05775452 C21.87685543 0.06276733 23.94391281 0.06733061 26.01097107 0.07142639 C31.08977507 0.08247795 36.16852489 0.09975397 41.24729919 0.12025452 C43.07976527 9.00525366 44.74612435 17.56772794 44.55979919 26.68275452 C44.56302185 27.50582092 44.56624451 28.32888733 44.56956482 29.17689514 C44.5255833 34.18679053 43.84731887 38.37119214 42.24729919 43.12025452 C40.26729919 43.61525452 40.26729919 43.61525452 38.24729919 44.12025452 C38.73480652 43.58738831 39.22231384 43.05452209 39.72459412 42.50550842 C41.66591417 39.46451165 41.62041505 37.54715293 41.61058044 33.95619202 C41.60993591 32.75091858 41.60929138 31.54564514 41.60862732 30.30384827 C41.59251404 29.04701233 41.57640076 27.79017639 41.55979919 26.49525452 C41.56302185 25.2616217 41.56624451 24.02798889 41.56956482 22.75697327 C41.52800875 15.64710811 40.99682647 9.02022185 39.24729919 2.12025452 C33.87213986 2.09557692 28.49701334 2.07740524 23.12181091 2.06532288 C21.29237799 2.06028714 19.4629491 2.05345825 17.63352966 2.04481506 C15.00738022 2.03271627 12.38128388 2.02701869 9.75511169 2.02259827 C8.93423065 2.01743698 8.11334961 2.0122757 7.26759338 2.00695801 C3.12518075 1.89673578 3.12518075 1.89673578 -0.75270081 3.12025452 C-1.08270081 15.99025452 -1.41270081 28.86025452 -1.75270081 42.12025452 C-2.08270081 42.12025452 -2.41270081 42.12025452 -2.75270081 42.12025452 C-2.77734718 36.29953829 -2.79553511 30.47885217 -2.80763245 24.65809631 C-2.81267348 22.6763201 -2.81950619 20.69454763 -2.82814026 18.71278381 C-2.84021595 15.87073343 -2.84593126 13.02873204 -2.85035706 10.18666077 C-2.85551834 9.2949971 -2.86067963 8.40333344 -2.86599731 7.48464966 C-2.86619257 5.3628485 -2.81480111 3.24114672 -2.75270081 1.12025452 C-1.75270081 0.12025452 -1.75270081 0.12025452 0 0 Z " fill="#ACA6FE" transform="translate(240.75270080566406,65.87974548339844)"/>
<path d="M0 0 C3.63195496 1.21065165 4.42896192 2.53691126 6.6875 5.5625 C7.31011719 6.38878906 7.93273437 7.21507812 8.57421875 8.06640625 C9.04472656 8.70449219 9.51523437 9.34257813 10 10 C9.071875 10.4021875 9.071875 10.4021875 8.125 10.8125 C5.7004767 11.95556848 5.7004767 11.95556848 4 15 C0.60644236 16.34613692 -2.90811572 16.11405402 -6.515625 16.09765625 C-7.76601563 16.09443359 -9.01640625 16.09121094 -10.3046875 16.08789062 C-12.25761719 16.07532227 -12.25761719 16.07532227 -14.25 16.0625 C-16.22613281 16.05573242 -16.22613281 16.05573242 -18.2421875 16.04882812 C-21.49483741 16.03704316 -24.74739584 16.02059011 -28 16 C-28 14.35 -28 12.7 -28 11 C-27.07574219 11.73476563 -27.07574219 11.73476563 -26.1328125 12.484375 C-21.68752626 14.63496236 -17.74303497 14.36174829 -12.875 14.25 C-11.51568359 14.24226563 -11.51568359 14.24226563 -10.12890625 14.234375 C-4.98234844 14.18027573 -4.98234844 14.18027573 0 13 C-1.4317521 7.98886765 -3.98445693 6.05530451 -8 3 C-5.53721199 1.768606 -3.7204945 1.92840804 -1 2 C-0.67 1.34 -0.34 0.68 0 0 Z " fill="#443EEE" transform="translate(270,44)"/>
<path d="M0 0 C0.33 7.92 0.66 15.84 1 24 C0.01 24 -0.98 24 -2 24 C-2 26.31 -2 28.62 -2 31 C-3.32 31.33 -4.64 31.66 -6 32 C-5.83701416 31.46536133 -5.67402832 30.93072266 -5.50610352 30.37988281 C-4.8949893 27.5062015 -4.8879395 24.86034246 -4.90234375 21.921875 C-4.90556641 20.76171875 -4.90878906 19.6015625 -4.91210938 18.40625 C-4.92048828 17.1996875 -4.92886719 15.993125 -4.9375 14.75 C-4.94201172 13.52796875 -4.94652344 12.3059375 -4.95117188 11.046875 C-4.96295185 8.03120054 -4.97940147 5.01562502 -5 2 C-1.125 0 -1.125 0 0 0 Z " fill="#221CE3" transform="translate(185,81)"/>
<path d="M0 0 C0.66 0 1.32 0 2 0 C2.38133299 1.9914056 2.71325582 3.99279077 3 6 C2 7 2 7 -0.77563477 7.11352539 C-1.98533936 7.10828857 -3.19504395 7.10305176 -4.44140625 7.09765625 C-5.74658203 7.09443359 -7.05175781 7.09121094 -8.39648438 7.08789062 C-9.7851569 7.07953401 -11.17382877 7.07106905 -12.5625 7.0625 C-13.95507656 7.05748666 -15.34765481 7.05292347 -16.74023438 7.04882812 C-20.1601987 7.03699434 -23.58007844 7.0205088 -27 7 C-27.33 6.01 -27.66 5.02 -28 4 C-27.22285645 4.03552979 -26.44571289 4.07105957 -25.64501953 4.10766602 C-22.13857034 4.26485529 -18.63181824 4.41378153 -15.125 4.5625 C-13.29001953 4.64661133 -13.29001953 4.64661133 -11.41796875 4.73242188 C-10.25136719 4.78076172 -9.08476562 4.82910156 -7.8828125 4.87890625 C-6.80402832 4.9260376 -5.72524414 4.97316895 -4.61376953 5.02172852 C-2.0169861 5.19172761 -2.0169861 5.19172761 0 4 C0 2.68 0 1.36 0 0 Z " fill="#8F88FD" transform="translate(310,53)"/>
<path d="M0 0 C0.83329834 -0.00531738 1.66659668 -0.01063477 2.52514648 -0.01611328 C8.55004196 0.05419464 8.55004196 0.05419464 11.9375 2.3125 C5.6675 2.3125 -0.6025 2.3125 -7.0625 2.3125 C-7.0625 2.9725 -7.0625 3.6325 -7.0625 4.3125 C-15.4775 4.8075 -15.4775 4.8075 -24.0625 5.3125 C-18.2499201 -0.5000799 -7.74112115 0.02496425 0 0 Z " fill="#8981F9" transform="translate(280.0625,28.6875)"/>
<path d="M0 0 C1.35814026 2.71628052 0.39162739 4.12265176 -0.453125 6.90234375 C-3.26158856 17.67480755 -2.74390059 30.10062131 -1 41 C-1.66 41 -2.32 41 -3 41 C-4.00512797 35.17663955 -4.15029569 29.52732717 -4.125 23.625 C-4.12886719 22.73039062 -4.13273438 21.83578125 -4.13671875 20.9140625 C-4.11229758 4.11229758 -4.11229758 4.11229758 0 0 Z " fill="#9B92FD" transform="translate(189,68)"/>
<path d="M0 0 C0.33 0 0.66 0 1 0 C1.33 2.97 1.66 5.94 2 9 C1.34 9 0.68 9 0 9 C-0.33 17.58 -0.66 26.16 -1 35 C-1.33 35 -1.66 35 -2 35 C-4.25137312 22.92610385 -2.77541354 11.79550755 0 0 Z " fill="#978CFD" transform="translate(140,68)"/>
<path d="M0 0 C0.99 0 1.98 0 3 0 C5.71914309 4.66049208 6.35955138 7.99618844 6.29296875 13.3671875 C6.28872391 14.04677521 6.28447906 14.72636292 6.28010559 15.42654419 C6.26344266 17.57644924 6.22581716 19.72538299 6.1875 21.875 C6.172437 23.3411322 6.15875143 24.80727924 6.14648438 26.2734375 C6.1135808 29.84926875 6.06188663 33.42453941 6 37 C5.01 37.495 5.01 37.495 4 38 C4.01571045 37.01157104 4.01571045 37.01157104 4.03173828 36.00317383 C4.76803724 18.33398228 4.76803724 18.33398228 2 1 C1.34 0.67 0.68 0.34 0 0 Z " fill="#B9ABFF" transform="translate(317,67)"/>
<path d="M0 0 C0.66 0 1.32 0 2 0 C2.33 2.31 2.66 4.62 3 7 C0.18175808 8.40912096 -2.17251282 8.11183553 -5.3203125 8.09765625 C-6.57714844 8.09443359 -7.83398438 8.09121094 -9.12890625 8.08789062 C-10.44761719 8.07951172 -11.76632812 8.07113281 -13.125 8.0625 C-14.46484211 8.05748489 -15.804686 8.05292201 -17.14453125 8.04882812 C-20.42973206 8.03701086 -23.71484397 8.02053617 -27 8 C-27 6.35 -27 4.7 -27 3 C-26.38382813 3.48984375 -25.76765625 3.9796875 -25.1328125 4.484375 C-20.68752626 6.63496236 -16.74303497 6.36174829 -11.875 6.25 C-10.51568359 6.24226563 -10.51568359 6.24226563 -9.12890625 6.234375 C-3.98234844 6.18027573 -3.98234844 6.18027573 1 5 C0.67 3.35 0.34 1.7 0 0 Z " fill="#877FFD" transform="translate(269,52)"/>
<path d="M0 0 C-3.4038727 1.08599748 -6.21096769 0.89088585 -9.75 0.625 C-14.67795604 0.54045173 -17.05328201 1.2125615 -20.75 4.5 C-21.86212712 5.63925217 -22.95683032 6.79728672 -24 8 C-24 5 -24 5 -22.57421875 3.4296875 C-21.95160156 2.91664063 -21.32898438 2.40359375 -20.6875 1.875 C-20.07261719 1.35679687 -19.45773438 0.83859375 -18.82421875 0.3046875 C-13.16569306 -3.74230946 -6.03987312 -2.41594925 0 0 Z " fill="#726DF7" transform="translate(92,158)"/>
<path d="M0 0 C0.66 0.33 1.32 0.66 2 1 C0.38405168 3.04119788 -1.2856382 5.04072937 -3 7 C-3.66 7 -4.32 7 -5 7 C-6.1161656 10.71429898 -6.3124195 14.39161508 -6.5625 18.25 C-6.64628906 19.51328125 -6.73007812 20.7765625 -6.81640625 22.078125 C-6.87699219 23.04234375 -6.93757813 24.0065625 -7 25 C-9 23 -9 23 -9.3125 19.4375 C-9.109414 12.85512429 -7.52382971 7.1711055 -2.8125 2.4375 C-1.884375 1.633125 -0.95625 0.82875 0 0 Z " fill="#5552BE" transform="translate(332,248)"/>
<path d="M0 0 C0.66 0.33 1.32 0.66 2 1 C-1.75 5.875 -1.75 5.875 -4 7 C-4.0825 7.598125 -4.165 8.19625 -4.25 8.8125 C-5.40031078 12.16757312 -8.09847687 13.12609964 -11 15 C-11.33 15.99 -11.66 16.98 -12 18 C-12.66 18 -13.32 18 -14 18 C-12.61697836 14.02203055 -10.77149402 11.14067376 -8.125 7.875 C-7.44695312 7.02679688 -6.76890625 6.17859375 -6.0703125 5.3046875 C-4.17514856 3.1949767 -2.33048781 1.59894455 0 0 Z " fill="#7A6FF8" transform="translate(160,38)"/>
<path d="M0 0 C0.99 0.33 1.98 0.66 3 1 C3 4.63 3 8.26 3 12 C2.01 12.495 2.01 12.495 1 13 C-1.02350324 9.96474514 -1.32124018 8.80573798 -1.625 5.3125 C-1.69976562 4.50425781 -1.77453125 3.69601563 -1.8515625 2.86328125 C-1.90054688 2.24839844 -1.94953125 1.63351563 -2 1 C-1.34 0.67 -0.68 0.34 0 0 Z " fill="#1915E0" transform="translate(143,69)"/>
<path d="M0 0 C3.03226378 4.04301837 3.38706402 4.5478828 3.25 9.1875 C3.22679688 10.50814453 3.22679688 10.50814453 3.203125 11.85546875 C3 14 3 14 2 15 C1.76924918 16.34747084 1.58846937 17.70377565 1.4375 19.0625 C1.293125 20.361875 1.14875 21.66125 1 23 C0.67 23 0.34 23 0 23 C0 15.41 0 7.82 0 0 Z " fill="#8B87F6" transform="translate(100,315)"/>
<path d="M0 0 C1.12937065 3.58222252 1.0674821 6.88817884 1 10.625 C0.76378051 14.97333989 0.76378051 14.97333989 2 19 C2.04022391 21.3329866 2.04320247 23.66706666 2 26 C-1.98713863 18.4967771 -2.4826053 11.29659938 -1 3 C-0.67 2.01 -0.34 1.02 0 0 Z " fill="#8E88FD" transform="translate(335,166)"/>
<path d="M0 0 C3.09732871 3.09732871 2.9887814 5.55305094 3.09765625 9.890625 C3.09105099 11.34378224 3.07918727 12.79692356 3.0625 14.25 C3.05798828 14.99507812 3.05347656 15.74015625 3.04882812 16.5078125 C3.03709246 18.3385764 3.0191585 20.16929873 3 22 C2.67 22 2.34 22 2 22 C1.67 19.03 1.34 16.06 1 13 C0.67 13 0.34 13 0 13 C-0.19551338 11.39679026 -0.38111983 9.79237014 -0.5625 8.1875 C-0.71912109 6.84751953 -0.71912109 6.84751953 -0.87890625 5.48046875 C-1 3 -1 3 0 0 Z " fill="#2A21E7" transform="translate(328,76)"/>
<path d="M0 0 C0.87914062 0.00451172 1.75828125 0.00902344 2.6640625 0.01367188 C4.81773803 0.02537663 6.97137817 0.04330931 9.125 0.0625 C9.125 1.3825 9.125 2.7025 9.125 4.0625 C8.465 4.0625 7.805 4.0625 7.125 4.0625 C7.125 3.4025 7.125 2.7425 7.125 2.0625 C-0.465 2.0625 -8.055 2.0625 -15.875 2.0625 C-15.875 1.7325 -15.875 1.4025 -15.875 1.0625 C-10.54632017 -0.04691367 -5.41218145 -0.05298069 0 0 Z " fill="#817BFC" transform="translate(192.875,38.9375)"/>
<path d="M0 0 C5.31427203 2.70923672 8.42148591 5.22864787 12 10 C6.54313839 9.03184713 6.54313839 9.03184713 4 8 C2.625 5.4375 2.625 5.4375 2 3 C1.34 2.67 0.68 2.34 0 2 C0 1.34 0 0.68 0 0 Z " fill="#605AF4" transform="translate(303,35)"/>
<path d="M0 0 C0.66 0.33 1.32 0.66 2 1 C0.68 2.32 -0.64 3.64 -2 5 C-2.99 4.67 -3.98 4.34 -5 4 C-5.226875 4.639375 -5.45375 5.27875 -5.6875 5.9375 C-7 8 -7 8 -9.625 8.75 C-10.40875 8.8325 -11.1925 8.915 -12 9 C-8.33494586 5.00175912 -4.88887148 2.39831431 0 0 Z " fill="#7872F7" transform="translate(254,34)"/>
<path d="M0 0 C-0.54269531 0.18175781 -1.08539063 0.36351563 -1.64453125 0.55078125 C-2.71767578 0.92783203 -2.71767578 0.92783203 -3.8125 1.3125 C-4.87404297 1.67794922 -4.87404297 1.67794922 -5.95703125 2.05078125 C-8.06788069 2.88548537 -8.06788069 2.88548537 -9.53125 4.5625 C-11.92560527 6.90591154 -14.7811331 6.69633331 -18 7 C-15.85946942 4.65879468 -13.85334961 3.24763409 -11 1.875 C-10.319375 1.54242188 -9.63875 1.20984375 -8.9375 0.8671875 C-5.46142644 -0.68863575 -3.61679516 -1.12245367 0 0 Z " fill="#8A82F9" transform="translate(180,31)"/>
<path d="M0 0 C1.875 2 1.875 2 3 4 C2.401875 3.835 1.80375 3.67 1.1875 3.5 C-2.78688275 2.59156966 -5.40436996 3.20218498 -9 5 C-9.33 5.99 -9.66 6.98 -10 8 C-9.64505955 5.37344067 -9.27538036 3.42031739 -7.8125 1.1875 C-5.08206067 -0.60140853 -3.18261281 -0.46413104 0 0 Z " fill="#6A66F5" transform="translate(71,243)"/>
<path d="M0 0 C1.875 0.25 1.875 0.25 4 1 C5.25 3.0625 5.25 3.0625 6 5 C5.401875 5.103125 4.80375 5.20625 4.1875 5.3125 C1.71756736 6.08876455 0.67748765 7.07088921 -1 9 C-1.125 2.25 -1.125 2.25 0 0 Z " fill="#342DEA" transform="translate(274,50)"/>
<path d="M0 0 C1.77706209 2.66559313 2.87548273 5.0280615 4 8 C3.01 7.67 2.02 7.34 1 7 C1 6.34 1 5.68 1 5 C0.34 4.67 -0.32 4.34 -1 4 C-0.67 2.68 -0.34 1.36 0 0 Z M-5 3 C-3.68 3.66 -2.36 4.32 -1 5 C-1.66 6.65 -2.32 8.3 -3 10 C-4.98 10 -6.96 10 -9 10 C-9 9.67 -9 9.34 -9 9 C-7.35 9 -5.7 9 -4 9 C-4.33 7.02 -4.66 5.04 -5 3 Z " fill="#6861F6" transform="translate(214,171)"/>
<path d="M0 0 C0.99 0.33 1.98 0.66 3 1 C5.84370451 1.09668595 8.6570727 1.13923837 11.5 1.125 C12.27214844 1.12886719 13.04429687 1.13273438 13.83984375 1.13671875 C17.14503737 1.13099051 19.84377498 1.05207501 23 0 C23 0.66 23 1.32 23 2 C20.65061112 3.17469444 19.04926795 3.20034889 16.4296875 3.31640625 C15.08583984 3.37924805 15.08583984 3.37924805 13.71484375 3.44335938 C12.77769531 3.48267578 11.84054688 3.52199219 10.875 3.5625 C9.93011719 3.60568359 8.98523438 3.64886719 8.01171875 3.69335938 C5.67462908 3.79959072 3.3374317 3.90163176 1 4 C0.67 2.68 0.34 1.36 0 0 Z " fill="#ADA6FC" transform="translate(239,160)"/>
<path d="M0 0 C1.1580867 3.97552151 0.68298204 6.90210778 0 11 C-0.19417322 12.47830546 -0.38175574 13.95749264 -0.5625 15.4375 C-0.7790625 17.2009375 -0.7790625 17.2009375 -1 19 C-1.33 19 -1.66 19 -2 19 C-3.27766314 11.79862595 -2.52686664 6.83824362 0 0 Z " fill="#8F8AFA" transform="translate(211,232)"/>
<path d="M0 0 C1.73684533 3.47369066 2.30084112 5.07619937 2.625 8.75 C2.69976562 9.54921875 2.77453125 10.3484375 2.8515625 11.171875 C2.92503906 12.07679687 2.92503906 12.07679687 3 13 C1.68 12.67 0.36 12.34 -1 12 C-1.33 12.66 -1.66 13.32 -2 14 C-1.67 12.68 -1.34 11.36 -1 10 C-0.34 10 0.32 10 1 10 C0.67 6.7 0.34 3.4 0 0 Z " fill="#2E28EA" transform="translate(286,68)"/>
<path d="M0 0 C1.35217012 2.70434024 0.41075463 4.08674365 -0.453125 6.84765625 C-1.46390338 10.82579118 -1.68781653 14.91696877 -2 19 C-2.33 19 -2.66 19 -3 19 C-3.08117951 16.58265458 -3.14056926 14.16805051 -3.1875 11.75 C-3.21263672 11.06808594 -3.23777344 10.38617188 -3.26367188 9.68359375 C-3.31137459 6.40800711 -3.21085076 4.34651444 -1.48828125 1.515625 C-0.99714844 1.01546875 -0.50601563 0.5153125 0 0 Z " fill="#A49FFC" transform="translate(189,68)"/>
<path d="M0 0 C-1.051875 0.391875 -2.10375 0.78375 -3.1875 1.1875 C-6.91658932 2.76402557 -9.29663487 4.96895425 -12 8 C-11.67 6.35 -11.34 4.7 -11 3 C-10.34 3 -9.68 3 -9 3 C-9 2.01 -9 1.02 -9 0 C-5.62182575 -0.84454356 -3.32534757 -1.10844919 0 0 Z " fill="#7572FA" transform="translate(211,46)"/>
<path d="M0 0 C1.32 0.99 2.64 1.98 4 3 C3.75 4.875 3.75 4.875 3 7 C1.02 7.99 1.02 7.99 -1 9 C-0.67 6.03 -0.34 3.06 0 0 Z " fill="#504DD4" transform="translate(167,294)"/>
<path d="M0 0 C0.99 0.495 0.99 0.495 2 1 C2.33 1.99 2.66 2.98 3 4 C3.66 4.33 4.32 4.66 5 5 C5.125 7.875 5.125 7.875 5 11 C4.34 11.66 3.68 12.32 3 13 C1.90154282 8.67940177 0.82187261 4.38332057 0 0 Z " fill="#2B20E4" transform="translate(320,66)"/>
<path d="M0 0 C-1.5277867 3.43752007 -3.50181056 6.18953688 -6 9 C-6.66 9 -7.32 9 -8 9 C-6.68994234 5.06982701 -4.75047804 0 0 0 Z " fill="#6762F3" transform="translate(220,223)"/>
<path d="M0 0 C0.66 0.33 1.32 0.66 2 1 C0.90220176 2.15193623 -0.20349446 3.29634937 -1.3125 4.4375 C-1.92738281 5.07558594 -2.54226562 5.71367187 -3.17578125 6.37109375 C-5 8 -5 8 -8 9 C-6.4169423 4.7257442 -3.49431596 2.73468206 0 0 Z " fill="#6965F5" transform="translate(75,157)"/>
<path d="M0 0 C1.21386936 3.64160808 0.6674695 4.33165469 -0.9375 7.6875 C-1.31777344 8.49574219 -1.69804687 9.30398437 -2.08984375 10.13671875 C-2.39019531 10.75160156 -2.69054687 11.36648437 -3 12 C-3.66 11.01 -4.32 10.02 -5 9 C-4.34 9 -3.68 9 -3 9 C-3.0928125 7.6078125 -3.0928125 7.6078125 -3.1875 6.1875 C-3 3 -3 3 -1.5 1.125 C-1.005 0.75375 -0.51 0.3825 0 0 Z " fill="#7B75F8" transform="translate(325,120)"/>
<path d="M0 0 C2.64 0 5.28 0 8 0 C4 2 0 4 -4 6 C-4 5.01 -4 4.02 -4 3 C-3.01 3 -2.02 3 -1 3 C-0.67 2.01 -0.34 1.02 0 0 Z " fill="#635FF7" transform="translate(252,44)"/>
<path d="M0 0 C0.99 0 1.98 0 3 0 C1.8141763 3.37503669 0.72426311 5.64722731 -2 8 C-2.125 5.125 -2.125 5.125 -2 2 C-1.34 1.34 -0.68 0.68 0 0 Z " fill="#6059F2" transform="translate(314,140)"/>
<path d="M0 0 C1 2 1 2 0.22265625 4.3828125 C-0.16019531 5.28773437 -0.54304688 6.19265625 -0.9375 7.125 C-1.31777344 8.03507812 -1.69804687 8.94515625 -2.08984375 9.8828125 C-2.39019531 10.58148438 -2.69054687 11.28015625 -3 12 C-3.33 12 -3.66 12 -4 12 C-4.125 5.25 -4.125 5.25 -3 3 C-2.34 3 -1.68 3 -1 3 C-0.67 2.01 -0.34 1.02 0 0 Z " fill="#8B84FA" transform="translate(286,119)"/>
<path d="M0 0 C1.46015291 0.28241641 2.91809793 0.57626614 4.375 0.875 C5.18710937 1.03742187 5.99921875 1.19984375 6.8359375 1.3671875 C9 2 9 2 11 4 C6.78121808 4.19622241 3.82989106 3.80230168 0 2 C0 1.34 0 0.68 0 0 Z " fill="#8780FA" transform="translate(292,31)"/>
<path d="M0 0 C1.60080151 4.00200378 0.29279692 7.04556236 -1 11 C-1.66 11 -2.32 11 -3 11 C-2.32829194 7.1936543 -1.27253436 3.64793184 0 0 Z " fill="#7F79EB" transform="translate(291,247)"/>
<path d="M0 0 C0.66 0.33 1.32 0.66 2 1 C1.0479279 2.00596297 0.08812654 3.00461563 -0.875 4 C-1.40867187 4.556875 -1.94234375 5.11375 -2.4921875 5.6875 C-4 7 -4 7 -6 7 C-4.60667426 3.63279613 -3.0210714 2.0140476 0 0 Z " fill="#605BF3" transform="translate(116,248)"/>
<path d="M0 0 C3.05882701 1.52941351 3.68951234 3.94219546 5 7 C4.67 7.66 4.34 8.32 4 9 C2.68 8.67 1.36 8.34 0 8 C0 5.36 0 2.72 0 0 Z " fill="#716BF7" transform="translate(322,54)"/>
<path d="M0 0 C0.99 0.33 1.98 0.66 3 1 C3 2.32 3 3.64 3 5 C3.66 5 4.32 5 5 5 C4.67 5.66 4.34 6.32 4 7 C2 5.75 2 5.75 0 4 C0 2.68 0 1.36 0 0 Z " fill="#716CF6" transform="translate(299,296)"/>
<path d="M0 0 C1.32 0.33 2.64 0.66 4 1 C1.03 3.475 1.03 3.475 -2 6 C-2 4.68 -2 3.36 -2 2 C-1.34 2 -0.68 2 0 2 C0 1.34 0 0.68 0 0 Z " fill="#6F6BF4" transform="translate(278,295)"/>
<path d="M0 0 C0.33 0.99 0.66 1.98 1 3 C3.97 2.34 6.94 1.68 10 1 C9.67 1.99 9.34 2.98 9 4 C6.03 4 3.06 4 0 4 C0 2.68 0 1.36 0 0 Z " fill="#8781F9" transform="translate(259,177)"/>
</svg>
