<?xml version="1.0" encoding="utf-8"?>
<!-- Generator: Adobe Illustrator 27.5.0, SVG Export Plug-In . SVG Version: 6.00 Build 0)  -->
<svg version="1.1" xmlns="http://www.w3.org/2000/svg" xmlns:xlink="http://www.w3.org/1999/xlink" x="0px" y="0px"
	 viewBox="0 50 500 420" style="enable-background:new 0 0 500 500;" xml:space="preserve">
<g id="Floor">
	<path id="Floor_00000013876646643919197920000017874447876317227658_" style="fill:#dfb6b2;" d="M79.268,230.112
		c-94.29,54.438-94.287,142.7,0.005,197.139c94.292,54.438,247.168,54.438,341.458,0s94.287-142.701-0.005-197.139
		S173.558,175.673,79.268,230.112z"/>
</g>
<g id="Plants">
	<g id="Plants_00000168092673519632360570000011105768611508091020_">
		<g id="XMLID_348_">
			<path id="XMLID_408_" style="fill:#BA68C8;" d="M444.594,352.468c0,0-5.785-26.296,2.375-52.707
				c4.561-14.763,13.742-21.935,19.542-22.852c6.501-1.027,13.41,4.84,8.074,14.685c-5.07,9.354-15.537,13.556-20.632,37.571
				c-3.359,15.833-2.226,26.139-2.226,26.139L444.594,352.468z"/>
			<path id="XMLID_261_" style="opacity:0.8;fill:#BA68C8;" d="M444.594,352.468c0,0-5.785-26.296,2.375-52.707
				c4.561-14.763,13.742-21.935,19.542-22.852c6.501-1.027,13.41,4.84,8.074,14.685c-5.07,9.354-15.537,13.556-20.632,37.571
				c-3.359,15.833-2.226,26.139-2.226,26.139L444.594,352.468z"/>
			<g id="XMLID_406_">
				<path style="fill:#FFFFFF;" d="M448.326,345.564c0.224-0.033,0.378-0.24,0.345-0.464c-4.219-28.874,8.585-53.801,19.023-62.28
					c0.175-0.143,0.202-0.4,0.06-0.576c-0.144-0.176-0.4-0.202-0.576-0.06c-10.589,8.602-23.582,33.844-19.316,63.034
					C447.895,345.442,448.102,345.596,448.326,345.564z"/>
			</g>
		</g>
		<g id="XMLID_342_">
			<path id="XMLID_426_" style="fill:#BA68C8;" d="M456.971,356.758c-0.318-6.74,2.015-14.173,8.423-22.806
				c6.407-8.633,15.85-17.207,13.076-23.262c-2.775-6.055-10.99-3.146-16.275,1.457c-5.286,4.603-16.005,20.952-8.954,43.713
				L456.971,356.758z"/>
			<path id="XMLID_260_" style="opacity:1;fill:#BA68C8;" d="M456.971,356.758c-0.318-6.74,2.015-14.173,8.423-22.806
				c6.407-8.633,15.85-17.207,13.076-23.262c-2.775-6.055-10.99-3.146-16.275,1.457c-5.286,4.603-16.005,20.952-8.954,43.713
				L456.971,356.758z"/>
			<g id="XMLID_429_">
				<path style="fill:#FFFFFF;" d="M453.942,349.73c0.186-0.055,0.312-0.236,0.29-0.435c-1.518-14.085,11.192-34.468,18.075-38.516
					c0.195-0.114,0.26-0.365,0.145-0.559c-0.113-0.196-0.362-0.263-0.559-0.145c-7.217,4.244-20.052,24.67-18.473,39.308
					c0.024,0.225,0.225,0.388,0.45,0.363C453.895,349.743,453.918,349.738,453.942,349.73z"/>
			</g>
		</g>
	</g>
	<g id="Plants_00000160870308349724648970000015128561707566299836_">
		<g id="XMLID_1047_">
			<g id="XMLID_00000016047532555728134570000012214407795756843176_">
				<path id="XMLID_1085_" style="fill:#BA68C8;" d="M50.735,344.28l7.237-4.182c0,0,4.307-17.898,2.591-34.002
					c-2.413-22.642-17.318-31.162-22.985-29.21c-5.667,1.953-7.309,8.542,2.069,22.027C45.179,306.869,51.976,323.442,50.735,344.28
					z"/>
			</g>
			<g id="XMLID_00000107561789029438799510000011202710443911869344_" style="opacity:0.8;">
				<path id="XMLID_00000176760673678195975060000005122582842707721089_" style="fill:#BA68C8;" d="M50.735,344.28l7.237-4.182
					c0,0,4.307-17.898,2.591-34.002c-2.413-22.642-17.318-31.162-22.985-29.21c-5.667,1.953-7.309,8.542,2.069,22.027
					C45.179,306.869,51.976,323.442,50.735,344.28z"/>
			</g>
			<g id="XMLID_1048_">
				<path id="XMLID_1049_" style="fill:#FFFFFF;" d="M53.733,335.487c-0.023-0.001-0.046-0.004-0.069-0.009
					c-0.272-0.052-0.451-0.314-0.399-0.586c3.967-20.884-3.329-44.352-12.363-54.117c-0.188-0.203-0.176-0.521,0.028-0.709
					c0.204-0.186,0.521-0.176,0.709,0.028c9.199,9.943,16.637,33.794,12.611,54.986C54.204,335.328,53.979,335.499,53.733,335.487z"
					/>
			</g>
		</g>
		<g id="XMLID_1183_">
			<g id="XMLID_1044_">
				<path id="XMLID_1046_" style="fill:#BA68C8;" d="M32.52,354.796c-1.081,0.55-3.956-1.911-4.758-2.509
					c-1.372-1.024-2.455-2.432-3.142-3.996c-0.8-1.821-0.928-3.735-0.55-5.686c0.196-1.012,0.531-1.99,0.865-2.965
					c0.328-0.957,0.656-1.914,0.984-2.871c0.324-0.944,0.652-1.921,0.575-2.917c-0.154-2.005-1.852-3.49-3.399-4.775
					c-1.711-1.421-3.473-3.271-3.342-5.669c0.101-1.85,1.146-3.521,2.366-4.915c1.22-1.395,2.646-2.609,3.76-4.09
					c0.802-1.066,1.449-2.333,1.395-3.666c-0.034-0.828-0.337-1.622-0.694-2.369c-0.768-1.604-1.813-3.091-2.313-4.798
					c-0.5-1.707-0.311-3.79,1.059-4.924c1.125-0.931,2.729-0.988,4.179-0.819c1.342,0.157,2.626,0.831,3.77,1.545
					c3.701,2.309,5.647,6.929,9.605,8.762c1.527,0.707,3.227,0.931,4.83,1.442c1.603,0.511,3.217,1.425,3.894,2.965
					c1.334,3.037-1.603,6.549-0.719,9.747c0.782,2.829,3.433,4.031,4.825,6.616c0.609,1.131,0.698,2.406,0.527,3.679
					c-0.291,2.154-0.687,3.725-1.847,6.079c-0.958,1.945-3.656,5.62-3.656,5.62S32.686,354.711,32.52,354.796z"/>
			</g>
			<g id="XMLID_00000096744945403115106880000008699267350103333265_">
				<path id="XMLID_00000017501320074041377370000000134957267383465360_" style="fill:#BA68C8;" d="M32.52,354.796
					c-1.081,0.55-3.956-1.911-4.758-2.509c-1.372-1.024-2.455-2.432-3.142-3.996c-0.8-1.821-0.928-3.735-0.55-5.686
					c0.196-1.012,0.531-1.99,0.865-2.965c0.328-0.957,0.656-1.914,0.984-2.871c0.324-0.944,0.652-1.921,0.575-2.917
					c-0.154-2.005-1.852-3.49-3.399-4.775c-1.711-1.421-3.473-3.271-3.342-5.669c0.101-1.85,1.146-3.521,2.366-4.915
					c1.22-1.395,2.646-2.609,3.76-4.09c0.802-1.066,1.449-2.333,1.395-3.666c-0.034-0.828-0.337-1.622-0.694-2.369
					c-0.768-1.604-1.813-3.091-2.313-4.798c-0.5-1.707-0.311-3.79,1.059-4.924c1.125-0.931,2.729-0.988,4.179-0.819
					c1.342,0.157,2.626,0.831,3.77,1.545c3.701,2.309,5.647,6.929,9.605,8.762c1.527,0.707,3.227,0.931,4.83,1.442
					c1.603,0.511,3.217,1.425,3.894,2.965c1.334,3.037-1.603,6.549-0.719,9.747c0.782,2.829,3.433,4.031,4.825,6.616
					c0.609,1.131,0.698,2.406,0.527,3.679c-0.291,2.154-0.687,3.725-1.847,6.079c-0.958,1.945-3.656,5.62-3.656,5.62
					S32.686,354.711,32.52,354.796z"/>
			</g>
			<g id="XMLID_1186_">
				<path id="XMLID_00000088110240148185522860000000928962073810347693_" style="fill:#FFFFFF;" d="M42.996,349.336
					c-0.006,0-0.013-0.001-0.013-0.001c-0.268-0.025-0.46-0.256-0.436-0.517c1.733-18.784-6.088-40.013-12.233-46.376
					c-0.182-0.188-0.177-0.489,0.012-0.672c0.189-0.182,0.489-0.176,0.671,0.012c6.268,6.491,14.253,28.074,12.497,47.122
					C43.469,349.16,43.249,349.349,42.996,349.336z"/>
			</g>
			<g id="XMLID_1184_">
				<path id="XMLID_1185_" style="fill:#FFFFFF;" d="M41.13,326.175c-0.046-0.002-0.093-0.011-0.139-0.028
					c-5.953-2.175-13.474-2.884-13.549-2.891c-0.262-0.024-0.453-0.256-0.43-0.516c0.024-0.261,0.233-0.457,0.517-0.43
					c0.077,0.008,7.717,0.728,13.788,2.946c0.246,0.089,0.374,0.362,0.283,0.608C41.527,326.064,41.333,326.185,41.13,326.175z"/>
			</g>
		</g>
	</g>
</g>
<g id="Shadows">
	<ellipse id="Shadow" style="fill:rgba(255, 241, 212, 0.411);" cx="213.309" cy="405.441" rx="52.225" ry="30.152"/>
	
		<ellipse id="Shadow_00000170237355010373663550000009415382110952858274_" style="fill:rgba(255, 241, 212, 0.411);" cx="290.095" cy="408.351" rx="52.225" ry="30.152"/>
	
		<ellipse id="Shadow_00000157299616952550865820000005250272014617300358_" style="fill:rgba(255, 241, 212, 0.411);" cx="152.472" cy="389.55" rx="52.225" ry="30.152"/>
	
		<ellipse id="Shadow_00000111149091936302457410000001477309335464371092_" style="fill:rgba(255, 241, 212, 0.411);" cx="83.58" cy="359.794" rx="52.225" ry="30.152"/>
	
		<ellipse id="Shadow_00000170982146509046526030000005520109467296465558_" style="fill:rgba(255, 241, 212, 0.411);" cx="355.169" cy="389.082" rx="52.225" ry="30.152"/>
	
		<ellipse id="Shadow_00000047738542980827514740000009547868886913888390_" style="fill:rgba(255, 241, 212, 0.411);" cx="416.063" cy="351.484" rx="52.225" ry="30.152"/>
</g>
<g id="Speech_Bubble">
	<g id="Speech_Bubble_00000047755284443906985690000012757900378251344060_">
		<g id="Speech_Bubble_00000123430493653270804510000006390993877202872973_">
			<path style="fill:#854f6c;" d="M227.245,99.484c0.016,16.772,13.671,30.401,30.443,30.385
				c16.772-0.016,30.408-13.671,30.392-30.443c-0.016-16.778-13.678-30.408-30.449-30.392
				C240.859,69.05,227.23,82.706,227.245,99.484z M229.982,99.481c-0.014-15.268,12.391-27.696,27.651-27.711
				c15.268-0.014,27.703,12.391,27.717,27.658c0.014,15.268-12.398,27.696-27.665,27.711
				C242.425,127.154,229.996,114.749,229.982,99.481z"/>
			<path style="fill:#fbe4d8;" d="M229.982,99.481c0.014,15.268,12.443,27.673,27.704,27.658
				c15.268-0.015,27.68-12.443,27.665-27.711c-0.014-15.268-12.45-27.673-27.717-27.658
				C242.372,71.785,229.967,84.214,229.982,99.481z"/>
			<path style="fill:#854f6c;" d="M259.346,138.249l3.886-10.056l-11.085,0.011l3.905,10.049
				C256.635,139.756,258.764,139.754,259.346,138.249z"/>
		</g>
		<g>
			<path id="Heart_00000070111714408942318680000016696591749549642396_" style="fill:#522b5b;" d="M257.666,116.937
				c-20.384-10.859-22.028-22.511-16.102-28.207c5.31-5.104,15.022-1.738,16.102,5.556c1.08-7.294,10.792-10.66,16.102-5.556
				C279.694,94.427,278.05,106.078,257.666,116.937z"/>
		</g>
	</g>
</g>
<g id="Group_00000021828069076845911250000013543302496665514674_">
	<g id="Group">
		<g id="Character_00000151516421007323831770000014144175884339281538_">
			<path id="Arm_00000134249261204403366060000003608993762308735130_" style="fill:#FFA8A7;" d="M71.063,155.843
				c-5.337-1.129-13.023-0.087-15.817,11.611c-2.549,10.675-4.546,18.724-5.428,24.372c-0.882,5.648-0.406,10.254,0.19,15.897
				c0.367,3.472,0.956,6.92,1.506,10.366c0.281,1.76,0.564,3.52,0.821,5.283c0.222,1.516,0.555,3.096,0.451,4.622
				c-0.241,3.557-0.395,7.202,0.54,10.679c0.223,0.831,0.507,1.645,0.791,2.457c0.617,1.768,1.235,3.536,1.852,5.304
				c0.453,1.298,0.984,2.23,2.153,2.992c0.898,0.586,1.918,0.551,2.956,0.701c0.361,0.052,0.742,0.102,1.08-0.033
				c0.247-0.099,0.447-0.286,0.639-0.47c0.761-0.725,1.578-1.574,1.576-2.625c-0.001-0.633-0.303-1.304-0.021-1.87
				c0.079-0.159,0.199-0.293,0.297-0.44c0.376-0.563,0.419-1.294,0.285-1.958c-0.134-0.663-0.429-1.281-0.69-1.906
				c-1.225-2.926-1.76-6.139-1.549-9.305c0.02-0.301,0.193-0.708,0.479-0.612c0.141,0.047,0.21,0.202,0.26,0.341
				c0.336,0.92,0.595,1.868,0.775,2.831c0.161,0.863,0.27,1.769,0.753,2.501s1.491,1.213,2.258,0.789
				c-0.121-1.49-0.243-2.98-0.364-4.471c-0.062-0.759-0.124-1.521-0.272-2.268c-0.352-1.782-1.174-3.416-1.901-5.066
				c-0.746-1.694-1.132-3.245-1.368-5.057c-0.515-3.962-0.298-7.969-0.223-11.95c0.071-3.741,0.199-7.484,0.405-11.22l7.493-26.125
				L71.063,155.843z"/>
			<path style="fill:#37474F;" d="M72.049,155.122c-5.247-1.068-7.479-0.702-10.743,1.627c-3.264,2.329-4.817,5.59-5.529,8.405
				c0.945,4.811,4.381,14.999,11.036,17.672L72.049,155.122z"/>
			<g id="Bottom_00000100379820954640064100000018131508466875834778_">
				<g id="XMLID_00000052066144253558896620000014777854753157306292_">
					<g>
						<g id="XMLID_00000062155960320142894590000013730454138388553887_">
							<g id="XMLID_00000016797564671729382110000001712109091221753501_">
								<path id="XMLID_00000183959744553423439210000000996773212701871016_" style="fill:#455A64;" d="M82.755,369.787
									c-0.491,1.753-0.658,4.29-0.51,6.117c0.473,1.384,3.07,2.826,4.258,3.19c3.36,1.032,3.78,0.868,9.218,1.564
									c1.486,0.19,2.937,0.395,4.368,0.839c4.566,1.416,8.016,3.497,12.314,3.747c6.439,0.375,11.26-1.144,13.747-3.803
									c0.332-0.885,0.621-2.532,0.021-4.272c-0.733-2.126-3.454-3.613-5.465-4.3c-5.435-1.855-8.083-2.937-12.185-4.593
									c-2.033-0.821-4.43-2.059-6.335-3.147c-1.76-1.005-2.854-2.613-4.926-2.903c-2.067-0.289-4.147,0.264-6.179,0.569
									c-2.168,0.326-4.427,0.741-6.608,0.993C83.735,363.875,84.241,364.476,82.755,369.787z"/>
							</g>
						</g>
					</g>
					<path id="XMLID_00000153705646561517252370000004904402166691618454_" style="fill:#FFA8A7;" d="M83.58,349.303
						c0.089,2.553,0.766,7.353,0.858,9.906c0.076,2.098-0.023,4.229-0.074,6.327c-0.012,0.487-0.021,0.986,0.146,1.443
						c0.27,0.736,0.949,1.235,1.62,1.64c4.931,2.97,8.504,3.494,14.03,4.974c3.905,1.045,8.424,2.333,11.614,2.702
						c3.028,0.35,6.402,0.455,8.108-1.013c0.811-0.698,0.694-2.08-2.521-3.344c-3.354-1.318-6.145-2.332-9.362-3.881
						c-1.954-0.941-3.772-1.795-5.828-3.169c-0.947-0.633-1.648-1.16-2.187-2.176c-0.366-0.689-0.46-2.11-0.381-3.169
						c0.103-1.383,0.265-2.758,0.421-4.136c0.265-2.342,0.52-4.684,0.791-7.025C100.816,348.383,83.576,349.176,83.58,349.303z"/>
				</g>
				<g>
					<path style="fill:#FFA8A7;" d="M36.582,329.023c0.361-0.564,0.982-0.951,1.418-1.887c1.592-3.42,3.375-9.439,5.092-15.336
						l15.605,7.418c-1.38,2.45-2.765,4.899-4.155,7.343c-0.686,1.207-1.352,2.43-2.065,3.622c-0.627,1.048-1.331,1.985-1.846,3.123
						c-0.547,1.209-1.048,2.447-1.334,3.743c-0.434,1.97-0.355,4.018-0.147,6.024c0.155,1.501,0.386,3.009,0.941,4.412
						c0.372,0.941,1.103,2.056,2.693,3.318c0.55,0.436,0.911,0.464,0.516,1.392c-0.154,0.363-0.633,0.428-1.028,0.439
						c-0.608,0.017-1.22,0.033-1.821-0.061c-1.252-0.196-2.384-0.861-3.395-1.626c-0.919-0.695-1.774-1.491-2.427-2.44
						c-1.726-2.505-1.868-5.751-1.769-8.791c0.021-0.659,0.05-1.327-0.095-1.971c-0.096-0.426-0.266-0.832-0.435-1.235
						C41.102,333.579,38.555,331.462,36.582,329.023z"/>
					<g>
						<path style="fill:#455A64;" d="M30.718,335.547c-0.184-0.807-0.187-1.625,0.186-2.397c0.697-1.441,1.654-1.788,2.726-2.528
							c0.57-0.394,1.085-0.863,1.641-1.271c0.505-0.369,0.883-0.913,1.484-1.144c0.423-0.163,0.894-0.141,1.344-0.084
							c1.876,0.235,4.188,1.072,5.407,2.579c1.328,1.643,1.488,3.704,1.519,5.739c0.027,1.732,0.054,3.464,0.081,5.196
							c0.032,2.05,0.072,4.148,0.792,6.068c0.428,1.142,0.902,2.101,1.851,2.892c0.882,0.736,1.96,1.333,3.118,1.358
							c1.653,0.036,1.918-1.151,1.918-1.151s0.813,0.288,1.11,0.409c0.654,0.267,1.326,0.59,1.904,1.002
							c2.799,1.994,1.743,5.237,1.743,5.237c-0.374,0.992-4.624,3.894-12.407,3.031c-0.78-0.259-3.689-1.282-4.457-1.657
							c-2.18-1.065-5.288-1.879-5.798-4.645c-0.143-0.777-0.083-1.575-0.033-2.363c0.179-2.82,0.213-5.712-0.664-8.399
							c-0.589-1.802-1.561-3.441-2.377-5.142C31.407,337.445,30.936,336.504,30.718,335.547z"/>
						<path id="XMLID_00000117672194684185707540000013189221341398165692_" d="M30.903,333.15
							c-1.114,1.058-0.186,3.484,1.259,7.218c0.641,1.656,2.612,4.628,2.224,7.644c-0.388,3.016-0.428,5.869,0.337,7.292
							c1.197,2.226,6.584,4.255,10.411,5.178c0,0-3.473-4.444-3.796-11.114c-0.323-6.67-0.792-10.971-3.812-13.956
							C33.708,331.639,30.903,333.15,30.903,333.15z"/>
					</g>
				</g>
				<g>
					<path id="XMLID_00000003804577334100642530000007466038240328679811_" style="fill:#37474F;" d="M54.334,327.457
						c0,0,7.832-13.336,19.588-33.577c2.554-4.398,2.945-6.036,3.724-9.286c0.811-3.386,1.429-5.869,1.429-5.869l1.931,23.304
						c-0.643,2.968-1.575,7.495-1.622,10.948c-0.058,4.589,0.143,11.364,1.35,20.82c1.846,14.46,2.784,22.211,2.784,22.211
						c1.013,0.738,2.502,1.923,9.62,1.893c3.543-0.015,7.281-1.95,7.281-1.95s1.83-15.021,2.695-25.476
						c1.234-14.914,1.821-20.075,2.286-25.903c0.875-10.95,2.147-16.164,2.419-33.423c0.282-17.901-0.835-44.246-0.835-44.246
						l-48.37-15.128c0,0-5.481,9.131-2.698,25.773c-0.536,15.057-1.348,43.06-1.348,43.06c-2.522,3.488-5.29,8.743-7.722,17.305
						c-2.703,9.515-4.344,15.038-6.488,21.983C44.454,319.838,52.861,324.582,54.334,327.457z"/>
					<path style="fill:#263238;" d="M77.809,262.113c-0.394,1.702-0.777,3.332-1.149,4.901c-2.626,11.036-4.896,19.011-7.777,24.56
						c-3.474,6.698-14.266,24.918-18.592,32.179c0.264,0.166,0.497,0.331,0.731,0.497c4.306-7.231,15.15-25.532,18.644-32.27
						c2.746-5.275,4.919-12.658,7.341-22.695c0.34-1.375,0.68-2.792,1.02-4.269L77.809,262.113z"/>
					<path style="fill:#263238;" d="M101.108,226.849l0.884,0.008c0.471,7.629,0.671,17.14,0.65,27.816
						c1.805-0.843,3.732-2.651,5.014-6.346c0.016,0.718,0.032,1.443,0.046,2.173c-1.432,2.936-3.32,4.418-5.062,5.127
						c-0.093,30.321-3.934,69.692-6.316,101.832c-0.293,0.073-0.594,0.139-0.9,0.198
						C98.688,313.754,102.931,256.225,101.108,226.849z"/>
					<path id="XMLID_00000086669673918665653400000001085589187985811391_" style="opacity:0.2;" d="M79.075,278.725l-2.449-32.03
						c0,0-6.386-2.195-10.999-9.546c0,0,0.207,7.033,8.029,10.413l4.706,30.484l-0.264,4.701
						C78.098,282.749,79.021,279.102,79.075,278.725z"/>
				</g>
			</g>
			<g id="Top_00000031171817791185346550000017616759861393527225_">
				<g>
					<path style="fill:#263238;" d="M81.616,114.09c0.886-0.845,1.868-1.591,2.981-2.112c0.859-0.402,1.776-0.664,2.699-0.881
						c2.853-0.672,5.853-0.935,8.714-0.296c2.861,0.64,5.576,2.257,7.14,4.736c0.533,0.845,0.937,1.788,1.642,2.496
						c1.26,1.264,3.18,1.508,4.857,2.12c1.446,0.527,2.803,1.396,3.697,2.65c0.894,1.253,1.272,2.92,0.782,4.379
						c-0.334,0.994-1.026,1.819-1.545,2.73c-0.519,0.911-0.866,2.038-0.442,2.996c0.424,0.959,1.904,1.408,2.548,0.582
						c-0.98,1.257-2.556,1.833-4.132,1.782c0.696,1.097,0.875,2.508,0.473,3.743s-1.375,2.273-2.583,2.751
						c-0.165,0.065-0.34,0.124-0.465,0.25c-0.228,0.23-0.217,0.595-0.225,0.919c-0.094,3.704-4.338,4.731-7.161,5.721
						c-2.736,0.959-6.409,2.057-8.296,4.41c-0.877,1.094-1.498,1.584-2.965,1.905c-1.535,0.336-3.141,0.286-4.69,0.082
						c-1.243-0.164-2.488-0.424-3.615-0.973c-1.212-0.591-1.658-1.503-2.572-2.351c-0.744-0.691-2.755-0.386-3.689-0.694
						c-3.613-1.196-5.256-4.818-5.312-8.623c-0.668,1.367-0.664,3.044,0.011,4.408c-1.733-1.54-2.588-4.009-2.178-6.291
						c0.279-1.557,1.089-2.967,1.516-4.49c1.231-4.392-0.767-9.45,1.364-13.483c1.527-2.888,4.916-4.894,8.064-5.437
						c1.33-0.229,1.936-1.552,2.841-2.491C81.253,114.444,81.433,114.265,81.616,114.09z"/>
					<g>
						<path style="fill:#FFA8A7;" d="M75.033,157.829c0,0,1.369-8.958,1.345-9.151c-0.391-3.122-5.01-9.52-5.008-16.762
							c0.001-7.242,8.084-16.335,18.937-15.66c8.409,0.523,12.629,5.057,14.47,11.458c1.121,3.9,0.061,5.548,0.445,7.773
							c0.757,4.383,1.956,8.699-0.995,15.24c-1.165,2.583-3.8,4.355-6.241,4.783c-2.44,0.428-5.424-0.18-5.424-0.18l-0.714,7.332
							L75.033,157.829z"/>
						<path style="fill:#B16668;" d="M98.913,146.169c-0.419,1.161-1.701,1.763-2.862,1.344c-1.161-0.419-1.763-1.701-1.344-2.862
							L98.913,146.169z"/>
						<path style="fill:#F28F8F;" d="M97.135,147.611c-0.344-1.145-1.323-2.029-2.553-2.212c-0.004,0.919,0.555,1.783,1.468,2.113
							C96.411,147.643,96.781,147.664,97.135,147.611z"/>
						<g>
							<g id="XMLID_00000003067439094057998580000012262292610932949913_">
								<path id="XMLID_00000054947622805254766400000012314156570817067650_" style="fill:#263238;" d="M94.951,136.529
									c0.183,0.746-0.252,1.493-0.97,1.667c-0.719,0.174-1.45-0.29-1.633-1.036c-0.183-0.747,0.252-1.493,0.971-1.667
									C94.037,135.318,94.768,135.782,94.951,136.529z"/>
								<path id="XMLID_00000132792697626588686580000004733941821090810787_" style="fill:#263238;" d="M94.197,132.4l-2.678,1.88
									c-0.509-0.773-0.321-1.82,0.418-2.339C92.676,131.422,93.688,131.628,94.197,132.4z"/>
								<path id="XMLID_00000149380309656769299030000004808577441309260469_" style="fill:#263238;" d="M104.99,133.004
									l-3.165-0.924c0.224-0.89,1.114-1.406,1.988-1.15C104.687,131.184,105.214,132.113,104.99,133.004z"/>
								<path id="XMLID_00000176740812762072911160000004302171068047823253_" style="fill:#263238;" d="M104.458,136.101
									c-0.05,0.704-0.639,1.234-1.317,1.184c-0.677-0.05-1.186-0.661-1.136-1.365c0.05-0.704,0.639-1.234,1.317-1.184
									C103.999,134.786,104.508,135.397,104.458,136.101z"/>
								<polygon style="fill:#F28F8F;" points="105.043,141.779 100.67,143.466 98.988,134.661 								"/>
							</g>
						</g>
						<path style="fill:#F28F8F;" d="M92.562,155.33c0,0-3.896-1.258-5.128-2.072c-3.347-2.211-5.658-5.707-6.29-7.93
							c-0.048,2.326,1.938,6.218,4.763,8.847c2.099,1.953,6.473,3.018,6.473,3.018L92.562,155.33z"/>
						<path style="fill:#263238;" d="M80.572,143.048c-0.032,1.338-0.83,3.005-1.99,4.632c-0.986,1.384-2.826,2.839-2.826,2.839
							c-1.799-3.951-2.226-6.738-3.143-9.223c-1.127-3.055-1.61-6.398-1.531-9.646c0.069-2.833,1.357-5.893,3.003-8.178
							c1.585-2.202,3.638-4.071,5.998-5.414c1.26-0.718,2.607-1.291,4.012-1.653c1.845-0.475,3.765-0.581,5.669-0.573
							c1.212,0.006,2.428,0.057,3.622,0.266c4.668,0.816,10.043,5.165,10.862,10.011c-0.662-1.252-1.827-2.347-3.247-1.742
							c-1.588,0.676-2.868,1.941-4.532,2.462c-2.196,0.688-6.337-0.066-8.308-1.254c0.469,1.554,0.976,3.465,0.441,5.037
							c-0.479,1.407-1.35,2.687-2.541,3.585c-0.445,0.336-0.86,0.62-0.986,1.18c-0.139,0.616-0.12,1.219-0.368,1.836
							c-0.175,0.436-0.413,0.86-0.777,1.157c-0.364,0.297-0.873,0.446-1.317,0.292c-0.167-0.058-0.325-0.162-0.411-0.317
							c-0.068-0.121-0.087-0.263-0.099-0.401c-0.037-0.433-0.012-0.87-0.044-1.304c-0.045-0.602-0.206-1.206-0.542-1.707
							c-1.136-1.692-3.935-2.072-5.373-0.582c-1.571,1.628-2.107,3.655-0.66,6.73C76.479,143.192,78.891,144.457,80.572,143.048z"/>
					</g>
				</g>
				<g>
					<g>
						<path id="XMLID_00000136377304577637707300000014559906125986254761_" style="fill:#F0F0F0;" d="M60.124,167.423
							c0.779-4.708,3.715-9.585,6.67-11.208c3.106-1.706,5.242-1.617,15.921,1.144c7.097,1.835,17.097,5.242,17.097,5.242
							c2.801,1.469,4.983,3.705,10.299,13.509c4.288,7.91,3.304,16.37-3.241,19.887c0.127,5.543-1.008,8.789-0.756,11.575
							c1.06,11.733,1.383,23.078,1.383,23.078s-16.452,5.607-31.718,1.13c-14.786-4.336-18.848-10.07-20.434-12.368
							c0,0,1.066-3.807,3.18-9.808c2.269-6.444,3.679-10.709,2.977-16.105C60.241,183.829,58.849,175.125,60.124,167.423z"/>
					</g>
				</g>
			</g>
		</g>
		<g id="Character_2_">
			<g id="Bottom_00000165933486834098162630000017056795690615497917_">
				<g id="XMLID_00000107579003941604621010000003826881740127181952_">
					<g>
						<path style="fill:#37474F;" d="M154.288,386.88c0.65-0.027,0.48,1.889,0.215,2.703c-0.265,0.813-3.037,3.446-7.775,4.191
							c-4.738,0.745-11.172-0.452-13.945-0.703c-2.774-0.25-7.075,0.882-9.846,1.316c-6.435,1.008-9.889-1.472-11.456-3.117
							c-0.614-0.645-0.629-1.55-0.567-2.325c0.146-1.84,0.334-2.203,0.547-2.177L154.288,386.88z"/>
						<g id="XMLID_00000180360386032601011590000015430864832646696895_">
							<g id="XMLID_00000129174703893098805450000018394103415720782261_">
								<path id="XMLID_00000090987739003984065620000015368855642825980326_" style="fill:#455A64;" d="M112.6,380.908
									c-0.459,1.214-0.884,2.505-1.204,3.763c-0.391,1.539-0.793,3.515,0.198,4.805c1.672,2.177,3.829,2.846,6.119,3.209
									c2.744,0.435,5.48,0.248,8.182-0.477c2.468-0.662,4.449-1.263,7.052-0.986c2.86,0.304,6.784,1.004,9.662,0.85
									c2.458-0.132,4.874-0.295,7.179-1.179c1.946-0.747,3.207-1.81,4.481-3.673c0.317-3.581-1.426-5.385-3.351-6.613
									c-2.034-1.297-4.732-1.737-7.142-1.826c-2.712-0.1-4.774,0.169-7.171-0.105c-1.623-0.186-3.31-0.509-4.731-1.357
									c-0.678-0.404-1.126-1.493-1.414-2.207c-0.351-0.869-0.457-1.636-1.223-1.747c-0.001,0-12.674-0.613-13.829-0.605
									c-1.314,0.009-1.234,1.798-1.336,2.74c-0.088,0.815-0.117,0.829-0.208,1.644c-0.089,0.799-0.508,1.905-0.817,2.644
									C112.89,380.16,112.741,380.533,112.6,380.908z"/>
							</g>
						</g>
						<path style="fill:#FAFAFA;" d="M138.72,378.299c0.187-0.097,0.389-0.166,0.599-0.188c1.108-0.119,1.902,1,2.333,1.868
							c0.264,0.533,0.38,1.093,0.504,1.672c0.151,0.706,0.202,1.458-0.053,2.148c-0.064,0.174-0.211,0.374-0.39,0.322
							c-0.163-0.047-0.197-0.258-0.206-0.428c-0.053-1.007-0.292-2.004-0.701-2.926c-0.182-0.41-0.311-0.755-0.628-1.084
							c-0.302-0.314-0.662-0.572-1.066-0.737c-0.163-0.067-0.901-0.099-0.71-0.413c0.036-0.06,0.095-0.103,0.154-0.14
							C138.612,378.359,138.666,378.327,138.72,378.299z"/>
						<path style="fill:#FAFAFA;" d="M135.538,378.163c0.51-0.027,1.044,0.136,1.441,0.472c0.468,0.397,0.616,0.931,0.801,1.49
							c0.361,1.089,0.606,2.685-0.079,3.702c-0.22,0.326-0.505,0.138-0.608-0.169c-0.114-0.341-0.055-0.792-0.081-1.148
							c-0.069-0.844-0.303-1.677-0.575-2.477c-0.108-0.316-0.227-0.632-0.413-0.91c-0.125-0.186-0.281-0.355-0.469-0.478
							c-0.091-0.06-0.189-0.11-0.294-0.14c-0.095-0.028-0.203-0.035-0.3-0.052c0.005-0.156,0.187-0.236,0.34-0.263
							C135.38,378.176,135.459,378.167,135.538,378.163z"/>
						<path style="fill:#FAFAFA;" d="M132.37,377.107c0.358,0.143,0.684,0.361,0.906,0.673c0.21,0.293,0.315,0.647,0.393,0.998
							c0.176,0.791,0.35,1.619,0.329,2.434c-0.015,0.577-0.149,1.164-0.479,1.637c-0.131,0.188-0.364,0.371-0.568,0.266
							c-0.223-0.115-0.184-0.475-0.194-0.684c-0.019-0.387,0.034-0.784,0.049-1.171c0.055-1.427-0.354-2.821-1.14-4.018
							c-0.039-0.06-0.081-0.13-0.057-0.198c0.035-0.101,0.177-0.103,0.281-0.08C132.053,376.998,132.215,377.045,132.37,377.107z"/>
						<path style="fill:#FAFAFA;" d="M142.088,378.76c1.118,0.033,3.404,1.67,4.391,5.16c0.988,3.49,0.141,7.789,0.141,7.789
							s3.317-0.059,6.357-2.648c0.846-0.72,1.361-1.335,1.651-1.893c0.399-2.238-0.042-4.145-0.922-5.3
							c-1.541-2.022-3.99-3.414-7.944-3.811c-4.436-0.445-4.876,0.721-4.876,0.721L142.088,378.76z"/>
					</g>
					<path id="XMLID_00000072993683339252477240000001099561762065226404_" style="fill:#B16668;" d="M113.058,352.964l1.951,20.983
						c-0.09,1.543,2.425,3.115,7.146,3.399c3.316,0.2,6.36-0.717,6.927-2.357c0.566-1.64,3.214-21.424,3.214-21.424L113.058,352.964
						z"/>
				</g>
				<g id="XMLID_00000053528983880737902940000016744367047495020429_">
					<g>
						<path style="fill:#37474F;" d="M191.21,398.808c0.649-0.036,0.505,1.883,0.25,2.7c-0.255,0.817-2.993,3.486-7.72,4.291
							c-4.728,0.806-11.177-0.308-13.953-0.522c-2.777-0.214-7.063,0.973-9.828,1.443c-6.422,1.091-9.907-1.344-11.496-2.969
							c-0.623-0.637-0.649-1.542-0.597-2.318c0.122-1.842,0.305-2.207,0.519-2.184L191.21,398.808z"/>
						<g id="XMLID_00000032606575846446811490000007049439790115962252_">
							<g id="XMLID_00000031893946371734083520000012446631786266082433_">
								<path id="XMLID_00000103986474420675752600000017401127361528866964_" style="fill:#455A64;" d="M149.448,393.377
									c-0.443,1.22-0.852,2.516-1.155,3.779c-0.371,1.544-0.748,3.525,0.26,4.802c1.7,2.155,3.866,2.796,6.16,3.129
									c2.749,0.399,5.483,0.177,8.175-0.583c2.46-0.694,4.432-1.32,7.039-1.077c2.864,0.267,6.796,0.916,9.672,0.725
									c2.456-0.163,4.87-0.358,7.163-1.272c1.936-0.772,3.183-1.851,4.433-3.73c0.271-3.585-1.495-5.366-3.437-6.569
									c-2.05-1.271-4.754-1.676-7.165-1.733c-2.713-0.065-4.772,0.231-7.171-0.012c-1.626-0.165-3.316-0.466-4.748-1.295
									c-0.683-0.396-1.146-1.479-1.443-2.188c-0.362-0.865-0.478-1.63-1.246-1.731c-0.001,0-12.681-0.449-13.836-0.426
									c-1.313,0.026-1.211,1.814-1.3,2.757c-0.077,0.816-0.107,0.831-0.187,1.646c-0.079,0.8-0.484,1.911-0.783,2.654
									C149.728,392.625,149.585,392.999,149.448,393.377z"/>
							</g>
						</g>
						<g>
							<path style="fill:#37474F;" d="M165.549,387.876c0.011,1.408-2.903,2.975-6.514,3.005s-6.549-1.329-6.562-2.898
								c-0.029-3.611,2.874-6.562,6.485-6.591C162.568,381.362,165.519,384.265,165.549,387.876z"/>
							<path style="fill:#E0E0E0;" d="M160.255,382.945c0.006,0.75-2.564,0.771-2.57,0.021l-0.123-15.039l2.57-0.021
								L160.255,382.945z"/>
						</g>
						<path style="fill:#FAFAFA;" d="M175.533,390.43c0.185-0.099,0.387-0.171,0.597-0.196c1.106-0.133,1.915,0.976,2.357,1.838
							c0.271,0.529,0.394,1.088,0.525,1.665c0.16,0.704,0.221,1.456-0.025,2.148c-0.062,0.175-0.206,0.377-0.386,0.327
							c-0.163-0.045-0.2-0.256-0.211-0.425c-0.066-1.007-0.318-2-0.739-2.917c-0.187-0.407-0.321-0.751-0.642-1.076
							c-0.306-0.31-0.669-0.563-1.075-0.723c-0.164-0.065-0.902-0.087-0.715-0.403c0.036-0.06,0.094-0.104,0.152-0.142
							C175.425,390.49,175.479,390.458,175.533,390.43z"/>
						<path style="fill:#FAFAFA;" d="M172.348,390.335c0.51-0.034,1.046,0.122,1.447,0.454c0.473,0.391,0.628,0.923,0.82,1.479
							c0.375,1.084,0.641,2.677-0.031,3.703c-0.216,0.329-0.503,0.145-0.61-0.161c-0.119-0.339-0.065-0.791-0.096-1.147
							c-0.08-0.843-0.325-1.673-0.607-2.469c-0.112-0.315-0.236-0.629-0.425-0.904c-0.127-0.184-0.286-0.351-0.475-0.472
							c-0.092-0.059-0.19-0.108-0.295-0.136c-0.096-0.026-0.204-0.033-0.301-0.048c0.003-0.156,0.184-0.238,0.337-0.267
							C172.191,390.35,172.27,390.34,172.348,390.335z"/>
						<path style="fill:#FAFAFA;" d="M169.168,389.32c0.36,0.138,0.688,0.352,0.915,0.661c0.213,0.29,0.323,0.643,0.406,0.993
							c0.186,0.788,0.371,1.614,0.361,2.43c-0.007,0.577-0.134,1.166-0.458,1.643c-0.129,0.189-0.359,0.375-0.564,0.273
							c-0.224-0.112-0.19-0.472-0.203-0.681c-0.024-0.387,0.024-0.784,0.034-1.172c0.036-1.428-0.391-2.816-1.191-4.003
							c-0.04-0.059-0.083-0.129-0.06-0.197c0.034-0.101,0.175-0.105,0.28-0.084C168.849,389.214,169.012,389.26,169.168,389.32z"/>
						<path style="fill:#FAFAFA;" d="M178.906,390.847c1.118,0.019,3.425,1.626,4.458,5.103c1.033,3.477,0.242,7.787,0.242,7.787
							s3.316-0.102,6.323-2.73c0.837-0.731,1.344-1.353,1.627-1.915c0.369-2.243-0.096-4.144-0.99-5.287
							c-1.567-2.002-4.034-3.362-7.993-3.708c-4.441-0.387-4.866,0.784-4.866,0.784L178.906,390.847z"/>
					</g>
				</g>
				<path style="fill:#455A64;" d="M112.184,322.706c0.348-3.629,1.599-9.631,2.776-12.618c0,0-0.119-39.91,0.19-51.007
					c0.309-11.097,2.573-21.357,2.573-21.357l55.477,1.066c0,0,0.302,32.146-0.119,53.494c-0.413,20.943-2.514,27.129-4.1,50.387
					c-0.589,8.635-2.255,25.377-2.255,25.377s-3.487,2.422-9.966,1.946c-2.798-0.206-7.219-1.46-8.28-2.309
					c0,0-3.157-13.957-3.852-23.056c-0.278-3.635-0.838-12.4,0.12-17.426l-4.038-27.59c0,0-0.928,12.839-2.015,22.851
					c-1.07,9.86-8.042,43.356-8.042,43.356s-2.564,2.035-9.041,1.642c-4.174-0.254-6.656-1.699-7.636-2.64
					c0,0-0.665-6.432-1.463-16.804C111.678,337.177,111.612,328.665,112.184,322.706z"/>
				<path style="fill:#37474F;" d="M147.046,363.164l1.25,6.351c0,0,3.673,2.767,10.584,2.311c6.91-0.456,8.288-3.064,8.288-3.064
					l0.361-6.383c0,0-3.099,2.201-9.284,2.463C150.822,365.157,147.046,363.164,147.046,363.164z"/>
				<path id="XMLID_00000149365534698156641460000014835241217359214774_" style="fill:#37474F;" d="M140.708,299.612l-2.691-31.96
					c0,0-6.321-0.916-14.482-8.492c0,0,0.402,5.738,11.384,10.954l3.245,28.337l1.324,16.246
					C140.262,308.801,140.469,304.345,140.708,299.612z"/>
				<path style="fill:#37474F;" d="M113.17,358.814l0.546,6.494c0,0,2.535,2.818,9.46,2.789c6.925-0.029,7.918-2.241,7.918-2.241
					l1.297-6.655c0,0-3.229,2.006-9.418,1.886C115.546,360.943,113.17,358.814,113.17,358.814z"/>
			</g>
			<g id="Top_00000131355673130893227080000002479395437376616848_">
				<path style="fill:#B16668;" d="M60.346,184.818c0.178-1.042,1.174-1.131,2.028-1.116c1.506,0.027,3.338,1.022,4.454,2.042
					c1.293,1.183,2.834,2.04,3.991,3.375c1.048,1.209,2.668,1.995,4.134,2.59c1.025,0.417,2.377,0.425,1.866-1.026
					c-0.602-1.709-1.997-3.579-1.522-5.531c0.328-1.35,1.378-1.34,2.191-0.471c1.363,1.456,2.751,2.723,4.315,3.969
					c1.556,1.24,1.199,0.633,2.717,1.915c0.789,0.666,1.53,1.447,2.233,2.222c1.967,2.168,4.853,2.857,7.515,3.303
					c1.823,0.306,9.9,1.507,9.9,1.507s10.303-22.076,13.689-27.757c3.556-5.968,7.984-7.333,14.939-6.246l-3.955,24.669
					c0,0-7.831,14.853-11.767,20.035c-3.936,5.182-3.477,6.713-13.024,4.564c-5.284-1.19-14.562-5.18-19.668-6.971
					c-2.362-0.829-4.674-1.445-7.107-2.107c-2.536-0.69-4.803-2.034-7.227-3.078c-1.119-0.482-2.131-1.403-2.847-2.411
					c-0.471-0.663-0.463-1.504-0.906-2.134c-0.458-0.652-1.267-0.842-1.603-1.691c-0.373-0.945-0.02-1.967-0.415-2.799
					c-0.413-0.87-1.05-1.628-1.372-2.583c-0.29-0.86-0.384-1.487-1.011-2.175C61.382,186.351,60.187,185.747,60.346,184.818z"/>
				<path style="fill:#F0F0F0;" d="M133.964,162.969c-6.697-0.7-11.229-0.648-14.956,4.132c-3.727,4.78-11.44,21.797-11.44,21.797
					s0.818,3.312,5.51,6.472c4.692,3.16,9.322,2.731,9.322,2.731l9.927-21.528L133.964,162.969z"/>
				<path style="fill:#37474F;" d="M169.598,174.544c-3.473-2.058-11.343-5.212-18.58-7.424c-5.788-1.71-9.142-2.786-15.066-3.89
					c-5.229-0.975-8.888,0.021-12.399,3.561c-2.774,2.797-5.237,9.464-5.587,17.011c-0.425,9.192,1.198,20.562,1.363,28.284
					c0.165,7.722-2.931,29.814-2.931,29.814c10.032,11.445,40.415,14.837,57.122,8.513c0,0,0.146-18.135-0.372-25.654
					c-0.702-10.181-0.353-31.692-0.881-36.711C171.432,180.109,169.598,174.544,169.598,174.544z"/>
				<g>
					<path id="XMLID_585_" style="fill:#B16668;" d="M155.59,160.486l-1.639,8.087c-6.369,2.913-15.426-0.797-16.21-3.369
						l1.358-8.27L155.59,160.486z"/>
					<g id="XMLID_571_">
						<g id="XMLID_577_">
							<path id="XMLID_584_" style="fill:#9A4A4D;" d="M171.015,140.818l3.096,8.564l-3.75,1.412
								C170.09,146.908,169.241,142.044,171.015,140.818z"/>
						</g>
						<g id="XMLID_572_">
							<path id="XMLID_573_" style="fill:#B16668;" d="M166.716,128.362c7.472,2.112,3.861,13.348,4.042,18.116
								c0.292,12.495-3.975,16.872-5.824,18.145c-3.851,1.199-7.46,0.825-12.04-1.36c-3.491-1.665-12.272-6.219-15.062-12.748
								c-3.281-7.681-2.491-18.25,3.136-21.157C148.887,125.267,163.819,127.544,166.716,128.362z"/>
						</g>
						<path style="fill:#9A4A4D;" d="M168.841,155.845c-0.066-0.014-0.133-0.027-0.2-0.042c-0.008-0.002-0.091-0.023-0.051-0.012
							s-0.043-0.013-0.05-0.015c-0.129-0.038-0.256-0.083-0.38-0.135c-0.232-0.096-0.447-0.218-0.653-0.362
							c-0.252-0.176-0.465-0.373-0.693-0.58c-0.11-0.1-0.21-0.215-0.323-0.311c-0.069-0.059-0.202-0.175-0.308-0.15
							c-0.05,0.012-0.064,0.09-0.087,0.096c-0.018,0.005,0.087,0.581,0.104,0.614c0.016,0.03,0.034,0.058,0.051,0.087
							c0.039,0.064,0.078,0.126,0.126,0.184c0.085,0.101,0.175,0.197,0.269,0.289c0.206,0.201,0.427,0.382,0.672,0.533
							c0.474,0.293,1.015,0.521,1.568,0.608c0.214,0.033,0.435-0.103,0.423-0.336C169.298,156.063,169.065,155.894,168.841,155.845z
							"/>
						<path style="fill:#9A4A4D;" d="M164.934,164.624c-1.024,0.704-7.223,1.077-10.213,0.154l0.441-2.304
							C155.792,163.199,161.302,165.312,164.934,164.624z"/>
					</g>
					<g id="XMLID_344_">
						<g id="XMLID_566_">
							<g id="XMLID_569_">
								<path id="XMLID_570_" style="fill:#263238;" d="M166.822,138.741c-0.943-0.12-1.837-0.507-2.706-0.904
									c0.229,0.104-0.102,1.331-0.164,1.506c-0.201,0.571-0.544,0.996-0.96,1.421c-0.809,0.825-1.952,1.05-3.083,0.781
									c0.174,0.894,0.258,1.805,0.25,2.716c-0.005,0.549-0.064,1.148-0.445,1.543c-0.325,0.337-0.86,0.45-1.293,0.274
									c-0.857-0.347-0.729-1.484-1.105-2.197c-0.385-0.732-1.009-1.327-1.742-1.705c-1.504-0.777-3.375-0.559-4.494,0.768
									c-1.468,1.74-2.124,4.961-1.202,7.09c1.96,4.526,4.943,2.667,4.943,2.667c-0.019,1.434-0.344,2.913-0.952,4.211
									c-0.462,0.987-1.242,2.246-2.256,2.752c-6.499,0.341-10.957-1.059-13.431-3.507c-1.47-3.433-3.704-7.334-4.274-11.025
									c-0.485-3.143-0.898-6.324-0.669-9.496c0.229-3.172,1.142-6.365,3.08-8.887c1.695-2.207,3.983-3.597,6.715-4.003
									c0.232-0.034,0.788-1.305,0.966-1.568c0.373-0.55,0.83-1.047,1.337-1.475c1.017-0.859,2.261-1.453,3.576-1.673
									c2.139-0.358,4.423,0.28,6.067,1.695c1.796-1.62,4.375-2.327,6.746-1.851c2.371,0.476,4.477,2.124,5.509,4.312
									c1.774-1.141,4.277-0.869,5.888,0.493c1.74,1.471,2.084,3.574,1.926,5.713c1.667,0.272,2.163,2.53,1.901,3.987
									c-0.206,1.142-0.809,2.175-1.51,3.1c-0.45,0.594-0.952,1.167-1.217,1.864c-0.265,0.696-0.236,1.567,0.293,2.091
									c-1.698,0.575-3.747-0.173-4.675-1.707c-0.642,0.809-1.757,1.122-2.787,1.042
									C166.977,138.759,166.9,138.751,166.822,138.741z"/>
							</g>
						</g>
					</g>
				</g>
			</g>
		</g>
		<g id="Character_00000016759327490985158310000003004247202881265575_">
			<g id="Bottom">
				<g id="XMLID_00000166667497853102834560000005692242543334980497_">
					<g>
						<path style="fill:#37474F;" d="M415.264,332.586c-0.632-0.048-0.529,1.824-0.297,2.624c0.231,0.8,2.844,3.454,7.432,4.334
							c4.587,0.88,10.89-0.075,13.598-0.228c2.708-0.153,6.858,1.09,9.541,1.603c6.232,1.192,9.675-1.11,11.254-2.66
							c0.619-0.608,0.663-1.488,0.628-2.245c-0.082-1.796-0.253-2.155-0.461-2.137L415.264,332.586z"/>
						<g id="XMLID_00000017518876154852548800000016037196747595275946_">
							<g id="XMLID_00000012440770377529019210000011359879049494114195_">
								<path id="XMLID_00000001643899754417243760000015738686330532778941_" style="fill:#455A64;" d="M456.04,328.135
									c0.407,1.197,0.779,2.467,1.049,3.703c0.33,1.51,0.657,3.448-0.349,4.671c-1.698,2.064-3.821,2.645-6.061,2.923
									c-2.685,0.334-5.343,0.062-7.949-0.731c-2.381-0.725-4.289-1.375-6.832-1.19c-2.794,0.202-6.637,0.756-9.433,0.512
									c-2.388-0.208-4.735-0.447-6.949-1.383c-1.87-0.791-3.062-1.866-4.242-3.721c-0.192-3.497,1.564-5.196,3.478-6.328
									c2.022-1.196,4.663-1.536,7.012-1.544c2.643-0.009,4.642,0.321,6.983,0.132c1.586-0.128,3.238-0.387,4.65-1.166
									c0.673-0.371,1.145-1.417,1.449-2.102c0.37-0.835,0.498-1.577,1.248-1.661c0.001,0,12.357-0.183,13.481-0.137
									c1.278,0.052,1.143,1.79,1.211,2.711c0.059,0.796,0.087,0.811,0.149,1.607c0.06,0.78,0.433,1.871,0.709,2.6
									C455.782,327.397,455.914,327.765,456.04,328.135z"/>
							</g>
						</g>
						<path style="fill:#FAFAFA;" d="M430.699,324.742c-0.178-0.101-0.374-0.174-0.577-0.203c-1.074-0.152-1.884,0.912-2.332,1.742
							c-0.275,0.51-0.406,1.051-0.545,1.611c-0.17,0.682-0.244,1.413-0.018,2.092c0.057,0.172,0.193,0.371,0.369,0.326
							c0.16-0.041,0.2-0.245,0.214-0.409c0.084-0.979,0.35-1.941,0.778-2.826c0.191-0.393,0.327-0.725,0.646-1.035
							c0.304-0.295,0.663-0.535,1.061-0.683c0.161-0.06,0.88-0.067,0.705-0.378c-0.033-0.059-0.089-0.103-0.146-0.141
							C430.802,324.804,430.75,324.771,430.699,324.742z"/>
						<path style="fill:#FAFAFA;" d="M433.801,324.714c-0.496-0.043-1.021,0.098-1.418,0.413c-0.469,0.371-0.63,0.887-0.828,1.424
							c-0.387,1.048-0.678,2.594-0.044,3.607c0.203,0.325,0.487,0.151,0.597-0.145c0.122-0.328,0.079-0.769,0.116-1.115
							c0.095-0.819,0.35-1.623,0.64-2.392c0.115-0.304,0.242-0.608,0.432-0.872c0.128-0.177,0.285-0.336,0.472-0.45
							c0.091-0.056,0.187-0.101,0.29-0.127c0.094-0.024,0.199-0.028,0.294-0.041c0-0.152-0.174-0.236-0.323-0.267
							C433.954,324.732,433.878,324.72,433.801,324.714z"/>
						<path style="fill:#FAFAFA;" d="M436.919,323.789c-0.354,0.127-0.677,0.329-0.904,0.625c-0.214,0.278-0.328,0.62-0.415,0.959
							c-0.197,0.764-0.393,1.564-0.4,2.359c-0.004,0.562,0.107,1.138,0.413,1.609c0.121,0.187,0.343,0.373,0.544,0.277
							c0.221-0.104,0.194-0.456,0.211-0.66c0.031-0.376-0.008-0.764-0.009-1.142c-0.007-1.391,0.437-2.735,1.241-3.875
							c0.04-0.057,0.083-0.124,0.062-0.191c-0.031-0.1-0.169-0.106-0.271-0.087C437.231,323.693,437.072,323.734,436.919,323.789z"
							/>
						<path style="fill:#FAFAFA;" d="M427.406,325.081c-1.089-0.004-3.368,1.515-4.443,4.88c-1.076,3.365-0.392,7.578-0.392,7.578
							s-3.227-0.166-6.102-2.785c-0.8-0.729-1.281-1.344-1.546-1.897c-0.315-2.191,0.176-4.034,1.07-5.129
							c1.566-1.918,3.995-3.193,7.858-3.45c4.333-0.288,4.723,0.861,4.723,0.861L427.406,325.081z"/>
					</g>
					<path id="XMLID_00000154402855230157805190000006339620548353614779_" style="fill:#FFA8A7;" d="M454.889,300.374
						c-0.101,6.892-0.701,21.044-0.701,21.044c-1.78,2.565-6.464,3.108-9.34,2.871c-2.671-0.881-4.102,1.143-5.966,2.49
						c2.959-6.994-2.329-18.11-2.737-26.028L454.889,300.374z"/>
				</g>
				<g id="XMLID_00000152253558655343568910000013735519398665397432_">
					<g>
						<path style="fill:#37474F;" d="M384.027,362.925c-0.629-0.07-0.594,1.803-0.391,2.612c0.203,0.808,2.719,3.553,7.272,4.596
							c4.553,1.043,10.886,0.314,13.598,0.257c2.712-0.056,6.815,1.334,9.478,1.942c6.185,1.413,9.708-0.763,11.341-2.256
							c0.641-0.585,0.716-1.463,0.708-2.221c-0.018-1.797-0.176-2.163-0.385-2.152L384.027,362.925z"/>
						<g id="XMLID_00000181794404625231801960000016176540843989867197_">
							<g id="XMLID_00000175322778858050682180000012293708344241557688_">
								<path id="XMLID_00000026850648963333945260000006027940097646652582_" style="fill:#455A64;" d="M424.936,359.933
									c0.364,1.211,0.69,2.494,0.916,3.738c0.276,1.521,0.534,3.469-0.516,4.656c-1.771,2.002-3.913,2.507-6.162,2.705
									c-2.695,0.237-5.341-0.128-7.917-1.015c-2.354-0.81-4.238-1.527-6.786-1.434c-2.799,0.102-6.659,0.518-9.445,0.175
									c-2.379-0.293-4.716-0.615-6.896-1.63c-1.841-0.857-2.994-1.974-4.107-3.871c-0.067-3.501,1.748-5.136,3.702-6.2
									c2.064-1.123,4.715-1.369,7.063-1.293c2.642,0.086,4.627,0.486,6.974,0.381c1.59-0.071,3.25-0.271,4.688-0.999
									c0.686-0.347,1.195-1.375,1.523-2.049c0.4-0.821,0.554-1.558,1.306-1.615c0,0,12.356,0.259,13.478,0.345
									c1.276,0.098,1.078,1.83,1.113,2.753c0.03,0.798,0.058,0.814,0.091,1.611c0.033,0.782,0.366,1.885,0.616,2.624
									C424.705,359.186,424.824,359.559,424.936,359.933z"/>
							</g>
						</g>
						<path style="fill:#FAFAFA;" d="M399.732,355.637c-0.175-0.107-0.367-0.188-0.57-0.223c-1.068-0.19-1.915,0.844-2.393,1.658
							c-0.293,0.5-0.443,1.036-0.602,1.591c-0.194,0.676-0.294,1.403-0.093,2.09c0.051,0.174,0.18,0.378,0.357,0.339
							c0.161-0.035,0.209-0.238,0.229-0.402c0.119-0.975,0.419-1.928,0.878-2.796c0.204-0.386,0.353-0.712,0.683-1.011
							c0.315-0.284,0.682-0.511,1.085-0.645c0.163-0.054,0.882-0.036,0.718-0.353c-0.031-0.061-0.085-0.106-0.141-0.146
							C399.833,355.702,399.783,355.668,399.732,355.637z"/>
						<path style="fill:#FAFAFA;" d="M402.833,355.72c-0.494-0.061-1.024,0.062-1.432,0.362c-0.482,0.354-0.661,0.863-0.879,1.394
							c-0.424,1.034-0.77,2.568-0.173,3.603c0.192,0.332,0.482,0.168,0.602-0.124c0.134-0.324,0.107-0.766,0.156-1.11
							c0.124-0.816,0.407-1.609,0.725-2.368c0.126-0.3,0.263-0.599,0.463-0.856c0.134-0.172,0.297-0.326,0.488-0.433
							c0.093-0.052,0.191-0.094,0.295-0.116c0.094-0.02,0.2-0.02,0.295-0.031c0.005-0.152-0.166-0.242-0.313-0.278
							C402.986,355.743,402.91,355.729,402.833,355.72z"/>
						<path style="fill:#FAFAFA;" d="M405.982,354.907c-0.358,0.115-0.689,0.305-0.926,0.592c-0.223,0.271-0.349,0.607-0.449,0.944
							c-0.224,0.756-0.449,1.549-0.484,2.343c-0.025,0.561,0.066,1.141,0.355,1.623c0.115,0.191,0.329,0.385,0.534,0.296
							c0.224-0.096,0.21-0.449,0.235-0.652c0.044-0.375,0.02-0.764,0.032-1.141c0.043-1.391,0.534-2.717,1.378-3.828
							c0.042-0.056,0.087-0.121,0.069-0.189c-0.027-0.1-0.165-0.112-0.268-0.097C406.298,354.822,406.137,354.857,405.982,354.907z"
							/>
						<path style="fill:#FAFAFA;" d="M396.429,355.858c-1.088-0.043-3.42,1.393-4.615,4.718c-1.195,3.324-0.662,7.559-0.662,7.559
							s-3.219-0.281-5.999-3.002c-0.773-0.757-1.232-1.389-1.477-1.951c-0.236-2.201,0.32-4.025,1.253-5.087
							c1.633-1.861,4.107-3.049,7.976-3.167c4.34-0.133,4.689,1.029,4.689,1.029L396.429,355.858z"/>
					</g>
					<path id="XMLID_00000047779176203587972550000014873439368268005037_" style="fill:#FFA8A7;" d="M425.202,332.071
						c0,0-1.674,21.456-1.682,21.552c-0.092,1.177-2.187,1.937-3.09,2.202c-1.858,0.545-3.789,0.841-5.725,0.878
						c-0.718,0.014-1.442-0.008-2.147,0.128c-1.419,0.273-2.636,1.151-3.802,2.006c-0.002-0.636,0.337-1.215,0.566-1.808
						c0.331-0.857,0.437-1.798,0.316-2.709c-0.093-0.7-0.475-1.224-0.603-1.895c-0.144-0.751-0.196-1.532-0.283-2.291
						c-0.254-2.207-0.481-4.417-0.704-6.628c-0.379-3.748-0.74-7.498-1.09-11.249c-0.011-0.119-0.022-0.238-0.033-0.357
						L425.202,332.071z"/>
				</g>
				<path style="fill:#37474F;" d="M455.193,265.799c0,0,0.439-26.574,0.274-37.386c-0.165-10.811-2.945-22.506-2.945-22.506
					l-52.151,2.568c0,0,0.403,26.326,1.13,47.11c0.834,23.833,1.383,32.183,2.825,52.664c0.592,8.409,3.571,37.695,3.571,37.695
					s2.454,2.421,8.78,2.553c4.317,0.09,7.351-1.579,8.394-2.392c0,0,2.622-26.341,3.41-35.195
					c0.315-3.537-0.212-10.227-1.083-15.133l2.565-33.523c0,0,1.514,11.259,4.791,31.528c1.345,8.322,3.941,22.595,3.941,22.595
					s3.305,2.028,9.582,1.232c4.436-0.562,5.508-1.396,6.474-2.301C454.749,315.31,457.943,281.452,455.193,265.799z"/>
				<path id="XMLID_00000069362457065811633090000010178444993189411238_" style="fill:#263238;" d="M429.961,262.256l3.675-25.633
					c0,0,6.167-0.815,14.207-8.093c0,0-0.462,5.583-11.22,10.529l-4.17,22.098l-0.398,15.459
					C431.29,271.581,430.584,266.765,429.961,262.256z"/>
			</g>
			<g id="Top_18_">
				<g>
					<path style="fill:#FFBDA7;" d="M435.52,149.703l-2.346-11.879c0.591-2.684,3.504-9.23,3.125-16.679
						c-0.379-7.449-11.659-17.631-20.126-15.734c-8.467,1.897-12.477,7.172-14.036,13.852c-0.95,4.07,0.189,4.486-0.091,6.795
						c-0.55,4.548-0.871,10.717,1.725,16.401c1.329,2.911,3.837,4.139,6.38,4.342c3.09,0.248,5.57-0.468,5.57-0.468
						s0.659,3.762,0.714,5.733c0.07,2.51-2.185,2.843-2.185,2.843L435.52,149.703z"/>
					<path style="fill:#B16668;" d="M408.522,137.44c0.454,1.083,1.701,1.593,2.784,1.139c1.083-0.454,1.593-1.701,1.139-2.784
						L408.522,137.44z"/>
					<path style="fill:#F28F8F;" d="M410.281,138.725c0.272-1.104,1.159-1.991,2.319-2.224c0.048,0.873-0.441,1.721-1.293,2.078
						C410.97,138.719,410.62,138.758,410.281,138.725z"/>
					<g>
						<g id="XMLID_00000066487314095291281910000014616686087297738673_">
							<path id="XMLID_00000082349758475849054080000004180326495058185625_" style="fill:#263238;" d="M411.916,127.255
								c-0.149,0.777,0.337,1.522,1.085,1.664c0.749,0.142,1.476-0.374,1.625-1.151c0.149-0.777-0.337-1.522-1.085-1.664
								C412.793,125.962,412.065,126.477,411.916,127.255z"/>
							<path id="XMLID_00000086685257491478976370000003590098535520153990_" style="fill:#B16668;" d="M412.517,122.859
								l3.105,1.309c0.344-0.889-0.073-1.903-0.931-2.264C413.833,121.543,412.86,121.97,412.517,122.859z"/>
							<path id="XMLID_00000141436452784683223060000016577226536165370762_" style="fill:#B16668;" d="M401.883,123.805
								l2.998-1.596c-0.413-0.851-1.419-1.184-2.246-0.743C401.807,121.907,401.47,122.954,401.883,123.805z"/>
							<path id="XMLID_00000067959287560808016970000008085004268350598070_" style="fill:#263238;" d="M402.509,126.866
								c0.088,0.721,0.722,1.236,1.416,1.149c0.694-0.087,1.185-0.741,1.097-1.463c-0.088-0.721-0.722-1.236-1.416-1.15
								C402.913,125.489,402.421,126.144,402.509,126.866z"/>
							<path style="fill:#F0997A;" d="M403.24,133.103l5.146,1.618l0.42-9.778C406.912,124.5,405.07,129.181,403.24,133.103z"/>
						</g>
					</g>
					<path style="fill:#F0997A;" d="M415.72,146.334c0,0,4.553-1.238,5.778-2.139c3.327-2.449,4.44-4.177,4.974-6.497
						c-0.232,2.61-1.094,5.524-4.414,7.71c-2.071,1.363-6.035,2.636-6.035,2.636L415.72,146.334z"/>
					<path style="fill:#B16668;" d="M437.964,117.108c-0.382-1.51-1.57-3.328-2.794-4.013c-0.229-0.142-0.46-0.232-0.685-0.272
						c0.295-7-5.328-9.179-8.122-9.314c-1.069-0.051-2.836-0.115-3.89-0.344c-0.361-0.075-0.676-0.199-0.95-0.343
						c-0.923-0.493-1.485-1.285-2.53-1.881c-2.334-1.332-5.747-0.735-6.558,2.103c-1.663-1.492-3.48-1.103-5.483-0.179
						c-1.252,0.579-1.962,1.586-2.145,2.722c-0.091,0.604-0.046,1.237,0.145,1.86c-2.795-0.949-4.873,0.967-5.217,2.598
						c-0.045,0.181-0.061,0.359-0.056,0.527c0.001,0.198,0.022,0.379,0.044,0.567c0.11,0.999,0.35,1.865-0.15,2.914
						c-0.112,0.233-0.25,0.433-0.406,0.597c-0.8,0.871-2.081,0.955-2.667,0.202c0.033,1.785,0.95,2.983,2.819,2.537
						c-0.477,1.06-0.417,2.322,0.127,3.402c0.479,0.963,1.392,1.553,2.314,1.789c-0.048-0.786,0.017-1.798,0.375-3.314
						c0.181-0.769,0.394-1.52,0.638-2.252c1.134,0.351,2.471,0.561,4.017,0.622c7.285,0.283,12.653-2.149,14.335-3.123
						c-0.532,1.595-0.854,3.598-0.979,5.167c-0.125,1.562,0.808,3.396,1.788,4.124c0.545,0.402,0.465,1.25,0.404,1.838
						c-0.078,0.757-0.314,1.456-0.169,2.214c0.021,0.108,0.046,0.217,0.099,0.314c0.352,0.643,1.329,0.993,1.882,0.404
						c0.489-0.521,0.764-1.25,0.993-1.912c1.286-3.729,4.95-4.253,6.654-2.664c1.705,1.597,1.853,3.427,0.792,6.763
						c-0.713,2.239-2.803,3.547-4.526,3.052c-0.304-0.089-0.592-0.231-0.865-0.434c0.109,1.373,0.682,3.15,2.212,4.004
						c1.476,0.832,3.31,0.575,3.764,0.443c0.281-1.294,1.098-3.457,1.826-6.197c0.607-1.391,1.233-2.747,1.707-4.02
						c0.006-0.015,0.012-0.023,0.011-0.031c0.165-0.408,0.301-0.813,0.417-1.2C438.2,122.822,438.72,120.121,437.964,117.108z"/>
				</g>
				<path style="fill:#37474F;" d="M435.146,147.813c7.161-2.98,13.092,0.519,14.943,4.757c3.121,7.148,2.767,21.484,2.767,21.484
					l-17.337-24.351L435.146,147.813z"/>
				<g>
					<path style="fill:#455A64;" d="M444.117,149.076c4.644,2.185,7.897,11.826,8.411,18.799c0.4,5.421,0.657,8.673,0.047,18.832
						c-0.192,3.201-0.339,7.626,0.08,13.89c0.32,4.792,1.132,12.36,1.132,12.36s-6.622,9.992-22.794,13.287
						c-17.984,3.663-30.418-4.402-30.418-4.402c-0.006-0.299-0.265-6.004-1.073-31.454c-0.474-14.928-0.696-24.18,2.139-29.488
						c1.231-1.767,0.511-2.794,5.65-5.668c0,0,9.689-3.392,16.763-5.095C437.508,146.897,439.26,146.791,444.117,149.076z"/>
				</g>
			</g>
		</g>
		<g id="Character_12_">
			<g id="Bottom_00000047771008714182568010000008025744489582667161_">
				<g>
					<path style="fill:#263238;" d="M390.168,375.238c0,0,0.506,0.043,0.82,1.821c0.314,1.778,1.51,7.443,1.17,10.604
						c-3.369,3.118-10.162,3.471-14.07,2.461c-5.842-1.509-9.533,0.332-14.774,0.618c-5.242,0.286-13.482-1.235-14.504-5.482
						c-1.023-4.247,3.421-6.106,6.287-6.572c2.589-0.421,11.832-1.894,11.832-1.894L390.168,375.238z"/>
					<path style="fill:#C8856A;" d="M390.202,360.947c0,0,0.056,11.406,0.096,15.031c0.038,3.471-4.132,5.553-7.769,6.019
						c-6.208,0.796-10.998,0.632-17.711,0.672c-6.714,0.04-12.492-2.975-4.182-4.646c8.31-1.671,14.799-2.615,15.598-4.196
						c0.881-1.744-0.03-7.004-0.579-10.953L390.202,360.947z"/>
				</g>
				<g id="XMLID_00000031184015079769145770000004143066709827709826_">
					<g>
						<g id="XMLID_00000049915965063068260310000001921632763762447535_">
							<g id="XMLID_00000060723436146663096800000016168015685715797121_">
								<path id="XMLID_00000088118302068064627190000016855110254917956276_" style="fill:#263238;" d="M363.353,391.225
									c0.36,1.869,0.345,4.529,0.068,6.422c-0.567,1.405-3.241,2.693-4.443,2.975c-3.4,0.797-3.803,0.592-9.236,0.866
									c-1.485,0.075-2.935,0.169-4.383,0.513c-4.621,1.098-8.185,2.983-12.456,2.887c-6.4-0.143-11.063-2.127-13.335-5.107
									c-0.265-0.951-0.433-2.692,0.285-4.458c0.877-2.156,3.677-3.482,5.717-4.031c5.512-1.485,8.211-2.393,12.389-3.78
									c2.071-0.688,4.532-1.78,6.495-2.757c1.814-0.902,3.011-2.489,5.083-2.619c2.066-0.13,4.086,0.62,6.076,1.107
									c2.122,0.519,4.328,1.14,6.469,1.584C362.805,384.977,362.262,385.562,363.353,391.225z"/>
							</g>
						</g>
					</g>
					<path id="XMLID_00000072262126504893907990000013723361430319118764_" style="fill:#C8856A;" d="M363.699,367.236
						c-0.271,2.656-0.982,10.16-1.256,12.816c-0.225,2.182-0.279,4.414-0.379,6.606c-0.023,0.508-0.049,1.031-0.248,1.493
						c-0.32,0.746-1.028,1.21-1.721,1.576c-5.093,2.689-8.667,2.94-14.242,4.024c-3.939,0.766-8.505,1.735-11.689,1.854
						c-3.022,0.114-6.369-0.057-7.953-1.729c-0.753-0.795-0.539-2.228,2.734-3.279c3.414-1.097,6.249-1.922,9.544-3.272
						c2.002-0.82,3.862-1.559,5.996-2.822c0.982-0.581,1.714-1.073,2.32-2.088c0.412-0.689,0.606-2.163,0.604-3.273
						c-0.003-1.451-0.065-2.898-0.121-4.349c-0.095-2.464-0.18-4.929-0.281-7.393C347.007,367.4,363.712,367.104,363.699,367.236z"
						/>
				</g>
				<g>
					<path id="XMLID_00000144300024533383907130000015445690138104577191_" style="fill:#455A64;" d="M366.298,312.975
						L366.298,312.975c0.799,3.066,1.655,8.815,1.492,12.425c-0.378,8.374-0.665,10.547-1.566,20.368
						c-1.393,15.178-2.959,30.299-2.959,30.299c-0.964,0.827-2.018,1.681-9.074,2.042c-3.512,0.179-7.12-1.529-7.12-1.529
						s-3.109-24.494-4.357-35.395c-2.111-18.444-3.374-42.457-4.004-61.601c-0.616-18.722-0.531-45.639-0.531-45.639l50.271-6.124
						c0,0,5.4,8.947,4.241,25.313c-1.16,16.366-3.578,50.818-3.869,53.071c-0.29,2.253,3.085,8.956,2.96,20.803
						c-0.124,11.847-1.205,38.527-1.205,38.527s-6.252,4.526-14.964,0.629C373.959,356.444,366.298,312.975,366.298,312.975z"/>
					<path id="XMLID_00000063630407539706902650000004212813093490525586_" style="fill:#37474F;" d="M369.959,261.044
						c0,0,6.491-0.954,13.913-8.35c0,0-0.656,6.227-11.524,11.166l-3.631,49.159c1.576,6.151,2.556,17.015,1.552,22.533
						l-2.721-15.474c-0.263-2.905-0.559-4.524-1.251-7.103L369.959,261.044z"/>
				</g>
			</g>
			<g id="Top_11_">
				<path style="fill:#C8856A;" d="M444.723,189.678c-0.236-1.002-1.21-1.028-2.039-0.962c-1.462,0.117-3.184,1.195-4.206,2.255
					c-1.185,1.228-2.632,2.155-3.676,3.522c-0.945,1.238-2.473,2.1-3.862,2.768c-0.971,0.467-2.285,0.557-1.876-0.884
					c0.482-1.698,1.725-3.6,1.145-5.469c-0.4-1.292-1.42-1.219-2.158-0.325c-1.237,1.498-2.509,2.813-3.955,4.119
					c-1.438,1.299-2.998,2.427-4.396,3.764c-0.727,0.695-1.399,1.499-2.036,2.295c-1.781,2.227-4.581,2.555-7.143,3.15
					c-1.754,0.407-4.863,1-7.578,1.499c-2.4-5.362-10.612-22.028-14.246-27.346c-3.818-5.586-6.986-5.249-14.316-6.138l3.967,25.243
					c0,0,8.511,13.965,12.65,18.764c4.139,4.8,8.064,5.028,12.937,3.649c5.076-1.436,13.842-5.916,18.698-7.966
					c2.247-0.948,4.456-1.687,6.781-2.478c2.424-0.824,4.546-2.268,6.839-3.429c1.059-0.536,1.987-1.492,2.621-2.516
					c0.417-0.674,0.359-1.49,0.751-2.129c0.406-0.661,1.181-0.895,1.456-1.741c0.306-0.941-0.099-1.913,0.234-2.746
					c0.349-0.871,0.922-1.646,1.177-2.593c0.23-0.854,0.283-1.469,0.852-2.175C443.808,191.231,444.934,190.572,444.723,189.678z"/>
				<g id="XMLID_3969_">
					<path id="XMLID_3974_" style="fill:#263238;" d="M340.88,141.503c-1.385-1.411-1.537-3.781-0.933-5.664
						c0.603-1.883,1.982-3.922,6.226-6.471c5.04-3.027,19.247-5.852,26.928,3.069c1.107,1.286-11.313,28.678-10.268,34.131
						c-3.899-3.612-16.826-16.366-16.826-16.366c-2.937-1.036-4.731-1.959-5.506-4.618
						C340.28,144.827,340.192,142.859,340.88,141.503z"/>
					<g id="XMLID_3971_">
						<path id="XMLID_3973_" style="fill:#AF6152;" d="M343.503,148.864c0,0-3.46,6.555-3,7.042c0.459,0.488,2.98,1.71,2.98,1.71
							L343.503,148.864z"/>
						<path id="XMLID_3972_" style="fill:#C8856A;" d="M347.572,137.059c-2.512,1.388-4.633,3.518-5.078,9.255
							c-0.116,1.499,1.173,3.458,0.771,5.468c-1.719,8.607,1.405,15.495,3.151,16.948c1.179,0.98,7.021,1.079,10.017,0.036
							c3.749-1.305,11.801-5.574,15.377-11.79c4.205-7.313,4.695-16.818-0.724-20.277
							C363.459,131.829,350.254,135.577,347.572,137.059z"/>
						<path style="fill:#AF6152;" d="M346.694,159.494c0-0.036-0.002-0.072-0.005-0.109c-0.004-0.044-0.018-0.095-0.059-0.109
							c-0.045-0.015-0.089,0.025-0.121,0.061c-0.516,0.587-1.164,1.058-1.882,1.367c-0.164,0.07-0.341,0.14-0.442,0.287
							c-0.152,0.22-0.004,0.458,0.24,0.488c0.197,0.024,0.398-0.044,0.58-0.115c0.118-0.046,0.231-0.105,0.338-0.171
							c0.244-0.151,0.467-0.333,0.672-0.533C346.351,160.329,346.694,159.985,346.694,159.494z"/>
						<path style="fill:#C8856A;" d="M369.008,161.17l2.173,10.36l0,0c2.364,0.352,2.761,3.099,1.734,5.264l0.726,2.905
							l-15.759,3.938l-2.713-14.506L369.008,161.17z"/>
						<path style="fill:#AF6152;" d="M346.738,168.923c1.4,0.664,4.417,1.03,8.431,0.208l-0.369-2.053c0,0-1.673,0.788-3.881,1.384
							C348.725,169.054,346.763,168.925,346.738,168.923z"/>
					</g>
					<g>
						<path id="XMLID_3970_" style="fill:#263238;" d="M343.932,140.337c0.091,3.696,4.34,4.368,6.033,4.989
							c-0.522,1.103-0.709,3.225-0.402,4.388c0.488,1.845,1.294,3.331,3.173,3.832c1.15,0.307,1.45-0.21,1.795-1.123
							c0.491-1.298,1.084-3.28,3.817-3.079c3.134,0.23,4.25,4.856,2.633,8.035c-0.713,1.401-1.976,2.412-3.352,2.579
							c-1.233,0.149-2.178-0.863-2.178-0.863s1.166,5.031,6.57,7.116c0,0,2.922,2.03,8.254,0.081
							c1.877-2.548,4.119-5.208,6.372-8.947c5.207-8.641,5.388-23.873-4.549-25.972c-0.474-0.1-9.393-0.775-13.645,0.433
							C345.407,135.513,343.916,139.696,343.932,140.337z"/>
					</g>
					<path style="fill:#BA68C8;" d="M367.396,130.637c-1.093,0.926-1.898,2.238-2.035,3.665c-0.137,1.426,0.461,2.945,1.645,3.751
						c3.003,2.043,7.24-0.819,7.553-4.139C374.929,129.985,370.118,128.33,367.396,130.637z"/>
					<path style="fill:#263238;" d="M369.778,131.725c-2.794,1.964-4.338,6.285-2.595,9.221c0.476,0.801,1.117,1.502,1.523,2.341
						c1.301,2.694-0.144,5.841-0.307,8.829c-0.105,1.927,0.487,5.196,1.615,6.796c1.059,1.501,3.215,1.768,4.17,3.364
						c0.657,1.098,0.342,2.508,0.649,3.75c0.665,2.686,3.951,3.786,6.716,3.671c2.346-0.097,4.837-0.852,6.235-2.738
						c0.705-0.951,1.086-2.129,1.896-2.993c1.544-1.648,4.209-1.734,5.889-3.243c1.333-1.197,1.814-3.128,1.644-4.912
						c-0.17-1.783-0.908-3.459-1.689-5.071c-1.361-2.809-0.53-4.646-0.116-7.56c0.444-3.125-1.617-6.42-4.622-7.389
						c-2.058-0.664-4.49-0.374-6.192-1.708c-0.927-0.727-1.479-1.831-2.328-2.648C379.008,128.302,373.06,129.418,369.778,131.725z"
						/>
				</g>
				<g id="XMLID_3967_">
					<path id="XMLID_3968_" style="fill:#BA68C8;" d="M384.262,179.282c-1.723-4.564-6.608-6.721-8.076-7.048
						c-1.467-0.327-5.004-0.704-5.004-0.704c0.924,1.796-0.365,3.096-2.718,3.803c-3.038,0.913-7.718,1.292-11.042-0.627
						l-1.359-0.726c0,0-7.895,2.556-10.099,3.753c-0.673,0.366-5.6,1.322-10.785,15.263c-2.217,5.962-2.385,12.544,2.621,16.422
						c0.501,3.66,0.031,11.987,0.031,11.987c-0.278,11.593-0.541,21.023-0.541,21.023s5.462,6.493,27.958,5.687
						c21.503-0.771,27.12-9.937,27.12-9.937c-0.478-4.269-6.202-17.354-5.858-22.404
						C387.084,208.365,389.521,193.218,384.262,179.282z"/>
				</g>
			</g>
		</g>
		<g id="Character_6_">
			<g id="Bottom_00000141429075130147135170000015670842879438963625_">
				<g>
					<g>
						<g>
							<path style="fill:#263238;" d="M325.429,403.96c0.109,0.063,0.197,0.153,0.252,0.281c0.286,0.659,0.434,0.778,0.434,0.778
								c0.136,0.894,0.361,1.817-0.395,3.155c-0.409,0.724-1.612,1.633-2.346,2.003c-3.359,1.695-7.282,1.811-10.637-0.108
								c-0.759-0.434-1.484-1.175-2.051-1.852c-0.582-0.695-1.101-1.209-1.814-1.77c-0.743-0.585-1.336-0.816-1.903-1.15
								c-1.727-1.018-3.696-1.608-5.27-2.896c-1.636-1.339-2.983-3.018-3.435-5.17c-0.353-1.682-0.555-3.204-0.228-4.889
								c0.129-0.666,0.43-1.439,1.081-1.55c0.625-0.107,1.145,0.467,1.542,0.978c2.882,3.717,6.238,7.125,10.267,9.455
								c3.837,2.219,8.357,3.42,12.749,2.775C324.117,403.936,324.966,403.695,325.429,403.96z"/>
							<g id="XMLID_00000073699971485787015310000009051766911045044123_">
								<g id="XMLID_00000045611726256543328590000000889476384271291554_">
									<path id="XMLID_00000030468811241415730880000012113051369350271645_" style="fill:#37474F;" d="M319.673,410.12
										c-2.225,0.288-4.306,0.118-6.33-1.048c-1.053-0.607-1.97-1.42-2.892-2.212c-1.591-1.365-3.239-2.693-5.107-3.645
										c-0.858-0.438-1.76-0.795-2.579-1.303c-2.325-1.442-3.791-4.008-4.398-6.676c-0.287-1.262-0.401-2.588-0.095-3.845
										c0.695-2.854,3.545-4.452,6.332-4.417c1.221,0.015,2.418,0.34,3.57,0.746c0.667,0.235,1.325,0.499,1.944,0.84
										c0.484,0.266,0.943,0.578,1.442,0.813c1.101,0.519,2.177,0.482,3.356,0.461c1.76-0.031,3.519-0.108,5.28-0.125
										c1.312-0.012,3.41-0.442,4.072,1.042c0.286,0.642,0.269,1.371,0.268,2.074c-0.001,1.086,0.051,2.172,0.179,3.251
										c0.126,1.067,0.401,2.036,0.646,3.075c0.431,1.831,0.683,3.705,0.746,5.586c0.057,1.69-0.214,2.581-1.88,3.727
										C322.919,409.362,321.231,409.918,319.673,410.12z"/>
								</g>
							</g>
							<path style="fill:#263238;" d="M302.311,401.608c-0.299-1.492,0.63-6.816,3.354-9.594c2.724-2.777,5.174-3.248,5.174-3.248
								s-3.283-2.203-6.506-1.981c-3.223,0.222-6.017,1.98-6.275,5.29C297.8,395.386,298.626,399.326,302.311,401.608z"/>
						</g>
						<g id="XMLID_00000172422868935771935840000012803686888440391065_">
							<path id="XMLID_00000078002554399066345930000008129584185491876774_" style="fill:#FFA8A7;" d="M324.377,370.762
								c0,0-0.502,17.87-0.466,21.53c0.015,1.557-3.386,3.635-8.43,3.706c-3.543,0.049-5.951-1.715-6.469-3.391
								c-0.518-1.676-3.062-19.956-3.062-19.956L324.377,370.762z"/>
						</g>
					</g>
					<g>
						<g>
							<path style="fill:#263238;" d="M287.051,411.136c0.104,0.071,0.184,0.168,0.23,0.3c0.234,0.679,0.372,0.81,0.372,0.81
								c0.066,0.901,0.218,1.839-0.64,3.114c-0.464,0.69-1.734,1.502-2.496,1.814c-3.481,1.427-7.401,1.237-10.596-0.938
								c-0.722-0.492-1.388-1.287-1.9-2.006c-0.526-0.738-1.004-1.291-1.67-1.906c-0.695-0.642-1.268-0.918-1.807-1.295
								c-1.642-1.15-3.559-1.892-5.027-3.299c-1.527-1.463-2.739-3.242-3.021-5.422c-0.221-1.705-0.303-3.237,0.154-4.892
								c0.18-0.654,0.541-1.401,1.198-1.461c0.632-0.058,1.105,0.555,1.461,1.096c2.583,3.931,5.663,7.59,9.497,10.227
								c3.652,2.512,8.064,4.062,12.494,3.762C285.745,411.009,286.611,410.836,287.051,411.136z"/>
							<g id="XMLID_00000108993580069637258890000004627378493743648141_">
								<g id="XMLID_00000000927444002569495070000013585569217736831651_">
									<path id="XMLID_00000173880178939148477560000001212016814207011519_" style="fill:#37474F;" d="M280.832,416.827
										c-2.24,0.114-4.302-0.218-6.229-1.539c-1.003-0.687-1.853-1.57-2.711-2.431c-1.48-1.485-3.019-2.937-4.807-4.033
										c-0.821-0.504-1.692-0.93-2.469-1.5c-2.206-1.619-3.466-4.292-3.863-6.999c-0.188-1.28-0.198-2.612,0.206-3.841
										c0.916-2.791,3.882-4.162,6.658-3.91c1.216,0.111,2.384,0.527,3.501,1.022c0.646,0.286,1.282,0.601,1.873,0.989
										c0.461,0.303,0.895,0.65,1.374,0.923c1.057,0.603,2.133,0.65,3.31,0.721c1.757,0.106,3.517,0.167,5.273,0.288
										c1.309,0.09,3.434-0.175,3.978,1.356c0.235,0.662,0.161,1.388,0.105,2.089c-0.086,1.082-0.119,2.169-0.076,3.255
										c0.043,1.073,0.241,2.061,0.404,3.116c0.287,1.859,0.392,3.747,0.308,5.627c-0.075,1.689-0.415,2.557-2.165,3.569
										C284.127,416.325,282.401,416.748,280.832,416.827z"/>
								</g>
							</g>
							<path style="fill:#263238;" d="M264.187,406.986c-0.182-1.511,1.16-6.746,4.092-9.303c2.932-2.556,5.412-2.834,5.412-2.834
								s-3.101-2.452-6.331-2.483s-6.153,1.504-6.669,4.784C260.176,400.431,260.691,404.423,264.187,406.986z"/>
						</g>
						<g id="XMLID_00000000208289191209169960000005840820897755703206_">
							<path id="XMLID_00000134250717454585527260000011549839322653566901_" style="fill:#FFA8A7;" d="M288.594,377.957
								c0,0-1.896,17.776-2.145,21.427c-0.106,1.554-3.659,3.36-8.693,3.036c-3.536-0.228-5.799-2.174-6.185-3.885
								c-0.385-1.711-1.495-20.134-1.495-20.134L288.594,377.957z"/>
						</g>
					</g>
					<path style="fill:#263238;" d="M270.412,388.537l0.726,5.561c0,0,1.685,2.154,8.133,2.014c6.449-0.14,7.873-2.207,7.873-2.207
						l0.49-4.825L270.412,388.537z"/>
					<path style="fill:#263238;" d="M306.798,382.25l1.1,4.704c0,0,3.252,1.963,8.888,1.326c5.636-0.637,7.443-2.379,7.443-2.379
						l0.46-6.232L306.798,382.25z"/>
					<path style="fill:#37474F;" d="M325.851,342.452c-0.032-6.551-0.667-13.222-1.545-18.139c0,0-0.563-34.314,0.032-45.481
						c0.595-11.167-1.034-26.455-1.034-26.455l-56.059-0.525c0,0-1.618,23.327-1.707,45.964
						c-0.055,13.996,0.309,40.679,1.059,61.379c0.572,15.78,0.998,27.865,3.812,29.486c0,0,2.362,2.734,8.689,2.792
						c5.357,0.049,8.331-2.25,8.331-2.25c3.717-2.585,3.632-16.299,3.856-26.113c0.083-3.669,5.846-45.227,5.846-45.227
						c0.98,10.571,0.745,14.057,2.925,32.113c1.08,8.946,3.435,21.401,4.097,25.16c0.662,3.76,1.114,6.59,3.14,7.681
						c2.868,1.545,13.465,0.821,16.986-1.646c1.627-1.14,1.662-4.281,1.723-11.542C326.023,367.157,325.901,352.629,325.851,342.452
						z"/>
					<path id="XMLID_00000070823489024541707160000002099053873518093711_" style="fill:#263238;" d="M297.133,317.74l4.348-34.709
						c0,0,6.209-0.396,14.741-7.327c0,0-0.853,5.728-11.933,10.055l-5.063,33.446l-0.91,13.962
						C297.907,327.917,297.437,322.438,297.133,317.74z"/>
				</g>
			</g>
			<g id="Top_00000165920640088939676010000009399207785734880640_">
				<g id="Arm_00000110467106705265583460000017589251191091999113_">
					<path style="fill:#455A64;" d="M311.412,185.387c7.101,0.576,11.067,1.633,14.801,8.376c1.137,2.053,2.081,4.198,2.936,6.372
						c0.768,1.954,0.994,3.924,1.605,5.926c1.442,4.724,2.458,9.568,3.033,14.46c0.173,1.475,0.305,2.976,0.02,4.434
						c-0.836,4.27-4.438,8.174-7.114,11.511c-1.796,2.239-3.61,4.47-5.242,6.824c-1.074,1.549-3.277,3.778-5.45,3.761
						c-0.486-0.004-0.958-0.15-1.41-0.322c-3.588-1.366-6.285-4.385-7.968-7.73c-0.091-0.18-0.181-0.368-0.186-0.569
						c-0.008-0.297,0.169-0.565,0.339-0.812c2.786-4.054,5.573-8.107,8.359-12.161c0.518-0.753,1.05-1.545,1.152-2.443
						c0.06-0.531-0.035-1.065-0.136-1.59c-0.555-2.89-1.292-5.747-2.203-8.552c-0.47-1.445-1.014-2.859-1.545-4.283
						c-0.3-0.805-1.185-2.435-1.177-3.23L311.412,185.387z"/>
				</g>
				<g>
					<polygon id="XMLID_28792_" style="fill:#FFA8A7;" points="290.008,182.362 291.228,196.996 309.529,193.275 307.263,178.081 
											"/>
					<g id="XMLID_28787_">
						<g id="XMLID_28790_">
							<path id="XMLID_28791_" style="fill:#F28F8F;" d="M279.983,158.267c-1.08,1.932-3.692,7.102-4.33,9.426l4.318,1.773
								C280.766,165.05,281.2,160.944,279.983,158.267z"/>
						</g>
						<g id="XMLID_28788_">
							<path id="XMLID_28789_" style="fill:#FFA8A7;" d="M287.744,145.48c-5.529,0.273-10.32,6.282-7.864,15.07
								c0.125,0.446-0.185,2.466-0.42,4.277c-1.006,7.771,0.203,14.556,1.755,16.239c3.55,2.036,7.623,2.771,12.628,1.538
								c3.815-0.939,13.49-3.669,17.667-9.679c4.913-7.07,6.422-16.794,1.487-20.937C306.052,146.157,290.79,145.329,287.744,145.48
								z"/>
						</g>
						<path style="fill:#F28F8F;" d="M281.216,181.066c0.86,0.93,5.72,3.065,8.879,2.77l-0.116-1.971
							C289.979,181.865,285.565,182.395,281.216,181.066z"/>
					</g>
					<g id="XMLID_28783_">
						<g id="XMLID_28784_">
							<g id="XMLID_28785_">
								<path id="XMLID_28786_" style="fill:#263238;" d="M285.829,166.055c0.517,0.825,1.426,0.763,1.863,0.014
									c0.525-0.899,0.899-1.837,1.621-2.612c0.835-0.897,1.961-1.568,3.182-1.666c4.619-0.373,4.454,5.815,2.544,8.261
									c-3.127,4.003-5.543,1.353-5.543,1.353s-0.772,6.537,3.601,9.33c0,0,9.327,1.436,14.275-1
									c3.231-4.808,5.417-7.865,7.465-11.885c4.851-9.526,3.526-17.978-0.831-19.769c-0.255-3.069-2.616-7.368-9.26-9.018
									c-6.331-1.573-10.264-0.697-14.517,0.219c-4.254,0.916-9.219,3.706-13.727,1.006c-0.622,2.545,0.087,5.376,1.833,7.329
									c-1.357-0.369-2.928,0.504-3.33,1.851s0.432,2.939,1.768,3.375c-0.809,0.574-1.036,1.786-0.575,2.665
									c0.461,0.878,1.503,1.378,2.491,1.296c1.046-0.088,1.676-0.288,2.67-0.598c0.055,2.096,2.76,3.986,5.087,3.467
									c-0.068-0.002-0.294,0.538-0.328,0.61c-0.103,0.217-0.196,0.439-0.277,0.665c-0.163,0.452-0.282,0.921-0.355,1.396
									c-0.147,0.95-0.113,1.93,0.112,2.865C285.668,165.502,285.665,165.792,285.829,166.055z"/>
							</g>
						</g>
					</g>
				</g>
				<g>
					<path style="fill:#F0F0F0;" d="M316.938,187.37c4.597,2.629,8.025,11.296,7.618,18.499c-0.258,4.559-1.261,16.627-1.618,26.736
						c-0.117,3.307,1.567,28.441,1.567,28.441s-7.642,8.233-26.064,9.456c-21.69,1.44-32.612-4.453-32.612-4.453
						s0.676-21.302,1.33-35.298c0.97-20.756,2.924-26.812,6.236-33.85c1.093-2.079,1.573-3.749,4.983-5.058l12.121-3.124
						c5.75,0.235,15.152-0.752,17.867-3.022l-0.103-0.913C313.199,185.247,314.102,185.748,316.938,187.37z"/>
				</g>
			</g>
		</g>
		<g id="Character_00000168835842010851324990000006820647705763806615_">
			<g id="Bottom_00000182512554287364773320000003982600998222732955_">
				<g id="XMLID_00000099623891041707286590000010959008026697516676_">
					<g>
						<path style="fill:#37474F;" d="M225.555,412.527c-0.105,0.069-0.187,0.165-0.235,0.296c-0.247,0.675-0.13,1.46-0.056,2.153
							c0.085,0.805,0.319,1.475,0.878,2.072c0.568,0.607,1.309,1.012,2.064,1.338c3.454,1.492,7.584,1.606,10.819-0.509
							c0.731-0.478,1.355-0.966,1.881-1.676c0.54-0.728,1.019-1.507,1.638-2.169c0.453-0.485,0.972-0.897,1.518-1.264
							c1.663-1.119,3.594-1.825,5.088-3.204c1.554-1.434,2.799-3.19,3.122-5.365c0.253-1.7,0.364-3.231-0.062-4.894
							c-0.168-0.657-0.514-1.411-1.171-1.483c-0.631-0.07-1.116,0.534-1.481,1.068c-2.656,3.882-5.804,7.483-9.688,10.047
							c-3.699,2.443-8.139,3.91-12.562,3.527C226.863,412.425,226.001,412.235,225.555,412.527z"/>
						<g id="XMLID_00000024000053999476336230000015418135758196813747_">
							<g id="XMLID_00000089570186236093093250000008076643459145505172_">
								<path id="XMLID_00000026858130896621505360000009986159372247703962_" style="fill:#455A64;" d="M231.553,417.89
									c2.238,0.156,4.418,0.307,6.37-0.978c1.015-0.668,1.882-1.535,2.756-2.38c1.507-1.457,3.074-2.88,4.881-3.942
									c0.831-0.488,1.709-0.898,2.497-1.454c2.236-1.577,3.546-4.226,3.994-6.925c0.212-1.276,0.247-2.608-0.134-3.844
									c-0.863-2.808-3.803-4.234-6.583-4.034c-1.218,0.088-2.394,0.482-3.52,0.956c-0.651,0.274-1.293,0.577-1.891,0.953
									c-0.467,0.294-0.906,0.633-1.391,0.897c-1.068,0.583-2.145,0.61-3.323,0.659c-2.564,0.107-5.159,0.117-7.715,0.36
									c-1.313,0.125-1.077,1.907-1.096,2.859c-0.016,0.823-0.044,0.84-0.064,1.663c-0.04,1.704-0.708,3.364-0.999,5.038
									c-0.322,1.854-0.462,3.739-0.414,5.62c0.043,1.69,0.623,2.543,2.1,3.382C228.404,417.506,229.985,417.78,231.553,417.89z"/>
							</g>
						</g>
						<path style="fill:#FAFAFA;" d="M251.057,405.441c-0.023-3.901-5.842-8.983-11.597-8.651c1.106-1.875,4.918-3.138,8.076-2.459
							C250.693,395.01,254.464,398.1,251.057,405.441z"/>
					</g>
					<path id="XMLID_00000070807890202851711120000009886819714017070758_" style="fill:#FFC4C3;" d="M224.651,376.93l2.354,22.97
						c0.046,1.552,3.326,3.487,8.075,3.357c3.335-0.092,5.532-1.944,5.955-3.635c0.422-1.69,2.875-22.374,2.875-22.374
						L224.651,376.93z"/>
				</g>
				<g>
					<polygon style="fill:#FFC4C3;" points="180.66,380.469 184.858,362.246 201.752,368.439 190.319,389.55 					"/>
					<g>
						<path id="XMLID_00000052807120370733308410000005184753832040524452_" style="fill:#455A64;" d="M174.479,385.38
							c-0.388,1.539-0.016,3.157,0.178,4.703c0.195,1.557,0.407,3.086,0.51,4.655c0.064,0.982,0.151,1.887,0.365,2.836
							c0.24,1.066,0.085,2.329,0.101,3.419c0.017,1.196,0.034,2.392,0.039,3.588c0.002,0.468,0.1,1.072-0.019,1.531
							c-0.128,0.494,7.529,4.979,10.62,6.708c0.179,0.103,0.358,0.183,0.56,0.275c2.826,1.141,5.054-1.135,5.054-1.135
							c2.238-5.765-2.005-9.453-2.005-9.453s-0.394,0.019-0.287-3.02c0.02-2.163,0.068-4.36,0.293-6.512
							c0.143-1.361,0.706-1.792,1.232-3.043c0.481-1.146,1.391-2.354,1.354-3.642c-0.029-1.033-0.877-2.613-1.357-3.454
							c-1.115-1.953-3.591-3.58-5.589-4.498c-1.138-0.523-2.995-1.101-4.175-0.401c-0.637,0.378-0.942,1.12-1.401,1.701
							c-0.543,0.688-1.309,1.155-2.036,1.645c-1.406,0.948-2.785,2.119-3.329,3.725C174.546,385.133,174.51,385.256,174.479,385.38z
							"/>
						<path id="XMLID_00000116950836051508835370000017948314200032277425_" style="fill:#FAFAFA;" d="M189.882,402.508
							c0.378,0.477,0.711,0.964,0.988,1.462l0.011,0c1.351,2.365,1.663,5.036,1.005,7.991c5.441-0.444,6.9-3.571,6.9-3.571
							s0.329-2.71-2.781-4.709c-0.392-0.251-0.784-0.469-1.176-0.63c-0.022-0.011-0.045-0.023-0.056-0.034
							C192.15,401.877,189.882,402.508,189.882,402.508z"/>
						<path id="XMLID_00000031921865999786717340000011240001661065491364_" style="fill:#263238;" d="M173.204,386.217
							c-1.436,0.54-1.105,4.47-0.234,8.258c0.871,3.788,1.346,5.111,0.858,8.25c-0.488,3.139-0.765,4.545,0.505,5.71
							c1.271,1.165,11.423,6.023,11.423,6.023s-1.964-4.859-2.166-11.829c-0.203-6.97-0.626-11.462-3.829-14.659
							C176.558,384.772,173.204,386.217,173.204,386.217z"/>
						<path id="XMLID_00000160889345653303753050000017824120247651948458_" style="fill:#37474F;" d="M198.79,408.387
							c0,0-3.99,3.161-8.545,3.635c-4.555,0.475-4.765-1.276-5.194-6.673c-0.428-5.397-0.543-12.856-2.636-16.159
							c-2.092-3.304-5.651-4.793-7.059-4.473c-0.287-0.152-1.691,0.877-2.152,1.501c0,0,3.12-0.36,5.936,2.445
							c2.815,2.805,3.28,8.676,3.36,14.008c0.08,5.333,0.257,11.513,4.497,12.202c4.24,0.689,8.769-1.09,11.606-3.411
							C200.236,410.127,198.79,408.387,198.79,408.387z"/>
						<g>
							<path id="XMLID_00000040543400174261991320000012843413699947132056_" style="fill:#FAFAFA;" d="M189.578,400.523
								c0,0,0.564,0.378,0.62,0.993c0.056,0.615-0.209,2.024-1.569,2.784c-0.576,0.322-1.067,0.188-0.132-0.926
								C189.431,402.26,189.578,400.523,189.578,400.523z"/>
							<path id="XMLID_00000114782657769458250060000012969782658997173420_" style="fill:#FAFAFA;" d="M189.703,396.77
								c0,0,0.356,0.332,0.377,0.82c0.021,0.487-0.895,2.485-1.899,2.921c-1.004,0.435-0.455-0.662,0.011-1.17
								C188.659,398.832,189.703,396.77,189.703,396.77z"/>
							<path id="XMLID_00000176034746206357450380000011802145505564546480_" style="fill:#FAFAFA;" d="M189.989,392.64
								c0,0,0.443,0.236,0.465,0.672c0.021,0.436-2.044,1.954-2.684,1.897c-0.64-0.057-0.792-0.264,0.007-0.795
								C188.577,393.884,189.989,392.64,189.989,392.64z"/>
						</g>
					</g>
				</g>
				<path id="XMLID_00000142871367055858301790000016602796987303803057_" style="fill:#37474F;" d="M196.902,378.532
					c0,0,3.425-6.042,13.461-26.542c5.436-11.104,7.032-16.88,7.878-21.022c0.846-4.142,1.307-15.544,1.307-15.544l2.564,20.483
					c-0.909,5.435-2.329,16.189-0.663,27.274c2.055,13.669,4.238,30.336,4.238,30.336c1.129,0.87,5.426,1.666,8.362,1.452
					c7.346-0.536,8.703-3.514,8.703-3.514s3.561-28.793,4.486-38.265c2.174-22.266,2.799-27.519,4.141-53.184
					c1.135-21.716-0.802-35.18-6.722-54.702c-15.959,7.056-37.533,5.497-46.366-2.528c0,0-8.942,15.732-8.798,31.092
					c0.15,16.076,1.939,52.742,1.939,52.742c-3.631,7.642-4.945,14.729-6.254,23.939c-1.172,8.251-2.564,19.914-2.564,19.914
					C191.704,370.319,196.902,378.532,196.902,378.532z"/>
				<path style="fill:#263238;" d="M241.375,270.903c-0.801-7.693-2.274-15.492-4.89-22.83c0.418-0.104,0.834-0.215,1.249-0.329
					c2.972,7.384,4.566,15.163,5.434,23.076c3.924-0.863,4.705-6.402,4.608-9.729c-0.058-1.984-0.349-3.951-0.672-5.907
					c-0.223-1.347-0.553-2.74-0.781-4.135c1.087,3.912,2.008,7.629,2.753,11.263c-0.007,0.149,0.001,0.298-0.009,0.448
					c-0.233,3.583-1.848,8.53-5.769,9.397c0.747,7.504,0.892,15.111,0.979,22.598c0.235,20.065-0.381,40.137-1.84,60.15
					c-0.67,9.191-2.842,30.19-4.136,39.345c-0.524,0.152-1.098,0.292-1.747,0.409c0.671-7.999,3.163-27.684,3.785-35.687
					c0.769-9.887,1.333-19.79,1.692-29.701c0.373-10.303,0.53-20.616,0.466-30.926C242.44,289.195,242.323,280.012,241.375,270.903z
					"/>
				<path style="fill:#263238;" d="M244.657,245.305l-1.226-7.756c0,0-10.445,5.716-22.807,4.858
					c-12.362-0.858-20.466-7.367-20.466-7.367l-1.867,7.737c0,0,5.185,7.757,22.381,7.671
					C237.868,250.362,244.657,245.305,244.657,245.305z"/>
				<path id="XMLID_00000020379697338323243400000007725271423382015636_" style="fill:#263238;" d="M219.548,315.424l-4.035-34.289
					c0,0-5.7,0.335-14.411-7.458c0,0,1.34,6.552,10.733,11.124l5.019,29.453l1.386,16.712
					C219.046,325.357,219.449,321.194,219.548,315.424z"/>
			</g>
			<g id="Top">
				<path style="fill:#FFC4C3;" d="M205.637,188.528c-7.017,0.002-10.529,0.532-17.243,10.089
					c-5.564,7.922-12.773,18.183-12.773,18.183s-14.768-6.117-18.316-8.703c-3.548-2.586-1.926-3.76-3.118-8.788
					c-0.981-4.139,0.137-6.017-0.809-7.202c-0.765-0.957-3.066,0.059-3.242,5.385c-0.029,0.866-0.063,3.167-1.407,3.107
					c-1.116-0.05-1.746-1.637-2.081-2.447c-1.615-3.899-0.621-8.561-2.976-12.203c-0.206-0.319-0.451-0.635-0.797-0.791
					c-0.346-0.156-0.815-0.097-1.021,0.222c-0.088,0.136-0.118,0.301-0.143,0.461c-0.326,2.133,0.055,4.337-0.366,6.454
					c-0.312,1.564-1.06,3.088-0.877,4.672c0.073,0.633,0.294,1.246,0.311,1.883c0.024,0.885-0.344,1.729-0.487,2.603
					c-0.343,2.107,0.96,4.195,1.775,6.065c0.873,2.003,2.033,3.843,3.424,5.527c0.561,0.679,5.617,4.245,6.961,5.195
					c3.27,2.312,12.383,8.239,18.778,11.902c5.731,3.283,8.291,3.889,13.031-0.842c6.096-6.083,13.032-13.958,13.032-13.958
					L205.637,188.528z"/>
				<g id="XMLID_00000025434614360838700340000013049557335510741950_">
					<g>
						<path id="XMLID_00000085246945787243830390000005574639222534227122_" style="fill:#FFA8A7;" d="M243.043,162.928
							c0,0,3.325,6.849,2.794,7.325c-0.532,0.476-2.814,0.729-2.814,0.729L243.043,162.928z"/>
						<path id="XMLID_00000048498159307729451940000002119486579843760305_" style="fill:#FFC4C3;" d="M235.53,146.293
							c2.65,1.88,7.416,4.133,8.422,12.717c0.174,1.48-0.717,3.593-0.763,5.413c-0.052,2.045,0.485,4.404,0.29,6.02
							c-1.019,8.43-3.927,11.304-5.585,12.462c-1.333,0.93-7.424,0.436-10.428-0.991c-3.758-1.786-11.672-7.194-14.714-14.231
							c-3.578-8.279-3.05-18.528,2.968-21.683C224.187,141.558,232.901,144.427,235.53,146.293z"/>
						<g>
							<path style="fill:#FFA8A7;" d="M240.26,173.736C240.26,173.736,240.26,173.735,240.26,173.736
								C240.256,173.714,240.249,173.685,240.26,173.736z"/>
							<path style="fill:#FFA8A7;" d="M242.104,174.573c-0.141-0.088-0.305-0.132-0.453-0.209c-0.016-0.008-0.032-0.018-0.049-0.026
								c-0.023-0.015-0.047-0.029-0.069-0.043c-0.058-0.038-0.114-0.078-0.168-0.121c-0.046-0.036-0.087-0.078-0.133-0.113
								c-0.004-0.003-0.001,0-0.008-0.007c-0.011-0.011-0.021-0.022-0.032-0.033c-0.029-0.029-0.059-0.057-0.087-0.087
								c-0.111-0.115-0.197-0.249-0.304-0.367c-0.089-0.098-0.252-0.154-0.378-0.115c-0.118,0.036-0.19,0.161-0.162,0.284
								c0.001,0.005,0.002,0.01,0.003,0.013c0.007,0.043,0.022,0.083,0.04,0.122c0.04,0.089,0.095,0.173,0.147,0.256
								c0.044,0.069,0.09,0.137,0.141,0.201c0.114,0.147,0.259,0.277,0.403,0.394c0.144,0.117,0.3,0.214,0.463,0.303
								c0.195,0.107,0.397,0.194,0.621,0.209c0.146,0.01,0.293-0.1,0.293-0.254C242.371,174.8,242.25,174.664,242.104,174.573z"/>
						</g>
						<path style="fill:#F28F8F;" d="M237.538,183.08c-1.529,0.569-5.589,0.296-8.513-0.584l-0.329-2.566
							c0,0,2.308,1.359,4.541,2.225C235.456,183.016,237.512,183.079,237.538,183.08z"/>
					</g>
					<path id="XMLID_00000115486350379647280970000010264437180070208689_" style="fill:#F0997A;" d="M240.642,143.161
						c0.268,0.087,0.533,0.186,0.785,0.319c1.375,0.729,2.558,1.814,3.435,3.098c1.322,1.936,1.96,4.297,1.993,6.641
						c0.021,1.485-0.219,3.04-1.095,4.239c-0.911,1.248-2.389,1.952-3.864,2.412c0.908-1.348,0.923-3.24,0.036-4.602
						c-0.014,1.8-0.259,4.107-1.431,5.37c-1.068,1.151-2.437,1.883-3.54,2.035c0.357,1.137,0.324,2.393-0.09,3.51
						c-0.12,0.324-0.281,0.648-0.552,0.862c-0.747,0.587-1.462-0.219-1.819-0.833c-0.243-0.419-0.418-0.874-0.653-1.297
						c-0.694-1.251-1.115-1.916-2.85-2.505c-1.246-0.423-3.186,0.333-3.752,1.355c-1.192,2.152-0.813,4.801-0.236,6.088
						c0.772,1.722,1.853,2.81,3.075,3.058c0.616,0.125,2.127,0.07,2.762-0.698c0,0-2.21,6.667-8.139,8.047
						c0,0-6.423,0.715-11.617-2.195c-0.582-0.326-1.281-2.316-1.647-2.922c-0.704-1.166-1.44-2.313-2.178-3.459
						c-1.231-1.911-1.939-3.819-2.775-5.925c-1.779-4.478-1.683-9.444-0.694-14.228c0.74-3.579,3.974-7.118,3.974-7.118
						c1.322-1.447,2.164-2.967,3.837-4.135c1.616-1.128,3.457-1.91,5.364-2.393c4.09-1.037,8.499-0.752,12.5,0.534
						c2.305,0.741,4.505,1.83,6.454,3.269c0.451,0.333,0.874,0.766,1.372,1.005C239.721,142.896,240.186,143.012,240.642,143.161z"
						/>
				</g>
				<g>
					<path id="XMLID_00000000913822481626625030000014985142725685974166_" style="fill:#BA68C8;" d="M198.659,195.369
						c1.742-4.715,3.629-7.741,12.785-6.432l1.277,0.164c3.23,0.789,7.788,1.503,16.141,2.958c1.039,0.294,7.957,1.565,9.604,1.948
						c0,0,7.431,3.312,8.863,20.615c0.383,4.625-1.271,26.897-1.271,26.897s-9.596,7.681-28.728,5.581
						c-16.346-1.794-20.946-8.979-22.3-11.602c0,0,1.056-4.656,1.879-11.32C196.675,214.332,193.567,209.147,198.659,195.369z"/>
				</g>
				<path style="fill:#F0997A;" d="M209.959,144.202c0,0-6.951,0.112-8.657,12.023c-0.988,6.898-0.361,15.962-2.421,24.556
					c-1.037,4.327-2.442,8.344-2.322,12.865c0.12,4.532,1.357,9.042,3.643,12.963c0.596-2.15,1.191-4.301,1.787-6.451
					c-0.668,2.96,0.074,6.111,1.533,8.771s3.589,4.889,5.829,6.937c0.408-2.175,1.027-4.311,1.846-6.366
					c0.679,1.545,0.946,3.269,0.767,4.947c1.921-0.919,3.557-2.422,4.635-4.258c0.018,1.151,0.036,2.303,0.054,3.454
					c0.003,0.184,0.01,0.38,0.118,0.529c0.206,0.28,0.632,0.23,0.968,0.142c4.03-1.046,14.169-11.719,16.189-20.961l5.873,1.24
					c0,0,0.801-1.858-1.73-6.046c-2.532-4.187-4.316-5.873-5.212-16.324c-2.15,3.107-7.96,5.858-11.404,2.254
					C217.911,170.768,209.959,144.202,209.959,144.202z"/>
			</g>
		</g>
		<g id="Arm_19_">
			<path style="fill:#FFA8A7;" d="M262.849,243.433c2.453-0.801,4.272-3.629,7.834-10.9c4.439-9.061,6.823-11.089,10.101-20.364
				c2.746-6.794-0.188-17.313-3.11-19.647c-6.548,1.914-10.345,4.917-14.09,12.575c-3.368,6.886-8.361,17.203-11.424,23.311
				c-2.944,0.615-5.893,1.201-8.846,1.77c-2.431,0.468-4.865,0.923-7.306,1.338c-2.581,0.439-5.218,1.063-7.689-0.149
				c-0.817-0.401-1.798-0.874-2.491-1.457c-0.883-0.743-1.73-1.498-2.686-2.153c-1.866-1.28-3.919-2.287-6.076-2.972
				c-0.159-0.05-0.327-0.1-0.49-0.062c-0.728,0.167-0.502,1.441-0.266,1.889c0.774,1.465,2.338,2.502,3.467,3.695
				c0.218,0.23,0.449,0.549,0.311,0.834c-0.118,0.245-0.438,0.303-0.709,0.307c-1.917,0.028-3.658-1.044-5.248-2.114
				c-1.59-1.07-3.255-2.216-5.166-2.368c-0.761-0.061-1.532,0.042-2.288-0.066c-0.759-0.108-1.486-0.426-2.253-0.446
				c-0.767-0.021-1.642,0.398-1.755,1.157c-0.125,0.842,0.729,1.548,0.765,2.398c0.025,0.596-0.355,1.137-0.416,1.73
				c-0.114,1.111,0.864,1.984,1.463,2.927c0.411,0.647,0.66,1.388,1.09,2.022c0.506,0.748,1.234,1.312,1.949,1.863
				c1.03,0.792,2.061,1.586,3.162,2.275c1.085,0.679,2.232,1.253,3.384,1.811c5.714,2.765,12.187,2.809,18.398,2.54
				c3.376-0.146,6.754-0.268,10.13-0.409c4.166-0.174,8.333-0.356,12.496-0.602c2.487-0.147,5.199-0.093,7.633-0.697
				C262.766,243.458,262.808,243.447,262.849,243.433z"/>
			<path style="fill:#455A64;" d="M278.113,191.743c-4.716,1.288-11.355,3.242-15.068,11.427
				c-3.133,6.908-11.227,24.557-11.227,24.557l-9.871,2.713c0,0-2.527,3.14-1.578,7.967c0.909,4.623,2.944,6.711,2.944,6.711
				s5.046-0.106,13.648-0.349c8.472-0.24,9.233-2.228,11.143-5.95c1.911-3.722,13.632-26.222,13.632-26.222
				S285.675,198.52,278.113,191.743z"/>
		</g>
		<g id="Arm_00000114056473073095221930000003322194301617254070_">
			<path style="fill:#C8856A;" d="M348.892,181.644c-0.943-1.876-3.811-4.098-3.811-4.098c-12.089,5.14-11.18,15.303-11.393,25.036
				c-0.213,9.733-1.135,20.661-1.135,20.661c-3.902,2.152-9.771,4.97-14.048,6.249c-3.039,0.909-5.133,1.386-8.056,0.409
				c-1.041-0.348-1.932-0.852-2.957-1.139c-1.93-0.541-3.873-0.894-5.804-1.248c-1.931-0.354-3.678-0.933-5.529-1.505
				c-1.102-0.341-2.002,0.11-1.726,1.416c0.393,1.863,2.378,2.851,3.555,4.135c0.995,1.086-0.128,1.625-1.233,1.731
				c-1.583,0.152-3.171,0.154-4.776-0.389c-1.606-0.544-3.246-0.75-4.999-1.147c-1.509-0.341-3.301-0.416-4.81,0.247
				c-0.848,0.372-1.5,0.893-1.351,1.878c0.049,0.325,0.39,0.549,0.605,0.669c0.215,0.12,0.311,0.122,0.486,0.177
				c0.174,0.055,0.184,0.047,0.377,0.098c0.193,0.05,0.56,0.107,0.763,0.194c0.805,0.346,1.209,0.834,1.834,1.456
				c0.625,0.623,1.57,1.06,2.265,1.639c0.695,0.579,0.895,1.65,1.54,2.226c0.645,0.577,1.43,0.412,2.128,0.788
				c0.698,0.376,0.988,1.079,1.714,1.445c1.101,0.555,2.266,0.877,3.53,0.824c2.723-0.114,5.042-0.153,7.822-0.565
				c2.78-0.412,4.572-0.749,7.822-0.946c7.05-0.428,20.204-1.915,32.448-6.852c4.695-1.893,4.372-5.395,5.278-11.689
				c1.155-8.024,2.284-21.429,2.078-26.747C351.219,189.217,351.397,186.63,348.892,181.644z"/>
		</g>
		<g id="Arm_00000042707132630557306290000000522719628581375916_">
			<path style="fill:#37474F;" d="M407.292,155.231c-7.338,2.114-8.909,2.676-12.121,15.404c-1.777,7.044-7.03,29.819-7.03,29.819
				l10.897,11.308c0,0,3.647,1.269,6.436-6.112c2.729-7.221,8.726-22.445,8.726-22.445S415.096,159.865,407.292,155.231z"/>
			<path style="fill:#FFBDA7;" d="M401.573,210.882c-2.809,2.196-12.168,0.177-16.642-4.019
				c-4.474-4.196-14.217-17.153-17.762-21.185c-3.546-4.031-5.264-2.13-8.467-3.372c-3.203-1.242-4.419-1.482-7.021-2.92
				c-3.341-1.846-6.376-1.838-9.284-0.548c-0.127-2.323,3.907-3.432,7.737-4.333c3.83-0.901,6.036-0.643,10.367-0.885
				c3.944-0.221,7.244,0.074,11.465,2.919c4.661,3.142,12.666,8.967,17.239,11.882c4.913,3.131,9.219,6.047,12.117,11.342
				C403.454,203.66,403.138,209.658,401.573,210.882z"/>
		</g>
		<path id="Arm_00000032625823038211399650000012691510416398158981_" style="fill:#FFC4C3;" d="M235.994,192.474
			c11.565,0.595,12.925,3.817,20.824,10.649c7.749,6.703,16.865,14.299,16.865,14.299s23.188-3.895,24.926-4.578
			c1.738-0.683,3.54-2.416,4.614-3.646c0.988-1.131,2.027-2.44,3.276-3.279c1.034-0.695,2.031-1.444,2.998-2.229
			c0.86-0.698,2.085-1.679,2.192,0.141c0.057,0.959-0.207,2.019-0.721,2.839c-0.337,0.537-0.827,0.938-1.194,1.443
			c-0.37,0.509-0.685,1.099-0.965,1.663c-0.972,1.953,1.771,1.664,3.029,1.595c1.944-0.107,3.863-0.68,5.399-1.847
			c1.412-1.073,3.069-2.58,4.836-1.229c0.079,0.06,0.164,0.128,0.263,0.127c0.082-0.001,0.155-0.05,0.223-0.098
			c0.76-0.534,1.953-0.75,2.843-0.393c0.329,0.132,0.639,0.38,0.722,0.725c0.206,0.847-0.818,1.557-0.845,2.402
			c-0.007,0.222,0.049,0.44,0.076,0.66c0.113,0.896-0.243,1.791-0.736,2.548c-0.492,0.756-1.121,1.414-1.646,2.149
			c-0.221,0.309-0.425,0.634-0.55,0.993c-0.571,1.634-1.344,2.599-2.784,3.685c-2.627,1.981-5.694,3.367-8.908,4.063
			c-3.358,0.728-6.744-0.357-10.127,0.028c-2.171,0.248-18.973,7.204-29.192,9.611c-2.125,0.501-4.91-0.789-6.938-1.948
			c-4.108-2.347-16.321-12.011-24.181-18.099C229.649,203.791,235.994,192.474,235.994,192.474z"/>
		<g id="Arm">
			<path style="fill:#F0F0F0;" d="M165.261,172.776c8.451,3.191,11.565,6.179,16.646,18.698c2.805,6.911,10.49,24.416,10.49,24.416
				l-10.187,12.498c0,0-3.624,1.609-7.106-5.706c-3.407-7.157-13.154-23.922-13.154-23.922S156.317,177.712,165.261,172.776z"/>
			<path style="fill:#B16668;" d="M178.864,227.446c2.983,2.482,13.229,0.595,18.234-3.82c5.005-4.415,16.031-18.186,20.021-22.453
				c3.99-4.267,5.796-2.143,9.32-3.387c3.525-1.245,4.856-1.466,7.734-2.943c3.695-1.897,5.861-1.696,9.925-1.109
				c-1.904-3.55-3.945-3.041-8.081-4.147c-4.136-1.107-6.544-0.899-11.247-1.306c-4.282-0.371-7.882-0.16-12.567,2.795
				c-5.174,3.263-14.073,9.333-19.144,12.352c-5.447,3.243-10.228,6.272-13.555,11.935
				C177.057,219.529,177.202,226.063,178.864,227.446z"/>
		</g>
		<g id="Arm_00000051369197187189462410000002140170472796548737_">
			<path style="fill:#FFA8A7;" d="M162.346,170.287c-0.564-0.259-0.975-0.807-1.53-1.106c-0.396-0.213-0.862-0.293-1.306-0.222
				c-0.506,0.08-0.97,0.347-1.479,0.405c-0.505,0.058-1.014-0.094-1.521-0.061c-0.435,0.028-0.849,0.191-1.253,0.354
				c-1.763,0.712-3.506,1.475-5.225,2.287c-1.145,0.541-2.252,1.202-3.322,1.871c-1.127,0.705-2.153,1.565-3.078,2.518
				c-3.53,3.637-16.849,16.073-17.226,16.45c0,0-2.41-3.539-8.363-11.978c-5.953-8.439-10.927-15.629-18.398-16.908
				c-8.804,7.179,0.255,21.922,0.255,21.922s10.143,12.878,17.121,20.564c4.782,5.267,7.147,7.002,10.762,5.462
				c3.615-1.54,8.324-6.579,10.821-10.15c3.169-4.532,8.575-13.974,10.956-18.188c2.381-4.214,4.475-2.896,7.169-4.155
				c2.806-1.311,3.3-2.518,5.33-4.269c1.329-1.147,3.483-1.784,5.265-1.323c0.943,0.244,1.919,0.723,1.919,0.723
				c-0.441-1.043-1.379-1.896-2.278-2.584c-0.948-0.725-2.074-1.348-3.296-1.425c-0.38-0.024-0.77,0.002-1.133-0.113
				C162.47,170.339,162.407,170.315,162.346,170.287z"/>
			<path style="fill:#37474F;" d="M99.536,163.021c3.884,1.007,7.195,3.237,8.745,4.755c1.55,1.518,4.734,5.551,4.734,5.551
				s-5.752,1.838-8.331,6.687c-2.579,4.849-2.48,9.39-2.48,9.39s-1.307-1.314-3.602-4.212
				C96.307,182.295,91.051,169.076,99.536,163.021z"/>
		</g>
	</g>
</g>
</svg>
